<?xml version="1.0" encoding="UTF-8"?>
<!DOCTYPE svg PUBLIC "-//W3C//DTD SVG 1.1//EN" "http://www.w3.org/Graphics/SVG/1.1/DTD/svg11.dtd">
<!-- Creator: CorelDRAW X7 -->
<svg xmlns="http://www.w3.org/2000/svg" xml:space="preserve" width="169.333mm" height="169.333mm" version="1.1" style="shape-rendering:geometricPrecision; text-rendering:geometricPrecision; image-rendering:optimizeQuality; fill-rule:evenodd; clip-rule:evenodd"
viewBox="0 0 169333 169333"
 xmlns:xlink="http://www.w3.org/1999/xlink">
 <defs>
  <style type="text/css">
   <![CDATA[
    .fil0 {fill:#41644A}
   ]]>
  </style>
 </defs>
 <g id="Layer_x0020_1">
  <metadata id="CorelCorpID_0Corel-Layer"/>
  <path class="fil0" d="M96028 52924c4620,0 8366,3746 8366,8366 0,4621 -3746,8367 -8366,8367 -4621,0 -8367,-3746 -8367,-8367 0,-4620 3746,-8366 8367,-8366zm-16 727c4202,0 7609,3408 7609,7610 0,4203 -3407,7610 -7609,7610 -4203,0 -7610,-3407 -7610,-7610 0,-4202 3407,-7610 7610,-7610z"/>
  <path class="fil0" d="M77522 51021c264,-1484 986,-2327 2906,-2570l16654 40c16166,-38 17732,16098 8712,22774 9166,4111 9381,14276 5431,20542 -2741,3908 -7622,6066 -15425,5836l-14767 0c-2079,123 -3361,-695 -3511,-2851l0 -25890 10713 -3148c1540,2694 4441,4509 7767,4509 4938,0 8941,-4003 8941,-8941 0,-4938 -4003,-8941 -8941,-8941 -4938,0 -8941,4003 -8941,8941 0,107 2,213 6,319l-9545 2804 0 -13424zm22281 24073c-862,1724 -2003,2515 -3436,2327 -580,-958 1504,-2958 3436,-2327zm-4985 -389c143,147 283,340 404,539 113,188 203,428 302,571l279 931c-96,642 -92,795 -1087,539 -289,-74 -375,-176 -558,-313 -1567,-690 -2008,-2012 -2269,-3165 1015,-49 2189,134 2929,898zm-1018 3914c912,261 1631,583 2679,363 513,-108 999,-265 1498,-402 389,-126 795,-212 1200,-252 618,-76 1161,-49 1642,110 1,0 2,0 2,0 535,141 1010,392 1364,768 2921,3097 162,11736 -3984,12895 -380,106 -1537,-111 -1751,-143 -728,-107 -1153,43 -1886,273 -2457,773 -7406,-6710 -6198,-11290 283,-866 526,-1171 1071,-1748 965,-1023 2818,-1125 4363,-574z"/>
 </g>
</svg>
