<?xml version="1.0" encoding="UTF-8"?>
<!DOCTYPE svg PUBLIC "-//W3C//DTD SVG 1.1//EN" "http://www.w3.org/Graphics/SVG/1.1/DTD/svg11.dtd">
<!-- Creator: CorelDRAW X7 -->
<svg xmlns="http://www.w3.org/2000/svg" xml:space="preserve" width="529167px" height="529167px" version="1.1" style="shape-rendering:geometricPrecision; text-rendering:geometricPrecision; image-rendering:optimizeQuality; fill-rule:evenodd; clip-rule:evenodd"
viewBox="0 0 529167 529167"
 xmlns:xlink="http://www.w3.org/1999/xlink">
 <defs>
  <style type="text/css">
   <![CDATA[
    .fil0 {fill:#41644A}
   ]]>
  </style>
 </defs>
 <g id="Layer_x0020_1">
  <metadata id="CorelCorpID_0Corel-Layer"/>
  <path class="fil0" d="M241211 137926c-3385,0 -6129,2744 -6129,6129 0,3386 2744,6130 6129,6130 3385,0 6129,-2744 6129,-6130 0,-3385 -2744,-6129 -6129,-6129zm-12 533c-3079,0 -5574,2496 -5574,5575 0,3079 2495,5575 5574,5575 3079,0 5575,-2496 5575,-5575 0,-3079 -2496,-5575 -5575,-5575z"/>
  <path class="fil0" d="M227654 136532l0 9835 6992 -2055c-2,-78 -4,-155 -4,-233 0,-3618 2933,-6550 6550,-6550 3618,0 6550,2932 6550,6550 0,3617 -2932,6550 -6550,6550 -2436,0 -4562,-1330 -5690,-3304l-7848 2306 0 18968c109,1579 1049,2178 2571,2089l10819 0c5717,168 9292,-1413 11301,-4276 2893,-4590 2736,-12038 -3979,-15049 6608,-4891 5461,-16712 -6383,-16684l-12200 -30c-1407,178 -1936,796 -2129,1883zm16323 17636c-1416,-462 -2942,1003 -2518,1705 1050,138 1886,-442 2518,-1705zm-3652 -285c-542,-560 -1403,-694 -2146,-658 191,845 514,1813 1662,2319 134,100 197,175 409,229 729,187 726,75 797,-394l-205 -683c-72,-105 -138,-281 -221,-418 -89,-146 -192,-287 -296,-395zm-746 2867c-1132,-403 -2490,-328 -3196,420 -399,424 -578,647 -785,1281 -885,3355 2740,8838 4541,8272 537,-169 848,-279 1382,-200 156,23 1004,182 1282,104 3037,-849 5059,-7177 2919,-9447 -260,-275 -607,-459 -999,-562 -1,0 -1,0 -2,0 -352,-117 -750,-137 -1203,-81 -296,30 -594,92 -879,185 -365,100 -722,215 -1097,294 -768,162 -1295,-75 -1963,-266z"/>
 </g>
</svg>
