<?xml version="1.0" encoding="UTF-8"?>
<!DOCTYPE svg PUBLIC "-//W3C//DTD SVG 1.1//EN" "http://www.w3.org/Graphics/SVG/1.1/DTD/svg11.dtd">
<svg xmlns="http://www.w3.org/2000/svg" version="1.1" width="273px" height="574px" style="shape-rendering:geometricPrecision; text-rendering:geometricPrecision; image-rendering:optimizeQuality; fill-rule:evenodd; clip-rule:evenodd" xmlns:xlink="http://www.w3.org/1999/xlink">
<g><path style="opacity:1" fill="#d0d0d0" d="M 37.5,6.5 C 104.5,6.5 171.5,6.5 238.5,6.5C 238.918,7.22158 239.584,7.72158 240.5,8C 240.272,8.39877 239.938,8.56544 239.5,8.5C 169.5,8.5 99.5,8.5 29.5,8.5C 32.1667,7.83333 34.8333,7.16667 37.5,6.5 Z"/></g>
<g><path style="opacity:1" fill="#4b4b4b" d="M 29.5,9.5 C 29.5,9.16667 29.5,8.83333 29.5,8.5C 99.5,8.5 169.5,8.5 239.5,8.5C 239.5,8.83333 239.5,9.16667 239.5,9.5C 236.194,10.8233 232.861,11.8233 229.5,12.5C 166.166,12.6667 102.832,12.5 39.5,12C 36.0248,11.5532 32.6915,10.7199 29.5,9.5 Z"/></g>
<g><path style="opacity:1" fill="#737373" d="M 63.5,10.5 C 118.332,9.33485 173.332,9.16818 228.5,10C 201.56,11.154 174.56,11.654 147.5,11.5C 119.484,11.4743 91.4844,11.141 63.5,10.5 Z"/></g>
<g><path style="opacity:1" fill="#232323" d="M 29.5,9.5 C 32.6915,10.7199 36.0248,11.5532 39.5,12C 102.832,12.5 166.166,12.6667 229.5,12.5C 232.713,12.19 235.713,12.5233 238.5,13.5C 167.166,13.3333 95.8326,13.5 24.5,14C 17.2684,16.899 12.4351,22.0657 10,29.5C 9.50031,37.1594 9.33365,44.8261 9.5,52.5C 8.86032,42.2418 7.86032,33.9084 6.5,27.5C 10.2244,16.4703 17.891,10.4703 29.5,9.5 Z"/></g>
<g><path style="opacity:1" fill="#030303" d="M 238.5,13.5 C 249.183,15.0106 256.016,21.0106 259,31.5C 259.499,35.8206 259.666,40.1539 259.5,44.5C 259.5,107.5 259.5,170.5 259.5,233.5C 259.5,335.167 259.5,436.833 259.5,538.5C 257.497,550.003 250.831,557.169 239.5,560C 169.167,560.667 98.8333,560.667 28.5,560C 18.7779,557.945 12.6113,552.112 10,542.5C 9.5,439.167 9.33334,335.834 9.5,232.5C 9.5,172.5 9.5,112.5 9.5,52.5C 9.33365,44.8261 9.50031,37.1594 10,29.5C 12.4351,22.0657 17.2684,16.899 24.5,14C 95.8326,13.5 167.166,13.3333 238.5,13.5 Z"/></g>
<g><path style="opacity:1" fill="#fcfcfc" d="M 255.5,52.5 C 174.833,52.5 94.1667,52.5 13.5,52.5C 13.5,44.8333 13.5,37.1667 13.5,29.5C 15.927,23.9047 19.927,19.738 25.5,17C 97.8333,16.3333 170.167,16.3333 242.5,17C 247.541,19.2554 251.375,22.7554 254,27.5C 255.406,35.7492 255.906,44.0826 255.5,52.5 Z"/></g>
<g><path style="opacity:1" fill="#a6a6a6" d="M 238.5,6.5 C 252.225,7.34911 260.892,14.3491 264.5,27.5C 263.075,25.9689 262.409,26.3023 262.5,28.5C 258.821,17.4989 251.154,11.1655 239.5,9.5C 239.5,9.16667 239.5,8.83333 239.5,8.5C 239.938,8.56544 240.272,8.39877 240.5,8C 239.584,7.72158 238.918,7.22158 238.5,6.5 Z"/></g>
<g><path style="opacity:1" fill="#ea7846" d="M 28.5,28.5 C 38.876,28.876 42.7093,34.2093 40,44.5C 37.0682,50.544 32.5682,52.044 26.5,49C 20.7189,41.4302 21.3856,34.5969 28.5,28.5 Z"/></g>
<g><path style="opacity:1" fill="#fef4f0" d="M 29.5,30.5 C 37.2601,31.3123 40.0934,35.6456 38,43.5C 35.8041,48.5402 32.3041,49.7068 27.5,47C 23.0582,40.7441 23.7249,35.2441 29.5,30.5 Z"/></g>
<g><path style="opacity:1" fill="#0e0e0e" d="M 91.5,30.5 C 97.1667,30.6636 97.5,30.9969 92.5,31.5C 92.5,32.5 92.5,33.5 92.5,34.5C 96.5,34.8333 96.5,35.1667 92.5,35.5C 92.6495,36.552 92.4828,37.552 92,38.5C 91.5026,35.854 91.3359,33.1873 91.5,30.5 Z"/></g>
<g><path style="opacity:1" fill="#131313" d="M 131.5,31.5 C 132.693,31.9704 133.36,32.9704 133.5,34.5C 133.333,35.5 133.167,36.5 133,37.5C 130.959,38.4231 128.792,38.7564 126.5,38.5C 126.5,35.8333 126.5,33.1667 126.5,30.5C 128.415,30.2155 130.081,30.5489 131.5,31.5 Z"/></g>
<g><path style="opacity:1" fill="#1f1f1f" d="M 142.5,34.5 C 142.5,33.8333 142.5,33.1667 142.5,32.5C 143.939,31.4908 145.272,31.8241 146.5,33.5C 143.942,35.1201 143.942,36.6201 146.5,38C 145.552,38.4828 144.552,38.6495 143.5,38.5C 143.768,36.901 143.434,35.5676 142.5,34.5 Z"/></g>
<g><path style="opacity:1" fill="#272727" d="M 162.5,31.5 C 163.643,31.9081 164.643,32.5748 165.5,33.5C 164.253,35.0421 164.253,36.5421 165.5,38C 164.552,38.4828 163.552,38.6495 162.5,38.5C 161.933,36.0314 161.933,33.698 162.5,31.5 Z"/></g>
<g><path style="opacity:1" fill="#e4e4e4" d="M 131.5,31.5 C 130.081,30.5489 128.415,30.2155 126.5,30.5C 126.5,33.1667 126.5,35.8333 126.5,38.5C 128.792,38.7564 130.959,38.4231 133,37.5C 133.167,36.5 133.333,35.5 133.5,34.5C 133.36,32.9704 132.693,31.9704 131.5,31.5 Z"/></g>
<g><path style="opacity:1" fill="#111111" d="M 100.5,32.5 C 101.043,32.56 101.376,32.8933 101.5,33.5C 100.137,34.8928 99.3036,36.5595 99,38.5C 98.2568,36.1261 98.7568,34.1261 100.5,32.5 Z"/></g>
<g><path style="opacity:1" fill="#3c3c3c" d="M 177.5,32.5 C 182.895,31.5548 184.561,33.5548 182.5,38.5C 181.167,33.1667 179.833,33.1667 178.5,38.5C 177.534,36.604 177.201,34.604 177.5,32.5 Z"/></g>
<g><path style="opacity:1" fill="#e9703b" d="M 30.5,35.5 C 30.9064,37.3581 32.5731,38.6914 35.5,39.5C 34.1667,40.1667 32.8333,40.8333 31.5,41.5C 32.8938,42.6869 32.7271,43.3535 31,43.5C 29.6057,42.3867 28.439,41.0534 27.5,39.5C 28.5244,38.1482 29.5244,36.8149 30.5,35.5 Z"/></g>
<g><path style="opacity:1" fill="#3e3e3e" d="M 103.5,32.5 C 106.95,31.7564 108.616,33.0897 108.5,36.5C 104.107,36.4568 103.774,36.9568 107.5,38C 105.041,39.9377 103.374,39.271 102.5,36C 102.989,34.8615 103.322,33.6948 103.5,32.5 Z"/></g>
<g><path style="opacity:1" fill="#323232" d="M 116.5,30.5 C 117.268,31.2625 117.768,32.2625 118,33.5C 119.333,32.1667 120.667,32.1667 122,33.5C 122.798,35.2588 122.631,36.9255 121.5,38.5C 120.571,37.3112 120.238,35.9778 120.5,34.5C 119.5,34.5 118.5,34.5 117.5,34.5C 117.657,35.8734 117.49,37.2068 117,38.5C 116.503,35.854 116.336,33.1873 116.5,30.5 Z"/></g>
<g><path style="opacity:1" fill="#555555" d="M 142.5,32.5 C 142.5,33.1667 142.5,33.8333 142.5,34.5C 141.266,37.54 138.932,38.8733 135.5,38.5C 135.261,36.5328 135.594,34.6995 136.5,33C 138.602,33.256 140.602,33.0893 142.5,32.5 Z"/></g>
<g><path style="opacity:1" fill="#505050" d="M 148.5,32.5 C 152.225,32.5372 153.558,34.2038 152.5,37.5C 150.955,38.4519 149.288,38.7852 147.5,38.5C 147.325,36.3792 147.659,34.3792 148.5,32.5 Z"/></g>
<g><path style="opacity:1" fill="#313131" d="M 171.5,32.5 C 175.485,32.6294 176.818,34.4628 175.5,38C 173.866,38.4935 172.199,38.6602 170.5,38.5C 170.325,36.3792 170.659,34.3792 171.5,32.5 Z"/></g>
<g><path style="opacity:1" fill="#e3e3e3" d="M 171.5,34.5 C 172.5,34.5 173.5,34.5 174.5,34.5C 174.5,35.5 174.5,36.5 174.5,37.5C 173.5,37.5 172.5,37.5 171.5,37.5C 171.5,36.5 171.5,35.5 171.5,34.5 Z"/></g>
<g><path style="opacity:1" fill="#313131" d="M 110.5,32.5 C 112.103,32.3118 113.437,32.8118 114.5,34C 113.833,34.3333 113.167,34.6667 112.5,35C 115.064,36.4813 115.064,37.9813 112.5,39.5C 109.924,38.1166 110.258,37.2833 113.5,37C 110.418,36.4785 109.418,34.9785 110.5,32.5 Z"/></g>
<g><path style="opacity:1" fill="#3b3b3b" d="M 156.5,32.5 C 158.346,32.2222 159.68,32.8888 160.5,34.5C 159.609,35.5896 158.609,35.5896 157.5,34.5C 156.167,35.5 156.167,36.5 157.5,37.5C 161.508,36.8919 161.508,37.5586 157.5,39.5C 153.967,37.5798 153.633,35.2465 156.5,32.5 Z"/></g>
<g><path style="opacity:0.999" fill="#bababa" d="M 264.5,27.5 C 265.196,31.4517 265.696,35.4517 266,39.5C 266.188,61.5428 266.688,83.5428 267.5,105.5C 267.644,133.351 266.977,161.185 265.5,189C 265.5,197.007 265.834,204.841 266.5,212.5C 267.167,212.5 267.5,212.833 267.5,213.5C 265.669,320.153 265.002,426.82 265.5,533.5C 265.5,533.833 265.5,534.167 265.5,534.5C 264.686,536.631 264.186,538.964 264,541.5C 263.506,539.866 263.34,538.199 263.5,536.5C 263.831,367.127 263.497,197.793 262.5,28.5C 262.409,26.3023 263.075,25.9689 264.5,27.5 Z"/></g>
<g><path style="opacity:0.987" fill="#bbbbbb" d="M 37.5,6.5 C 34.8333,7.16667 32.1667,7.83333 29.5,8.5C 29.5,8.83333 29.5,9.16667 29.5,9.5C 17.891,10.4703 10.2244,16.4703 6.5,27.5C 5.54885,28.9187 5.21552,30.5853 5.5,32.5C 5.16633,201.669 4.16633,370.669 2.5,539.5C 2.5,528.167 2.5,516.833 2.5,505.5C 2.5,352.167 2.5,198.833 2.5,45.5C 0.254748,31.6748 4.25475,20.1748 14.5,11C 21.6289,6.96229 29.2955,5.46229 37.5,6.5 Z"/></g>
<g><path style="opacity:0.565" fill="#000000" d="M 2.5,45.5 C 2.5,198.833 2.5,352.167 2.5,505.5C 1.66852,489.338 1.16852,473.005 1,456.5C 0.819481,453.305 0.319481,450.305 -0.5,447.5C -0.5,322.5 -0.5,197.5 -0.5,72.5C 0.367593,63.4877 1.36759,54.4877 2.5,45.5 Z"/></g>
<g><path style="opacity:1" fill="#616161" d="M 13.5,29.5 C 13.5,37.1667 13.5,44.8333 13.5,52.5C 94.1667,52.5 174.833,52.5 255.5,52.5C 255.5,52.8333 255.5,53.1667 255.5,53.5C 174.833,53.5 94.1667,53.5 13.5,53.5C 13.5,202.833 13.5,352.167 13.5,501.5C 13.5,510.833 13.5,520.167 13.5,529.5C 13.5,533.5 13.5,537.5 13.5,541.5C 12.1667,370.833 12.1667,200.167 13.5,29.5 Z"/></g>
<g><path style="opacity:1" fill="#fefefe" d="M 255.5,53.5 C 255.5,197.167 255.5,340.833 255.5,484.5C 254.813,489.9 254.146,495.4 253.5,501C 254.706,502.018 254.373,502.518 252.5,502.5C 249.937,502.263 249.937,501.763 252.5,501C 251.638,498.266 250.805,498.099 250,500.5C 249.915,498.915 249.749,497.582 249.5,496.5C 248.483,499.028 247.316,499.028 246,496.5C 245.275,497.059 244.442,497.392 243.5,497.5C 241.309,496.257 238.976,495.424 236.5,495C 238.795,494.016 238.461,493.183 235.5,492.5C 232.623,493.67 230.456,493.004 229,490.5C 228.085,491.328 227.419,492.328 227,493.5C 226.517,492.552 226.351,491.552 226.5,490.5C 222.527,489.744 218.694,489.41 215,489.5C 213.072,489.933 211.239,490.6 209.5,491.5C 207.971,491.471 206.804,490.804 206,489.5C 204.927,490.28 203.76,490.113 202.5,489C 198.801,488.666 195.301,488.499 192,488.5C 191.71,490.044 191.044,491.377 190,492.5C 189.5,492 189,491.5 188.5,491C 189.956,490.577 190.456,489.744 190,488.5C 188.887,489.711 187.72,489.711 186.5,488.5C 185.483,491.028 184.316,491.028 183,488.5C 182.333,489.167 181.667,489.833 181,490.5C 180.612,489.572 179.945,488.905 179,488.5C 176.299,488.569 173.632,488.569 171,488.5C 169.674,488.755 168.674,489.422 168,490.5C 167.5,490 167,489.5 166.5,489C 162.03,488.955 157.696,488.789 153.5,488.5C 150.638,488.116 148.472,489.116 147,491.5C 146.5,491.333 146,491.167 145.5,491C 146.451,490.282 146.617,489.449 146,488.5C 145.333,489.833 144.667,489.833 144,488.5C 142.796,489.471 142.296,490.471 142.5,491.5C 141.749,490.624 141.249,489.624 141,488.5C 140.667,489.167 140.333,489.833 140,490.5C 137.853,489.276 135.186,488.609 132,488.5C 124.768,488.935 117.601,488.935 110.5,488.5C 109.167,488.833 107.833,489.167 106.5,489.5C 107.319,491.916 106.652,492.082 104.5,490C 104.833,489.667 105.167,489.333 105.5,489C 104.667,488.833 103.833,488.667 103,488.5C 101.331,489.166 99.8313,489.166 98.5,488.5C 97.8333,489.167 97.1667,489.833 96.5,490.5C 95.5318,489.511 94.3651,488.844 93,488.5C 90.0161,489.139 86.8495,489.139 83.5,488.5C 83.9059,490.109 83.9059,491.443 83.5,492.5C 81.491,491.944 79.491,490.611 77.5,488.5C 77.3233,491.078 76.1567,491.078 74,488.5C 70.3079,488.717 66.1412,488.883 61.5,489C 60.7471,490.487 59.9138,490.654 59,489.5C 58.3086,491.891 57.3086,491.891 56,489.5C 55,490.167 54,490.833 53,491.5C 49.5895,490.932 46.2562,490.598 43,490.5C 41.6667,491.833 40.3333,493.167 39,494.5C 38.3333,490.5 37.6667,490.5 37,494.5C 33.2882,492.288 29.7882,492.788 26.5,496C 27.3279,496.915 28.3279,497.581 29.5,498C 26.5713,497.3 23.7379,496.8 21,496.5C 18.3462,497.996 15.8462,499.663 13.5,501.5C 13.5,352.167 13.5,202.833 13.5,53.5C 94.1667,53.5 174.833,53.5 255.5,53.5 Z"/></g>
<g><path style="opacity:1" fill="#2f2f2f" d="M 6.5,27.5 C 7.86032,33.9084 8.86032,42.2418 9.5,52.5C 9.5,112.5 9.5,172.5 9.5,232.5C 9.16667,232.5 8.83333,232.5 8.5,232.5C 8.66666,173.499 8.49999,114.499 8,55.5C 6.50842,110.75 6.00842,166.083 6.5,221.5C 6.33334,290.501 6.5,359.501 7,428.5C 7.1683,447.005 7.6683,465.338 8.5,483.5C 8.66632,490.841 8.49966,498.174 8,505.5C 7.66667,501.5 7.33333,497.5 7,493.5C 6.83167,475.329 6.33167,457.329 5.5,439.5C 5.5,303.833 5.5,168.167 5.5,32.5C 5.21552,30.5853 5.54885,28.9187 6.5,27.5 Z"/></g>
<g><path style="opacity:1" fill="#4b4b4b" d="M 8.5,232.5 C 8.5,240.167 8.5,247.833 8.5,255.5C 7.83333,244.167 7.16667,232.833 6.5,221.5C 6.00842,166.083 6.50842,110.75 8,55.5C 8.49999,114.499 8.66666,173.499 8.5,232.5 Z"/></g>
<g><path style="opacity:1" fill="#4f4f4f" d="M 259.5,44.5 C 260.314,46.631 260.814,48.9644 261,51.5C 261.665,112.339 261.165,173.006 259.5,233.5C 259.5,170.5 259.5,107.5 259.5,44.5 Z"/></g>
<g><path style="opacity:0.618" fill="#717171" d="M 267.5,105.5 C 268.167,116.161 268.5,126.995 268.5,138C 267.048,162.685 266.381,187.518 266.5,212.5C 265.834,204.841 265.5,197.007 265.5,189C 266.977,161.185 267.644,133.351 267.5,105.5 Z"/></g>
<g><path style="opacity:1" fill="#6b7d6f" d="M 131.5,115.5 C 114.628,116.194 97.6281,116.86 80.5,117.5C 97.1338,115.514 114.134,114.848 131.5,115.5 Z"/></g>
<g><path style="opacity:1" fill="#41644a" d="M 131.5,115.5 C 149.512,115.167 167.512,115.5 185.5,116.5C 189.091,117.449 191.925,119.449 194,122.5C 194.5,136.496 194.667,150.496 194.5,164.5C 183.495,164.333 172.495,164.5 161.5,165C 160.057,166.067 158.724,167.234 157.5,168.5C 154.848,166.439 153.014,163.772 152,160.5C 149.285,159.335 146.952,160.002 145,162.5C 139.734,170.256 134.067,177.59 128,184.5C 125.352,183.018 123.185,181.018 121.5,178.5C 119.125,174.806 116.792,171.139 114.5,167.5C 112.61,167.297 111.11,167.963 110,169.5C 108.472,172.454 106.472,175.121 104,177.5C 103.667,178.833 103.333,180.167 103,181.5C 100.302,185.025 97.4686,188.358 94.5,191.5C 92.8793,191.787 91.8793,192.787 91.5,194.5C 105.484,195.499 119.484,195.833 133.5,195.5C 133.5,201.167 133.5,206.833 133.5,212.5C 116.497,212.667 99.4967,212.5 82.5,212C 80.8455,211.392 79.1789,210.892 77.5,210.5C 73.9353,206.635 72.602,201.968 73.5,196.5C 73.1861,172.122 73.5194,147.788 74.5,123.5C 74.5,119.5 76.5,117.5 80.5,117.5C 97.6281,116.86 114.628,116.194 131.5,115.5 Z"/></g>
<g><path style="opacity:1" fill="#aaafab" d="M 74.5,123.5 C 73.5194,147.788 73.1861,172.122 73.5,196.5C 72.8334,184.505 72.5001,172.338 72.5,160C 72.5009,147.481 73.1676,135.314 74.5,123.5 Z"/></g>
<g><path style="opacity:1" fill="#44664d" d="M 183.5,213.5 C 182.508,220.982 182.175,228.648 182.5,236.5C 178.833,236.5 175.167,236.5 171.5,236.5C 171.825,228.648 171.492,220.982 170.5,213.5C 162.5,213.5 154.5,213.5 146.5,213.5C 146.5,209.167 146.5,204.833 146.5,200.5C 154.5,200.5 162.5,200.5 170.5,200.5C 170.5,192.5 170.5,184.5 170.5,176.5C 174.5,176.5 178.5,176.5 182.5,176.5C 182.5,184.5 182.5,192.5 182.5,200.5C 190.833,200.5 199.167,200.5 207.5,200.5C 207.5,204.5 207.5,208.5 207.5,212.5C 199.316,212.174 191.316,212.508 183.5,213.5 Z"/></g>
<g><path style="opacity:1" fill="#758579" d="M 94.5,191.5 C 94.1961,192.15 93.8627,192.817 93.5,193.5C 107.15,194.499 120.817,194.833 134.5,194.5C 134.5,200.833 134.5,207.167 134.5,213.5C 116.497,213.667 98.4969,213.5 80.5,213C 78.8807,212.764 77.8807,211.931 77.5,210.5C 79.1789,210.892 80.8455,211.392 82.5,212C 99.4967,212.5 116.497,212.667 133.5,212.5C 133.5,206.833 133.5,201.167 133.5,195.5C 119.484,195.833 105.484,195.499 91.5,194.5C 91.8793,192.787 92.8793,191.787 94.5,191.5 Z"/></g>
<g><path style="opacity:0.618" fill="#696969" d="M 267.5,213.5 C 268.166,219.658 268.5,225.991 268.5,232.5C 268.65,239.33 268.15,245.996 267,252.5C 266.833,346.334 266.333,440.001 265.5,533.5C 265.002,426.82 265.669,320.153 267.5,213.5 Z"/></g>
<g><path style="opacity:1" fill="#7e8d82" d="M 170.5,213.5 C 171.492,220.982 171.825,228.648 171.5,236.5C 175.167,236.5 178.833,236.5 182.5,236.5C 182.175,228.648 182.508,220.982 183.5,213.5C 183.5,221.5 183.5,229.5 183.5,237.5C 179.167,237.5 174.833,237.5 170.5,237.5C 170.5,229.5 170.5,221.5 170.5,213.5 Z"/></g>
<g><path style="opacity:1" fill="#989898" d="M 112.5,255.5 C 113.461,257.265 113.795,259.265 113.5,261.5C 112.167,261.5 110.833,261.5 109.5,261.5C 109.5,260.167 109.5,258.833 109.5,257.5C 111.179,257.715 112.179,257.048 112.5,255.5 Z"/></g>
<g><path style="opacity:1" fill="#8c8c8c" d="M 36.5,256.5 C 37.6009,255.402 38.9343,255.235 40.5,256C 39.7511,257.734 39.2511,259.567 39,261.5C 38.9504,259.256 38.1171,257.589 36.5,256.5 Z"/></g>
<g><path style="opacity:1" fill="#898989" d="M 58.5,255.5 C 59.0472,257.518 60.0472,259.351 61.5,261C 60.552,261.483 59.552,261.649 58.5,261.5C 58.5,259.5 58.5,257.5 58.5,255.5 Z"/></g>
<g><path style="opacity:1" fill="#9e9e9e" d="M 71.5,256.5 C 72.4584,256.953 73.2917,257.619 74,258.5C 76.1515,256.676 78.6515,256.343 81.5,257.5C 81.6691,262.041 81.0025,262.374 79.5,258.5C 78.7492,259.376 78.2492,260.376 78,261.5C 77,257.5 76,257.5 75,261.5C 74.2747,259.842 73.108,259.342 71.5,260C 73.9316,261.087 73.5983,261.587 70.5,261.5C 70.366,259.708 70.6993,258.042 71.5,256.5 Z"/></g>
<g><path style="opacity:1" fill="#ababab" d="M 101.5,256.5 C 102.688,257.684 103.855,257.684 105,256.5C 106.44,257.93 106.774,259.597 106,261.5C 105,257.5 104,257.5 103,261.5C 102.193,257.551 101.693,257.551 101.5,261.5C 99.5,261.5 97.5,261.5 95.5,261.5C 95.3309,256.959 95.9975,256.626 97.5,260.5C 98.3857,259.675 98.719,258.675 98.5,257.5C 99.791,257.737 100.791,257.404 101.5,256.5 Z"/></g>
<g><path style="opacity:1" fill="#959595" d="M 114.5,257.5 C 115.833,257.5 117.167,257.5 118.5,257.5C 118.671,260.797 118.005,261.131 116.5,258.5C 114.995,261.131 114.329,260.797 114.5,257.5 Z"/></g>
<g><path style="opacity:1" fill="#b2b2b2" d="M 134.5,256.5 C 136.263,255.666 137.93,256.166 139.5,258C 138.167,259 138.167,260 139.5,261C 139.167,261.167 138.833,261.333 138.5,261.5C 137.262,257.689 136.596,257.689 136.5,261.5C 134.5,261.5 132.5,261.5 130.5,261.5C 130.5,260.167 130.5,258.833 130.5,257.5C 132.767,257.854 134.101,257.521 134.5,256.5 Z"/></g>
<g><path style="opacity:1" fill="#888888" d="M 146.5,257.5 C 148.527,257.338 150.527,257.505 152.5,258C 151.151,258.772 150.318,259.939 150,261.5C 149,257.5 148,257.5 147,261.5C 146.51,260.207 146.343,258.873 146.5,257.5 Z"/></g>
<g><path style="opacity:1" fill="#b4b4b4" d="M 171.5,256.5 C 173.339,257.752 175.172,257.752 177,256.5C 178.333,259.167 179.667,259.167 181,256.5C 182.269,257.905 182.769,259.571 182.5,261.5C 180.833,261.5 179.167,261.5 177.5,261.5C 176.947,257.544 176.114,257.544 175,261.5C 172.229,261.146 169.396,260.979 166.5,261C 168.66,260.004 170.327,258.504 171.5,256.5 Z"/></g>
<g><path style="opacity:1" fill="#a1a1a1" d="M 43.5,257.5 C 44.8333,257.5 46.1667,257.5 47.5,257.5C 47.5,258.833 47.5,260.167 47.5,261.5C 45.8762,261.36 44.7096,262.027 44,263.5C 43.5045,261.527 43.3379,259.527 43.5,257.5 Z"/></g>
<g><path style="opacity:1" fill="#a9a9a9" d="M 62.5,257.5 C 63.8333,257.5 65.1667,257.5 66.5,257.5C 66.5,258.833 66.5,260.167 66.5,261.5C 63.5,261.833 62.1667,260.5 62.5,257.5 Z"/></g>
<g><path style="opacity:1" fill="#b1b1b1" d="M 92.5,256.5 C 93.2891,256.783 93.9558,257.283 94.5,258C 93.3595,258.741 93.3595,259.575 94.5,260.5C 91.6313,261.078 88.9647,262.078 86.5,263.5C 84.9137,261.827 84.2471,259.827 84.5,257.5C 87.0792,257.083 89.2458,257.75 91,259.5C 91.5133,258.473 92.0133,257.473 92.5,256.5 Z"/></g>
<g><path style="opacity:1" fill="#ababab" d="M 193.5,256.5 C 200.668,256.519 201.002,258.186 194.5,261.5C 193.614,260.675 193.281,259.675 193.5,258.5C 192.022,258.238 190.689,258.571 189.5,259.5C 190.025,260.192 190.692,260.692 191.5,261C 189.538,260.859 187.704,261.026 186,261.5C 183.98,260.968 183.147,259.635 183.5,257.5C 186.938,258.481 190.272,258.148 193.5,256.5 Z"/></g>
<g><path style="opacity:1" fill="#b0b0b0" d="M 119.5,255.5 C 120.1,258.625 121.267,258.958 123,256.5C 124.403,258.198 126.236,258.698 128.5,258C 127.151,258.772 126.318,259.939 126,261.5C 124,261.5 122,261.5 120,261.5C 119.505,259.527 119.338,257.527 119.5,255.5 Z"/></g>
<g><path style="opacity:1" fill="#9d9d9d" d="M 143.5,256.5 C 145.213,257.635 145.88,259.302 145.5,261.5C 144.5,261.5 143.5,261.5 142.5,261.5C 142.366,259.708 142.699,258.042 143.5,256.5 Z"/></g>
<g><path style="opacity:1" fill="#c0c0c0" d="M 155.5,267.5 C 155.735,266.903 156.235,266.57 157,266.5C 159.047,267.609 161.213,268.276 163.5,268.5C 163.833,272.5 164.167,272.5 164.5,268.5C 165.93,268.579 167.264,268.246 168.5,267.5C 169.862,269.012 170.196,270.512 169.5,272C 164.929,271.86 160.429,272.027 156,272.5C 151.573,273.412 150.073,271.912 151.5,268C 153.66,268.725 154.994,268.559 155.5,267.5 Z"/></g>
<g><path style="opacity:1" fill="#b2b2b2" d="M 121.5,267.5 C 123.341,268.673 125.174,268.673 127,267.5C 127.945,267.905 128.612,268.572 129,269.5C 129.689,268.643 130.522,267.977 131.5,267.5C 132.5,268.833 133.5,268.833 134.5,267.5C 135.244,268.991 135.91,270.491 136.5,272C 136.167,272.167 135.833,272.333 135.5,272.5C 134.033,271.305 132.533,271.305 131,272.5C 130.05,271.978 129.216,271.311 128.5,270.5C 129.061,272.066 128.394,273.399 126.5,274.5C 124.889,273.68 124.222,272.346 124.5,270.5C 123.167,271.167 121.833,271.833 120.5,272.5C 120.366,270.708 120.699,269.042 121.5,267.5 Z"/></g>
<g><path style="opacity:1" fill="#bcbcbc" d="M 81.5,266.5 C 83.2624,266.357 84.9291,266.691 86.5,267.5C 87.1414,269.296 88.1414,270.796 89.5,272C 87.4049,271.681 85.4049,271.848 83.5,272.5C 82.2588,271.963 81.0921,271.296 80,270.5C 78.2382,270.944 78.4049,271.444 80.5,272C 79.552,272.483 78.552,272.649 77.5,272.5C 77.3433,271.127 77.51,269.793 78,268.5C 79,267.167 80,267.167 81,268.5C 81.4643,267.906 81.631,267.239 81.5,266.5 Z"/></g>
<g><path style="opacity:1" fill="#a8a8a8" d="M 112.5,267.5 C 113.707,268.189 115.041,268.355 116.5,268C 117.554,269.388 117.72,270.888 117,272.5C 116,268.5 115,268.5 114,272.5C 112.886,268.544 112.053,268.544 111.5,272.5C 109.833,272.5 108.167,272.5 106.5,272.5C 106.343,271.127 106.51,269.793 107,268.5C 108.929,269.767 110.762,269.434 112.5,267.5 Z"/></g>
<g><path style="opacity:1" fill="#b2b2b2" d="M 174.5,267.5 C 175.75,267.577 176.583,268.244 177,269.5C 178.612,266.921 180.112,266.921 181.5,269.5C 180.624,270.251 179.624,270.751 178.5,271C 179.167,271.333 179.833,271.667 180.5,272C 178.866,272.494 177.199,272.66 175.5,272.5C 175.404,268.689 174.738,268.689 173.5,272.5C 172.316,270.533 172.649,268.866 174.5,267.5 Z"/></g>
<g><path style="opacity:1" fill="#acacac" d="M 193.5,267.5 C 196.018,268.694 196.018,269.86 193.5,271C 194.167,271.333 194.833,271.667 195.5,272C 192.939,271.599 190.272,271.765 187.5,272.5C 187.457,268.107 187.957,267.774 189,271.5C 189.284,269.114 190.284,268.448 192,269.5C 192.717,268.956 193.217,268.289 193.5,267.5 Z"/></g>
<g><path style="opacity:1" fill="#a8a8a8" d="M 44.5,266.5 C 45.4614,268.265 45.7947,270.265 45.5,272.5C 44.1667,272.5 42.8333,272.5 41.5,272.5C 41.0283,269.642 42.0283,267.642 44.5,266.5 Z"/></g>
<g><path style="opacity:1" fill="#aaaaaa" d="M 48.5,267.5 C 51.9103,267.384 53.2436,269.05 52.5,272.5C 51.1779,272.33 50.0113,272.663 49,273.5C 48.5045,271.527 48.3379,269.527 48.5,267.5 Z"/></g>
<g><path style="opacity:1" fill="#9d9d9d" d="M 141.5,268.5 C 143.049,268.736 144.549,268.736 146,268.5C 146.638,271.93 145.138,273.263 141.5,272.5C 141.5,271.167 141.5,269.833 141.5,268.5 Z"/></g>
<g><path style="opacity:1" fill="#b5b5b5" d="M 37.5,267.5 C 40.0838,268.048 41.0838,269.715 40.5,272.5C 39.0222,272.762 37.6888,272.429 36.5,271.5C 36.7876,270.139 37.121,268.806 37.5,267.5 Z"/></g>
<g><path style="opacity:1" fill="#bdbdbd" d="M 60.5,267.5 C 65.2673,268.066 69.9339,268.066 74.5,267.5C 73.5908,269.761 73.2575,271.928 73.5,274C 70.7407,273.844 68.9073,272.344 68,269.5C 67.5172,270.448 67.3505,271.448 67.5,272.5C 65.1432,272.663 62.8098,272.497 60.5,272C 59.2721,270.51 59.2721,269.01 60.5,267.5 Z"/></g>
<g><path style="opacity:1" fill="#b6b6b6" d="M 183.5,267.5 C 185.722,267.559 186.722,268.725 186.5,271C 186.333,271.833 186.167,272.667 186,273.5C 184.989,272.663 183.822,272.33 182.5,272.5C 182.366,270.708 182.699,269.042 183.5,267.5 Z"/></g>
<g><path style="opacity:1" fill="#424242" d="M 239.5,9.5 C 251.154,11.1655 258.821,17.4989 262.5,28.5C 263.497,197.793 263.831,367.127 263.5,536.5C 263.167,536.5 262.833,536.5 262.5,536.5C 262.667,475.166 262.5,413.832 262,352.5C 261.293,414.666 260.46,476.666 259.5,538.5C 259.5,436.833 259.5,335.167 259.5,233.5C 261.165,173.006 261.665,112.339 261,51.5C 260.814,48.9644 260.314,46.631 259.5,44.5C 259.666,40.1539 259.499,35.8206 259,31.5C 256.016,21.0106 249.183,15.0106 238.5,13.5C 235.713,12.5233 232.713,12.19 229.5,12.5C 232.861,11.8233 236.194,10.8233 239.5,9.5 Z"/></g>
<g><path style="opacity:1" fill="#3b3b3b" d="M 6.5,221.5 C 7.16667,232.833 7.83333,244.167 8.5,255.5C 8.5,331.5 8.5,407.5 8.5,483.5C 7.6683,465.338 7.1683,447.005 7,428.5C 6.5,359.501 6.33334,290.501 6.5,221.5 Z"/></g>
<g><path style="opacity:1" fill="#beb5b5" d="M 233.5,291.5 C 231.628,290.489 229.628,289.655 227.5,289C 165.167,288.333 102.833,288.333 40.5,289C 37.4241,290.243 34.7574,292.077 32.5,294.5C 33.9274,291.236 36.2608,288.736 39.5,287C 102.5,286.333 165.5,286.333 228.5,287C 230.66,287.996 232.327,289.496 233.5,291.5 Z"/></g>
<g><path style="opacity:1" fill="#d2c9c8" d="M 233.5,291.5 C 235.539,292.911 236.539,294.911 236.5,297.5C 233.737,294.28 230.403,291.78 226.5,290C 164.833,289.333 103.167,289.333 41.5,290C 33.3878,293.054 30.0545,298.887 31.5,307.5C 30.8401,306.036 30.5068,304.369 30.5,302.5C 30.3817,299.514 31.0483,296.848 32.5,294.5C 34.7574,292.077 37.4241,290.243 40.5,289C 102.833,288.333 165.167,288.333 227.5,289C 229.628,289.655 231.628,290.489 233.5,291.5 Z"/></g>
<g><path style="opacity:1" fill="#f1e6e6" d="M 236.5,297.5 C 237.615,302.75 237.781,308.083 237,313.5C 235.373,318.062 232.206,320.895 227.5,322C 164.833,322.667 102.167,322.667 39.5,322C 36.5914,320.594 34.5914,318.428 33.5,315.5C 35.7574,317.923 38.4241,319.757 41.5,321C 103.167,321.667 164.833,321.667 226.5,321C 232.692,319.11 235.859,314.943 236,308.5C 234.807,313.694 231.64,316.86 226.5,318C 164.833,318.667 103.167,318.667 41.5,318C 37.4754,317.127 34.4754,314.961 32.5,311.5C 31.5655,310.432 31.2322,309.099 31.5,307.5C 30.0545,298.887 33.3878,293.054 41.5,290C 103.167,289.333 164.833,289.333 226.5,290C 230.403,291.78 233.737,294.28 236.5,297.5 Z"/></g>
<g><path style="opacity:1" fill="#232222" d="M 114.5,298.5 C 117.073,298.148 119.406,298.648 121.5,300C 119.874,299.805 118.207,299.805 116.5,300C 114.91,302.48 115.41,304.313 118,305.5C 119.826,304.99 119.993,304.156 118.5,303C 119.448,302.517 120.448,302.351 121.5,302.5C 121.5,303.833 121.5,305.167 121.5,306.5C 114.461,307.717 112.128,305.051 114.5,298.5 Z"/></g>
<g><path style="opacity:1" fill="#3e3b3b" d="M 143.5,300.5 C 144.978,300.238 146.311,300.571 147.5,301.5C 146.248,303.001 145.248,304.668 144.5,306.5C 143.534,304.604 143.201,302.604 143.5,300.5 Z"/></g>
<g><path style="opacity:1" fill="#242222" d="M 124.5,300.5 C 128.068,300.759 129.401,302.759 128.5,306.5C 126.833,306.5 125.167,306.5 123.5,306.5C 123.281,305.325 123.614,304.325 124.5,303.5C 124.833,304.167 125.167,304.833 125.5,305.5C 126.614,304.277 126.781,302.944 126,301.5C 123.821,302.84 123.321,302.507 124.5,300.5 Z"/></g>
<g><path style="opacity:1" fill="#585454" d="M 137.5,300.5 C 142.159,300.015 143.492,301.848 141.5,306C 136.728,306.81 135.395,304.977 137.5,300.5 Z"/></g>
<g><path style="opacity:1" fill="#242323" d="M 148.5,300.5 C 149.712,301.23 150.712,302.23 151.5,303.5C 152.167,302.5 152.833,301.5 153.5,300.5C 153.833,300.833 154.167,301.167 154.5,301.5C 153.162,304.176 151.829,306.842 150.5,309.5C 150.289,306.625 149.623,303.625 148.5,300.5 Z"/></g>
<g><path style="opacity:1" fill="#c6c6c5" d="M 33.5,315.5 C 32.5655,314.432 32.2322,313.099 32.5,311.5C 34.4754,314.961 37.4754,317.127 41.5,318C 103.167,318.667 164.833,318.667 226.5,318C 231.64,316.86 234.807,313.694 236,308.5C 235.859,314.943 232.692,319.11 226.5,321C 164.833,321.667 103.167,321.667 41.5,321C 38.4241,319.757 35.7574,317.923 33.5,315.5 Z"/></g>
<g><path style="opacity:1" fill="#bab7b5" d="M 229.5,359.5 C 172.373,360.827 115.373,360.827 58.5,359.5C 113.834,359.667 169.168,359.5 224.5,359C 229.389,358.444 232.889,355.944 235,351.5C 235.667,346.833 235.667,342.167 235,337.5C 234.34,335.676 233.173,334.343 231.5,333.5C 230.251,331.864 228.584,330.697 226.5,330C 164.833,329.333 103.167,329.333 41.5,330C 38.7261,330.624 36.7261,332.124 35.5,334.5C 33.8595,335.147 32.5261,336.147 31.5,337.5C 32.5717,331.927 35.905,328.427 41.5,327C 103.167,326.333 164.833,326.333 226.5,327C 233.847,329.666 237.514,334.999 237.5,343C 237.053,347.57 236.219,352.07 235,356.5C 233.512,358.16 231.679,359.16 229.5,359.5 Z"/></g>
<g><path style="opacity:1" fill="#e6dbdb" d="M 231.5,333.5 C 230.078,333.291 228.745,332.791 227.5,332C 164.833,331.333 102.167,331.333 39.5,332C 38.6921,333.706 37.3588,334.539 35.5,334.5C 36.7261,332.124 38.7261,330.624 41.5,330C 103.167,329.333 164.833,329.333 226.5,330C 228.584,330.697 230.251,331.864 231.5,333.5 Z"/></g>
<g><path style="opacity:1" fill="#f2e7e7" d="M 231.5,333.5 C 233.173,334.343 234.34,335.676 235,337.5C 235.667,342.167 235.667,346.833 235,351.5C 232.889,355.944 229.389,358.444 224.5,359C 169.168,359.5 113.834,359.667 58.5,359.5C 51.2962,360.055 44.2962,359.222 37.5,357C 33.5107,354.187 31.8441,350.354 32.5,345.5C 32.6667,343.5 32.8333,341.5 33,339.5C 34.0945,337.922 34.9278,336.255 35.5,334.5C 37.3588,334.539 38.6921,333.706 39.5,332C 102.167,331.333 164.833,331.333 227.5,332C 228.745,332.791 230.078,333.291 231.5,333.5 Z"/></g>
<g><path style="opacity:1" fill="#292828" d="M 113.5,338.5 C 115.665,338.116 117.332,338.783 118.5,340.5C 117.091,340.654 115.424,340.821 113.5,341C 112.23,345.261 113.73,346.428 118,344.5C 118.617,345.449 118.451,346.282 117.5,347C 112.504,347.664 110.67,345.498 112,340.5C 112.717,339.956 113.217,339.289 113.5,338.5 Z"/></g>
<g><path style="opacity:1" fill="#201f1f" d="M 127.5,341.5 C 130.518,341.335 133.518,341.502 136.5,342C 137.76,343.814 137.76,345.647 136.5,347.5C 135.167,340.833 133.833,340.833 132.5,347.5C 130.998,341.001 129.498,341.001 128,347.5C 127.505,345.527 127.338,343.527 127.5,341.5 Z"/></g>
<g><path style="opacity:1" fill="#151515" d="M 148.5,341.5 C 149.506,341.938 149.506,342.604 148.5,343.5C 147.71,344.609 147.21,345.942 147,347.5C 146.833,346.5 146.667,345.5 146.5,344.5C 146.64,342.97 147.307,341.97 148.5,341.5 Z"/></g>
<g><path style="opacity:1" fill="#323030" d="M 139.5,341.5 C 141.167,341.5 142.833,341.5 144.5,341.5C 144.5,342.5 144.5,343.5 144.5,344.5C 139.206,344.682 139.206,345.182 144.5,346C 141.668,348.168 139.668,347.501 138.5,344C 138.743,343.098 139.077,342.265 139.5,341.5 Z"/></g>
<g><path style="opacity:1" fill="#201f1f" d="M 151.5,342.5 C 156,340.837 157.5,342.503 156,347.5C 155.617,346.944 155.117,346.611 154.5,346.5C 154.423,345.25 153.756,344.417 152.5,344C 154.932,342.913 154.598,342.413 151.5,342.5 Z"/></g>
<g><path style="opacity:1" fill="#434141" d="M 120.5,341.5 C 125.5,340.5 127.5,342.5 126.5,347.5C 124.5,347.5 122.5,347.5 120.5,347.5C 121.38,345.389 121.38,343.389 120.5,341.5 Z"/></g>
<g><path style="opacity:1" fill="#615d5d" d="M 148.5,341.5 C 148.56,340.957 148.893,340.624 149.5,340.5C 150.182,341.243 150.849,341.909 151.5,342.5C 154.598,342.413 154.932,342.913 152.5,344C 153.756,344.417 154.423,345.25 154.5,346.5C 153.749,347.573 152.749,347.74 151.5,347C 150.167,346 150.167,345 151.5,344C 150.552,343.517 149.552,343.351 148.5,343.5C 149.506,342.604 149.506,341.938 148.5,341.5 Z"/></g>
<g><path style="opacity:1" fill="#cfcfcf" d="M 35.5,334.5 C 34.9278,336.255 34.0945,337.922 33,339.5C 32.8333,341.5 32.6667,343.5 32.5,345.5C 31.8441,350.354 33.5107,354.187 37.5,357C 44.2962,359.222 51.2962,360.055 58.5,359.5C 115.373,360.827 172.373,360.827 229.5,359.5C 228.942,360.79 227.942,361.623 226.5,362C 164.833,362.667 103.167,362.667 41.5,362C 31.6983,356.53 28.3649,348.363 31.5,337.5C 32.5261,336.147 33.8595,335.147 35.5,334.5 Z"/></g>
<g><path style="opacity:1" fill="#707070" d="M 5.5,32.5 C 5.5,168.167 5.5,303.833 5.5,439.5C 5.21445,474.516 5.54778,509.516 6.5,544.5C 5.73209,543.737 5.23209,542.737 5,541.5C 4.50465,544.531 4.67131,547.531 5.5,550.5C 3.63011,547.191 2.63011,543.525 2.5,539.5C 4.16633,370.669 5.16633,201.669 5.5,32.5 Z"/></g>
<g><path style="opacity:1" fill="#292929" d="M 8.5,232.5 C 8.83333,232.5 9.16667,232.5 9.5,232.5C 9.33334,335.834 9.5,439.167 10,542.5C 12.6113,552.112 18.7779,557.945 28.5,560C 98.8333,560.667 169.167,560.667 239.5,560C 250.831,557.169 257.497,550.003 259.5,538.5C 260.46,476.666 261.293,414.666 262,352.5C 262.5,413.832 262.667,475.166 262.5,536.5C 262.373,551.458 255.04,560.624 240.5,564C 169.167,564.667 97.8333,564.667 26.5,564C 16.0179,561.351 9.35126,554.851 6.5,544.5C 5.54778,509.516 5.21445,474.516 5.5,439.5C 6.33167,457.329 6.83167,475.329 7,493.5C 7.33333,497.5 7.66667,501.5 8,505.5C 8.49966,498.174 8.66632,490.841 8.5,483.5C 8.5,407.5 8.5,331.5 8.5,255.5C 8.5,247.833 8.5,240.167 8.5,232.5 Z"/></g>
<g><path style="opacity:1" fill="#fefefe" d="M 108.5,521.5 C 109.822,521.33 110.989,521.663 112,522.5C 112.346,525.576 113.012,528.576 114,531.5C 116.663,535.499 120.329,539.165 125,542.5C 125.333,542.167 125.667,541.833 126,541.5C 128.795,543.503 131.962,544.837 135.5,545.5C 144.863,544.622 152.196,540.122 157.5,532C 157.167,531.667 156.833,531.333 156.5,531C 158.422,529.54 159.089,527.873 158.5,526C 159.167,524.667 159.833,523.333 160.5,522C 190.5,521.333 220.5,521.333 250.5,522C 252.584,522.697 254.251,523.864 255.5,525.5C 256.662,534.391 255.162,542.724 251,550.5C 248.815,552.54 246.315,553.874 243.5,554.5C 170.167,554.5 96.8333,554.5 23.5,554.5C 17.9354,551.929 14.6021,547.596 13.5,541.5C 13.5,537.5 13.5,533.5 13.5,529.5C 14.9832,525.853 17.6499,523.353 21.5,522C 50.4981,521.5 79.4981,521.333 108.5,521.5 Z"/></g>
<g><path style="opacity:1" fill="#5c5c5c" d="M 215.5,533.5 C 217.411,533.574 218.578,534.574 219,536.5C 220.622,545.79 216.789,549.29 207.5,547C 202.661,543.015 202.328,538.849 206.5,534.5C 205.986,536.366 205.32,538.2 204.5,540C 204.862,541.225 205.362,542.391 206,543.5C 209.36,543.267 212.86,543.601 216.5,544.5C 219.193,540.609 218.859,536.942 215.5,533.5 Z"/></g>
<g><path style="opacity:1" fill="#f0f0f0" d="M 215.5,533.5 C 218.859,536.942 219.193,540.609 216.5,544.5C 212.86,543.601 209.36,543.267 206,543.5C 205.362,542.391 204.862,541.225 204.5,540C 205.32,538.2 205.986,536.366 206.5,534.5C 209.43,533.701 212.43,533.368 215.5,533.5 Z"/></g>
<g><path style="opacity:1" fill="#555555" d="M 209.5,535.5 C 215.175,535.86 215.842,537.86 211.5,541.5C 208.61,540.163 207.943,538.163 209.5,535.5 Z"/></g>
<g><path style="opacity:1" fill="#8a8a8a" d="M 215.5,533.5 C 212.43,533.368 209.43,533.701 206.5,534.5C 207.768,532.613 209.601,531.613 212,531.5C 213.699,531.387 214.866,532.053 215.5,533.5 Z"/></g>
<g><path style="opacity:1" fill="#4b6c53" d="M 56.5,530.5 C 59.1569,530.162 61.4902,530.829 63.5,532.5C 66.041,529.9 68.541,529.9 71,532.5C 71.7562,534.809 71.2562,536.809 69.5,538.5C 71.5923,540.789 71.9256,543.289 70.5,546C 65.5921,545.561 60.7587,545.395 56,545.5C 55.161,542.86 55.661,540.527 57.5,538.5C 55.2376,536.056 54.9043,533.389 56.5,530.5 Z"/></g>
<g><path style="opacity:1" fill="#edf0ee" d="M 62.5,536.5 C 65.8606,537.203 66.1939,538.537 63.5,540.5C 61.3576,539.563 61.0243,538.23 62.5,536.5 Z"/></g>
<g><path style="opacity:1" fill="#f0f0f0" d="M 255.5,513.5 C 255.5,517.5 255.5,521.5 255.5,525.5C 254.251,523.864 252.584,522.697 250.5,522C 220.5,521.333 190.5,521.333 160.5,522C 159.833,523.333 159.167,524.667 158.5,526C 159.089,527.873 158.422,529.54 156.5,531C 156.833,531.333 157.167,531.667 157.5,532C 152.196,540.122 144.863,544.622 135.5,545.5C 131.962,544.837 128.795,543.503 126,541.5C 125.667,541.833 125.333,542.167 125,542.5C 120.329,539.165 116.663,535.499 114,531.5C 113.012,528.576 112.346,525.576 112,522.5C 110.989,521.663 109.822,521.33 108.5,521.5C 81.3364,520.668 54.0031,520.168 26.5,520C 25.4495,518.615 24.1161,517.615 22.5,517C 28.0049,513.079 34.0049,509.912 40.5,507.5C 41.7412,508.037 42.9079,508.704 44,509.5C 45.563,508.898 45.3963,508.065 43.5,507C 44.4491,506.383 45.2825,506.549 46,507.5C 47.364,506.304 48.864,505.304 50.5,504.5C 54.8205,503.661 59.3205,503.661 64,504.5C 65.7374,503.38 67.5708,502.38 69.5,501.5C 71.326,501.92 73.326,501.92 75.5,501.5C 75.3505,502.552 75.5172,503.552 76,504.5C 77.2512,501.184 78.9179,500.85 81,503.5C 81.3333,503.167 81.6667,502.833 82,502.5C 82.3333,503.5 82.6667,504.5 83,505.5C 83.5831,503.998 84.4164,502.665 85.5,501.5C 87.4657,502.107 89.6324,502.107 92,501.5C 93.098,502.384 93.598,503.384 93.5,504.5C 94.6936,501.381 96.1936,501.048 98,503.5C 100.194,500.983 102.194,501.316 104,504.5C 104.333,503.5 104.667,502.5 105,501.5C 105.333,501.833 105.667,502.167 106,502.5C 109.933,501.944 113.766,500.944 117.5,499.5C 118.192,500.025 118.692,500.692 119,501.5C 121.251,498.837 124.585,496.837 129,495.5C 130.525,495.888 132.192,495.888 134,495.5C 135.316,498.028 136.483,498.028 137.5,495.5C 138.598,496.615 139.765,496.615 141,495.5C 146.339,496.615 151.505,498.115 156.5,500C 157.126,500.75 157.626,501.584 158,502.5C 165.473,501.523 173.139,501.189 181,501.5C 181.945,501.905 182.612,502.572 183,503.5C 183.308,502.692 183.808,502.025 184.5,501.5C 185.967,502.695 187.467,502.695 189,501.5C 190.892,501.777 192.225,502.777 193,504.5C 193.333,503.5 193.667,502.5 194,501.5C 195.794,501.991 197.794,501.991 200,501.5C 202.872,501.01 204.872,502.01 206,504.5C 207.154,502.043 208.488,502.043 210,504.5C 210.308,503.692 210.808,503.025 211.5,502.5C 214.362,503.95 217.029,505.616 219.5,507.5C 221.666,507.57 221.999,506.904 220.5,505.5C 223.553,504.835 226.553,505.335 229.5,507C 228.304,507.654 228.304,508.154 229.5,508.5C 233.193,507.585 236.359,508.585 239,511.5C 239.333,511.167 239.667,510.833 240,510.5C 241.218,512.019 242.718,513.186 244.5,514C 243.833,514.333 243.167,514.667 242.5,515C 243.667,515.5 244.5,516.333 245,517.5C 246.363,515.216 247.863,515.049 249.5,517C 249.167,517.333 248.833,517.667 248.5,518C 250.421,518.36 252.088,519.194 253.5,520.5C 253.651,518.255 254.318,515.922 255.5,513.5 Z"/></g>
<g><path style="opacity:1" fill="#dddedd" d="M 130.5,500.5 C 145.325,500.071 155.659,506.404 161.5,519.5C 159.659,520.23 157.825,520.897 156,521.5C 151.476,538.845 140.976,544.012 124.5,537C 120.039,532.799 117.372,527.633 116.5,521.5C 114.516,521.617 112.85,520.95 111.5,519.5C 111.794,516.241 113.294,513.241 116,510.5C 116.333,510.833 116.667,511.167 117,511.5C 117.536,509.131 118.703,507.131 120.5,505.5C 123.925,503.787 127.259,502.121 130.5,500.5 Z"/></g>
<g><path style="opacity:1" fill="#45664c" d="M 130.5,504.5 C 140.033,502.851 147.2,506.184 152,514.5C 153.833,531.333 146.333,538.833 129.5,537C 120.498,532.001 117.332,524.501 120,514.5C 122.409,509.922 125.909,506.588 130.5,504.5 Z"/></g>
<g><path style="opacity:1" fill="#e46933" d="M 133.5,512.5 C 137.167,513.167 140.833,513.833 144.5,514.5C 144.5,518.833 144.5,523.167 144.5,527.5C 138.833,527.5 133.167,527.5 127.5,527.5C 127.5,523.167 127.5,518.833 127.5,514.5C 130.01,514.946 132.01,514.28 133.5,512.5 Z"/></g>
<g><path style="opacity:1" fill="#616545" d="M 134.5,516.5 C 139.013,516.991 140.68,519.324 139.5,523.5C 135.751,526.418 133.085,525.585 131.5,521C 132.315,519.357 133.315,517.857 134.5,516.5 Z"/></g>
<g><path style="opacity:1" fill="#e46a33" d="M 134.5,518.5 C 138.161,518.35 139.161,519.85 137.5,523C 133.707,523.487 132.707,521.987 134.5,518.5 Z"/></g>
<g><path style="opacity:1" fill="#f6f6f6" d="M 255.5,484.5 C 255.5,494.167 255.5,503.833 255.5,513.5C 254.318,515.922 253.651,518.255 253.5,520.5C 252.088,519.194 250.421,518.36 248.5,518C 248.833,517.667 249.167,517.333 249.5,517C 247.863,515.049 246.363,515.216 245,517.5C 244.5,516.333 243.667,515.5 242.5,515C 243.167,514.667 243.833,514.333 244.5,514C 242.718,513.186 241.218,512.019 240,510.5C 239.667,510.833 239.333,511.167 239,511.5C 236.359,508.585 233.193,507.585 229.5,508.5C 228.304,508.154 228.304,507.654 229.5,507C 226.553,505.335 223.553,504.835 220.5,505.5C 221.999,506.904 221.666,507.57 219.5,507.5C 217.029,505.616 214.362,503.95 211.5,502.5C 210.808,503.025 210.308,503.692 210,504.5C 208.488,502.043 207.154,502.043 206,504.5C 204.872,502.01 202.872,501.01 200,501.5C 197.794,501.991 195.794,501.991 194,501.5C 193.667,502.5 193.333,503.5 193,504.5C 192.225,502.777 190.892,501.777 189,501.5C 187.467,502.695 185.967,502.695 184.5,501.5C 183.808,502.025 183.308,502.692 183,503.5C 182.612,502.572 181.945,501.905 181,501.5C 173.139,501.189 165.473,501.523 158,502.5C 157.626,501.584 157.126,500.75 156.5,500C 151.505,498.115 146.339,496.615 141,495.5C 139.765,496.615 138.598,496.615 137.5,495.5C 136.483,498.028 135.316,498.028 134,495.5C 132.192,495.888 130.525,495.888 129,495.5C 124.585,496.837 121.251,498.837 119,501.5C 118.692,500.692 118.192,500.025 117.5,499.5C 113.766,500.944 109.933,501.944 106,502.5C 105.667,502.167 105.333,501.833 105,501.5C 104.667,502.5 104.333,503.5 104,504.5C 102.194,501.316 100.194,500.983 98,503.5C 96.1936,501.048 94.6936,501.381 93.5,504.5C 93.598,503.384 93.098,502.384 92,501.5C 89.6324,502.107 87.4657,502.107 85.5,501.5C 84.4164,502.665 83.5831,503.998 83,505.5C 82.6667,504.5 82.3333,503.5 82,502.5C 81.6667,502.833 81.3333,503.167 81,503.5C 78.9179,500.85 77.2512,501.184 76,504.5C 75.5172,503.552 75.3505,502.552 75.5,501.5C 73.326,501.92 71.326,501.92 69.5,501.5C 67.5708,502.38 65.7374,503.38 64,504.5C 59.3205,503.661 54.8205,503.661 50.5,504.5C 48.864,505.304 47.364,506.304 46,507.5C 45.2825,506.549 44.4491,506.383 43.5,507C 45.3963,508.065 45.563,508.898 44,509.5C 42.9079,508.704 41.7412,508.037 40.5,507.5C 34.0049,509.912 28.0049,513.079 22.5,517C 24.1161,517.615 25.4495,518.615 26.5,520C 54.0031,520.168 81.3364,520.668 108.5,521.5C 79.4981,521.333 50.4981,521.5 21.5,522C 17.6499,523.353 14.9832,525.853 13.5,529.5C 13.5,520.167 13.5,510.833 13.5,501.5C 15.8462,499.663 18.3462,497.996 21,496.5C 23.7379,496.8 26.5713,497.3 29.5,498C 28.3279,497.581 27.3279,496.915 26.5,496C 29.7882,492.788 33.2882,492.288 37,494.5C 37.6667,490.5 38.3333,490.5 39,494.5C 40.3333,493.167 41.6667,491.833 43,490.5C 46.2562,490.598 49.5895,490.932 53,491.5C 54,490.833 55,490.167 56,489.5C 57.3086,491.891 58.3086,491.891 59,489.5C 59.9138,490.654 60.7471,490.487 61.5,489C 66.1412,488.883 70.3079,488.717 74,488.5C 76.1567,491.078 77.3233,491.078 77.5,488.5C 79.491,490.611 81.491,491.944 83.5,492.5C 83.9059,491.443 83.9059,490.109 83.5,488.5C 86.8495,489.139 90.0161,489.139 93,488.5C 94.3651,488.844 95.5318,489.511 96.5,490.5C 97.1667,489.833 97.8333,489.167 98.5,488.5C 99.8313,489.166 101.331,489.166 103,488.5C 103.833,488.667 104.667,488.833 105.5,489C 105.167,489.333 104.833,489.667 104.5,490C 106.652,492.082 107.319,491.916 106.5,489.5C 107.833,489.167 109.167,488.833 110.5,488.5C 117.601,488.935 124.768,488.935 132,488.5C 135.186,488.609 137.853,489.276 140,490.5C 140.333,489.833 140.667,489.167 141,488.5C 141.249,489.624 141.749,490.624 142.5,491.5C 142.296,490.471 142.796,489.471 144,488.5C 144.667,489.833 145.333,489.833 146,488.5C 146.617,489.449 146.451,490.282 145.5,491C 146,491.167 146.5,491.333 147,491.5C 148.472,489.116 150.638,488.116 153.5,488.5C 157.696,488.789 162.03,488.955 166.5,489C 167,489.5 167.5,490 168,490.5C 168.674,489.422 169.674,488.755 171,488.5C 173.632,488.569 176.299,488.569 179,488.5C 179.945,488.905 180.612,489.572 181,490.5C 181.667,489.833 182.333,489.167 183,488.5C 184.316,491.028 185.483,491.028 186.5,488.5C 187.72,489.711 188.887,489.711 190,488.5C 190.456,489.744 189.956,490.577 188.5,491C 189,491.5 189.5,492 190,492.5C 191.044,491.377 191.71,490.044 192,488.5C 195.301,488.499 198.801,488.666 202.5,489C 203.76,490.113 204.927,490.28 206,489.5C 206.804,490.804 207.971,491.471 209.5,491.5C 211.239,490.6 213.072,489.933 215,489.5C 218.694,489.41 222.527,489.744 226.5,490.5C 226.351,491.552 226.517,492.552 227,493.5C 227.419,492.328 228.085,491.328 229,490.5C 230.456,493.004 232.623,493.67 235.5,492.5C 238.461,493.183 238.795,494.016 236.5,495C 238.976,495.424 241.309,496.257 243.5,497.5C 244.442,497.392 245.275,497.059 246,496.5C 247.316,499.028 248.483,499.028 249.5,496.5C 249.749,497.582 249.915,498.915 250,500.5C 250.805,498.099 251.638,498.266 252.5,501C 249.937,501.763 249.937,502.263 252.5,502.5C 254.373,502.518 254.706,502.018 253.5,501C 254.146,495.4 254.813,489.9 255.5,484.5 Z"/></g>
<g><path style="opacity:1" fill="#e7e6e6" d="M 236.5,379.5 C 237.222,379.918 237.722,380.584 238,381.5C 239.162,387.557 238.162,393.223 235,398.5C 232.92,400.123 230.754,401.623 228.5,403C 165.833,403.667 103.167,403.667 40.5,403C 39.944,402.617 39.6107,402.117 39.5,401.5C 101.793,402.659 164.126,402.826 226.5,402C 230.796,401.053 233.463,398.553 234.5,394.5C 236.242,389.692 236.909,384.692 236.5,379.5 Z"/></g>
<g><path style="opacity:1" fill="#cfbdb6" d="M 31.5,378.5 C 29.4348,387.366 32.1014,394.199 39.5,399C 102.167,399.667 164.833,399.667 227.5,399C 230.233,398.096 232.567,396.596 234.5,394.5C 233.463,398.553 230.796,401.053 226.5,402C 164.126,402.826 101.793,402.659 39.5,401.5C 36.5642,399.745 33.7309,397.745 31,395.5C 30.1816,389.651 30.3483,383.985 31.5,378.5 Z"/></g>
<g><path style="opacity:1" fill="#e66932" d="M 234.5,374.5 C 235.931,375.78 236.598,377.447 236.5,379.5C 236.909,384.692 236.242,389.692 234.5,394.5C 232.567,396.596 230.233,398.096 227.5,399C 164.833,399.667 102.167,399.667 39.5,399C 32.1014,394.199 29.4348,387.366 31.5,378.5C 31.3284,377.508 31.6618,376.842 32.5,376.5C 35.2861,374.887 37.9528,373.054 40.5,371C 102.5,370.333 164.5,370.333 226.5,371C 229.336,371.921 232.002,373.088 234.5,374.5 Z"/></g>
<g><path style="opacity:1" fill="#211108" d="M 150.5,381.5 C 151.966,382.347 152.8,383.68 153,385.5C 153.923,384.241 154.757,382.908 155.5,381.5C 155.833,381.833 156.167,382.167 156.5,382.5C 155.162,385.176 153.829,387.842 152.5,390.5C 152.289,387.625 151.623,384.625 150.5,381.5 Z"/></g>
<g><path style="opacity:1" fill="#30180d" d="M 124.5,381.5 C 127.5,381.167 128.833,382.5 128.5,385.5C 124.107,385.457 123.774,385.957 127.5,387C 122.289,387.546 121.289,385.713 124.5,381.5 Z"/></g>
<g><path style="opacity:1" fill="#1d0e05" d="M 142.5,381.5 C 143.693,381.97 144.36,382.97 144.5,384.5C 144.167,385.5 143.833,386.5 143.5,387.5C 142.534,385.604 142.201,383.604 142.5,381.5 Z"/></g>
<g><path style="opacity:1" fill="#30170c" d="M 130.5,381.5 C 132.086,381.693 133.753,382.027 135.5,382.5C 136.681,384.198 136.681,385.865 135.5,387.5C 134.571,386.311 134.238,384.978 134.5,383.5C 133.5,383.5 132.5,383.5 131.5,383.5C 131.657,384.873 131.49,386.207 131,387.5C 130.505,385.527 130.338,383.527 130.5,381.5 Z"/></g>
<g><path style="opacity:1" fill="#271309" d="M 119.5,379.5 C 121.369,381.635 122.036,384.302 121.5,387.5C 119.473,387.662 117.473,387.495 115.5,387C 114.978,386.439 114.645,385.772 114.5,385C 115.866,382.761 117.533,380.927 119.5,379.5 Z"/></g>
<g><path style="opacity:1" fill="#d9632f" d="M 116.5,383.5 C 117.5,383.5 118.5,383.5 119.5,383.5C 119.5,384.5 119.5,385.5 119.5,386.5C 118.5,386.5 117.5,386.5 116.5,386.5C 116.5,385.5 116.5,384.5 116.5,383.5 Z"/></g>
<g><path style="opacity:1" fill="#0d0401" d="M 146.5,379.5 C 147.239,379.369 147.906,379.536 148.5,380C 148.064,382.178 147.564,384.678 147,387.5C 146.048,384.699 145.882,382.033 146.5,379.5 Z"/></g>
<g><path style="opacity:1" fill="#120702" d="M 138.5,380.5 C 139.473,380.987 140.473,381.487 141.5,382C 138.833,383.667 138.833,385.333 141.5,387C 140.552,387.483 139.552,387.649 138.5,387.5C 138.15,384.959 138.15,382.626 138.5,380.5 Z"/></g>
<g><path style="opacity:1" fill="#1a0c04" d="M 111.5,379.5 C 112.748,380.334 113.415,381.667 113.5,383.5C 113.167,384.833 112.833,386.167 112.5,387.5C 111.52,384.914 111.187,382.247 111.5,379.5 Z"/></g>
<g><path style="opacity:1" fill="#c55a2b" d="M 231.5,370.5 C 233.262,371.262 234.262,372.596 234.5,374.5C 232.002,373.088 229.336,371.921 226.5,371C 164.5,370.333 102.5,370.333 40.5,371C 37.9528,373.054 35.2861,374.887 32.5,376.5C 32.5569,375.391 32.8902,374.391 33.5,373.5C 35.5952,372.588 37.5952,371.421 39.5,370C 103.522,369.181 167.522,369.348 231.5,370.5 Z"/></g>
<g><path style="opacity:1" fill="#b25329" d="M 231.5,370.5 C 167.522,369.348 103.522,369.181 39.5,370C 37.5952,371.421 35.5952,372.588 33.5,373.5C 35.0714,370.769 37.4048,368.935 40.5,368C 102.167,367.333 163.833,367.333 225.5,368C 227.852,368.24 229.852,369.073 231.5,370.5 Z"/></g>
<g><path style="opacity:1" fill="#a0a0a0" d="M 265.5,534.5 C 266.462,547.41 261.462,557.244 250.5,564C 246.012,565.811 241.346,566.811 236.5,567C 168.5,567.667 100.5,567.667 32.5,567C 19.9412,567.065 10.9412,561.565 5.5,550.5C 4.67131,547.531 4.50465,544.531 5,541.5C 5.23209,542.737 5.73209,543.737 6.5,544.5C 9.35126,554.851 16.0179,561.351 26.5,564C 97.8333,564.667 169.167,564.667 240.5,564C 255.04,560.624 262.373,551.458 262.5,536.5C 262.833,536.5 263.167,536.5 263.5,536.5C 263.34,538.199 263.506,539.866 264,541.5C 264.186,538.964 264.686,536.631 265.5,534.5 Z"/></g>
<g><path style="opacity:1" fill="#e6e6e6" d="M 23.5,554.5 C 96.8333,554.5 170.167,554.5 243.5,554.5C 242.737,555.268 241.737,555.768 240.5,556C 169.167,556.667 97.8333,556.667 26.5,556C 25.2625,555.768 24.2625,555.268 23.5,554.5 Z"/></g>
</svg>
