<?xml version="1.0" encoding="UTF-8"?>
<!DOCTYPE svg PUBLIC "-//W3C//DTD SVG 1.1//EN" "http://www.w3.org/Graphics/SVG/1.1/DTD/svg11.dtd">
<svg xmlns="http://www.w3.org/2000/svg" version="1.1" width="273px" height="576px" style="shape-rendering:geometricPrecision; text-rendering:geometricPrecision; image-rendering:optimizeQuality; fill-rule:evenodd; clip-rule:evenodd" xmlns:xlink="http://www.w3.org/1999/xlink">
<g><path style="opacity:1" fill="#4d4d4d" d="M 29.5,10.5 C 29.5,10.1667 29.5,9.83333 29.5,9.5C 99.6687,9.16747 169.669,9.5008 239.5,10.5C 236.194,11.8233 232.861,12.8233 229.5,13.5C 166.166,13.6667 102.832,13.5 39.5,13C 36.0248,12.5532 32.6915,11.7199 29.5,10.5 Z"/></g>
<g><path style="opacity:1" fill="#737373" d="M 71.5,11.5 C 123.665,10.3349 175.998,10.1683 228.5,11C 203.894,12.1528 179.227,12.6528 154.5,12.5C 126.825,12.4436 99.1582,12.1103 71.5,11.5 Z"/></g>
<g><path style="opacity:1" fill="#030303" d="M 238.5,14.5 C 249.183,16.0106 256.016,22.0106 259,32.5C 259.499,36.8206 259.666,41.1539 259.5,45.5C 259.5,108.5 259.5,171.5 259.5,234.5C 259.5,336.167 259.5,437.833 259.5,539.5C 257.497,551.003 250.831,558.169 239.5,561C 169.167,561.667 98.8333,561.667 28.5,561C 18.7779,558.945 12.6113,553.112 10,543.5C 9.33333,372.5 9.33333,201.5 10,30.5C 12.4351,23.0657 17.2684,17.899 24.5,15C 95.8326,14.5 167.166,14.3333 238.5,14.5 Z"/></g>
<g><path style="opacity:1" fill="#fcfcfc" d="M 255.5,53.5 C 174.833,53.5 94.1667,53.5 13.5,53.5C 13.5,45.8333 13.5,38.1667 13.5,30.5C 15.927,24.9047 19.927,20.738 25.5,18C 97.8333,17.3333 170.167,17.3333 242.5,18C 247.541,20.2554 251.375,23.7554 254,28.5C 255.406,36.7492 255.906,45.0826 255.5,53.5 Z"/></g>
<g><path style="opacity:1" fill="#ea7846" d="M 28.5,29.5 C 38.876,29.876 42.7093,35.2093 40,45.5C 37.0682,51.544 32.5682,53.044 26.5,50C 20.7189,42.4302 21.3856,35.5969 28.5,29.5 Z"/></g>
<g><path style="opacity:1" fill="#fef4f0" d="M 29.5,31.5 C 37.2601,32.3123 40.0934,36.6456 38,44.5C 35.8041,49.5402 32.3041,50.7068 27.5,48C 23.0582,41.7441 23.7249,36.2441 29.5,31.5 Z"/></g>
<g><path style="opacity:1" fill="#0e0e0e" d="M 91.5,31.5 C 97.1667,31.6636 97.5,31.9969 92.5,32.5C 92.5,33.5 92.5,34.5 92.5,35.5C 96.5,35.8333 96.5,36.1667 92.5,36.5C 92.6495,37.552 92.4828,38.552 92,39.5C 91.5026,36.854 91.3359,34.1873 91.5,31.5 Z"/></g>
<g><path style="opacity:1" fill="#131313" d="M 131.5,32.5 C 132.693,32.9704 133.36,33.9704 133.5,35.5C 133.333,36.5 133.167,37.5 133,38.5C 130.959,39.4231 128.792,39.7564 126.5,39.5C 126.5,36.8333 126.5,34.1667 126.5,31.5C 128.415,31.2155 130.081,31.5489 131.5,32.5 Z"/></g>
<g><path style="opacity:1" fill="#272727" d="M 162.5,32.5 C 163.643,32.9081 164.643,33.5748 165.5,34.5C 164.253,36.0421 164.253,37.5421 165.5,39C 164.552,39.4828 163.552,39.6495 162.5,39.5C 161.933,37.0314 161.933,34.698 162.5,32.5 Z"/></g>
<g><path style="opacity:1" fill="#e4e4e4" d="M 131.5,32.5 C 130.081,31.5489 128.415,31.2155 126.5,31.5C 126.5,34.1667 126.5,36.8333 126.5,39.5C 128.792,39.7564 130.959,39.4231 133,38.5C 133.167,37.5 133.333,36.5 133.5,35.5C 133.36,33.9704 132.693,32.9704 131.5,32.5 Z"/></g>
<g><path style="opacity:1" fill="#111111" d="M 100.5,33.5 C 101.043,33.56 101.376,33.8933 101.5,34.5C 100.137,35.8928 99.3036,37.5595 99,39.5C 98.2568,37.1261 98.7568,35.1261 100.5,33.5 Z"/></g>
<g><path style="opacity:1" fill="#3c3c3c" d="M 177.5,33.5 C 182.895,32.5548 184.561,34.5548 182.5,39.5C 181.167,34.1667 179.833,34.1667 178.5,39.5C 177.534,37.604 177.201,35.604 177.5,33.5 Z"/></g>
<g><path style="opacity:1" fill="#e9703b" d="M 30.5,36.5 C 30.9064,38.3581 32.5731,39.6914 35.5,40.5C 34.1667,41.1667 32.8333,41.8333 31.5,42.5C 32.8938,43.6869 32.7271,44.3535 31,44.5C 29.6057,43.3867 28.439,42.0534 27.5,40.5C 28.5244,39.1482 29.5244,37.8149 30.5,36.5 Z"/></g>
<g><path style="opacity:1" fill="#3e3e3e" d="M 103.5,33.5 C 106.95,32.7564 108.616,34.0897 108.5,37.5C 104.107,37.4568 103.774,37.9568 107.5,39C 105.041,40.9377 103.374,40.271 102.5,37C 102.989,35.8615 103.322,34.6948 103.5,33.5 Z"/></g>
<g><path style="opacity:1" fill="#323232" d="M 116.5,31.5 C 117.268,32.2625 117.768,33.2625 118,34.5C 119.333,33.1667 120.667,33.1667 122,34.5C 122.798,36.2588 122.631,37.9255 121.5,39.5C 120.571,38.3112 120.238,36.9778 120.5,35.5C 119.5,35.5 118.5,35.5 117.5,35.5C 117.657,36.8734 117.49,38.2068 117,39.5C 116.503,36.854 116.336,34.1873 116.5,31.5 Z"/></g>
<g><path style="opacity:1" fill="#484848" d="M 143.5,32.5 C 146.915,33.3956 147.248,34.8956 144.5,37C 147.39,38.8918 147.056,39.7251 143.5,39.5C 143.392,34.8634 142.392,34.53 140.5,38.5C 138.955,39.4519 137.288,39.7852 135.5,39.5C 134.404,34.6241 136.071,32.9574 140.5,34.5C 141.739,34.0576 142.739,33.3909 143.5,32.5 Z"/></g>
<g><path style="opacity:1" fill="#505050" d="M 148.5,33.5 C 152.225,33.5372 153.558,35.2038 152.5,38.5C 150.955,39.4519 149.288,39.7852 147.5,39.5C 147.325,37.3792 147.659,35.3792 148.5,33.5 Z"/></g>
<g><path style="opacity:1" fill="#313131" d="M 171.5,33.5 C 175.485,33.6294 176.818,35.4628 175.5,39C 173.866,39.4935 172.199,39.6602 170.5,39.5C 170.325,37.3792 170.659,35.3792 171.5,33.5 Z"/></g>
<g><path style="opacity:1" fill="#e3e3e3" d="M 171.5,35.5 C 172.5,35.5 173.5,35.5 174.5,35.5C 174.5,36.5 174.5,37.5 174.5,38.5C 173.5,38.5 172.5,38.5 171.5,38.5C 171.5,37.5 171.5,36.5 171.5,35.5 Z"/></g>
<g><path style="opacity:1" fill="#313131" d="M 110.5,33.5 C 112.103,33.3118 113.437,33.8118 114.5,35C 113.833,35.3333 113.167,35.6667 112.5,36C 115.064,37.4813 115.064,38.9813 112.5,40.5C 109.924,39.1166 110.258,38.2833 113.5,38C 110.418,37.4785 109.418,35.9785 110.5,33.5 Z"/></g>
<g><path style="opacity:1" fill="#3b3b3b" d="M 156.5,33.5 C 158.346,33.2222 159.68,33.8888 160.5,35.5C 159.609,36.5896 158.609,36.5896 157.5,35.5C 156.167,36.5 156.167,37.5 157.5,38.5C 161.508,37.8919 161.508,38.5586 157.5,40.5C 153.967,38.5798 153.633,36.2465 156.5,33.5 Z"/></g>
<g><path style="opacity:0.971" fill="#bdbdbd" d="M 37.5,7.5 C 107.545,7.01308 177.545,7.51308 247.5,9C 260.704,15.2256 266.87,25.7256 266,40.5C 266.178,62.2394 266.678,83.9061 267.5,105.5C 267.652,133.685 266.986,161.851 265.5,190C 265.5,198.007 265.834,205.841 266.5,213.5C 267.167,213.5 267.5,213.833 267.5,214.5C 265.669,321.486 265.002,428.486 265.5,535.5C 264.686,537.631 264.186,539.964 264,542.5C 263.506,540.866 263.34,539.199 263.5,537.5C 263.667,368.833 263.5,200.166 263,31.5C 259.716,19.3816 251.883,12.3816 239.5,10.5C 169.669,9.5008 99.6687,9.16747 29.5,9.5C 32.1667,8.83333 34.8333,8.16667 37.5,7.5 Z"/></g>
<g><path style="opacity:0.921" fill="#b8b8b8" d="M 37.5,7.5 C 34.8333,8.16667 32.1667,8.83333 29.5,9.5C 29.5,9.83333 29.5,10.1667 29.5,10.5C 14.6977,12.3023 6.69771,20.6356 5.5,35.5C 5.16632,204.002 4.16632,372.336 2.5,540.5C 1.37452,517.504 1.37452,494.504 2.5,471.5C 2.5,330.833 2.5,190.167 2.5,49.5C 2.33385,43.4908 2.50051,37.4908 3,31.5C 7.1757,13.3065 18.6757,5.30654 37.5,7.5 Z"/></g>
<g><path style="opacity:0.244" fill="#000000" d="M 2.5,49.5 C 2.5,190.167 2.5,330.833 2.5,471.5C 1.84749,448.82 0.847492,426.153 -0.5,403.5C -0.5,364.833 -0.5,326.167 -0.5,287.5C 1.81832,229.83 1.81832,172.164 -0.5,114.5C -0.5,109.167 -0.5,103.833 -0.5,98.5C 0.623193,82.173 1.62319,65.8396 2.5,49.5 Z"/></g>
<g><path style="opacity:1" fill="#717171" d="M 5.5,35.5 C 5.5,43.8333 5.5,52.1667 5.5,60.5C 5.5,125.5 5.5,190.5 5.5,255.5C 5.1832,352.18 5.51654,448.847 6.5,545.5C 5.73209,544.737 5.23209,543.737 5,542.5C 4.50465,545.531 4.67131,548.531 5.5,551.5C 3.43177,548.237 2.43177,544.57 2.5,540.5C 4.16632,372.336 5.16632,204.002 5.5,35.5 Z"/></g>
<g><path style="opacity:1" fill="#606060" d="M 13.5,30.5 C 13.5,38.1667 13.5,45.8333 13.5,53.5C 94.1667,53.5 174.833,53.5 255.5,53.5C 255.5,53.8333 255.5,54.1667 255.5,54.5C 174.833,54.5 94.1667,54.5 13.5,54.5C 13.5,204.167 13.5,353.833 13.5,503.5C 13.5,511.833 13.5,520.167 13.5,528.5C 13.6716,529.492 13.3382,530.158 12.5,530.5C 12.167,363.666 12.5003,196.999 13.5,30.5 Z"/></g>
<g><path style="opacity:1" fill="#fdfdfd" d="M 255.5,54.5 C 255.5,198.5 255.5,342.5 255.5,486.5C 254.955,492.158 254.121,497.825 253,503.5C 252.085,502.672 251.419,501.672 251,500.5C 250.581,501.672 249.915,502.672 249,503.5C 248.316,501.641 247.316,499.974 246,498.5C 243.902,498.815 241.902,498.815 240,498.5C 238.823,497.682 237.49,496.682 236,495.5C 232.544,494.42 228.877,494.42 225,495.5C 223.684,492.972 222.517,492.972 221.5,495.5C 220.201,494.91 219.368,493.91 219,492.5C 217.915,493.293 216.748,493.96 215.5,494.5C 214.304,494.154 214.304,493.654 215.5,493C 213.623,492.424 211.789,492.591 210,493.5C 209.05,492.978 208.216,492.311 207.5,491.5C 205.657,491.755 203.657,491.922 201.5,492C 203.901,492.805 203.734,493.638 201,494.5C 200.751,493.376 200.251,492.376 199.5,491.5C 199.511,492.441 199.011,493.108 198,493.5C 197.333,492.833 196.667,492.167 196,491.5C 194.739,491.759 193.739,492.426 193,493.5C 191.992,493.018 190.825,492.852 189.5,493C 190.696,492.346 190.696,491.846 189.5,491.5C 187.724,491.718 185.891,491.718 184,491.5C 182.394,493.984 180.894,493.984 179.5,491.5C 172.464,491.524 164.798,491.524 156.5,491.5C 152.576,491.701 152.576,492.201 156.5,493C 154.671,494.538 153.171,494.038 152,491.5C 151.683,493.301 151.016,493.634 150,492.5C 147.232,495.088 145.232,494.755 144,491.5C 140.485,492.091 137.151,492.091 134,491.5C 133.692,492.308 133.192,492.975 132.5,493.5C 129.4,491.273 126.233,491.273 123,493.5C 122.612,492.572 121.945,491.905 121,491.5C 111.741,491.963 102.408,491.963 93,491.5C 91.7147,491.95 90.548,492.617 89.5,493.5C 88.4826,490.972 87.3159,490.972 86,493.5C 83.7564,491.006 81.4231,491.006 79,493.5C 77.1353,491.327 74.9686,490.993 72.5,492.5C 72.0024,493.603 71.6691,494.603 71.5,495.5C 68.5386,494.817 68.2053,493.984 70.5,493C 67.0261,491.207 63.8594,491.707 61,494.5C 60.0853,493.672 59.4186,492.672 59,491.5C 58.6924,492.308 58.1924,492.975 57.5,493.5C 55.1446,492.772 52.6446,492.438 50,492.5C 47.2691,493.831 44.6024,495.164 42,496.5C 41.3333,495.833 40.6667,495.167 40,494.5C 38,495.167 36,495.833 34,496.5C 33.586,496.043 33.086,495.709 32.5,495.5C 28.1949,497.636 24.0282,499.303 20,500.5C 19.6667,500.167 19.3333,499.833 19,499.5C 18.3333,501.5 17.6667,503.5 17,505.5C 16.2904,504.027 15.1238,503.36 13.5,503.5C 13.5,353.833 13.5,204.167 13.5,54.5C 94.1667,54.5 174.833,54.5 255.5,54.5 Z"/></g>
<g><path style="opacity:1" fill="#4f4f4f" d="M 259.5,45.5 C 260.314,47.631 260.814,49.9644 261,52.5C 261.665,113.339 261.165,174.006 259.5,234.5C 259.5,171.5 259.5,108.5 259.5,45.5 Z"/></g>
<g><path style="opacity:1" fill="#b2432e" d="M 163.5,104.5 C 161.194,104.993 158.861,105.326 156.5,105.5C 151.954,105.84 147.454,106.507 143,107.5C 141.989,107.108 141.489,106.441 141.5,105.5C 139.803,106.912 138.136,107.246 136.5,106.5C 135.5,106.5 134.5,106.5 133.5,106.5C 131.5,106.5 129.5,106.5 127.5,106.5C 124.941,106.802 122.607,106.468 120.5,105.5C 131.061,105.517 141.561,104.85 152,103.5C 156.015,103.501 159.849,103.835 163.5,104.5 Z"/></g>
<g><path style="opacity:1" fill="#a14c15" d="M 120.5,105.5 C 122.607,106.468 124.941,106.802 127.5,106.5C 126.081,107.451 124.415,107.784 122.5,107.5C 122.433,108.959 122.766,110.292 123.5,111.5C 124.546,114.19 125.546,116.857 126.5,119.5C 123.102,119.82 119.768,119.487 116.5,118.5C 117.5,116.833 118.5,115.167 119.5,113.5C 118.349,111.675 117.682,109.675 117.5,107.5C 116.167,107.5 114.833,107.5 113.5,107.5C 114.278,106.844 114.944,106.011 115.5,105C 113.3,100.768 110.967,96.6018 108.5,92.5C 110.353,91.2404 112.186,91.2404 114,92.5C 116.164,96.8288 118.331,101.162 120.5,105.5 Z"/></g>
<g><path style="opacity:0.527" fill="#717171" d="M 267.5,105.5 C 268.167,116.328 268.5,127.328 268.5,138.5C 267.056,163.352 266.39,188.352 266.5,213.5C 265.834,205.841 265.5,198.007 265.5,190C 266.986,161.851 267.652,133.685 267.5,105.5 Z"/></g>
<g><path style="opacity:1" fill="#d74326" d="M 127.5,106.5 C 129.5,106.5 131.5,106.5 133.5,106.5C 132.167,107.833 130.833,109.167 129.5,110.5C 127.5,110.833 125.5,111.167 123.5,111.5C 122.766,110.292 122.433,108.959 122.5,107.5C 124.415,107.784 126.081,107.451 127.5,106.5 Z"/></g>
<g><path style="opacity:1" fill="#ee8b47" d="M 133.5,106.5 C 134.5,106.5 135.5,106.5 136.5,106.5C 136.586,107.496 136.252,108.329 135.5,109C 136,109.167 136.5,109.333 137,109.5C 140.789,108.438 144.623,108.271 148.5,109C 146.536,110.451 145.203,112.284 144.5,114.5C 144.5,115.167 144.167,115.5 143.5,115.5C 143.5,113.833 143.5,112.167 143.5,110.5C 140.812,110.166 138.479,110.832 136.5,112.5C 134.544,110.852 132.211,110.185 129.5,110.5C 130.833,109.167 132.167,107.833 133.5,106.5 Z"/></g>
<g><path style="opacity:1" fill="#dc6437" d="M 156.5,105.5 C 153.283,106.378 150.95,108.378 149.5,111.5C 147.646,112.241 145.979,113.241 144.5,114.5C 145.203,112.284 146.536,110.451 148.5,109C 144.623,108.271 140.789,108.438 137,109.5C 136.5,109.333 136,109.167 135.5,109C 136.252,108.329 136.586,107.496 136.5,106.5C 138.136,107.246 139.803,106.912 141.5,105.5C 141.489,106.441 141.989,107.108 143,107.5C 147.454,106.507 151.954,105.84 156.5,105.5 Z"/></g>
<g><path style="opacity:1" fill="#444444" d="M 239.5,10.5 C 251.883,12.3816 259.716,19.3816 263,31.5C 263.5,200.166 263.667,368.833 263.5,537.5C 263.167,537.5 262.833,537.5 262.5,537.5C 262.667,476.166 262.5,414.832 262,353.5C 261.293,415.666 260.46,477.666 259.5,539.5C 259.5,437.833 259.5,336.167 259.5,234.5C 261.165,174.006 261.665,113.339 261,52.5C 260.814,49.9644 260.314,47.631 259.5,45.5C 259.666,41.1539 259.499,36.8206 259,32.5C 256.016,22.0106 249.183,16.0106 238.5,14.5C 235.713,13.5233 232.713,13.19 229.5,13.5C 232.861,12.8233 236.194,11.8233 239.5,10.5 Z"/></g>
<g><path style="opacity:1" fill="#a00c06" d="M 163.5,104.5 C 163.5,105.5 163.5,106.5 163.5,107.5C 166.167,108.167 168.833,108.833 171.5,109.5C 171.227,111.451 171.893,112.951 173.5,114C 172.234,114.309 171.067,114.809 170,115.5C 169.275,113.842 168.108,113.342 166.5,114C 167.167,114.667 167.833,115.333 168.5,116C 167.289,117.113 167.289,118.28 168.5,119.5C 170.045,120.452 171.712,120.785 173.5,120.5C 173.5,121.833 173.5,123.167 173.5,124.5C 171.052,124.085 169.719,125.085 169.5,127.5C 170.995,129.17 172.328,131.003 173.5,133C 171.064,133.124 168.731,132.624 166.5,131.5C 166.094,134.719 166.094,137.719 166.5,140.5C 166.675,142.621 166.341,144.621 165.5,146.5C 163.856,146.286 162.356,146.62 161,147.5C 161.371,153.14 159.037,154.807 154,152.5C 153.667,154.047 154.167,155.38 155.5,156.5C 152.478,156.928 149.978,158.261 148,160.5C 147.667,160.167 147.333,159.833 147,159.5C 146.395,161.481 145.395,161.815 144,160.5C 143.51,161.793 143.343,163.127 143.5,164.5C 140.211,160.737 138.711,156.404 139,151.5C 140.333,150.167 141.667,148.833 143,147.5C 144.699,148.406 146.533,148.739 148.5,148.5C 148.5,147.5 148.5,146.5 148.5,145.5C 149.552,145.649 150.552,145.483 151.5,145C 152.155,143.513 153.155,142.347 154.5,141.5C 154.734,139.339 155.067,137.172 155.5,135C 157.061,134.682 158.228,133.849 159,132.5C 160.356,133.38 161.856,133.714 163.5,133.5C 163.192,131.076 163.526,128.743 164.5,126.5C 165.167,127.167 165.833,127.833 166.5,128.5C 167.616,125.552 166.616,123.386 163.5,122C 164.406,120.301 164.739,118.467 164.5,116.5C 158.593,117.091 153.593,115.424 149.5,111.5C 150.95,108.378 153.283,106.378 156.5,105.5C 158.861,105.326 161.194,104.993 163.5,104.5 Z"/></g>
<g><path style="opacity:1" fill="#9a3a2e" d="M 108.5,108.5 C 106.856,110.481 105.19,112.481 103.5,114.5C 95.5889,115.281 87.9222,116.948 80.5,119.5C 89.5884,115.465 98.9217,111.799 108.5,108.5 Z"/></g>
<g><path style="opacity:1" fill="#b6301d" d="M 113.5,107.5 C 114.833,107.5 116.167,107.5 117.5,107.5C 117.682,109.675 118.349,111.675 119.5,113.5C 118.5,115.167 117.5,116.833 116.5,118.5C 119.768,119.487 123.102,119.82 126.5,119.5C 130.371,119.815 134.038,119.482 137.5,118.5C 138.833,118.167 140.167,117.833 141.5,117.5C 141.586,118.496 141.252,119.329 140.5,120C 138.564,120.813 136.564,121.313 134.5,121.5C 124.732,121.419 114.898,120.419 105,118.5C 97.1632,119.3 89.3298,120.134 81.5,121C 79.3716,121.655 77.3716,122.489 75.5,123.5C 76.5846,121.413 78.2512,120.08 80.5,119.5C 87.9222,116.948 95.5889,115.281 103.5,114.5C 105.19,112.481 106.856,110.481 108.5,108.5C 109.919,107.549 111.585,107.216 113.5,107.5 Z"/></g>
<g><path style="opacity:1" fill="#f9b553" d="M 143.5,115.5 C 142.5,115.833 141.833,116.5 141.5,117.5C 140.167,117.833 138.833,118.167 137.5,118.5C 135.155,117.012 134.821,115.012 136.5,112.5C 138.479,110.832 140.812,110.166 143.5,110.5C 143.5,112.167 143.5,113.833 143.5,115.5 Z"/></g>
<g><path style="opacity:1" fill="#f8b47f" d="M 129.5,110.5 C 132.211,110.185 134.544,110.852 136.5,112.5C 134.821,115.012 135.155,117.012 137.5,118.5C 134.038,119.482 130.371,119.815 126.5,119.5C 125.546,116.857 124.546,114.19 123.5,111.5C 125.5,111.167 127.5,110.833 129.5,110.5 Z"/></g>
<g><path style="opacity:1" fill="#db3421" d="M 134.5,121.5 C 136.229,122.236 137.229,123.57 137.5,125.5C 134.5,125.5 131.5,125.5 128.5,125.5C 116.334,124.576 104.334,124.576 92.5,125.5C 90.8333,125.5 89.1667,125.5 87.5,125.5C 88.2341,124.292 88.5674,122.959 88.5,121.5C 85.5178,121.104 82.8511,121.771 80.5,123.5C 74.7205,130.439 69.5538,137.772 65,145.5C 64.2489,150.572 64.5822,155.572 66,160.5C 66.3333,159.5 66.6667,158.5 67,157.5C 68.7506,159.49 69.7506,161.823 70,164.5C 70.2492,163.376 70.7492,162.376 71.5,161.5C 72.1667,162.833 72.8333,164.167 73.5,165.5C 74.8599,164.82 76.1932,164.153 77.5,163.5C 76.9401,167.193 76.2735,170.86 75.5,174.5C 73.5648,173.85 71.5648,173.517 69.5,173.5C 69.7989,171.396 69.4656,169.396 68.5,167.5C 66.4457,164.617 64.6123,161.617 63,158.5C 62.3594,152.472 62.5261,146.472 63.5,140.5C 64.7417,136.345 66.7417,132.678 69.5,129.5C 71.5,128.167 73.1667,126.5 74.5,124.5C 74.5,123.833 74.8333,123.5 75.5,123.5C 77.3716,122.489 79.3716,121.655 81.5,121C 89.3298,120.134 97.1632,119.3 105,118.5C 114.898,120.419 124.732,121.419 134.5,121.5 Z"/></g>
<g><path style="opacity:1" fill="#b95447" d="M 74.5,124.5 C 73.1667,126.5 71.5,128.167 69.5,129.5C 70.1667,126.833 71.8333,125.167 74.5,124.5 Z"/></g>
<g><path style="opacity:1" fill="#6f0f08" d="M 182.5,119.5 C 183.833,119.5 185.167,119.5 186.5,119.5C 186.5,120.5 186.5,121.5 186.5,122.5C 187.5,122.5 188.5,122.5 189.5,122.5C 189.338,124.527 189.505,126.527 190,128.5C 190.333,127.167 190.667,125.833 191,124.5C 193.896,127.454 195.229,131.121 195,135.5C 195.45,138.106 196.95,139.439 199.5,139.5C 199.337,141.857 199.503,144.19 200,146.5C 200.383,147.056 200.883,147.389 201.5,147.5C 200.705,151.785 200.372,156.119 200.5,160.5C 199.833,160.833 199.167,161.167 198.5,161.5C 198.092,158.47 197.426,155.47 196.5,152.5C 196.924,150.13 197.091,147.796 197,145.5C 196.29,146.973 195.124,147.64 193.5,147.5C 193.884,151.747 194.551,155.914 195.5,160C 194.135,161.682 192.635,161.849 191,160.5C 190.986,154.253 189.986,148.253 188,142.5C 187.202,139.761 185.535,137.761 183,136.5C 180.927,133.027 179.427,129.36 178.5,125.5C 180.288,125.785 181.955,125.452 183.5,124.5C 182.691,122.929 182.357,121.262 182.5,119.5 Z"/></g>
<g><path style="opacity:1" fill="#f4b6af" d="M 96.5,125.5 C 97.8333,125.5 99.1667,125.5 100.5,125.5C 100.351,126.552 100.517,127.552 101,128.5C 101.816,127.177 102.983,126.511 104.5,126.5C 104.369,127.239 104.536,127.906 105,128.5C 108.249,127.31 111.416,127.643 114.5,129.5C 116.087,128.638 117.754,127.971 119.5,127.5C 122.303,129.354 125.136,130.354 128,130.5C 129.234,135.115 127.734,138.448 123.5,140.5C 122.105,139.185 121.105,139.519 120.5,141.5C 118.955,142.452 117.288,142.785 115.5,142.5C 115.5,141.167 115.5,139.833 115.5,138.5C 112.497,139.834 109.497,141.167 106.5,142.5C 108.113,141.162 108.613,139.495 108,137.5C 106.066,139.961 103.566,141.794 100.5,143C 95.8166,143.835 91.1499,144.668 86.5,145.5C 85.8933,145.376 85.56,145.043 85.5,144.5C 91.8888,143.067 98.2222,141.234 104.5,139C 105.981,138.02 107.315,136.853 108.5,135.5C 103.919,134.758 99.7527,133.091 96,130.5C 93.4438,131.219 92.2771,132.886 92.5,135.5C 90.3792,135.325 88.3792,135.659 86.5,136.5C 87.4325,133.361 89.0991,130.694 91.5,128.5C 94.5384,130.878 96.2051,129.878 96.5,125.5 Z"/></g>
<g><path style="opacity:1" fill="#6a1d14" d="M 166.5,104.5 C 181.561,109.562 192.561,119.228 199.5,133.5C 199.7,136.63 200.366,139.63 201.5,142.5C 201.5,144.167 201.5,145.833 201.5,147.5C 200.883,147.389 200.383,147.056 200,146.5C 199.503,144.19 199.337,141.857 199.5,139.5C 196.95,139.439 195.45,138.106 195,135.5C 195.229,131.121 193.896,127.454 191,124.5C 190.667,125.833 190.333,127.167 190,128.5C 189.505,126.527 189.338,124.527 189.5,122.5C 188.5,122.5 187.5,122.5 186.5,122.5C 186.5,121.5 186.5,120.5 186.5,119.5C 185.167,119.5 183.833,119.5 182.5,119.5C 180.787,118.365 180.12,116.698 180.5,114.5C 177.245,114.986 174.578,113.986 172.5,111.5C 173.167,110.833 173.833,110.167 174.5,109.5C 170.787,109.265 168.12,107.598 166.5,104.5 Z"/></g>
<g><path style="opacity:1" fill="#fcdac9" d="M 85.5,144.5 C 85.2786,141.721 85.612,139.054 86.5,136.5C 88.3792,135.659 90.3792,135.325 92.5,135.5C 92.2771,132.886 93.4438,131.219 96,130.5C 99.7527,133.091 103.919,134.758 108.5,135.5C 107.315,136.853 105.981,138.02 104.5,139C 98.2222,141.234 91.8888,143.067 85.5,144.5 Z"/></g>
<g><path style="opacity:1" fill="#db6561" d="M 92.5,125.5 C 104.334,124.576 116.334,124.576 128.5,125.5C 133.941,126.844 139.441,126.51 145,124.5C 150.089,124.947 151.756,127.614 150,132.5C 148.667,133.833 147.333,133.833 146,132.5C 144.902,133.967 143.402,134.801 141.5,135C 135.311,141.994 127.644,146.827 118.5,149.5C 116.761,148.6 114.928,147.933 113,147.5C 111.93,147.528 111.097,147.861 110.5,148.5C 108.716,148.893 107.05,149.559 105.5,150.5C 101.833,150.5 98.1667,150.5 94.5,150.5C 94.5569,149.391 94.8902,148.391 95.5,147.5C 98.8123,146.975 101.979,145.975 105,144.5C 105.333,145.833 105.667,147.167 106,148.5C 106.483,147.552 106.649,146.552 106.5,145.5C 113.113,145.212 119.78,145.046 126.5,145C 128.819,142.343 131.653,140.509 135,139.5C 135.333,136.5 135.667,133.5 136,130.5C 139.261,134.684 140.095,134.184 138.5,129C 127.242,127.144 115.909,126.311 104.5,126.5C 102.983,126.511 101.816,127.177 101,128.5C 100.517,127.552 100.351,126.552 100.5,125.5C 99.1667,125.5 97.8333,125.5 96.5,125.5C 95.1667,125.5 93.8333,125.5 92.5,125.5 Z"/></g>
<g><path style="opacity:1" fill="#fbae9f" d="M 87.5,125.5 C 89.1667,125.5 90.8333,125.5 92.5,125.5C 93.8333,125.5 95.1667,125.5 96.5,125.5C 96.2051,129.878 94.5384,130.878 91.5,128.5C 89.0991,130.694 87.4325,133.361 86.5,136.5C 85.612,139.054 85.2786,141.721 85.5,144.5C 85.56,145.043 85.8933,145.376 86.5,145.5C 91.1499,144.668 95.8166,143.835 100.5,143C 103.566,141.794 106.066,139.961 108,137.5C 108.613,139.495 108.113,141.162 106.5,142.5C 102.592,144.008 98.9257,145.674 95.5,147.5C 94.8902,148.391 94.5569,149.391 94.5,150.5C 84.2152,150.715 79.7152,145.715 81,135.5C 82.5956,132.633 84.4289,129.966 86.5,127.5C 86.3284,126.508 86.6618,125.842 87.5,125.5 Z"/></g>
<g><path style="opacity:1" fill="#e4908d" d="M 104.5,126.5 C 115.909,126.311 127.242,127.144 138.5,129C 140.095,134.184 139.261,134.684 136,130.5C 135.667,133.5 135.333,136.5 135,139.5C 131.653,140.509 128.819,142.343 126.5,145C 119.78,145.046 113.113,145.212 106.5,145.5C 106.649,146.552 106.483,147.552 106,148.5C 105.667,147.167 105.333,145.833 105,144.5C 101.979,145.975 98.8123,146.975 95.5,147.5C 98.9257,145.674 102.592,144.008 106.5,142.5C 109.497,141.167 112.497,139.834 115.5,138.5C 115.5,139.833 115.5,141.167 115.5,142.5C 117.288,142.785 118.955,142.452 120.5,141.5C 121.105,139.519 122.105,139.185 123.5,140.5C 127.734,138.448 129.234,135.115 128,130.5C 125.136,130.354 122.303,129.354 119.5,127.5C 117.754,127.971 116.087,128.638 114.5,129.5C 111.416,127.643 108.249,127.31 105,128.5C 104.536,127.906 104.369,127.239 104.5,126.5 Z"/></g>
<g><path style="opacity:1" fill="#87180e" d="M 163.5,104.5 C 164.5,104.5 165.5,104.5 166.5,104.5C 168.12,107.598 170.787,109.265 174.5,109.5C 173.833,110.167 173.167,110.833 172.5,111.5C 174.578,113.986 177.245,114.986 180.5,114.5C 180.12,116.698 180.787,118.365 182.5,119.5C 182.357,121.262 182.691,122.929 183.5,124.5C 181.955,125.452 180.288,125.785 178.5,125.5C 179.427,129.36 180.927,133.027 183,136.5C 185.535,137.761 187.202,139.761 188,142.5C 189.986,148.253 190.986,154.253 191,160.5C 192.635,161.849 194.135,161.682 195.5,160C 194.551,155.914 193.884,151.747 193.5,147.5C 195.124,147.64 196.29,146.973 197,145.5C 197.091,147.796 196.924,150.13 196.5,152.5C 197.426,155.47 198.092,158.47 198.5,161.5C 197.839,162.718 197.172,164.051 196.5,165.5C 196.331,164.603 195.998,163.603 195.5,162.5C 194.852,164.149 193.852,165.482 192.5,166.5C 191.269,167.651 191.269,168.817 192.5,170C 189.219,170.85 185.885,171.35 182.5,171.5C 182.577,176.826 181.244,177.492 178.5,173.5C 178.896,170.518 178.229,167.851 176.5,165.5C 177.025,164.808 177.692,164.308 178.5,164C 176.182,161.403 173.682,158.903 171,156.5C 170.5,157.5 170,158.5 169.5,159.5C 171.4,161.619 173.066,163.953 174.5,166.5C 173.137,167.893 172.304,169.559 172,171.5C 171.346,172.696 170.846,172.696 170.5,171.5C 171.493,168.469 170.493,166.136 167.5,164.5C 165.591,160.608 164.424,156.608 164,152.5C 166.526,154.919 168.36,154.253 169.5,150.5C 169.455,147.811 168.121,146.477 165.5,146.5C 166.341,144.621 166.675,142.621 166.5,140.5C 166.094,137.719 166.094,134.719 166.5,131.5C 168.731,132.624 171.064,133.124 173.5,133C 172.328,131.003 170.995,129.17 169.5,127.5C 169.719,125.085 171.052,124.085 173.5,124.5C 173.5,123.167 173.5,121.833 173.5,120.5C 171.712,120.785 170.045,120.452 168.5,119.5C 167.289,118.28 167.289,117.113 168.5,116C 167.833,115.333 167.167,114.667 166.5,114C 168.108,113.342 169.275,113.842 170,115.5C 171.067,114.809 172.234,114.309 173.5,114C 171.893,112.951 171.227,111.451 171.5,109.5C 168.833,108.833 166.167,108.167 163.5,107.5C 163.5,106.5 163.5,105.5 163.5,104.5 Z"/></g>
<g><path style="opacity:1" fill="#a94d44" d="M 166.5,140.5 C 167.77,135.416 169.937,134.749 173,138.5C 173.49,139.793 173.657,141.127 173.5,142.5C 170.921,142.606 168.588,141.939 166.5,140.5 Z"/></g>
<g><path style="opacity:1" fill="#c32d2a" d="M 110.5,148.5 C 111.097,147.861 111.93,147.528 113,147.5C 114.928,147.933 116.761,148.6 118.5,149.5C 127.644,146.827 135.311,141.994 141.5,135C 143.402,134.801 144.902,133.967 146,132.5C 147.333,133.833 148.667,133.833 150,132.5C 151.756,127.614 150.089,124.947 145,124.5C 139.441,126.51 133.941,126.844 128.5,125.5C 131.5,125.5 134.5,125.5 137.5,125.5C 138.627,124.878 139.627,124.045 140.5,123C 145.466,122.867 150.3,122.033 155,120.5C 160.237,121.977 160.403,123.143 155.5,124C 158.616,128.597 157.616,129.763 152.5,127.5C 152.665,130.85 152.498,134.183 152,137.5C 149.828,138.509 148.662,140.176 148.5,142.5C 146.167,142.5 143.833,142.5 141.5,142.5C 141.371,146.485 139.537,147.818 136,146.5C 135.798,148.256 135.298,149.922 134.5,151.5C 133.063,148.956 131.563,148.956 130,151.5C 128.989,150.663 127.822,150.33 126.5,150.5C 127.052,152.331 127.052,153.997 126.5,155.5C 125.585,154.672 124.919,153.672 124.5,152.5C 119.501,151.696 114.835,150.363 110.5,148.5 Z"/></g>
<g><path style="opacity:1" fill="#f24217" d="M 87.5,125.5 C 86.6618,125.842 86.3284,126.508 86.5,127.5C 85.4168,127.539 84.4168,127.873 83.5,128.5C 82.9347,130.51 81.9347,132.176 80.5,133.5C 79.4679,131.96 78.1346,131.46 76.5,132C 74.5938,133.856 73.7605,136.023 74,138.5C 76.7676,135.583 78.2676,136.25 78.5,140.5C 78.3201,141.554 77.9867,142.554 77.5,143.5C 78.2472,143.736 79.0805,144.07 80,144.5C 80.7126,146.853 81.8793,148.853 83.5,150.5C 82.9094,151.151 82.2427,151.818 81.5,152.5C 86.2231,157.384 85.2231,159.718 78.5,159.5C 78.5674,160.959 78.2341,162.292 77.5,163.5C 76.1932,164.153 74.8599,164.82 73.5,165.5C 72.8333,164.167 72.1667,162.833 71.5,161.5C 70.7492,162.376 70.2492,163.376 70,164.5C 69.7506,161.823 68.7506,159.49 67,157.5C 66.6667,158.5 66.3333,159.5 66,160.5C 64.5822,155.572 64.2489,150.572 65,145.5C 69.5538,137.772 74.7205,130.439 80.5,123.5C 82.8511,121.771 85.5178,121.104 88.5,121.5C 88.5674,122.959 88.2341,124.292 87.5,125.5 Z"/></g>
<g><path style="opacity:1" fill="#f77a4f" d="M 86.5,127.5 C 84.4289,129.966 82.5956,132.633 81,135.5C 79.7152,145.715 84.2152,150.715 94.5,150.5C 94.2748,153.458 93.9415,156.458 93.5,159.5C 91.4224,157.61 90.0891,155.276 89.5,152.5C 88.3112,151.571 86.9778,151.238 85.5,151.5C 85.1583,150.662 84.4916,150.328 83.5,150.5C 81.8793,148.853 80.7126,146.853 80,144.5C 79.0805,144.07 78.2472,143.736 77.5,143.5C 77.9867,142.554 78.3201,141.554 78.5,140.5C 78.2676,136.25 76.7676,135.583 74,138.5C 73.7605,136.023 74.5938,133.856 76.5,132C 78.1346,131.46 79.4679,131.96 80.5,133.5C 81.9347,132.176 82.9347,130.51 83.5,128.5C 84.4168,127.873 85.4168,127.539 86.5,127.5 Z"/></g>
<g><path style="opacity:1" fill="#af1409" d="M 149.5,111.5 C 153.593,115.424 158.593,117.091 164.5,116.5C 164.739,118.467 164.406,120.301 163.5,122C 166.616,123.386 167.616,125.552 166.5,128.5C 165.833,127.833 165.167,127.167 164.5,126.5C 163.526,128.743 163.192,131.076 163.5,133.5C 161.856,133.714 160.356,133.38 159,132.5C 158.228,133.849 157.061,134.682 155.5,135C 155.067,137.172 154.734,139.339 154.5,141.5C 153.155,142.347 152.155,143.513 151.5,145C 150.552,145.483 149.552,145.649 148.5,145.5C 148.5,146.5 148.5,147.5 148.5,148.5C 146.533,148.739 144.699,148.406 143,147.5C 141.667,148.833 140.333,150.167 139,151.5C 138.711,156.404 140.211,160.737 143.5,164.5C 143.804,167.579 144.804,170.413 146.5,173C 145.603,175.087 144.936,177.254 144.5,179.5C 143.842,180.398 143.176,181.398 142.5,182.5C 141.065,181.176 140.065,179.51 139.5,177.5C 137.162,179.011 136.496,178.677 137.5,176.5C 133.215,175.45 129.215,175.45 125.5,176.5C 122.103,174.478 118.436,173.478 114.5,173.5C 114.5,172.5 114.5,171.5 114.5,170.5C 118.718,170.279 119.385,168.779 116.5,166C 117.448,165.517 118.448,165.351 119.5,165.5C 120.627,162.191 120.627,158.857 119.5,155.5C 115.831,156.303 113.164,155.136 111.5,152C 109.527,151.505 107.527,151.338 105.5,151.5C 105.5,151.167 105.5,150.833 105.5,150.5C 107.05,149.559 108.716,148.893 110.5,148.5C 114.835,150.363 119.501,151.696 124.5,152.5C 124.919,153.672 125.585,154.672 126.5,155.5C 127.052,153.997 127.052,152.331 126.5,150.5C 127.822,150.33 128.989,150.663 130,151.5C 131.563,148.956 133.063,148.956 134.5,151.5C 135.298,149.922 135.798,148.256 136,146.5C 139.537,147.818 141.371,146.485 141.5,142.5C 143.833,142.5 146.167,142.5 148.5,142.5C 148.662,140.176 149.828,138.509 152,137.5C 152.498,134.183 152.665,130.85 152.5,127.5C 157.616,129.763 158.616,128.597 155.5,124C 160.403,123.143 160.237,121.977 155,120.5C 150.3,122.033 145.466,122.867 140.5,123C 139.627,124.045 138.627,124.878 137.5,125.5C 137.229,123.57 136.229,122.236 134.5,121.5C 136.564,121.313 138.564,120.813 140.5,120C 141.252,119.329 141.586,118.496 141.5,117.5C 141.833,116.5 142.5,115.833 143.5,115.5C 144.167,115.5 144.5,115.167 144.5,114.5C 145.979,113.241 147.646,112.241 149.5,111.5 Z"/></g>
<g><path style="opacity:1" fill="#494949" d="M 8.5,256.5 C 7.66943,245.341 7.16943,234.007 7,222.5C 6.50001,168.501 6.33334,114.501 6.5,60.5C 6.70858,59.0783 7.20858,57.745 8,56.5C 8.5,123.166 8.66666,189.833 8.5,256.5 Z"/></g>
<g><path style="opacity:1" fill="#e24415" d="M 94.5,150.5 C 98.1667,150.5 101.833,150.5 105.5,150.5C 105.5,150.833 105.5,151.167 105.5,151.5C 104.636,152.688 103.636,153.855 102.5,155C 104.915,156.465 105.915,158.632 105.5,161.5C 101.036,161.632 100.37,163.299 103.5,166.5C 102.738,166.911 101.738,167.077 100.5,167C 99.252,168.4 98.252,169.9 97.5,171.5C 96.5,171.5 95.5,171.5 94.5,171.5C 94.762,170.022 94.4287,168.689 93.5,167.5C 92.9348,169.544 91.9348,171.21 90.5,172.5C 89.4479,170.744 87.7812,170.077 85.5,170.5C 85.5,170.167 85.5,169.833 85.5,169.5C 86.5521,167.744 88.2188,167.077 90.5,167.5C 89.9492,164.193 89.6159,160.86 89.5,157.5C 88.5,157.5 87.5,157.5 86.5,157.5C 86.6747,155.379 86.3414,153.379 85.5,151.5C 86.9778,151.238 88.3112,151.571 89.5,152.5C 90.0891,155.276 91.4224,157.61 93.5,159.5C 93.9415,156.458 94.2748,153.458 94.5,150.5 Z"/></g>
<g><path style="opacity:1" fill="#c21806" d="M 105.5,151.5 C 107.527,151.338 109.527,151.505 111.5,152C 113.164,155.136 115.831,156.303 119.5,155.5C 120.627,158.857 120.627,162.191 119.5,165.5C 118.448,165.351 117.448,165.517 116.5,166C 119.385,168.779 118.718,170.279 114.5,170.5C 112.952,170.821 112.285,171.821 112.5,173.5C 110.278,173.822 108.444,173.155 107,171.5C 106.167,172.5 105.333,173.5 104.5,174.5C 104.236,168.246 102.236,167.246 98.5,171.5C 98.1667,171.5 97.8333,171.5 97.5,171.5C 98.252,169.9 99.252,168.4 100.5,167C 101.738,167.077 102.738,166.911 103.5,166.5C 100.37,163.299 101.036,161.632 105.5,161.5C 105.915,158.632 104.915,156.465 102.5,155C 103.636,153.855 104.636,152.688 105.5,151.5 Z"/></g>
<g><path style="opacity:1" fill="#8a0e05" d="M 165.5,146.5 C 168.121,146.477 169.455,147.811 169.5,150.5C 168.36,154.253 166.526,154.919 164,152.5C 164.424,156.608 165.591,160.608 167.5,164.5C 170.493,166.136 171.493,168.469 170.5,171.5C 170.846,172.696 171.346,172.696 172,171.5C 172.304,169.559 173.137,167.893 174.5,166.5C 173.066,163.953 171.4,161.619 169.5,159.5C 170,158.5 170.5,157.5 171,156.5C 173.682,158.903 176.182,161.403 178.5,164C 177.692,164.308 177.025,164.808 176.5,165.5C 178.229,167.851 178.896,170.518 178.5,173.5C 172.952,175.779 167.285,175.779 161.5,173.5C 159.063,174.738 158.063,176.405 158.5,178.5C 156.5,177.833 154.5,177.167 152.5,176.5C 150.021,178.076 147.354,179.076 144.5,179.5C 144.936,177.254 145.603,175.087 146.5,173C 144.804,170.413 143.804,167.579 143.5,164.5C 143.343,163.127 143.51,161.793 144,160.5C 145.395,161.815 146.395,161.481 147,159.5C 147.333,159.833 147.667,160.167 148,160.5C 149.978,158.261 152.478,156.928 155.5,156.5C 154.167,155.38 153.667,154.047 154,152.5C 159.037,154.807 161.371,153.14 161,147.5C 162.356,146.62 163.856,146.286 165.5,146.5 Z"/></g>
<g><path style="opacity:1" fill="#f67533" d="M 83.5,150.5 C 84.4916,150.328 85.1583,150.662 85.5,151.5C 86.3414,153.379 86.6747,155.379 86.5,157.5C 87.5,157.5 88.5,157.5 89.5,157.5C 89.6159,160.86 89.9492,164.193 90.5,167.5C 88.2188,167.077 86.5521,167.744 85.5,169.5C 82.6001,168.046 81.2668,169.046 81.5,172.5C 79.302,172.12 77.6354,172.787 76.5,174.5C 76.1667,174.5 75.8333,174.5 75.5,174.5C 76.2735,170.86 76.9401,167.193 77.5,163.5C 78.2341,162.292 78.5674,160.959 78.5,159.5C 85.2231,159.718 86.2231,157.384 81.5,152.5C 82.2427,151.818 82.9094,151.151 83.5,150.5 Z"/></g>
<g><path style="opacity:1" fill="#d2b0a6" d="M 205.5,148.5 C 209.448,167.75 206.781,186.083 197.5,203.5C 197.5,202.167 197.5,200.833 197.5,199.5C 200.85,194.421 202.183,188.754 201.5,182.5C 202.5,182.5 203.5,182.5 204.5,182.5C 205.259,171.183 205.593,159.85 205.5,148.5 Z"/></g>
<g><path style="opacity:1" fill="#bb7d6e" d="M 199.5,133.5 C 201.95,138.275 203.95,143.275 205.5,148.5C 205.593,159.85 205.259,171.183 204.5,182.5C 203.5,182.5 202.5,182.5 201.5,182.5C 202.183,188.754 200.85,194.421 197.5,199.5C 196.827,192.534 196.994,185.534 198,178.5C 200.012,176.318 201.012,173.651 201,170.5C 201.5,163.5 202,156.5 202.5,149.5C 202.497,146.975 202.163,144.641 201.5,142.5C 200.366,139.63 199.7,136.63 199.5,133.5 Z"/></g>
<g><path style="opacity:1" fill="#f48f77" d="M 63.5,140.5 C 62.5261,146.472 62.3594,152.472 63,158.5C 64.6123,161.617 66.4457,164.617 68.5,167.5C 69.4656,169.396 69.7989,171.396 69.5,173.5C 69.1497,177.054 69.8163,180.388 71.5,183.5C 72.6507,184.731 73.8173,184.731 75,183.5C 75.4186,184.672 76.0853,185.672 77,186.5C 79.0388,191.987 81.2055,197.32 83.5,202.5C 82.7777,201.449 81.7777,200.782 80.5,200.5C 79.7784,200.918 79.2784,201.584 79,202.5C 78.2904,201.027 77.1238,200.36 75.5,200.5C 75.6567,199.127 75.49,197.793 75,196.5C 71.9659,193.486 70.7992,189.819 71.5,185.5C 70.5,185.5 69.5,185.5 68.5,185.5C 68.6937,179.241 66.6937,173.908 62.5,169.5C 61.508,162.018 61.1746,154.352 61.5,146.5C 61.2594,144.102 61.9261,142.102 63.5,140.5 Z"/></g>
<g><path style="opacity:1" fill="#a83427" d="M 200.5,160.5 C 199.289,164.377 197.622,168.043 195.5,171.5C 191.854,172.263 189.02,174.596 187,178.5C 184.983,178.075 183.149,178.075 181.5,178.5C 179.709,180.021 178.376,181.854 177.5,184C 174.23,184.995 170.897,185.828 167.5,186.5C 166.992,188.904 165.825,189.571 164,188.5C 163.667,189.5 163.333,190.5 163,191.5C 160.619,190.565 158.119,190.232 155.5,190.5C 155.769,188.571 155.269,186.905 154,185.5C 152.133,187.808 151.133,190.475 151,193.5C 149.581,191.664 148.414,189.664 147.5,187.5C 145.775,189.092 144.775,188.758 144.5,186.5C 145.833,186.5 147.167,186.5 148.5,186.5C 148.297,184.61 148.963,183.11 150.5,182C 149.101,181.405 147.768,181.572 146.5,182.5C 145.575,181.643 144.908,180.643 144.5,179.5C 147.354,179.076 150.021,178.076 152.5,176.5C 154.5,177.167 156.5,177.833 158.5,178.5C 158.063,176.405 159.063,174.738 161.5,173.5C 167.285,175.779 172.952,175.779 178.5,173.5C 181.244,177.492 182.577,176.826 182.5,171.5C 185.885,171.35 189.219,170.85 192.5,170C 191.269,168.817 191.269,167.651 192.5,166.5C 193.852,165.482 194.852,164.149 195.5,162.5C 195.998,163.603 196.331,164.603 196.5,165.5C 197.172,164.051 197.839,162.718 198.5,161.5C 199.167,161.167 199.833,160.833 200.5,160.5 Z"/></g>
<g><path style="opacity:1" fill="#c23f2d" d="M 114.5,170.5 C 114.5,171.5 114.5,172.5 114.5,173.5C 118.436,173.478 122.103,174.478 125.5,176.5C 129.215,175.45 133.215,175.45 137.5,176.5C 136.496,178.677 137.162,179.011 139.5,177.5C 140.065,179.51 141.065,181.176 142.5,182.5C 143.176,181.398 143.842,180.398 144.5,179.5C 144.908,180.643 145.575,181.643 146.5,182.5C 147.768,181.572 149.101,181.405 150.5,182C 148.963,183.11 148.297,184.61 148.5,186.5C 147.167,186.5 145.833,186.5 144.5,186.5C 143.533,185.194 142.199,184.527 140.5,184.5C 140.777,187.448 140.444,190.281 139.5,193C 137.362,192.919 137.029,191.919 138.5,190C 137.975,189.308 137.308,188.808 136.5,188.5C 134.725,189.838 133.059,191.171 131.5,192.5C 129.122,195.829 126.122,197.829 122.5,198.5C 122.167,198.333 121.833,198.167 121.5,198C 122.357,197.311 123.023,196.478 123.5,195.5C 121.896,193.821 121.229,191.821 121.5,189.5C 122.675,189.719 123.675,189.386 124.5,188.5C 123.232,186.953 121.565,185.953 119.5,185.5C 118.289,184.726 118.289,183.893 119.5,183C 115.042,183.096 113.376,185.263 114.5,189.5C 113.85,189.804 113.183,190.137 112.5,190.5C 111.679,187.553 111.179,184.553 111,181.5C 109.667,182.167 108.333,182.833 107,183.5C 105.89,181.963 104.39,181.297 102.5,181.5C 102.191,177.577 100.858,174.243 98.5,171.5C 102.236,167.246 104.236,168.246 104.5,174.5C 105.333,173.5 106.167,172.5 107,171.5C 108.444,173.155 110.278,173.822 112.5,173.5C 112.285,171.821 112.952,170.821 114.5,170.5 Z"/></g>
<g><path style="opacity:1" fill="#f28263" d="M 69.5,173.5 C 71.5648,173.517 73.5648,173.85 75.5,174.5C 75.8333,174.5 76.1667,174.5 76.5,174.5C 75.9478,176.331 75.9478,177.997 76.5,179.5C 77.7481,180.04 78.9148,180.707 80,181.5C 80.7096,180.027 81.8762,179.36 83.5,179.5C 84.7031,184.182 84.7031,188.849 83.5,193.5C 85.0441,197.444 86.3774,201.444 87.5,205.5C 87.719,206.675 87.3857,207.675 86.5,208.5C 85.451,206.472 84.451,204.472 83.5,202.5C 81.2055,197.32 79.0388,191.987 77,186.5C 76.0853,185.672 75.4186,184.672 75,183.5C 73.8173,184.731 72.6507,184.731 71.5,183.5C 69.8163,180.388 69.1497,177.054 69.5,173.5 Z"/></g>
<g><path style="opacity:1" fill="#b54536" d="M 195.5,171.5 C 194.577,174.26 192.744,176.26 190,177.5C 189.347,180.565 189.847,183.399 191.5,186C 190.833,188.333 190.167,190.667 189.5,193C 190.528,195.947 189.861,198.614 187.5,201C 188.416,201.374 189.25,201.874 190,202.5C 191.268,202.384 192.602,202.051 194,201.5C 194.497,203.81 194.663,206.143 194.5,208.5C 194.5,208.833 194.5,209.167 194.5,209.5C 193.662,209.842 193.328,210.508 193.5,211.5C 192.833,211.833 192.167,212.167 191.5,212.5C 191.715,210.821 191.048,209.821 189.5,209.5C 189.565,209.062 189.399,208.728 189,208.5C 188.311,209.357 187.478,210.023 186.5,210.5C 184.313,206.963 181.313,204.63 177.5,203.5C 176.194,202.533 175.527,201.199 175.5,199.5C 174.448,199.649 173.448,199.483 172.5,199C 170.983,197.315 169.316,195.815 167.5,194.5C 166.387,197.477 164.387,198.977 161.5,199C 162.711,198.107 162.711,197.274 161.5,196.5C 160.575,197.641 159.741,197.641 159,196.5C 158.122,199.257 157.122,201.924 156,204.5C 154.599,202.808 152.766,202.141 150.5,202.5C 150.5,201.5 150.5,200.5 150.5,199.5C 151.5,199.5 152.5,199.5 153.5,199.5C 153.475,193.438 152.308,193.105 150,198.5C 149,197.167 148,197.167 147,198.5C 146.333,199.833 145.667,201.167 145,202.5C 144.213,201.289 143.546,200.289 143,199.5C 141.832,200.509 140.665,201.509 139.5,202.5C 137.073,199.554 135.406,196.22 134.5,192.5C 133.5,192.5 132.5,192.5 131.5,192.5C 133.059,191.171 134.725,189.838 136.5,188.5C 137.308,188.808 137.975,189.308 138.5,190C 137.029,191.919 137.362,192.919 139.5,193C 140.444,190.281 140.777,187.448 140.5,184.5C 142.199,184.527 143.533,185.194 144.5,186.5C 144.775,188.758 145.775,189.092 147.5,187.5C 148.414,189.664 149.581,191.664 151,193.5C 151.133,190.475 152.133,187.808 154,185.5C 155.269,186.905 155.769,188.571 155.5,190.5C 158.119,190.232 160.619,190.565 163,191.5C 163.333,190.5 163.667,189.5 164,188.5C 165.825,189.571 166.992,188.904 167.5,186.5C 170.897,185.828 174.23,184.995 177.5,184C 178.376,181.854 179.709,180.021 181.5,178.5C 183.149,178.075 184.983,178.075 187,178.5C 189.02,174.596 191.854,172.263 195.5,171.5 Z"/></g>
<g><path style="opacity:1" fill="#d95a39" d="M 97.5,171.5 C 97.8333,171.5 98.1667,171.5 98.5,171.5C 100.858,174.243 102.191,177.577 102.5,181.5C 104.39,181.297 105.89,181.963 107,183.5C 108.333,182.833 109.667,182.167 111,181.5C 111.179,184.553 111.679,187.553 112.5,190.5C 113.183,190.137 113.85,189.804 114.5,189.5C 115.815,193.633 115.149,197.633 112.5,201.5C 110.869,199.941 110.036,197.941 110,195.5C 108.525,198.122 107.359,200.788 106.5,203.5C 106.5,202.833 106.167,202.5 105.5,202.5C 104.442,195.877 103.776,189.21 103.5,182.5C 102.167,182.5 100.833,182.5 99.5,182.5C 99.5,183.5 99.5,184.5 99.5,185.5C 98.5,185.5 97.5,185.5 96.5,185.5C 96.8174,188.572 96.4841,191.572 95.5,194.5C 95.1667,194.167 94.8333,193.833 94.5,193.5C 93.5069,188.89 92.8402,184.223 92.5,179.5C 93.5,179.5 94.5,179.5 95.5,179.5C 95.5,177.167 95.5,174.833 95.5,172.5C 94.5,172.5 93.5,172.5 92.5,172.5C 91.8333,180.5 91.1667,180.5 90.5,172.5C 91.9348,171.21 92.9348,169.544 93.5,167.5C 94.4287,168.689 94.762,170.022 94.5,171.5C 95.5,171.5 96.5,171.5 97.5,171.5 Z"/></g>
<g><path style="opacity:1" fill="#eb8a50" d="M 85.5,170.5 C 87.7812,170.077 89.4479,170.744 90.5,172.5C 91.1667,180.5 91.8333,180.5 92.5,172.5C 93.5,172.5 94.5,172.5 95.5,172.5C 95.5,174.833 95.5,177.167 95.5,179.5C 94.5,179.5 93.5,179.5 92.5,179.5C 92.8402,184.223 93.5069,188.89 94.5,193.5C 94.8333,193.833 95.1667,194.167 95.5,194.5C 96.4841,191.572 96.8174,188.572 96.5,185.5C 97.5,185.5 98.5,185.5 99.5,185.5C 99.5,184.5 99.5,183.5 99.5,182.5C 100.833,182.5 102.167,182.5 103.5,182.5C 103.776,189.21 104.442,195.877 105.5,202.5C 105.662,204.527 105.495,206.527 105,208.5C 102.448,205.806 101.281,206.473 101.5,210.5C 100.539,208.735 100.205,206.735 100.5,204.5C 99.1779,204.33 98.0113,204.663 97,205.5C 96.6664,203.153 96.833,200.819 97.5,198.5C 93.5911,199.263 92.2578,197.93 93.5,194.5C 91.8917,193.682 90.2251,193.015 88.5,192.5C 87.3972,189.361 87.3972,186.194 88.5,183C 86.3204,179.115 85.3204,174.948 85.5,170.5 Z"/></g>
<g><path style="opacity:1" fill="#b45747" d="M 201.5,142.5 C 202.163,144.641 202.497,146.975 202.5,149.5C 202,156.5 201.5,163.5 201,170.5C 201.012,173.651 200.012,176.318 198,178.5C 196.994,185.534 196.827,192.534 197.5,199.5C 197.5,200.833 197.5,202.167 197.5,203.5C 196.89,204.391 196.557,205.391 196.5,206.5C 195.833,207.167 195.167,207.833 194.5,208.5C 194.663,206.143 194.497,203.81 194,201.5C 192.602,202.051 191.268,202.384 190,202.5C 189.25,201.874 188.416,201.374 187.5,201C 189.861,198.614 190.528,195.947 189.5,193C 190.167,190.667 190.833,188.333 191.5,186C 189.847,183.399 189.347,180.565 190,177.5C 192.744,176.26 194.577,174.26 195.5,171.5C 197.622,168.043 199.289,164.377 200.5,160.5C 200.372,156.119 200.705,151.785 201.5,147.5C 201.5,145.833 201.5,144.167 201.5,142.5 Z"/></g>
<g><path style="opacity:1" fill="#f7bfb0" d="M 61.5,146.5 C 61.1746,154.352 61.508,162.018 62.5,169.5C 63.6583,176.96 65.325,184.293 67.5,191.5C 68.5,191.5 69.5,191.5 70.5,191.5C 75.319,205.321 82.6523,217.654 92.5,228.5C 89.7318,226.913 87.0652,225.08 84.5,223C 71.5421,207.819 63.3754,190.319 60,170.5C 59.3333,163.167 59.3333,155.833 60,148.5C 60.2784,147.584 60.7784,146.918 61.5,146.5 Z"/></g>
<g><path style="opacity:1" fill="#ec9b5e" d="M 85.5,169.5 C 85.5,169.833 85.5,170.167 85.5,170.5C 85.3204,174.948 86.3204,179.115 88.5,183C 87.3972,186.194 87.3972,189.361 88.5,192.5C 90.2251,193.015 91.8917,193.682 93.5,194.5C 92.2578,197.93 93.5911,199.263 97.5,198.5C 96.833,200.819 96.6664,203.153 97,205.5C 98.0113,204.663 99.1779,204.33 100.5,204.5C 100.205,206.735 100.539,208.735 101.5,210.5C 101.5,211.5 101.5,212.5 101.5,213.5C 106.664,213.834 109.331,216.667 109.5,222C 107.524,225.365 108.524,226.865 112.5,226.5C 112.281,225.325 112.614,224.325 113.5,223.5C 114.265,224.612 115.265,225.279 116.5,225.5C 116.977,228.025 118.31,230.025 120.5,231.5C 120.328,232.492 120.662,233.158 121.5,233.5C 120.791,234.404 119.791,234.737 118.5,234.5C 112.819,234.365 107.152,234.032 101.5,233.5C 100.694,232.272 99.6935,231.272 98.5,230.5C 101.5,230.5 104.5,230.5 107.5,230.5C 107.723,227.886 106.556,226.219 104,225.5C 101.271,219.545 98.1048,213.878 94.5,208.5C 93.7348,209.612 92.7348,210.279 91.5,210.5C 90.8553,208.174 89.522,206.507 87.5,205.5C 86.3774,201.444 85.0441,197.444 83.5,193.5C 84.7031,188.849 84.7031,184.182 83.5,179.5C 81.8762,179.36 80.7096,180.027 80,181.5C 78.9148,180.707 77.7481,180.04 76.5,179.5C 75.9478,177.997 75.9478,176.331 76.5,174.5C 77.6354,172.787 79.302,172.12 81.5,172.5C 81.2668,169.046 82.6001,168.046 85.5,169.5 Z"/></g>
<g><path style="opacity:1" fill="#c9503c" d="M 131.5,192.5 C 132.5,192.5 133.5,192.5 134.5,192.5C 135.406,196.22 137.073,199.554 139.5,202.5C 140.665,201.509 141.832,200.509 143,199.5C 143.546,200.289 144.213,201.289 145,202.5C 145.667,201.167 146.333,199.833 147,198.5C 148,197.167 149,197.167 150,198.5C 152.308,193.105 153.475,193.438 153.5,199.5C 152.5,199.5 151.5,199.5 150.5,199.5C 150.5,200.5 150.5,201.5 150.5,202.5C 152.766,202.141 154.599,202.808 156,204.5C 157.122,201.924 158.122,199.257 159,196.5C 159.741,197.641 160.575,197.641 161.5,196.5C 162.711,197.274 162.711,198.107 161.5,199C 164.387,198.977 166.387,197.477 167.5,194.5C 169.316,195.815 170.983,197.315 172.5,199C 173.448,199.483 174.448,199.649 175.5,199.5C 175.527,201.199 176.194,202.533 177.5,203.5C 176.524,204.815 175.524,206.148 174.5,207.5C 172.865,208.681 171.198,208.681 169.5,207.5C 168.833,209.5 168.167,211.5 167.5,213.5C 166.833,212.833 166.167,212.167 165.5,211.5C 164.943,213.718 164.943,216.051 165.5,218.5C 163.738,218.357 162.071,218.691 160.5,219.5C 159.416,218.335 158.583,217.002 158,215.5C 154.833,216.667 154.667,218.167 157.5,220C 155.224,219.426 152.891,219.592 150.5,220.5C 150.5,219.5 150.5,218.5 150.5,217.5C 149.232,215.33 149.232,213.163 150.5,211C 148.925,211.379 147.425,211.212 146,210.5C 145.167,211.333 144.333,212.167 143.5,213C 144.959,216.084 143.959,218.084 140.5,219C 141.308,219.308 141.975,219.808 142.5,220.5C 141.5,221.833 140.5,223.167 139.5,224.5C 138.229,222.171 136.229,221.005 133.5,221C 132.32,219.104 130.82,217.604 129,216.5C 127.97,216.836 127.47,217.503 127.5,218.5C 125.958,219.301 124.292,219.634 122.5,219.5C 122.5,218.5 122.5,217.5 122.5,216.5C 116.684,216.65 116.018,214.65 120.5,210.5C 119.894,208.291 119.227,206.124 118.5,204C 117.004,203.493 115.837,203.993 115,205.5C 114.506,207.134 114.34,208.801 114.5,210.5C 109.813,210.488 107.146,208.155 106.5,203.5C 107.359,200.788 108.525,198.122 110,195.5C 110.036,197.941 110.869,199.941 112.5,201.5C 115.149,197.633 115.815,193.633 114.5,189.5C 113.376,185.263 115.042,183.096 119.5,183C 118.289,183.893 118.289,184.726 119.5,185.5C 121.565,185.953 123.232,186.953 124.5,188.5C 123.675,189.386 122.675,189.719 121.5,189.5C 121.229,191.821 121.896,193.821 123.5,195.5C 123.023,196.478 122.357,197.311 121.5,198C 121.833,198.167 122.167,198.333 122.5,198.5C 126.122,197.829 129.122,195.829 131.5,192.5 Z"/></g>
<g><path style="opacity:1" fill="#f5b384" d="M 80.5,200.5 C 81.7777,200.782 82.7777,201.449 83.5,202.5C 84.451,204.472 85.451,206.472 86.5,208.5C 87.3857,207.675 87.719,206.675 87.5,205.5C 89.522,206.507 90.8553,208.174 91.5,210.5C 93.7998,212.975 95.1331,215.975 95.5,219.5C 94.325,219.281 93.325,219.614 92.5,220.5C 93.9524,221.94 94.9524,223.606 95.5,225.5C 91.9725,223.133 89.3058,219.966 87.5,216C 90.3033,213.778 90.1366,211.945 87,210.5C 86.0546,210.905 85.3879,211.572 85,212.5C 83.3573,210.023 81.524,207.69 79.5,205.5C 80.3094,203.929 80.6427,202.262 80.5,200.5 Z"/></g>
<g><path style="opacity:1" fill="#de694c" d="M 105.5,202.5 C 106.167,202.5 106.5,202.833 106.5,203.5C 107.146,208.155 109.813,210.488 114.5,210.5C 114.34,208.801 114.506,207.134 115,205.5C 115.837,203.993 117.004,203.493 118.5,204C 119.227,206.124 119.894,208.291 120.5,210.5C 116.018,214.65 116.684,216.65 122.5,216.5C 122.5,217.5 122.5,218.5 122.5,219.5C 124.292,219.634 125.958,219.301 127.5,218.5C 125.342,220.22 122.675,221.053 119.5,221C 118.778,222.751 117.778,224.251 116.5,225.5C 115.265,225.279 114.265,224.612 113.5,223.5C 112.614,224.325 112.281,225.325 112.5,226.5C 108.524,226.865 107.524,225.365 109.5,222C 109.331,216.667 106.664,213.834 101.5,213.5C 101.5,212.5 101.5,211.5 101.5,210.5C 101.281,206.473 102.448,205.806 105,208.5C 105.495,206.527 105.662,204.527 105.5,202.5 Z"/></g>
<g><path style="opacity:1" fill="#f1a48d" d="M 62.5,169.5 C 66.6937,173.908 68.6937,179.241 68.5,185.5C 69.5,185.5 70.5,185.5 71.5,185.5C 70.7992,189.819 71.9659,193.486 75,196.5C 75.49,197.793 75.6567,199.127 75.5,200.5C 77.1238,200.36 78.2904,201.027 79,202.5C 79.2784,201.584 79.7784,200.918 80.5,200.5C 80.6427,202.262 80.3094,203.929 79.5,205.5C 81.524,207.69 83.3573,210.023 85,212.5C 85.3879,211.572 86.0546,210.905 87,210.5C 90.1366,211.945 90.3033,213.778 87.5,216C 89.3058,219.966 91.9725,223.133 95.5,225.5C 96.241,227.354 97.241,229.021 98.5,230.5C 99.6935,231.272 100.694,232.272 101.5,233.5C 100.833,233.5 100.5,233.833 100.5,234.5C 97.5451,232.878 94.8785,230.878 92.5,228.5C 82.6523,217.654 75.319,205.321 70.5,191.5C 69.5,191.5 68.5,191.5 67.5,191.5C 65.325,184.293 63.6583,176.96 62.5,169.5 Z"/></g>
<g><path style="opacity:1" fill="#e0d7d5" d="M 196.5,206.5 C 196.5,207.5 196.5,208.5 196.5,209.5C 202.326,210.361 207.993,211.861 213.5,214C 215.538,219.972 214.538,225.305 210.5,230C 204.507,234.103 197.84,236.27 190.5,236.5C 197.753,234.776 203.586,230.776 208,224.5C 208.847,221.412 208.347,218.579 206.5,216C 202.793,214.598 199.126,213.098 195.5,211.5C 194.702,211.043 194.369,210.376 194.5,209.5C 194.5,209.167 194.5,208.833 194.5,208.5C 195.167,207.833 195.833,207.167 196.5,206.5 Z"/></g>
<g><path style="opacity:0.534" fill="#686868" d="M 267.5,214.5 C 268.166,220.658 268.5,226.991 268.5,233.5C 268.65,240.33 268.15,246.996 267,253.5C 266.833,348.334 266.333,443.001 265.5,537.5C 265.5,536.833 265.5,536.167 265.5,535.5C 265.002,428.486 265.669,321.486 267.5,214.5 Z"/></g>
<g><path style="opacity:1" fill="#b1381c" d="M 177.5,203.5 C 181.313,204.63 184.313,206.963 186.5,210.5C 187.478,210.023 188.311,209.357 189,208.5C 189.399,208.728 189.565,209.062 189.5,209.5C 187.776,211.914 186.442,214.58 185.5,217.5C 184.178,217.67 183.011,217.337 182,216.5C 181.692,217.308 181.192,217.975 180.5,218.5C 179.304,218.154 179.304,217.654 180.5,217C 179.175,217.148 178.008,216.982 177,216.5C 175.318,217.865 175.151,219.365 176.5,221C 174.892,221.658 173.725,221.158 173,219.5C 171.878,221.624 170.378,223.457 168.5,225C 163.648,226.433 159.314,228.6 155.5,231.5C 144.12,231.835 132.787,232.502 121.5,233.5C 120.662,233.158 120.328,232.492 120.5,231.5C 122.784,230.113 125.284,229.113 128,228.5C 129.582,230.029 131.415,230.529 133.5,230C 132.663,228.989 132.33,227.822 132.5,226.5C 135.187,226.336 137.854,226.503 140.5,227C 138.993,227.837 138.493,229.004 139,230.5C 141,229.167 143,227.833 145,226.5C 146.795,223.265 148.628,220.265 150.5,217.5C 150.5,218.5 150.5,219.5 150.5,220.5C 152.891,219.592 155.224,219.426 157.5,220C 154.667,218.167 154.833,216.667 158,215.5C 158.583,217.002 159.416,218.335 160.5,219.5C 162.071,218.691 163.738,218.357 165.5,218.5C 164.943,216.051 164.943,213.718 165.5,211.5C 166.167,212.167 166.833,212.833 167.5,213.5C 168.167,211.5 168.833,209.5 169.5,207.5C 171.198,208.681 172.865,208.681 174.5,207.5C 175.524,206.148 176.524,204.815 177.5,203.5 Z"/></g>
<g><path style="opacity:1" fill="#852a14" d="M 189.5,209.5 C 191.048,209.821 191.715,210.821 191.5,212.5C 191.5,213.167 191.5,213.833 191.5,214.5C 186.142,218.863 180.809,223.197 175.5,227.5C 169.105,230.098 162.439,231.431 155.5,231.5C 159.314,228.6 163.648,226.433 168.5,225C 170.378,223.457 171.878,221.624 173,219.5C 173.725,221.158 174.892,221.658 176.5,221C 175.151,219.365 175.318,217.865 177,216.5C 178.008,216.982 179.175,217.148 180.5,217C 179.304,217.654 179.304,218.154 180.5,218.5C 181.192,217.975 181.692,217.308 182,216.5C 183.011,217.337 184.178,217.67 185.5,217.5C 186.442,214.58 187.776,211.914 189.5,209.5 Z"/></g>
<g><path style="opacity:1" fill="#3b3b3b" d="M 5.5,60.5 C 5.83333,60.5 6.16667,60.5 6.5,60.5C 6.33334,114.501 6.50001,168.501 7,222.5C 7.16943,234.007 7.66943,245.341 8.5,256.5C 8.66666,332.501 8.5,408.501 8,484.5C 7.04397,408.003 6.21064,331.67 5.5,255.5C 5.5,190.5 5.5,125.5 5.5,60.5 Z"/></g>
<g><path style="opacity:1" fill="#d45f3a" d="M 150.5,217.5 C 148.628,220.265 146.795,223.265 145,226.5C 143,227.833 141,229.167 139,230.5C 138.493,229.004 138.993,227.837 140.5,227C 137.854,226.503 135.187,226.336 132.5,226.5C 132.33,227.822 132.663,228.989 133.5,230C 131.415,230.529 129.582,230.029 128,228.5C 125.284,229.113 122.784,230.113 120.5,231.5C 118.31,230.025 116.977,228.025 116.5,225.5C 117.778,224.251 118.778,222.751 119.5,221C 122.675,221.053 125.342,220.22 127.5,218.5C 127.47,217.503 127.97,216.836 129,216.5C 130.82,217.604 132.32,219.104 133.5,221C 136.229,221.005 138.229,222.171 139.5,224.5C 140.5,223.167 141.5,221.833 142.5,220.5C 141.975,219.808 141.308,219.308 140.5,219C 143.959,218.084 144.959,216.084 143.5,213C 144.333,212.167 145.167,211.333 146,210.5C 147.425,211.212 148.925,211.379 150.5,211C 149.232,213.163 149.232,215.33 150.5,217.5 Z"/></g>
<g><path style="opacity:1" fill="#826b64" d="M 191.5,214.5 C 190.94,216.801 190.44,219.134 190,221.5C 188.992,221.982 187.825,222.148 186.5,222C 187.833,223.667 187.833,225.333 186.5,227C 183.537,229.198 180.537,231.198 177.5,233C 177.833,233.333 178.167,233.667 178.5,234C 174.653,234.633 170.986,235.467 167.5,236.5C 164.167,236.5 160.833,236.5 157.5,236.5C 164.573,235.63 170.573,232.63 175.5,227.5C 180.809,223.197 186.142,218.863 191.5,214.5 Z"/></g>
<g><path style="opacity:1" fill="#f3bb75" d="M 98.5,230.5 C 97.241,229.021 96.241,227.354 95.5,225.5C 94.9524,223.606 93.9524,221.94 92.5,220.5C 93.325,219.614 94.325,219.281 95.5,219.5C 95.1331,215.975 93.7998,212.975 91.5,210.5C 92.7348,210.279 93.7348,209.612 94.5,208.5C 98.1048,213.878 101.271,219.545 104,225.5C 106.556,226.219 107.723,227.886 107.5,230.5C 104.5,230.5 101.5,230.5 98.5,230.5 Z"/></g>
<g><path style="opacity:1" fill="#b7aaa5" d="M 194.5,209.5 C 194.369,210.376 194.702,211.043 195.5,211.5C 199.126,213.098 202.793,214.598 206.5,216C 208.347,218.579 208.847,221.412 208,224.5C 203.586,230.776 197.753,234.776 190.5,236.5C 163.5,237.833 136.5,237.833 109.5,236.5C 110.5,236.5 111.5,236.5 112.5,236.5C 127.5,236.5 142.5,236.5 157.5,236.5C 160.833,236.5 164.167,236.5 167.5,236.5C 173.176,236.666 178.843,236.499 184.5,236C 188.928,234.58 193.261,233.08 197.5,231.5C 198.692,228.438 200.192,225.438 202,222.5C 202.667,220.5 202.667,218.5 202,216.5C 198.809,215.197 195.976,213.53 193.5,211.5C 193.328,210.508 193.662,209.842 194.5,209.5 Z"/></g>
<g><path style="opacity:1" fill="#9e8c87" d="M 193.5,211.5 C 195.976,213.53 198.809,215.197 202,216.5C 202.667,218.5 202.667,220.5 202,222.5C 200.192,225.438 198.692,228.438 197.5,231.5C 193.261,233.08 188.928,234.58 184.5,236C 178.843,236.499 173.176,236.666 167.5,236.5C 170.986,235.467 174.653,234.633 178.5,234C 178.167,233.667 177.833,233.333 177.5,233C 180.537,231.198 183.537,229.198 186.5,227C 187.833,225.333 187.833,223.667 186.5,222C 187.825,222.148 188.992,221.982 190,221.5C 190.44,219.134 190.94,216.801 191.5,214.5C 191.5,213.833 191.5,213.167 191.5,212.5C 192.167,212.167 192.833,211.833 193.5,211.5 Z"/></g>
<g><path style="opacity:1" fill="#66361c" d="M 101.5,233.5 C 107.152,234.032 112.819,234.365 118.5,234.5C 116.5,235.167 114.5,235.833 112.5,236.5C 111.5,236.5 110.5,236.5 109.5,236.5C 106.219,236.58 103.219,235.913 100.5,234.5C 100.5,233.833 100.833,233.5 101.5,233.5 Z"/></g>
<g><path style="opacity:1" fill="#391e17" d="M 175.5,227.5 C 170.573,232.63 164.573,235.63 157.5,236.5C 142.5,236.5 127.5,236.5 112.5,236.5C 114.5,235.833 116.5,235.167 118.5,234.5C 119.791,234.737 120.791,234.404 121.5,233.5C 132.787,232.502 144.12,231.835 155.5,231.5C 162.439,231.431 169.105,230.098 175.5,227.5 Z"/></g>
<g><path style="opacity:1" fill="#989898" d="M 112.5,256.5 C 113.461,258.265 113.795,260.265 113.5,262.5C 112.167,262.5 110.833,262.5 109.5,262.5C 109.5,261.167 109.5,259.833 109.5,258.5C 111.179,258.715 112.179,258.048 112.5,256.5 Z"/></g>
<g><path style="opacity:1" fill="#8c8c8c" d="M 36.5,257.5 C 37.6009,256.402 38.9343,256.235 40.5,257C 39.7511,258.734 39.2511,260.567 39,262.5C 38.9504,260.256 38.1171,258.589 36.5,257.5 Z"/></g>
<g><path style="opacity:1" fill="#898989" d="M 58.5,256.5 C 59.0472,258.518 60.0472,260.351 61.5,262C 60.552,262.483 59.552,262.649 58.5,262.5C 58.5,260.5 58.5,258.5 58.5,256.5 Z"/></g>
<g><path style="opacity:1" fill="#ababab" d="M 101.5,257.5 C 102.688,258.684 103.855,258.684 105,257.5C 106.44,258.93 106.774,260.597 106,262.5C 105,258.5 104,258.5 103,262.5C 102.193,258.551 101.693,258.551 101.5,262.5C 99.5,262.5 97.5,262.5 95.5,262.5C 95.3309,257.959 95.9975,257.626 97.5,261.5C 98.3857,260.675 98.719,259.675 98.5,258.5C 99.791,258.737 100.791,258.404 101.5,257.5 Z"/></g>
<g><path style="opacity:1" fill="#959595" d="M 114.5,258.5 C 115.833,258.5 117.167,258.5 118.5,258.5C 118.671,261.797 118.005,262.131 116.5,259.5C 114.995,262.131 114.329,261.797 114.5,258.5 Z"/></g>
<g><path style="opacity:1" fill="#b2b2b2" d="M 134.5,257.5 C 136.263,256.666 137.93,257.166 139.5,259C 138.167,260 138.167,261 139.5,262C 139.167,262.167 138.833,262.333 138.5,262.5C 137.262,258.689 136.596,258.689 136.5,262.5C 134.5,262.5 132.5,262.5 130.5,262.5C 130.5,261.167 130.5,259.833 130.5,258.5C 132.767,258.854 134.101,258.521 134.5,257.5 Z"/></g>
<g><path style="opacity:1" fill="#888888" d="M 146.5,258.5 C 148.527,258.338 150.527,258.505 152.5,259C 151.151,259.772 150.318,260.939 150,262.5C 149,258.5 148,258.5 147,262.5C 146.51,261.207 146.343,259.873 146.5,258.5 Z"/></g>
<g><path style="opacity:1" fill="#b4b4b4" d="M 171.5,257.5 C 173.339,258.752 175.172,258.752 177,257.5C 178.333,260.167 179.667,260.167 181,257.5C 182.269,258.905 182.769,260.571 182.5,262.5C 180.833,262.5 179.167,262.5 177.5,262.5C 176.947,258.544 176.114,258.544 175,262.5C 172.229,262.146 169.396,261.979 166.5,262C 168.66,261.004 170.327,259.504 171.5,257.5 Z"/></g>
<g><path style="opacity:1" fill="#a1a1a1" d="M 43.5,258.5 C 44.8333,258.5 46.1667,258.5 47.5,258.5C 47.5,259.833 47.5,261.167 47.5,262.5C 45.8762,262.36 44.7096,263.027 44,264.5C 43.5045,262.527 43.3379,260.527 43.5,258.5 Z"/></g>
<g><path style="opacity:1" fill="#979797" d="M 76.5,257.5 C 78.0418,258.301 79.7085,258.634 81.5,258.5C 81.6691,263.041 81.0025,263.374 79.5,259.5C 78.7492,260.376 78.2492,261.376 78,262.5C 77,258.5 76,258.5 75,262.5C 74.2747,260.842 73.108,260.342 71.5,261C 73.9316,262.087 73.5983,262.587 70.5,262.5C 70.3433,261.127 70.51,259.793 71,258.5C 72.9287,259.767 74.762,259.434 76.5,257.5 Z"/></g>
<g><path style="opacity:1" fill="#b1b1b1" d="M 92.5,257.5 C 93.2891,257.783 93.9558,258.283 94.5,259C 93.3595,259.741 93.3595,260.575 94.5,261.5C 91.6313,262.078 88.9647,263.078 86.5,264.5C 84.9137,262.827 84.2471,260.827 84.5,258.5C 87.0792,258.083 89.2458,258.75 91,260.5C 91.5133,259.473 92.0133,258.473 92.5,257.5 Z"/></g>
<g><path style="opacity:1" fill="#b0b0b0" d="M 119.5,256.5 C 120.1,259.625 121.267,259.958 123,257.5C 124.403,259.198 126.236,259.698 128.5,259C 127.151,259.772 126.318,260.939 126,262.5C 124,262.5 122,262.5 120,262.5C 119.505,260.527 119.338,258.527 119.5,256.5 Z"/></g>
<g><path style="opacity:1" fill="#9d9d9d" d="M 143.5,257.5 C 145.213,258.635 145.88,260.302 145.5,262.5C 144.5,262.5 143.5,262.5 142.5,262.5C 142.366,260.708 142.699,259.042 143.5,257.5 Z"/></g>
<g><path style="opacity:1" fill="#b4b4b4" d="M 193.5,257.5 C 200.668,257.519 201.002,259.186 194.5,262.5C 193.614,261.675 193.281,260.675 193.5,259.5C 192.022,259.238 190.689,259.571 189.5,260.5C 190.025,261.192 190.692,261.692 191.5,262C 189.538,261.859 187.704,262.026 186,262.5C 183.98,261.968 183.147,260.635 183.5,258.5C 186.938,259.481 190.272,259.148 193.5,257.5 Z"/></g>
<g><path style="opacity:1" fill="#c0c0c0" d="M 155.5,268.5 C 155.735,267.903 156.235,267.57 157,267.5C 159.047,268.609 161.213,269.276 163.5,269.5C 163.833,273.5 164.167,273.5 164.5,269.5C 165.93,269.579 167.264,269.246 168.5,268.5C 169.862,270.012 170.196,271.512 169.5,273C 164.929,272.86 160.429,273.027 156,273.5C 151.573,274.412 150.073,272.912 151.5,269C 153.66,269.725 154.994,269.559 155.5,268.5 Z"/></g>
<g><path style="opacity:1" fill="#b0b0b0" d="M 121.5,268.5 C 123.341,269.673 125.174,269.673 127,268.5C 127.945,268.905 128.612,269.572 129,270.5C 129.689,269.643 130.522,268.977 131.5,268.5C 132.5,269.833 133.5,269.833 134.5,268.5C 135.244,269.991 135.91,271.491 136.5,273C 136.167,273.167 135.833,273.333 135.5,273.5C 134.033,272.305 132.533,272.305 131,273.5C 130.05,272.978 129.216,272.311 128.5,271.5C 129.061,273.066 128.394,274.399 126.5,275.5C 124.889,274.68 124.222,273.346 124.5,271.5C 123.167,272.167 121.833,272.833 120.5,273.5C 120.366,271.708 120.699,270.042 121.5,268.5 Z"/></g>
<g><path style="opacity:1" fill="#a8a8a8" d="M 112.5,268.5 C 113.707,269.189 115.041,269.355 116.5,269C 117.554,270.388 117.72,271.888 117,273.5C 116,269.5 115,269.5 114,273.5C 112.886,269.544 112.053,269.544 111.5,273.5C 109.833,273.5 108.167,273.5 106.5,273.5C 106.343,272.127 106.51,270.793 107,269.5C 108.929,270.767 110.762,270.434 112.5,268.5 Z"/></g>
<g><path style="opacity:1" fill="#b2b2b2" d="M 174.5,268.5 C 175.75,268.577 176.583,269.244 177,270.5C 178.612,267.921 180.112,267.921 181.5,270.5C 180.624,271.251 179.624,271.751 178.5,272C 179.167,272.333 179.833,272.667 180.5,273C 178.866,273.494 177.199,273.66 175.5,273.5C 175.404,269.689 174.738,269.689 173.5,273.5C 172.316,271.533 172.649,269.866 174.5,268.5 Z"/></g>
<g><path style="opacity:1" fill="#acacac" d="M 193.5,268.5 C 196.018,269.694 196.018,270.86 193.5,272C 194.167,272.333 194.833,272.667 195.5,273C 192.939,272.599 190.272,272.765 187.5,273.5C 187.457,269.107 187.957,268.774 189,272.5C 189.284,270.114 190.284,269.448 192,270.5C 192.717,269.956 193.217,269.289 193.5,268.5 Z"/></g>
<g><path style="opacity:1" fill="#a8a8a8" d="M 44.5,267.5 C 45.4614,269.265 45.7947,271.265 45.5,273.5C 44.1667,273.5 42.8333,273.5 41.5,273.5C 41.0283,270.642 42.0283,268.642 44.5,267.5 Z"/></g>
<g><path style="opacity:1" fill="#aaaaaa" d="M 48.5,268.5 C 51.9103,268.384 53.2436,270.05 52.5,273.5C 51.1779,273.33 50.0113,273.663 49,274.5C 48.5045,272.527 48.3379,270.527 48.5,268.5 Z"/></g>
<g><path style="opacity:1" fill="#b0b0b0" d="M 81.5,267.5 C 83.2624,267.357 84.9291,267.691 86.5,268.5C 87.1414,270.296 88.1414,271.796 89.5,273C 87.4049,272.681 85.4049,272.848 83.5,273.5C 82.2588,272.963 81.0921,272.296 80,271.5C 78.2382,271.944 78.4049,272.444 80.5,273C 79.552,273.483 78.552,273.649 77.5,273.5C 77.3433,272.127 77.51,270.793 78,269.5C 79,268.167 80,268.167 81,269.5C 81.4643,268.906 81.631,268.239 81.5,267.5 Z"/></g>
<g><path style="opacity:1" fill="#9d9d9d" d="M 141.5,269.5 C 143.049,269.736 144.549,269.736 146,269.5C 146.638,272.93 145.138,274.263 141.5,273.5C 141.5,272.167 141.5,270.833 141.5,269.5 Z"/></g>
<g><path style="opacity:1" fill="#b5b5b5" d="M 37.5,268.5 C 40.0838,269.048 41.0838,270.715 40.5,273.5C 39.0222,273.762 37.6888,273.429 36.5,272.5C 36.7876,271.139 37.121,269.806 37.5,268.5 Z"/></g>
<g><path style="opacity:1" fill="#bdbdbd" d="M 60.5,268.5 C 65.2673,269.066 69.9339,269.066 74.5,268.5C 73.5908,270.761 73.2575,272.928 73.5,275C 70.7407,274.844 68.9073,273.344 68,270.5C 67.5172,271.448 67.3505,272.448 67.5,273.5C 65.1432,273.663 62.8098,273.497 60.5,273C 59.2721,271.51 59.2721,270.01 60.5,268.5 Z"/></g>
<g><path style="opacity:1" fill="#b6b6b6" d="M 183.5,268.5 C 185.722,268.559 186.722,269.725 186.5,272C 186.333,272.833 186.167,273.667 186,274.5C 184.989,273.663 183.822,273.33 182.5,273.5C 182.366,271.708 182.699,270.042 183.5,268.5 Z"/></g>
<g><path style="opacity:1" fill="#beb5b5" d="M 233.5,292.5 C 231.628,291.489 229.628,290.655 227.5,290C 165.167,289.333 102.833,289.333 40.5,290C 37.4241,291.243 34.7574,293.077 32.5,295.5C 33.9274,292.236 36.2608,289.736 39.5,288C 102.5,287.333 165.5,287.333 228.5,288C 230.66,288.996 232.327,290.496 233.5,292.5 Z"/></g>
<g><path style="opacity:1" fill="#ded5d5" d="M 233.5,292.5 C 235.539,293.911 236.539,295.911 236.5,298.5C 234.363,296.2 232.03,294.033 229.5,292C 165.833,291.333 102.167,291.333 38.5,292C 36.6667,293.833 34.8333,295.667 33,297.5C 32.5007,302.489 32.3341,307.489 32.5,312.5C 29.8971,306.818 29.8971,301.151 32.5,295.5C 34.7574,293.077 37.4241,291.243 40.5,290C 102.833,289.333 165.167,289.333 227.5,290C 229.628,290.655 231.628,291.489 233.5,292.5 Z"/></g>
<g><path style="opacity:1" fill="#f1e6e6" d="M 236.5,298.5 C 238.071,304.931 237.738,311.264 235.5,317.5C 233.31,319.524 230.977,321.357 228.5,323C 165.5,323.667 102.5,323.667 39.5,323C 36.5914,321.594 34.5914,319.428 33.5,316.5C 35.7574,318.923 38.4241,320.757 41.5,322C 103.167,322.667 164.833,322.667 226.5,322C 232.425,319.763 235.591,315.597 236,309.5C 234.807,314.694 231.64,317.86 226.5,319C 164.833,319.667 103.167,319.667 41.5,319C 37.4754,318.127 34.4754,315.961 32.5,312.5C 32.3341,307.489 32.5007,302.489 33,297.5C 34.8333,295.667 36.6667,293.833 38.5,292C 102.167,291.333 165.833,291.333 229.5,292C 232.03,294.033 234.363,296.2 236.5,298.5 Z"/></g>
<g><path style="opacity:1" fill="#232222" d="M 114.5,299.5 C 117.073,299.148 119.406,299.648 121.5,301C 119.874,300.805 118.207,300.805 116.5,301C 114.91,303.48 115.41,305.313 118,306.5C 119.826,305.99 119.993,305.156 118.5,304C 119.448,303.517 120.448,303.351 121.5,303.5C 121.5,304.833 121.5,306.167 121.5,307.5C 114.461,308.717 112.128,306.051 114.5,299.5 Z"/></g>
<g><path style="opacity:1" fill="#3e3b3b" d="M 143.5,301.5 C 144.978,301.238 146.311,301.571 147.5,302.5C 146.248,304.001 145.248,305.668 144.5,307.5C 143.534,305.604 143.201,303.604 143.5,301.5 Z"/></g>
<g><path style="opacity:1" fill="#242222" d="M 124.5,301.5 C 128.068,301.759 129.401,303.759 128.5,307.5C 126.833,307.5 125.167,307.5 123.5,307.5C 123.281,306.325 123.614,305.325 124.5,304.5C 124.833,305.167 125.167,305.833 125.5,306.5C 126.614,305.277 126.781,303.944 126,302.5C 123.821,303.84 123.321,303.507 124.5,301.5 Z"/></g>
<g><path style="opacity:1" fill="#585454" d="M 137.5,301.5 C 142.159,301.015 143.492,302.848 141.5,307C 136.728,307.81 135.395,305.977 137.5,301.5 Z"/></g>
<g><path style="opacity:1" fill="#242323" d="M 148.5,301.5 C 149.712,302.23 150.712,303.23 151.5,304.5C 152.167,303.5 152.833,302.5 153.5,301.5C 153.833,301.833 154.167,302.167 154.5,302.5C 153.162,305.176 151.829,307.842 150.5,310.5C 150.289,307.625 149.623,304.625 148.5,301.5 Z"/></g>
<g><path style="opacity:1" fill="#c5c6c5" d="M 33.5,316.5 C 32.5655,315.432 32.2322,314.099 32.5,312.5C 34.4754,315.961 37.4754,318.127 41.5,319C 103.167,319.667 164.833,319.667 226.5,319C 231.64,317.86 234.807,314.694 236,309.5C 235.591,315.597 232.425,319.763 226.5,322C 164.833,322.667 103.167,322.667 41.5,322C 38.4241,320.757 35.7574,318.923 33.5,316.5 Z"/></g>
<g><path style="opacity:1" fill="#bbb6b4" d="M 237.5,348.5 C 237.541,340.431 233.875,334.597 226.5,331C 164.833,330.333 103.167,330.333 41.5,331C 37.1608,332.174 33.8274,334.674 31.5,338.5C 32.5717,332.927 35.905,329.427 41.5,328C 103.167,327.333 164.833,327.333 226.5,328C 232.41,329.579 235.91,333.412 237,339.5C 237.498,342.482 237.665,345.482 237.5,348.5 Z"/></g>
<g><path style="opacity:1" fill="#f1e7e6" d="M 237.5,348.5 C 237.264,355.586 233.93,360.753 227.5,364C 165.167,364.667 102.833,364.667 40.5,364C 39.944,363.617 39.6107,363.117 39.5,362.5C 102.168,362.667 164.834,362.5 227.5,362C 230.885,360.301 233.052,357.801 234,354.5C 231.658,357.754 228.491,359.588 224.5,360C 163.833,360.667 103.167,360.667 42.5,360C 37.406,358.401 33.7393,355.234 31.5,350.5C 30.2092,346.399 30.2092,342.399 31.5,338.5C 33.8274,334.674 37.1608,332.174 41.5,331C 103.167,330.333 164.833,330.333 226.5,331C 233.875,334.597 237.541,340.431 237.5,348.5 Z"/></g>
<g><path style="opacity:1" fill="#292828" d="M 113.5,339.5 C 115.665,339.116 117.332,339.783 118.5,341.5C 117.091,341.654 115.424,341.821 113.5,342C 112.23,346.261 113.73,347.428 118,345.5C 118.617,346.449 118.451,347.282 117.5,348C 112.504,348.664 110.67,346.498 112,341.5C 112.717,340.956 113.217,340.289 113.5,339.5 Z"/></g>
<g><path style="opacity:1" fill="#201f1f" d="M 127.5,342.5 C 130.518,342.335 133.518,342.502 136.5,343C 137.76,344.814 137.76,346.647 136.5,348.5C 135.167,341.833 133.833,341.833 132.5,348.5C 130.998,342.001 129.498,342.001 128,348.5C 127.505,346.527 127.338,344.527 127.5,342.5 Z"/></g>
<g><path style="opacity:1" fill="#151515" d="M 148.5,342.5 C 149.506,342.938 149.506,343.604 148.5,344.5C 147.71,345.609 147.21,346.942 147,348.5C 146.833,347.5 146.667,346.5 146.5,345.5C 146.64,343.97 147.307,342.97 148.5,342.5 Z"/></g>
<g><path style="opacity:1" fill="#323030" d="M 139.5,342.5 C 141.167,342.5 142.833,342.5 144.5,342.5C 144.5,343.5 144.5,344.5 144.5,345.5C 139.206,345.682 139.206,346.182 144.5,347C 141.668,349.168 139.668,348.501 138.5,345C 138.743,344.098 139.077,343.265 139.5,342.5 Z"/></g>
<g><path style="opacity:1" fill="#434141" d="M 120.5,342.5 C 125.5,341.5 127.5,343.5 126.5,348.5C 124.5,348.5 122.5,348.5 120.5,348.5C 121.38,346.389 121.38,344.389 120.5,342.5 Z"/></g>
<g><path style="opacity:1" fill="#4d4949" d="M 148.5,342.5 C 149.566,341.308 150.399,341.641 151,343.5C 155.846,341.677 157.512,343.344 156,348.5C 155.15,347.576 154.15,347.576 153,348.5C 150.659,347.993 150.159,346.826 151.5,345C 150.552,344.517 149.552,344.351 148.5,344.5C 149.506,343.604 149.506,342.938 148.5,342.5 Z"/></g>
<g><path style="opacity:1" fill="#c7c7c7" d="M 31.5,350.5 C 33.7393,355.234 37.406,358.401 42.5,360C 103.167,360.667 163.833,360.667 224.5,360C 228.491,359.588 231.658,357.754 234,354.5C 233.052,357.801 230.885,360.301 227.5,362C 164.834,362.5 102.168,362.667 39.5,362.5C 38.1147,361.386 36.6147,360.386 35,359.5C 33.0847,356.765 31.918,353.765 31.5,350.5 Z"/></g>
<g><path style="opacity:1" fill="#2a2a2a" d="M 29.5,10.5 C 32.6915,11.7199 36.0248,12.5532 39.5,13C 102.832,13.5 166.166,13.6667 229.5,13.5C 232.713,13.19 235.713,13.5233 238.5,14.5C 167.166,14.3333 95.8326,14.5 24.5,15C 17.2684,17.899 12.4351,23.0657 10,30.5C 9.33333,201.5 9.33333,372.5 10,543.5C 12.6113,553.112 18.7779,558.945 28.5,561C 98.8333,561.667 169.167,561.667 239.5,561C 250.831,558.169 257.497,551.003 259.5,539.5C 260.46,477.666 261.293,415.666 262,353.5C 262.5,414.832 262.667,476.166 262.5,537.5C 261.72,554.78 252.72,563.946 235.5,565C 165.833,565.667 96.1667,565.667 26.5,565C 16.0179,562.351 9.35126,555.851 6.5,545.5C 5.51654,448.847 5.1832,352.18 5.5,255.5C 6.21064,331.67 7.04397,408.003 8,484.5C 8.5,408.501 8.66666,332.501 8.5,256.5C 8.66666,189.833 8.5,123.166 8,56.5C 7.20858,57.745 6.70858,59.0783 6.5,60.5C 6.16667,60.5 5.83333,60.5 5.5,60.5C 5.5,52.1667 5.5,43.8333 5.5,35.5C 6.69771,20.6356 14.6977,12.3023 29.5,10.5 Z"/></g>
<g><path style="opacity:1" fill="#fdfdfd" d="M 157.5,524.5 C 187.835,524.333 218.168,524.5 248.5,525C 251.02,526.697 253.353,528.53 255.5,530.5C 256.55,538.088 255.05,545.088 251,551.5C 248.331,554.164 245.164,555.998 241.5,557C 169.833,557.667 98.1667,557.667 26.5,557C 19.5993,554.432 15.0993,549.598 13,542.5C 12.5012,538.514 12.3345,534.514 12.5,530.5C 13.3382,530.158 13.6716,529.492 13.5,528.5C 15.6125,527.56 17.6125,526.394 19.5,525C 49.4981,524.5 79.4981,524.333 109.5,524.5C 110.702,531.273 113.535,537.273 118,542.5C 118.333,542.167 118.667,541.833 119,541.5C 119.465,542.931 120.299,544.097 121.5,545C 139.925,551.621 152.258,545.621 158.5,527C 157.748,526.329 157.414,525.496 157.5,524.5 Z"/></g>
<g><path style="opacity:1" fill="#616161" d="M 207.5,534.5 C 215.684,534.537 218.851,538.537 217,546.5C 216.5,548.333 215.333,549.5 213.5,550C 204.834,551.664 201,548.164 202,539.5C 203.73,537.598 205.563,535.931 207.5,534.5 Z"/></g>
<g><path style="opacity:1" fill="#4b6c53" d="M 54.5,533.5 C 57.1569,533.162 59.4902,533.829 61.5,535.5C 64.041,532.9 66.541,532.9 69,535.5C 69.7562,537.809 69.2562,539.809 67.5,541.5C 69.5923,543.789 69.9256,546.289 68.5,549C 63.5921,548.561 58.7587,548.395 54,548.5C 53.2066,542.595 55.7066,540.928 61.5,543.5C 64.1667,542.167 64.1667,540.833 61.5,539.5C 54.6894,542.919 52.3561,540.919 54.5,533.5 Z"/></g>
<g><path style="opacity:1" fill="#f1f1f1" d="M 206.5,536.5 C 215.372,535.945 218.039,539.612 214.5,547.5C 210.86,546.601 207.36,546.267 204,546.5C 202.11,542.58 202.943,539.246 206.5,536.5 Z"/></g>
<g><path style="opacity:1" fill="#555555" d="M 207.5,538.5 C 213.175,538.86 213.842,540.86 209.5,544.5C 206.61,543.163 205.943,541.163 207.5,538.5 Z"/></g>
<g><path style="opacity:1" fill="#f2f2f2" d="M 255.5,486.5 C 255.5,501.167 255.5,515.833 255.5,530.5C 253.353,528.53 251.02,526.697 248.5,525C 218.168,524.5 187.835,524.333 157.5,524.5C 157.414,525.496 157.748,526.329 158.5,527C 152.258,545.621 139.925,551.621 121.5,545C 120.299,544.097 119.465,542.931 119,541.5C 118.667,541.833 118.333,542.167 118,542.5C 113.535,537.273 110.702,531.273 109.5,524.5C 79.4981,524.333 49.4981,524.5 19.5,525C 17.6125,526.394 15.6125,527.56 13.5,528.5C 13.5,520.167 13.5,511.833 13.5,503.5C 15.1238,503.36 16.2904,504.027 17,505.5C 17.6667,503.5 18.3333,501.5 19,499.5C 19.3333,499.833 19.6667,500.167 20,500.5C 24.0282,499.303 28.1949,497.636 32.5,495.5C 33.086,495.709 33.586,496.043 34,496.5C 36,495.833 38,495.167 40,494.5C 40.6667,495.167 41.3333,495.833 42,496.5C 44.6024,495.164 47.2691,493.831 50,492.5C 52.6446,492.438 55.1446,492.772 57.5,493.5C 58.1924,492.975 58.6924,492.308 59,491.5C 59.4186,492.672 60.0853,493.672 61,494.5C 63.8594,491.707 67.0261,491.207 70.5,493C 68.2053,493.984 68.5386,494.817 71.5,495.5C 71.6691,494.603 72.0024,493.603 72.5,492.5C 74.9686,490.993 77.1353,491.327 79,493.5C 81.4231,491.006 83.7564,491.006 86,493.5C 87.3159,490.972 88.4826,490.972 89.5,493.5C 90.548,492.617 91.7147,491.95 93,491.5C 102.408,491.963 111.741,491.963 121,491.5C 121.945,491.905 122.612,492.572 123,493.5C 126.233,491.273 129.4,491.273 132.5,493.5C 133.192,492.975 133.692,492.308 134,491.5C 137.151,492.091 140.485,492.091 144,491.5C 145.232,494.755 147.232,495.088 150,492.5C 151.016,493.634 151.683,493.301 152,491.5C 153.171,494.038 154.671,494.538 156.5,493C 152.576,492.201 152.576,491.701 156.5,491.5C 164.798,491.524 172.464,491.524 179.5,491.5C 180.894,493.984 182.394,493.984 184,491.5C 185.891,491.718 187.724,491.718 189.5,491.5C 190.696,491.846 190.696,492.346 189.5,493C 190.825,492.852 191.992,493.018 193,493.5C 193.739,492.426 194.739,491.759 196,491.5C 196.667,492.167 197.333,492.833 198,493.5C 199.011,493.108 199.511,492.441 199.5,491.5C 200.251,492.376 200.751,493.376 201,494.5C 203.734,493.638 203.901,492.805 201.5,492C 203.657,491.922 205.657,491.755 207.5,491.5C 208.216,492.311 209.05,492.978 210,493.5C 211.789,492.591 213.623,492.424 215.5,493C 214.304,493.654 214.304,494.154 215.5,494.5C 216.748,493.96 217.915,493.293 219,492.5C 219.368,493.91 220.201,494.91 221.5,495.5C 222.517,492.972 223.684,492.972 225,495.5C 228.877,494.42 232.544,494.42 236,495.5C 237.49,496.682 238.823,497.682 240,498.5C 241.902,498.815 243.902,498.815 246,498.5C 247.316,499.974 248.316,501.641 249,503.5C 249.915,502.672 250.581,501.672 251,500.5C 251.419,501.672 252.085,502.672 253,503.5C 254.121,497.825 254.955,492.158 255.5,486.5 Z"/></g>
<g><path style="opacity:1" fill="#e7e8e7" d="M 157.5,524.5 C 156.167,524.5 154.833,524.5 153.5,524.5C 153.354,528.607 152.02,532.273 149.5,535.5C 141.27,544.656 131.937,545.823 121.5,539C 117.05,534.786 114.05,529.786 112.5,524C 92.5,523.667 72.5,523.333 52.5,523C 53.5596,521.702 54.7263,520.535 56,519.5C 57.6489,520.898 58.9822,520.564 60,518.5C 60.6914,520.891 61.6914,520.891 63,518.5C 63.6667,519.167 64.3333,519.833 65,520.5C 66.2036,519.529 66.7036,518.529 66.5,517.5C 68.622,518.309 70.9553,518.476 73.5,518C 73.9302,518.92 74.2635,519.753 74.5,520.5C 75.3857,519.675 75.719,518.675 75.5,517.5C 85.2594,518.598 94.9261,518.764 104.5,518C 105.623,516.956 106.956,516.29 108.5,516C 109.833,515.333 109.833,514.667 108.5,514C 110.333,512.833 111.833,511.333 113,509.5C 113.451,511.929 114.285,512.096 115.5,510C 115.167,509.667 114.833,509.333 114.5,509C 119.888,503.392 126.054,501.226 133,502.5C 133.333,501.833 133.667,501.167 134,500.5C 139.838,501.669 145.671,503.669 151.5,506.5C 151.351,507.552 151.517,508.552 152,509.5C 153.84,508.167 154.34,508.334 153.5,510C 154.974,511.316 156.641,512.316 158.5,513C 159.833,513.667 159.833,514.333 158.5,515C 160.095,514.383 161.428,514.716 162.5,516C 162.167,516.333 161.833,516.667 161.5,517C 162.416,517.374 163.25,517.874 164,518.5C 170.419,518.533 176.919,518.2 183.5,517.5C 184.478,517.977 185.311,518.643 186,519.5C 186.333,518.833 186.667,518.167 187,517.5C 188.765,518.239 190.765,518.239 193,517.5C 194.391,519.715 196.057,519.715 198,517.5C 200.726,518.701 203.392,519.701 206,520.5C 207.587,519.273 208.921,519.606 210,521.5C 210.333,520.833 210.667,520.167 211,519.5C 211.667,520.833 212.333,520.833 213,519.5C 214.316,522.047 216.149,522.713 218.5,521.5C 219.308,521.808 219.975,522.308 220.5,523C 201.083,523.697 181.583,523.53 162,522.5C 160.378,523.099 158.878,523.766 157.5,524.5 Z"/></g>
<g><path style="opacity:1" fill="#45654b" d="M 128.5,507.5 C 147.109,507.261 153.609,515.928 148,533.5C 140.442,541.394 131.942,542.561 122.5,537C 113.178,524.811 115.178,514.977 128.5,507.5 Z"/></g>
<g><path style="opacity:1" fill="#e46933" d="M 131.5,515.5 C 135.167,516.167 138.833,516.833 142.5,517.5C 142.5,521.833 142.5,526.167 142.5,530.5C 136.833,530.5 131.167,530.5 125.5,530.5C 125.5,526.167 125.5,521.833 125.5,517.5C 128.01,517.946 130.01,517.28 131.5,515.5 Z"/></g>
<g><path style="opacity:1" fill="#646545" d="M 132.5,519.5 C 139.949,521.825 140.282,524.825 133.5,528.5C 131.167,528.167 129.833,526.833 129.5,524.5C 130.092,522.577 131.092,520.911 132.5,519.5 Z"/></g>
<g><path style="opacity:1" fill="#e56933" d="M 132.5,521.5 C 136.161,521.35 137.161,522.85 135.5,526C 131.707,526.487 130.707,524.987 132.5,521.5 Z"/></g>
<g><path style="opacity:1" fill="#cfcbc9" d="M 238.5,392.5 C 237.415,397.518 234.415,400.685 229.5,402C 167.5,402.667 105.5,402.667 43.5,402C 39.2518,400.587 36.5852,397.754 35.5,393.5C 37.671,395.5 40.0043,397.334 42.5,399C 104.833,399.667 167.167,399.667 229.5,399C 233.279,397.789 236.279,395.623 238.5,392.5 Z"/></g>
<g><path style="opacity:1" fill="#e56932" d="M 238.5,376.5 C 239.636,381.681 239.636,387.015 238.5,392.5C 236.279,395.623 233.279,397.789 229.5,399C 167.167,399.667 104.833,399.667 42.5,399C 40.0043,397.334 37.671,395.5 35.5,393.5C 34.962,391.883 34.6287,390.216 34.5,388.5C 34.3354,385.482 34.502,382.482 35,379.5C 37.4626,376.035 40.2959,372.869 43.5,370C 105.167,369.333 166.833,369.333 228.5,370C 232.374,371.431 235.707,373.597 238.5,376.5 Z"/></g>
<g><path style="opacity:1" fill="#201006" d="M 126.5,381.5 C 128.144,381.286 129.644,381.62 131,382.5C 131.688,383.332 131.521,383.998 130.5,384.5C 129.191,382.109 128.191,382.109 127.5,384.5C 127.833,385.167 128.167,385.833 128.5,386.5C 129.451,385.674 130.451,385.508 131.5,386C 126.251,388.586 124.584,387.086 126.5,381.5 Z"/></g>
<g><path style="opacity:1" fill="#231208" d="M 152.5,382.5 C 152.56,381.957 152.893,381.624 153.5,381.5C 154.584,382.665 155.417,383.998 156,385.5C 156.026,382.895 157.193,381.729 159.5,382C 157.931,384.984 156.264,387.817 154.5,390.5C 155.007,387.735 154.34,385.069 152.5,382.5 Z"/></g>
<g><path style="opacity:1" fill="#31190e" d="M 122.5,378.5 C 124.388,380.988 125.055,383.988 124.5,387.5C 122.208,387.756 120.041,387.423 118,386.5C 116.823,382.508 118.323,380.842 122.5,381.5C 122.5,380.5 122.5,379.5 122.5,378.5 Z"/></g>
<g><path style="opacity:1" fill="#cc5d2d" d="M 119.5,382.5 C 122.861,383.203 123.194,384.537 120.5,386.5C 119.571,385.311 119.238,383.978 119.5,382.5 Z"/></g>
<g><path style="opacity:1" fill="#160a04" d="M 133.5,381.5 C 135.167,381.5 136.833,381.5 138.5,381.5C 138.662,383.527 138.495,385.527 138,387.5C 136.667,380.833 135.333,380.833 134,387.5C 133.505,385.527 133.338,383.527 133.5,381.5 Z"/></g>
<g><path style="opacity:1" fill="#231309" d="M 141.5,379.5 C 142.267,380.172 142.934,381.005 143.5,382C 142.721,383.994 142.387,385.828 142.5,387.5C 141.054,386.829 140.388,385.662 140.5,384C 140.773,382.467 141.106,380.967 141.5,379.5 Z"/></g>
<g><path style="opacity:1" fill="#27150b" d="M 149.5,378.5 C 150.376,378.369 151.043,378.702 151.5,379.5C 151.26,381.967 150.593,384.633 149.5,387.5C 148.491,384.527 148.491,381.527 149.5,378.5 Z"/></g>
<g><path style="opacity:1" fill="#542815" d="M 114.5,378.5 C 115.765,379.514 116.431,381.014 116.5,383C 116.167,384.5 115.833,386 115.5,387.5C 114.516,384.572 114.183,381.572 114.5,378.5 Z"/></g>
<g><path style="opacity:1" fill="#532714" d="M 145.5,378.5 C 147.337,378.639 147.67,379.306 146.5,380.5C 145.702,380.043 145.369,379.376 145.5,378.5 Z"/></g>
<g><path style="opacity:1" fill="#ba562b" d="M 238.5,376.5 C 235.707,373.597 232.374,371.431 228.5,370C 166.833,369.333 105.167,369.333 43.5,370C 40.2959,372.869 37.4626,376.035 35,379.5C 34.502,382.482 34.3354,385.482 34.5,388.5C 31.681,379.624 34.3477,372.79 42.5,368C 105.167,367.333 167.833,367.333 230.5,368C 234.748,369.413 237.415,372.246 238.5,376.5 Z"/></g>
<g><path style="opacity:1" fill="#a0a0a0" d="M 265.5,535.5 C 265.5,536.167 265.5,536.833 265.5,537.5C 264.312,556.854 253.979,567.021 234.5,568C 167.167,568.667 99.8333,568.667 32.5,568C 20.0055,567.969 11.0055,562.469 5.5,551.5C 4.67131,548.531 4.50465,545.531 5,542.5C 5.23209,543.737 5.73209,544.737 6.5,545.5C 9.35126,555.851 16.0179,562.351 26.5,565C 96.1667,565.667 165.833,565.667 235.5,565C 252.72,563.946 261.72,554.78 262.5,537.5C 262.833,537.5 263.167,537.5 263.5,537.5C 263.34,539.199 263.506,540.866 264,542.5C 264.186,539.964 264.686,537.631 265.5,535.5 Z"/></g>
</svg>
