<?xml version="1.0" encoding="UTF-8"?>
<!DOCTYPE svg PUBLIC "-//W3C//DTD SVG 1.1//EN" "http://www.w3.org/Graphics/SVG/1.1/DTD/svg11.dtd">
<svg xmlns="http://www.w3.org/2000/svg" version="1.1" width="275px" height="577px" style="shape-rendering:geometricPrecision; text-rendering:geometricPrecision; image-rendering:optimizeQuality; fill-rule:evenodd; clip-rule:evenodd" xmlns:xlink="http://www.w3.org/1999/xlink">
<g><path style="opacity:1" fill="#cfcfcf" d="M 38.5,8.5 C 105.5,8.5 172.5,8.5 239.5,8.5C 242.725,9.64973 246.058,10.8164 249.5,12C 248.906,12.4643 248.239,12.631 247.5,12.5C 245.194,12.0074 242.861,11.6741 240.5,11.5C 170.669,10.5008 100.669,10.1675 30.5,10.5C 33.1667,9.83333 35.8333,9.16667 38.5,8.5 Z"/></g>
<g><path style="opacity:1" fill="#4d4d4d" d="M 30.5,11.5 C 30.5,11.1667 30.5,10.8333 30.5,10.5C 100.669,10.1675 170.669,10.5008 240.5,11.5C 237.194,12.8233 233.861,13.8233 230.5,14.5C 167.166,14.6667 103.832,14.5 40.5,14C 37.0248,13.5532 33.6915,12.7199 30.5,11.5 Z"/></g>
<g><path style="opacity:1" fill="#737373" d="M 72.5,12.5 C 124.665,11.3349 176.998,11.1683 229.5,12C 204.894,13.1528 180.227,13.6528 155.5,13.5C 127.825,13.4436 100.158,13.1103 72.5,12.5 Z"/></g>
<g><path style="opacity:1" fill="#232323" d="M 30.5,11.5 C 33.6915,12.7199 37.0248,13.5532 40.5,14C 103.832,14.5 167.166,14.6667 230.5,14.5C 233.713,14.19 236.713,14.5233 239.5,15.5C 168.166,15.3333 96.8326,15.5 25.5,16C 18.2684,18.899 13.4351,24.0657 11,31.5C 10.5003,39.1594 10.3336,46.8261 10.5,54.5C 9.86032,44.2418 8.86032,35.9084 7.5,29.5C 7.5,28.8333 7.5,28.1667 7.5,27.5C 12.2097,17.9739 19.8763,12.6405 30.5,11.5 Z"/></g>
<g><path style="opacity:1" fill="#090909" d="M 239.5,15.5 C 250.183,17.0106 257.016,23.0106 260,33.5C 260.499,37.8206 260.666,42.1539 260.5,46.5C 260.5,109.5 260.5,172.5 260.5,235.5C 260.5,337.167 260.5,438.833 260.5,540.5C 258.497,552.003 251.831,559.169 240.5,562C 170.167,562.667 99.8333,562.667 29.5,562C 19.7779,559.945 13.6113,554.112 11,544.5C 10.5,381.167 10.3333,217.834 10.5,54.5C 10.3336,46.8261 10.5003,39.1594 11,31.5C 13.4351,24.0657 18.2684,18.899 25.5,16C 96.8326,15.5 168.166,15.3333 239.5,15.5 Z"/></g>
<g><path style="opacity:1" fill="#a7a7a7" d="M 38.5,8.5 C 35.8333,9.16667 33.1667,9.83333 30.5,10.5C 30.5,10.8333 30.5,11.1667 30.5,11.5C 19.8763,12.6405 12.2097,17.9739 7.5,27.5C 6.1794,27.9814 5.1794,29.3147 4.5,31.5C 6.71722,20.1125 13.3839,12.6125 24.5,9C 29.1548,8.50085 33.8215,8.33418 38.5,8.5 Z"/></g>
<g><path style="opacity:1" fill="#a1a1a1" d="M 26.5,18.5 C 98.8341,18.3333 171.167,18.5 243.5,19C 249.57,21.281 253.737,25.4477 256,31.5C 256.5,39.1594 256.666,46.8261 256.5,54.5C 175.5,54.5 94.5,54.5 13.5,54.5C 13.3336,46.8261 13.5003,39.1594 14,31.5C 17.0248,25.9769 21.1915,21.6436 26.5,18.5 Z"/></g>
<g><path style="opacity:1" fill="#9d9d9d" d="M 239.5,8.5 C 254.028,9.03509 262.694,16.3684 265.5,30.5C 264.778,30.0825 264.278,29.4158 264,28.5C 263.536,29.0944 263.369,29.7611 263.5,30.5C 260.684,22.3462 255.351,16.3462 247.5,12.5C 248.239,12.631 248.906,12.4643 249.5,12C 246.058,10.8164 242.725,9.64973 239.5,8.5 Z"/></g>
<g><path style="opacity:1" fill="#964d2e" d="M 29.5,30.5 C 39.9392,31.0371 43.7725,36.3705 41,46.5C 38.0682,52.544 33.5682,54.044 27.5,51C 21.7189,43.4302 22.3856,36.5969 29.5,30.5 Z"/></g>
<g><path style="opacity:1" fill="#a29c99" d="M 30.5,32.5 C 38.2601,33.3123 41.0934,37.6456 39,45.5C 36.8041,50.5402 33.3041,51.7068 28.5,49C 24.0582,42.7441 24.7249,37.2441 30.5,32.5 Z"/></g>
<g><path style="opacity:1" fill="#090909" d="M 92.5,32.5 C 98.1667,32.6636 98.5,32.9969 93.5,33.5C 93.5,34.5 93.5,35.5 93.5,36.5C 97.5,36.8333 97.5,37.1667 93.5,37.5C 93.6495,38.552 93.4828,39.552 93,40.5C 92.5026,37.854 92.3359,35.1873 92.5,32.5 Z"/></g>
<g><path style="opacity:1" fill="#101010" d="M 127.5,32.5 C 134.158,31.3445 136.158,33.8445 133.5,40C 131.527,40.4955 129.527,40.6621 127.5,40.5C 127.5,37.8333 127.5,35.1667 127.5,32.5 Z"/></g>
<g><path style="opacity:1" fill="#1a1a1a" d="M 163.5,33.5 C 164.643,33.9081 165.643,34.5748 166.5,35.5C 165.253,37.0421 165.253,38.5421 166.5,40C 165.552,40.4828 164.552,40.6495 163.5,40.5C 162.933,38.0314 162.933,35.698 163.5,33.5 Z"/></g>
<g><path style="opacity:1" fill="#323232" d="M 111.5,34.5 C 113.103,34.3118 114.437,34.8118 115.5,36C 114.833,36.3333 114.167,36.6667 113.5,37C 116.064,38.4813 116.064,39.9813 113.5,41.5C 112.328,41.0814 111.328,40.4147 110.5,39.5C 110.579,37.8717 110.912,36.2051 111.5,34.5 Z"/></g>
<g><path style="opacity:1" fill="#929292" d="M 129.5,33.5 C 133.35,33.7007 134.35,35.5341 132.5,39C 131.552,39.4828 130.552,39.6495 129.5,39.5C 129.5,37.5 129.5,35.5 129.5,33.5 Z"/></g>
<g><path style="opacity:1" fill="#0b0b0b" d="M 101.5,34.5 C 102.043,34.56 102.376,34.8933 102.5,35.5C 101.137,36.8928 100.304,38.5595 100,40.5C 99.2568,38.1261 99.7568,36.1261 101.5,34.5 Z"/></g>
<g><path style="opacity:1" fill="#282828" d="M 178.5,34.5 C 183.895,33.5548 185.561,35.5548 183.5,40.5C 182.167,35.1667 180.833,35.1667 179.5,40.5C 178.534,38.604 178.201,36.604 178.5,34.5 Z"/></g>
<g><path style="opacity:1" fill="#954826" d="M 31.5,37.5 C 31.9064,39.3581 33.5731,40.6914 36.5,41.5C 35.1667,42.1667 33.8333,42.8333 32.5,43.5C 33.8938,44.6869 33.7271,45.3535 32,45.5C 30.6057,44.3867 29.439,43.0534 28.5,41.5C 29.5244,40.1482 30.5244,38.8149 31.5,37.5 Z"/></g>
<g><path style="opacity:1" fill="#2a2a2a" d="M 104.5,34.5 C 107.95,33.7564 109.616,35.0897 109.5,38.5C 105.107,38.4568 104.774,38.9568 108.5,40C 106.041,41.9377 104.374,41.271 103.5,38C 103.989,36.8615 104.322,35.6948 104.5,34.5 Z"/></g>
<g><path style="opacity:1" fill="#212121" d="M 117.5,32.5 C 118.268,33.2625 118.768,34.2625 119,35.5C 120.333,34.1667 121.667,34.1667 123,35.5C 123.798,37.2588 123.631,38.9255 122.5,40.5C 121.571,39.3112 121.238,37.9778 121.5,36.5C 120.5,36.5 119.5,36.5 118.5,36.5C 118.657,37.8734 118.49,39.2068 118,40.5C 117.503,37.854 117.336,35.1873 117.5,32.5 Z"/></g>
<g><path style="opacity:1" fill="#2f2f2f" d="M 144.5,33.5 C 147.915,34.3956 148.248,35.8956 145.5,38C 148.39,39.8918 148.056,40.7251 144.5,40.5C 144.392,35.8634 143.392,35.53 141.5,39.5C 139.955,40.4519 138.288,40.7852 136.5,40.5C 135.404,35.6241 137.071,33.9574 141.5,35.5C 142.739,35.0576 143.739,34.3909 144.5,33.5 Z"/></g>
<g><path style="opacity:1" fill="#343434" d="M 149.5,34.5 C 153.225,34.5372 154.558,36.2038 153.5,39.5C 151.955,40.4519 150.288,40.7852 148.5,40.5C 148.325,38.3792 148.659,36.3792 149.5,34.5 Z"/></g>
<g><path style="opacity:1" fill="#212121" d="M 172.5,34.5 C 176.485,34.6294 177.818,36.4628 176.5,40C 174.866,40.4935 173.199,40.6602 171.5,40.5C 171.325,38.3792 171.659,36.3792 172.5,34.5 Z"/></g>
<g><path style="opacity:1" fill="#919191" d="M 172.5,36.5 C 173.5,36.5 174.5,36.5 175.5,36.5C 175.5,37.5 175.5,38.5 175.5,39.5C 174.5,39.5 173.5,39.5 172.5,39.5C 172.5,38.5 172.5,37.5 172.5,36.5 Z"/></g>
<g><path style="opacity:1" fill="#272727" d="M 157.5,34.5 C 159.346,34.2222 160.68,34.8888 161.5,36.5C 160.609,37.5896 159.609,37.5896 158.5,36.5C 157.167,37.5 157.167,38.5 158.5,39.5C 162.508,38.8919 162.508,39.5586 158.5,41.5C 154.967,39.5798 154.633,37.2465 157.5,34.5 Z"/></g>
<g><path style="opacity:0.997" fill="#bababa" d="M 265.5,30.5 C 266.323,33.977 266.823,37.6437 267,41.5C 267.178,63.2394 267.678,84.9061 268.5,106.5C 268.652,134.685 267.986,162.851 266.5,191C 266.5,199.007 266.834,206.841 267.5,214.5C 268.167,214.5 268.5,214.833 268.5,215.5C 269.047,228.64 268.381,241.64 266.5,254.5C 266.5,348.5 266.5,442.5 266.5,536.5C 265.686,538.631 265.186,540.964 265,543.5C 264.506,541.866 264.34,540.199 264.5,538.5C 264.831,369.127 264.497,199.793 263.5,30.5C 263.369,29.7611 263.536,29.0944 264,28.5C 264.278,29.4158 264.778,30.0825 265.5,30.5 Z"/></g>
<g><path style="opacity:1" fill="#c6c6c6" d="M 7.5,27.5 C 7.5,28.1667 7.5,28.8333 7.5,29.5C 6.54885,30.9187 6.21552,32.5853 6.5,34.5C 6.16633,203.669 5.16633,372.669 3.5,541.5C 3.16811,371.43 3.50145,201.43 4.5,31.5C 5.1794,29.3147 6.1794,27.9814 7.5,27.5 Z"/></g>
<g><path style="opacity:1" fill="#717171" d="M 6.5,34.5 C 6.17593,205.179 6.50927,375.846 7.5,546.5C 6.73209,545.737 6.23209,544.737 6,543.5C 5.50465,546.531 5.67131,549.531 6.5,552.5C 4.43177,549.237 3.43177,545.57 3.5,541.5C 5.16633,372.669 6.16633,203.669 6.5,34.5 Z"/></g>
<g><path style="opacity:1" fill="#a2a2a2" d="M 14.5,55.5 C 95.1667,55.5 175.833,55.5 256.5,55.5C 256.5,209.167 256.5,362.833 256.5,516.5C 255.532,518.607 255.198,520.941 255.5,523.5C 254.448,523.649 253.448,523.483 252.5,523C 253.258,521.636 252.758,520.469 251,519.5C 250.282,520.451 249.449,520.617 248.5,520C 249.451,519.282 249.617,518.449 249,517.5C 247.992,517.018 246.825,516.852 245.5,517C 245.833,516.667 246.167,516.333 246.5,516C 242.874,514.047 238.874,511.881 234.5,509.5C 233.808,510.025 233.308,510.692 233,511.5C 230.597,508.798 227.597,507.131 224,506.5C 221.534,505.764 218.868,505.764 216,506.5C 215,505.833 214,505.167 213,504.5C 210.824,504.428 208.824,504.762 207,505.5C 206.196,504.196 205.029,503.529 203.5,503.5C 198.722,503.945 194.055,503.945 189.5,503.5C 188.522,503.977 187.689,504.643 187,505.5C 186.326,504.422 185.326,503.755 184,503.5C 182.111,504.603 180.277,504.603 178.5,503.5C 176.864,504.304 175.364,505.304 174,506.5C 173.544,505.256 174.044,504.423 175.5,504C 175,503.833 174.5,503.667 174,503.5C 171.143,504.446 168.143,504.446 165,503.5C 163.739,503.759 162.739,504.426 162,505.5C 160.946,503.246 159.446,502.913 157.5,504.5C 156.5,503.833 155.5,503.167 154.5,502.5C 152.995,505.131 152.329,504.797 152.5,501.5C 149.956,501.896 147.789,501.229 146,499.5C 140.596,500.341 135.096,500.341 129.5,499.5C 124.94,500.544 120.607,501.711 116.5,503C 118.709,503.957 118.543,505.124 116,506.5C 114.818,504.643 113.151,503.643 111,503.5C 106.656,503.715 102.323,503.715 98,503.5C 96.5732,505.584 94.9065,505.584 93,503.5C 91.2098,504.285 89.5431,504.285 88,503.5C 87.6667,504.167 87.3333,504.833 87,505.5C 86.3261,504.422 85.3261,503.755 84,503.5C 82.2214,504.378 80.5547,504.378 79,503.5C 78.5,503.667 78,503.833 77.5,504C 78.4506,504.718 78.6172,505.551 78,506.5C 77.0853,505.672 76.4186,504.672 76,503.5C 75.6667,504.167 75.3333,504.833 75,505.5C 74.6121,504.572 73.9454,503.905 73,503.5C 70.6324,504.107 68.4657,504.107 66.5,503.5C 64.997,504.59 64.6637,505.757 65.5,507C 65,507.167 64.5,507.333 64,507.5C 64.0267,506.212 63.0267,505.212 61,504.5C 60.2588,505.641 59.4255,505.641 58.5,504.5C 57.2011,505.09 56.3678,506.09 56,507.5C 54.4018,505.491 52.4018,505.491 50,507.5C 46.8827,506.6 44.3827,507.6 42.5,510.5C 41.4593,508.009 40.6259,508.009 40,510.5C 39.6667,509.833 39.3333,509.167 39,508.5C 36.0194,509.536 33.5194,511.202 31.5,513.5C 29.4706,512.371 29.1373,512.871 30.5,515C 29.3183,516.678 28.1516,516.512 27,514.5C 26.5,514.667 26,514.833 25.5,515C 21.9424,517.375 18.6091,520.542 15.5,524.5C 14.5,368.168 14.1667,211.835 14.5,55.5 Z"/></g>
<g><path style="opacity:1" fill="#4f4f4f" d="M 260.5,46.5 C 261.314,48.631 261.814,50.9644 262,53.5C 262.665,114.339 262.165,175.006 260.5,235.5C 260.5,172.5 260.5,109.5 260.5,46.5 Z"/></g>
<g><path style="opacity:0.493" fill="#717171" d="M 268.5,106.5 C 269.167,117.328 269.5,128.328 269.5,139.5C 268.056,164.352 267.39,189.352 267.5,214.5C 266.834,206.841 266.5,199.007 266.5,191C 267.986,162.851 268.652,134.685 268.5,106.5 Z"/></g>
<g><path style="opacity:1" fill="#444444" d="M 240.5,11.5 C 242.861,11.6741 245.194,12.0074 247.5,12.5C 255.351,16.3462 260.684,22.3462 263.5,30.5C 264.497,199.793 264.831,369.127 264.5,538.5C 264.167,538.5 263.833,538.5 263.5,538.5C 263.667,477.166 263.5,415.832 263,354.5C 262.293,416.666 261.46,478.666 260.5,540.5C 260.5,438.833 260.5,337.167 260.5,235.5C 262.165,175.006 262.665,114.339 262,53.5C 261.814,50.9644 261.314,48.631 260.5,46.5C 260.666,42.1539 260.499,37.8206 260,33.5C 257.016,23.0106 250.183,17.0106 239.5,15.5C 236.713,14.5233 233.713,14.19 230.5,14.5C 233.861,13.8233 237.194,12.8233 240.5,11.5 Z"/></g>
<g><path style="opacity:1" fill="#4e5851" d="M 190.5,135.5 C 154.458,134.179 118.458,134.179 82.5,135.5C 99.8205,134.167 117.487,133.5 135.5,133.5C 153.167,133.667 170.833,133.833 188.5,134C 189.416,134.278 190.082,134.778 190.5,135.5 Z"/></g>
<g><path style="opacity:1" fill="#2a402f" d="M 190.5,135.5 C 193.092,136.659 194.759,138.659 195.5,141.5C 196.499,153.148 196.832,164.814 196.5,176.5C 155.833,176.5 115.167,176.5 74.5,176.5C 74.3335,164.829 74.5001,153.162 75,141.5C 76.1925,137.802 78.6925,135.802 82.5,135.5C 118.458,134.179 154.458,134.179 190.5,135.5 Z"/></g>
<g><path style="opacity:1" fill="#50535a" d="M 236.5,175.5 C 236.5,176.833 236.5,178.167 236.5,179.5C 233.443,183.983 229.61,184.649 225,181.5C 222.182,172.484 225.349,169.151 234.5,171.5C 235.705,172.577 236.372,173.91 236.5,175.5 Z"/></g>
<g><path style="opacity:1" fill="#eeefef" d="M 227.5,171.5 C 233.665,170.829 236.165,173.496 235,179.5C 232.374,183.072 229.374,183.405 226,180.5C 225.068,177.177 225.568,174.177 227.5,171.5 Z"/></g>
<g><path style="opacity:1" fill="#fdfdfd" d="M 236.5,175.5 C 236.372,173.91 235.705,172.577 234.5,171.5C 225.349,169.151 222.182,172.484 225,181.5C 229.61,184.649 233.443,183.983 236.5,179.5C 237.043,179.56 237.376,179.893 237.5,180.5C 236.125,183.547 233.792,184.88 230.5,184.5C 230.667,208.836 230.5,233.169 230,257.5C 229.487,258.527 228.987,259.527 228.5,260.5C 166.5,261.833 104.5,261.833 42.5,260.5C 42.2172,259.711 41.7172,259.044 41,258.5C 40.3333,232.5 40.3333,206.5 41,180.5C 41.5,178.667 42.6667,177.5 44.5,177C 54.4944,176.5 64.4944,176.334 74.5,176.5C 115.167,176.5 155.833,176.5 196.5,176.5C 205.167,176.5 213.833,176.5 222.5,176.5C 224.67,168.126 229.337,166.459 236.5,171.5C 238.339,173.527 238.839,175.86 238,178.5C 237.768,177.263 237.268,176.263 236.5,175.5 Z"/></g>
<g><path style="opacity:1" fill="#5d5f66" d="M 227.5,175.5 C 228.897,175.205 230.397,174.871 232,174.5C 232.617,175.449 232.451,176.282 231.5,177C 232.167,177.667 232.833,178.333 233.5,179C 231.5,178.333 229.5,178.333 227.5,179C 228.791,177.708 228.791,176.542 227.5,175.5 Z"/></g>
<g><path style="opacity:1" fill="#747474" d="M 73.5,213.5 C 74.787,214.768 75.787,214.435 76.5,212.5C 77.8333,215.167 77.8333,217.833 76.5,220.5C 75.7189,219.271 75.2189,217.938 75,216.5C 73.9887,217.337 72.8221,217.67 71.5,217.5C 71.719,218.675 71.3857,219.675 70.5,220.5C 69.52,217.914 69.1866,215.247 69.5,212.5C 71.099,212.232 72.4324,212.566 73.5,213.5 Z"/></g>
<g><path style="opacity:1" fill="#e7e7e7" d="M 73.5,213.5 C 73.719,214.675 73.3857,215.675 72.5,216.5C 71.2021,214.948 71.5354,213.948 73.5,213.5 Z"/></g>
<g><path style="opacity:1" fill="#737373" d="M 128.5,214.5 C 129.675,214.281 130.675,214.614 131.5,215.5C 130.699,217.353 130.365,219.019 130.5,220.5C 128.717,218.977 128.051,216.977 128.5,214.5 Z"/></g>
<g><path style="opacity:1" fill="#a1a1a1" d="M 173.5,215.5 C 172.969,216.795 171.636,217.462 169.5,217.5C 169.5,218.5 169.5,219.5 169.5,220.5C 171.179,220.285 172.179,220.952 172.5,222.5C 172.44,223.043 172.107,223.376 171.5,223.5C 169.84,222.828 168.507,221.828 167.5,220.5C 167.5,219.167 167.5,217.833 167.5,216.5C 169.094,216.08 170.594,215.414 172,214.5C 172.765,214.57 173.265,214.903 173.5,215.5 Z"/></g>
<g><path style="opacity:1" fill="#6d6d6d" d="M 195.5,214.5 C 198.524,214.947 198.857,215.78 196.5,217C 197.973,217.71 198.64,218.876 198.5,220.5C 197.022,220.762 195.689,220.429 194.5,219.5C 194.579,217.872 194.912,216.205 195.5,214.5 Z"/></g>
<g><path style="opacity:1" fill="#363636" d="M 200.5,213.5 C 201.216,215.556 201.883,217.723 202.5,220C 202.167,220.167 201.833,220.333 201.5,220.5C 199.989,218.184 199.656,215.851 200.5,213.5 Z"/></g>
<g><path style="opacity:1" fill="#a7a7a7" d="M 105.5,212.5 C 106.748,213.334 107.415,214.667 107.5,216.5C 107.167,217.833 106.833,219.167 106.5,220.5C 105.52,217.914 105.187,215.247 105.5,212.5 Z"/></g>
<g><path style="opacity:1" fill="#585858" d="M 114.5,215.5 C 115.943,216.335 116.943,217.668 117.5,219.5C 118.799,218.91 119.632,217.91 120,216.5C 120.167,217 120.333,217.5 120.5,218C 119.181,219.754 117.515,221.254 115.5,222.5C 114.526,220.257 114.192,217.924 114.5,215.5 Z"/></g>
<g><path style="opacity:1" fill="#939393" d="M 89.5,220.5 C 89.5,219.167 89.5,217.833 89.5,216.5C 91.3733,214.257 93.3733,214.09 95.5,216C 94.8333,216.333 94.1667,216.667 93.5,217C 94.9733,217.71 95.6399,218.876 95.5,220.5C 93.5,220.5 91.5,220.5 89.5,220.5 Z"/></g>
<g><path style="opacity:1" fill="#717171" d="M 143.5,214.5 C 144.496,214.414 145.329,214.748 146,215.5C 146.398,221.344 145.565,221.677 143.5,216.5C 142.719,217.729 142.219,219.062 142,220.5C 141.257,218.126 141.757,216.126 143.5,214.5 Z"/></g>
<g><path style="opacity:1" fill="#666666" d="M 161.5,216.5 C 161.5,217.833 161.5,219.167 161.5,220.5C 160.839,219.282 160.172,217.949 159.5,216.5C 158.167,221.833 156.833,221.833 155.5,216.5C 153.325,221.363 152.325,220.697 152.5,214.5C 154.939,215.053 157.273,215.053 159.5,214.5C 160.522,214.855 161.189,215.522 161.5,216.5 Z"/></g>
<g><path style="opacity:1" fill="#a9a9a9" d="M 166.5,215.5 C 166.5,216.833 166.5,218.167 166.5,219.5C 165.209,219.263 164.209,219.596 163.5,220.5C 162.833,220.5 162.167,220.5 161.5,220.5C 161.5,219.167 161.5,217.833 161.5,216.5C 162.807,215.847 164.14,215.18 165.5,214.5C 166.107,214.624 166.44,214.957 166.5,215.5 Z"/></g>
<g><path style="opacity:1" fill="#535353" d="M 184.5,212.5 C 185.239,212.369 185.906,212.536 186.5,213C 185.304,213.654 185.304,214.154 186.5,214.5C 187.192,213.975 187.692,213.308 188,212.5C 188.667,215.167 188.667,217.833 188,220.5C 187,215.167 186,215.167 185,220.5C 183.77,217.794 183.604,215.127 184.5,212.5 Z"/></g>
<g><path style="opacity:1" fill="#262626" d="M 190.5,215.5 C 191.239,215.369 191.906,215.536 192.5,216C 191.119,222.02 190.453,221.853 190.5,215.5 Z"/></g>
<g><path style="opacity:0.56" fill="#7e7e7e" d="M 268.5,215.5 C 269.821,228.402 269.821,241.402 268.5,254.5C 267.833,254.5 267.167,254.5 266.5,254.5C 268.381,241.64 269.047,228.64 268.5,215.5 Z"/></g>
<g><path style="opacity:1" fill="#8a8a8a" d="M 88.5,215.5 C 88.5,216.833 88.5,218.167 88.5,219.5C 87.5,219.5 86.5,219.5 85.5,219.5C 84.0335,216.742 83.3668,217.075 83.5,220.5C 79.3228,221.158 77.8228,219.492 79,215.5C 82.2631,216.687 85.4298,216.687 88.5,215.5 Z"/></g>
<g><path style="opacity:1" fill="#777777" d="M 97.5,214.5 C 101.068,214.759 102.401,216.759 101.5,220.5C 96.7398,220.799 95.4064,218.799 97.5,214.5 Z"/></g>
<g><path style="opacity:1" fill="#666666" d="M 136.5,214.5 C 137.496,214.414 138.329,214.748 139,215.5C 139.494,217.134 139.66,218.801 139.5,220.5C 133.604,220.152 133.271,218.985 138.5,217C 136.065,216.925 135.398,216.092 136.5,214.5 Z"/></g>
<g><path style="opacity:1" fill="#474747" d="M 173.5,215.5 C 173.5,216.5 173.5,217.5 173.5,218.5C 169.5,218.833 169.5,219.167 173.5,219.5C 173.737,220.791 173.404,221.791 172.5,222.5C 172.179,220.952 171.179,220.285 169.5,220.5C 169.5,219.5 169.5,218.5 169.5,217.5C 171.636,217.462 172.969,216.795 173.5,215.5 Z"/></g>
<g><path style="opacity:1" fill="#696969" d="M 176.5,214.5 C 177.496,214.414 178.329,214.748 179,215.5C 179.494,217.134 179.66,218.801 179.5,220.5C 174.294,220.541 173.294,218.541 176.5,214.5 Z"/></g>
<g><path style="opacity:1" fill="#373737" d="M 88.5,215.5 C 89.1667,215.5 89.5,215.833 89.5,216.5C 89.5,217.833 89.5,219.167 89.5,220.5C 87.901,220.768 86.5676,220.434 85.5,219.5C 86.5,219.5 87.5,219.5 88.5,219.5C 88.5,218.167 88.5,216.833 88.5,215.5 Z"/></g>
<g><path style="opacity:1" fill="#4a4a4a" d="M 125.5,215.5 C 126.451,216.919 126.784,218.585 126.5,220.5C 122.446,220.79 121.946,220.123 125,218.5C 125.483,217.552 125.649,216.552 125.5,215.5 Z"/></g>
<g><path style="opacity:1" fill="#383838" d="M 166.5,215.5 C 167.167,215.5 167.5,215.833 167.5,216.5C 167.5,217.833 167.5,219.167 167.5,220.5C 166.167,220.5 164.833,220.5 163.5,220.5C 164.209,219.596 165.209,219.263 166.5,219.5C 166.5,218.167 166.5,216.833 166.5,215.5 Z"/></g>
<g><path style="opacity:0.232" fill="#505050" d="M 266.5,254.5 C 267.167,254.5 267.833,254.5 268.5,254.5C 267.836,348.598 267.169,442.598 266.5,536.5C 266.5,442.5 266.5,348.5 266.5,254.5 Z"/></g>
<g><path style="opacity:1" fill="#929292" d="M 42.5,260.5 C 104.5,261.833 166.5,261.833 228.5,260.5C 228.489,262.017 227.823,263.184 226.5,264C 165.833,264.667 105.167,264.667 44.5,264C 42.0167,263.433 41.35,262.267 42.5,260.5 Z"/></g>
<g><path style="opacity:1" fill="#555555" d="M 101.5,275.5 C 103.527,275.338 105.527,275.505 107.5,276C 106.151,276.772 105.318,277.939 105,279.5C 104,275.5 103,275.5 102,279.5C 101.51,278.207 101.343,276.873 101.5,275.5 Z"/></g>
<g><path style="opacity:1" fill="#525252" d="M 176.5,275.5 C 177.833,275.5 179.167,275.5 180.5,275.5C 180.669,280.041 180.002,280.374 178.5,276.5C 176.998,280.374 176.331,280.041 176.5,275.5 Z"/></g>
<g><path style="opacity:1" fill="#727272" d="M 87.5,275.5 C 89.8239,275.995 91.9906,275.995 94,275.5C 95.0105,275.892 95.5105,276.559 95.5,277.5C 97.5076,275.238 97.841,275.738 96.5,279C 93.5738,279.218 90.7405,279.718 88,280.5C 87.5065,278.866 87.3398,277.199 87.5,275.5 Z"/></g>
<g><path style="opacity:1" fill="#707070" d="M 114.5,273.5 C 115.268,274.263 115.768,275.263 116,276.5C 117.333,275.167 118.667,275.167 120,276.5C 120.249,275.376 120.749,274.376 121.5,273.5C 122.842,275.005 124.508,275.672 126.5,275.5C 126.5,276.833 126.5,278.167 126.5,279.5C 121.441,279.264 116.441,279.098 111.5,279C 115.5,278 115.5,277 111.5,276C 113.119,275.764 114.119,274.931 114.5,273.5 Z"/></g>
<g><path style="opacity:1" fill="#6f6f6f" d="M 160.5,274.5 C 161.289,274.783 161.956,275.283 162.5,276C 161.167,277 161.167,278 162.5,279C 162.167,279.167 161.833,279.333 161.5,279.5C 160.262,275.689 159.596,275.689 159.5,279.5C 157.5,279.5 155.5,279.5 153.5,279.5C 153.307,275.551 152.807,275.551 152,279.5C 151,275.5 150,275.5 149,279.5C 148.51,278.207 148.343,276.873 148.5,275.5C 150.792,275.244 152.959,275.577 155,276.5C 156.948,275.891 158.782,275.224 160.5,274.5 Z"/></g>
<g><path style="opacity:1" fill="#656565" d="M 181.5,275.5 C 183.821,276.625 186.154,276.792 188.5,276C 185.833,277 185.833,278 188.5,279C 186.167,278.333 183.833,278.333 181.5,279C 182.171,278.014 182.171,276.847 181.5,275.5 Z"/></g>
<g><path style="opacity:1" fill="#747474" d="M 43.5,275.5 C 46.8499,275.335 50.1832,275.502 53.5,276C 51.0087,276.626 51.0087,277.459 53.5,278.5C 50.6313,279.078 47.9647,280.078 45.5,281.5C 43.9137,279.827 43.2471,277.827 43.5,275.5 Z"/></g>
<g><path style="opacity:1" fill="#737373" d="M 202.5,274.5 C 203.708,275.234 205.041,275.567 206.5,275.5C 206.693,279.449 207.193,279.449 208,275.5C 208.49,276.793 208.657,278.127 208.5,279.5C 206.5,279.5 204.5,279.5 202.5,279.5C 202.649,278.448 202.483,277.448 202,276.5C 201.259,277.641 200.425,277.641 199.5,276.5C 198.396,277.631 198.729,278.465 200.5,279C 199.552,279.483 198.552,279.649 197.5,279.5C 197.719,278.325 197.386,277.325 196.5,276.5C 196.002,277.603 195.669,278.603 195.5,279.5C 194.571,278.311 194.238,276.978 194.5,275.5C 197.385,275.806 200.052,275.473 202.5,274.5 Z"/></g>
<g><path style="opacity:1" fill="#6b6b6b" d="M 179.5,286.5 C 182.753,287.247 186.086,287.247 189.5,286.5C 189.313,288.564 188.813,290.564 188,292.5C 186.268,290.805 184.268,289.472 182,288.5C 180.238,288.944 180.405,289.444 182.5,290C 181.552,290.483 180.552,290.649 179.5,290.5C 179.5,289.167 179.5,287.833 179.5,286.5 Z"/></g>
<g><path style="opacity:1" fill="#6a6a6a" d="M 106.5,284.5 C 107.29,285.609 107.79,286.942 108,288.5C 110.496,284.755 111.663,285.422 111.5,290.5C 109.799,290.034 108.299,290.034 107,290.5C 106.505,288.527 106.338,286.527 106.5,284.5 Z"/></g>
<g><path style="opacity:1" fill="#6e6e6e" d="M 158.5,284.5 C 159.749,285.778 161.249,286.778 163,287.5C 163.889,286.112 164.389,286.278 164.5,288C 164.095,288.945 163.428,289.612 162.5,290C 160.527,290.495 158.527,290.662 156.5,290.5C 156.614,288.282 157.28,286.282 158.5,284.5 Z"/></g>
<g><path style="opacity:1" fill="#717171" d="M 46.5,284.5 C 47.4614,286.265 47.7947,288.265 47.5,290.5C 44.5,289.167 41.5,289.167 38.5,290.5C 38.5,289.167 38.5,287.833 38.5,286.5C 39.9305,286.421 41.2638,286.754 42.5,287.5C 44.483,287.185 45.8163,286.185 46.5,284.5 Z"/></g>
<g><path style="opacity:1" fill="#767676" d="M 123.5,285.5 C 124.79,286.058 125.623,287.058 126,288.5C 126.419,287.328 127.085,286.328 128,285.5C 129.667,286.833 131.333,286.833 133,285.5C 133.692,286.025 134.192,286.692 134.5,287.5C 132.988,288.862 131.488,289.196 130,288.5C 129.5,289.667 128.667,290.5 127.5,291C 129.595,291.556 129.762,292.056 128,292.5C 126.112,291.223 124.112,290.223 122,289.5C 121.7,287.934 122.2,286.601 123.5,285.5 Z"/></g>
<g><path style="opacity:1" fill="#5f5f5f" d="M 147.5,286.5 C 148.794,290.223 149.961,290.223 151,286.5C 152.32,286.799 153.82,286.966 155.5,287C 152.833,288 152.833,289 155.5,290C 152.939,289.599 150.272,289.765 147.5,290.5C 147.5,289.167 147.5,287.833 147.5,286.5 Z"/></g>
<g><path style="opacity:1" fill="#777372" d="M 237.5,328.5 C 238.304,321.707 236.638,315.707 232.5,310.5C 231.547,308.39 229.881,307.223 227.5,307C 165.5,306.333 103.5,306.333 41.5,307C 38.6693,309.001 36.0026,311.167 33.5,313.5C 34.5852,309.246 37.2518,306.413 41.5,305C 104.167,304.333 166.833,304.333 229.5,305C 233.667,306.5 236.5,309.333 238,313.5C 238.816,318.684 238.65,323.684 237.5,328.5 Z"/></g>
<g><path style="opacity:1" fill="#8c8686" d="M 232.5,310.5 C 231.078,310.291 229.745,309.791 228.5,309C 166.833,308.333 105.167,308.333 43.5,309C 38.7731,310.059 35.6064,312.892 34,317.5C 33.1693,330.817 32.6693,330.817 32.5,317.5C 32.4326,316.041 32.7659,314.708 33.5,313.5C 36.0026,311.167 38.6693,309.001 41.5,307C 103.5,306.333 165.5,306.333 227.5,307C 229.881,307.223 231.547,308.39 232.5,310.5 Z"/></g>
<g><path style="opacity:1" fill="#9a9494" d="M 232.5,310.5 C 236.638,315.707 238.304,321.707 237.5,328.5C 235.688,331.81 233.021,334.31 229.5,336C 167.167,336.667 104.833,336.667 42.5,336C 39.4605,334.969 36.9605,333.135 35,330.5C 35.5075,334.042 37.3409,336.875 40.5,339C 103.5,339.667 166.5,339.667 229.5,339C 231.907,336.817 234.24,334.65 236.5,332.5C 237.084,337.092 235.084,339.925 230.5,341C 167.5,341.667 104.5,341.667 41.5,341C 31.7099,335.826 28.7099,327.992 32.5,317.5C 32.6693,330.817 33.1693,330.817 34,317.5C 35.6064,312.892 38.7731,310.059 43.5,309C 105.167,308.333 166.833,308.333 228.5,309C 229.745,309.791 231.078,310.291 232.5,310.5 Z"/></g>
<g><path style="opacity:1" fill="#343433" d="M 131.5,316.5 C 132.748,317.334 133.415,318.667 133.5,320.5C 133.167,321.833 132.833,323.167 132.5,324.5C 131.52,321.914 131.187,319.247 131.5,316.5 Z"/></g>
<g><path style="opacity:1" fill="#191919" d="M 145.5,318.5 C 146.473,318.987 147.473,319.487 148.5,320C 147.033,321.098 146.199,322.598 146,324.5C 145.505,322.527 145.338,320.527 145.5,318.5 Z"/></g>
<g><path style="opacity:1" fill="#302f2f" d="M 125.5,318.5 C 129.908,318.062 131.575,320.062 130.5,324.5C 128.396,324.799 126.396,324.466 124.5,323.5C 125.381,322.029 126.714,321.196 128.5,321C 126.881,320.764 125.881,319.931 125.5,318.5 Z"/></g>
<g><path style="opacity:1" fill="#3d3b3b" d="M 139.5,318.5 C 143.068,318.759 144.401,320.759 143.5,324.5C 141.833,324.5 140.167,324.5 138.5,324.5C 138.325,322.379 138.659,320.379 139.5,318.5 Z"/></g>
<g><path style="opacity:1" fill="#262525" d="M 149.5,319.5 C 149.56,318.957 149.893,318.624 150.5,318.5C 151.584,319.665 152.417,320.998 153,322.5C 153.583,320.998 154.416,319.665 155.5,318.5C 155.584,321.718 154.417,324.718 152,327.5C 152.122,324.691 151.288,322.025 149.5,319.5 Z"/></g>
<g><path style="opacity:1" fill="#1f1f1f" d="M 116.5,316.5 C 118.75,316.181 120.75,316.681 122.5,318C 120.874,317.805 119.207,317.805 117.5,318C 115.561,322.559 116.894,324.059 121.5,322.5C 120.975,321.808 120.308,321.308 119.5,321C 120.793,320.51 122.127,320.343 123.5,320.5C 123.5,321.833 123.5,323.167 123.5,324.5C 116.082,326.087 113.748,323.421 116.5,316.5 Z"/></g>
<g><path style="opacity:1" fill="#7e7e7d" d="M 237.5,328.5 C 237.768,330.099 237.434,331.432 236.5,332.5C 234.24,334.65 231.907,336.817 229.5,339C 166.5,339.667 103.5,339.667 40.5,339C 37.3409,336.875 35.5075,334.042 35,330.5C 36.9605,333.135 39.4605,334.969 42.5,336C 104.833,336.667 167.167,336.667 229.5,336C 233.021,334.31 235.688,331.81 237.5,328.5 Z"/></g>
<g><path style="opacity:1" fill="#767472" d="M 237.5,353.5 C 234.868,352.101 232.535,350.268 230.5,348C 167.833,347.333 105.167,347.333 42.5,348C 34.0416,352.26 31.0416,359.093 33.5,368.5C 32.3516,364.019 32.1849,359.352 33,354.5C 34.9268,349.572 38.4268,346.406 43.5,345C 104.833,344.333 166.167,344.333 227.5,345C 232.249,346.254 235.582,349.088 237.5,353.5 Z"/></g>
<g><path style="opacity:1" fill="#9a9393" d="M 237.5,353.5 C 238.615,358.75 238.781,364.083 238,369.5C 237.722,370.416 237.222,371.082 236.5,371.5C 234.157,374.33 231.157,376.163 227.5,377C 166.167,377.667 104.833,377.667 43.5,377C 38.7452,375.739 35.4118,372.905 33.5,368.5C 31.0416,359.093 34.0416,352.26 42.5,348C 105.167,347.333 167.833,347.333 230.5,348C 232.535,350.268 234.868,352.101 237.5,353.5 Z"/></g>
<g><path style="opacity:1" fill="#959595" d="M 14.5,55.5 C 14.1667,211.835 14.5,368.168 15.5,524.5C 18.6091,520.542 21.9424,517.375 25.5,515C 26,514.833 26.5,514.667 27,514.5C 28.1516,516.512 29.3183,516.678 30.5,515C 29.1373,512.871 29.4706,512.371 31.5,513.5C 33.5194,511.202 36.0194,509.536 39,508.5C 39.3333,509.167 39.6667,509.833 40,510.5C 40.6259,508.009 41.4593,508.009 42.5,510.5C 44.3827,507.6 46.8827,506.6 50,507.5C 52.4018,505.491 54.4018,505.491 56,507.5C 56.3678,506.09 57.2011,505.09 58.5,504.5C 59.4255,505.641 60.2588,505.641 61,504.5C 63.0267,505.212 64.0267,506.212 64,507.5C 64.5,507.333 65,507.167 65.5,507C 64.6637,505.757 64.997,504.59 66.5,503.5C 68.4657,504.107 70.6324,504.107 73,503.5C 73.9454,503.905 74.6121,504.572 75,505.5C 75.3333,504.833 75.6667,504.167 76,503.5C 76.4186,504.672 77.0853,505.672 78,506.5C 78.6172,505.551 78.4506,504.718 77.5,504C 78,503.833 78.5,503.667 79,503.5C 80.5547,504.378 82.2214,504.378 84,503.5C 85.3261,503.755 86.3261,504.422 87,505.5C 87.3333,504.833 87.6667,504.167 88,503.5C 89.5431,504.285 91.2098,504.285 93,503.5C 94.9065,505.584 96.5732,505.584 98,503.5C 102.323,503.715 106.656,503.715 111,503.5C 113.151,503.643 114.818,504.643 116,506.5C 118.543,505.124 118.709,503.957 116.5,503C 120.607,501.711 124.94,500.544 129.5,499.5C 135.096,500.341 140.596,500.341 146,499.5C 147.789,501.229 149.956,501.896 152.5,501.5C 152.329,504.797 152.995,505.131 154.5,502.5C 155.5,503.167 156.5,503.833 157.5,504.5C 159.446,502.913 160.946,503.246 162,505.5C 162.739,504.426 163.739,503.759 165,503.5C 168.143,504.446 171.143,504.446 174,503.5C 174.5,503.667 175,503.833 175.5,504C 174.044,504.423 173.544,505.256 174,506.5C 175.364,505.304 176.864,504.304 178.5,503.5C 180.277,504.603 182.111,504.603 184,503.5C 185.326,503.755 186.326,504.422 187,505.5C 187.689,504.643 188.522,503.977 189.5,503.5C 194.055,503.945 198.722,503.945 203.5,503.5C 205.029,503.529 206.196,504.196 207,505.5C 208.824,504.762 210.824,504.428 213,504.5C 214,505.167 215,505.833 216,506.5C 218.868,505.764 221.534,505.764 224,506.5C 227.597,507.131 230.597,508.798 233,511.5C 233.308,510.692 233.808,510.025 234.5,509.5C 238.874,511.881 242.874,514.047 246.5,516C 246.167,516.333 245.833,516.667 245.5,517C 246.825,516.852 247.992,517.018 249,517.5C 249.617,518.449 249.451,519.282 248.5,520C 249.449,520.617 250.282,520.451 251,519.5C 252.758,520.469 253.258,521.636 252.5,523C 253.448,523.483 254.448,523.649 255.5,523.5C 255.198,520.941 255.532,518.607 256.5,516.5C 256.827,525.682 256.493,534.682 255.5,543.5C 255.666,538.821 255.499,534.155 255,529.5C 253.065,527.898 250.899,526.731 248.5,526C 217.833,525.333 187.167,525.333 156.5,526C 156.665,527.117 156.998,528.284 157.5,529.5C 155.201,536.12 151.035,541.12 145,544.5C 132.91,549.005 123.077,545.505 115.5,534C 115.833,533.667 116.167,533.333 116.5,533C 113.644,530.75 112.978,528.417 114.5,526C 83.1667,525.333 51.8333,525.333 20.5,526C 18.7834,527.559 16.7834,528.392 14.5,528.5C 14.7678,530.099 14.4345,531.432 13.5,532.5C 13.167,373.332 13.5004,214.332 14.5,55.5 Z"/></g>
<g><path style="opacity:1" fill="#282828" d="M 7.5,29.5 C 8.86032,35.9084 9.86032,44.2418 10.5,54.5C 10.3333,217.834 10.5,381.167 11,544.5C 13.6113,554.112 19.7779,559.945 29.5,562C 99.8333,562.667 170.167,562.667 240.5,562C 251.831,559.169 258.497,552.003 260.5,540.5C 261.46,478.666 262.293,416.666 263,354.5C 263.5,415.832 263.667,477.166 263.5,538.5C 262.766,555.901 253.766,564.901 236.5,565.5C 166.5,565.5 96.5,565.5 26.5,565.5C 16.5,562.833 10.1667,556.5 7.5,546.5C 6.50927,375.846 6.17593,205.179 6.5,34.5C 6.21552,32.5853 6.54885,30.9187 7.5,29.5 Z"/></g>
<g><path style="opacity:1" fill="#a2a2a2" d="M 255.5,543.5 C 254.512,551.322 250.178,556.155 242.5,558C 170.833,558.667 99.1667,558.667 27.5,558C 16.2555,553.225 11.5888,544.725 13.5,532.5C 14.4345,531.432 14.7678,530.099 14.5,528.5C 16.7834,528.392 18.7834,527.559 20.5,526C 51.8333,525.333 83.1667,525.333 114.5,526C 112.978,528.417 113.644,530.75 116.5,533C 116.167,533.333 115.833,533.667 115.5,534C 123.077,545.505 132.91,549.005 145,544.5C 151.035,541.12 155.201,536.12 157.5,529.5C 156.998,528.284 156.665,527.117 156.5,526C 187.167,525.333 217.833,525.333 248.5,526C 250.899,526.731 253.065,527.898 255,529.5C 255.499,534.155 255.666,538.821 255.5,543.5 Z"/></g>
<g><path style="opacity:1" fill="#3e3e3e" d="M 216.5,538.5 C 220.672,542.849 220.339,547.015 215.5,551C 204.84,552.846 201.34,548.68 205,538.5C 209.034,534.665 212.867,534.665 216.5,538.5 Z"/></g>
<g><path style="opacity:1" fill="#2f4433" d="M 64.5,543.5 C 71.1904,542.331 72.8571,544.497 69.5,550C 63.741,551.139 62.0744,548.972 64.5,543.5 Z"/></g>
<g><path style="opacity:1" fill="#314636" d="M 56.5,534.5 C 58.4672,534.261 60.3005,534.594 62,535.5C 62.8446,538.13 62.3446,540.464 60.5,542.5C 64.1269,548.042 62.7936,550.542 56.5,550C 53.8997,547.541 53.8997,545.041 56.5,542.5C 53.8477,539.799 53.8477,537.132 56.5,534.5 Z"/></g>
<g><path style="opacity:1" fill="#9a9a9a" d="M 216.5,538.5 C 219.187,542.022 219.02,545.355 216,548.5C 212.419,547.663 208.919,547.329 205.5,547.5C 204.028,538.702 207.695,535.702 216.5,538.5 Z"/></g>
<g><path style="opacity:1" fill="#3a3a3a" d="M 209.5,539.5 C 214.587,539.284 215.587,541.118 212.5,545C 208.537,545.118 207.537,543.284 209.5,539.5 Z"/></g>
<g><path style="opacity:1" fill="#304535" d="M 64.5,534.5 C 69.5011,533.671 71.6678,535.671 71,540.5C 64.4088,543.668 62.2422,541.668 64.5,534.5 Z"/></g>
<g><path style="opacity:1" fill="#2d4130" d="M 129.5,508.5 C 147.189,507.347 154.356,515.347 151,532.5C 144.418,541.777 135.918,543.944 125.5,539C 115.166,527.168 116.499,517.001 129.5,508.5 Z"/></g>
<g><path style="opacity:1" fill="#914321" d="M 132.5,516.5 C 136.714,516.25 140.547,517.25 144,519.5C 144.667,523.167 144.667,526.833 144,530.5C 138.593,531.473 133.093,531.807 127.5,531.5C 127.5,527.167 127.5,522.833 127.5,518.5C 129.698,518.88 131.365,518.213 132.5,516.5 Z"/></g>
<g><path style="opacity:1" fill="#3e412c" d="M 133.5,520.5 C 139.643,521.026 140.976,523.86 137.5,529C 132.504,529.664 130.67,527.498 132,522.5C 132.717,521.956 133.217,521.289 133.5,520.5 Z"/></g>
<g><path style="opacity:1" fill="#8c4322" d="M 133.5,522.5 C 137.676,521.831 139.009,523.331 137.5,527C 136.207,527.49 134.873,527.657 133.5,527.5C 133.5,525.833 133.5,524.167 133.5,522.5 Z"/></g>
<g><path style="opacity:1" fill="#919191" d="M 32.5,406.5 C 33.1667,407.833 33.8333,409.167 34.5,410.5C 35.1098,411.391 35.4431,412.391 35.5,413.5C 36.9868,417.592 39.9868,419.758 44.5,420C 105.832,420.5 167.166,420.667 228.5,420.5C 169.668,421.333 110.668,421.833 51.5,422C 38.6434,424.899 32.3101,419.732 32.5,406.5 Z"/></g>
<g><path style="opacity:1" fill="#808080" d="M 236.5,412.5 C 236.649,413.552 236.483,414.552 236,415.5C 233.618,417.389 231.118,419.055 228.5,420.5C 167.166,420.667 105.832,420.5 44.5,420C 39.9868,419.758 36.9868,417.592 35.5,413.5C 37.4649,415.488 39.7982,416.988 42.5,418C 103.833,418.667 165.167,418.667 226.5,418C 230.59,417.457 233.924,415.623 236.5,412.5 Z"/></g>
<g><path style="opacity:1" fill="#934321" d="M 236.5,393.5 C 238.047,395.807 238.713,398.473 238.5,401.5C 238.545,405.319 237.878,408.986 236.5,412.5C 233.924,415.623 230.59,417.457 226.5,418C 165.167,418.667 103.833,418.667 42.5,418C 39.7982,416.988 37.4649,415.488 35.5,413.5C 35.4431,412.391 35.1098,411.391 34.5,410.5C 34.161,405.07 34.661,399.736 36,394.5C 37.9362,391.897 40.4362,390.064 43.5,389C 106.167,388.333 168.833,388.333 231.5,389C 232.651,391.2 234.318,392.7 236.5,393.5 Z"/></g>
<g><path style="opacity:1" fill="#251a15" d="M 152.5,400.5 C 153.79,401.058 154.623,402.058 155,403.5C 155.419,402.328 156.085,401.328 157,400.5C 154.933,410.758 153.433,410.758 152.5,400.5 Z"/></g>
<g><path style="opacity:1" fill="#2f1d16" d="M 126.5,399.5 C 129.5,399.167 130.833,400.5 130.5,403.5C 125.206,403.682 125.206,404.182 130.5,405C 127.911,407.084 125.911,406.584 124.5,403.5C 124.752,401.927 125.418,400.594 126.5,399.5 Z"/></g>
<g><path style="opacity:1" fill="#161413" d="M 132.5,400.5 C 134.167,400.5 135.833,400.5 137.5,400.5C 137.336,406.167 137.003,406.5 136.5,401.5C 135.5,401.5 134.5,401.5 133.5,401.5C 132.997,406.5 132.664,406.167 132.5,400.5 Z"/></g>
<g><path style="opacity:1" fill="#5b2e1b" d="M 147.5,399.5 C 147.5,400.167 147.5,400.833 147.5,401.5C 146.837,403.042 146.17,404.709 145.5,406.5C 144.167,403.5 144.167,400.5 145.5,397.5C 146.182,398.243 146.849,398.909 147.5,399.5 Z"/></g>
<g><path style="opacity:1" fill="#301e16" d="M 121.5,397.5 C 122.765,398.514 123.431,400.014 123.5,402C 123.167,403.5 122.833,405 122.5,406.5C 121.5,405.167 120.5,405.167 119.5,406.5C 116.074,404.74 115.741,402.574 118.5,400C 119.449,399.383 120.282,399.549 121,400.5C 121.483,399.552 121.649,398.552 121.5,397.5 Z"/></g>
<g><path style="opacity:1" fill="#8d4120" d="M 118.5,401.5 C 119.5,401.5 120.5,401.5 121.5,401.5C 121.5,402.5 121.5,403.5 121.5,404.5C 120.5,404.5 119.5,404.5 118.5,404.5C 118.5,403.5 118.5,402.5 118.5,401.5 Z"/></g>
<g><path style="opacity:1" fill="#291b15" d="M 147.5,401.5 C 147.5,400.833 147.5,400.167 147.5,399.5C 148.002,397.915 149.002,397.415 150.5,398C 150.451,400.386 149.785,402.886 148.5,405.5C 147.571,404.311 147.238,402.978 147.5,401.5 Z"/></g>
<g><path style="opacity:1" fill="#2d1d16" d="M 139.5,398.5 C 140.922,398.75 141.922,399.583 142.5,401C 141.167,402.333 141.167,403.667 142.5,405C 141.552,405.483 140.552,405.649 139.5,405.5C 138.933,403.031 138.933,400.698 139.5,398.5 Z"/></g>
<g><path style="opacity:1" fill="#7b3e23" d="M 236.5,393.5 C 234.318,392.7 232.651,391.2 231.5,389C 168.833,388.333 106.167,388.333 43.5,389C 40.4362,390.064 37.9362,391.897 36,394.5C 34.661,399.736 34.161,405.07 34.5,410.5C 33.8333,409.167 33.1667,407.833 32.5,406.5C 30.6544,397.026 33.9877,390.193 42.5,386C 104.167,385.333 165.833,385.333 227.5,386C 231.908,386.916 234.908,389.416 236.5,393.5 Z"/></g>
<g><path style="opacity:1" fill="#7a7b7a" d="M 33.5,368.5 C 35.4118,372.905 38.7452,375.739 43.5,377C 104.833,377.667 166.167,377.667 227.5,377C 231.157,376.163 234.157,374.33 236.5,371.5C 235.452,375.719 232.785,378.553 228.5,380C 165.833,380.667 103.167,380.667 40.5,380C 36.0697,377.471 33.7364,373.638 33.5,368.5 Z"/></g>
<g><path style="opacity:1" fill="#282727" d="M 141.5,359.5 C 143.144,359.286 144.644,359.62 146,360.5C 146.688,361.332 146.521,361.998 145.5,362.5C 144.191,360.109 143.191,360.109 142.5,362.5C 142.833,363.167 143.167,363.833 143.5,364.5C 144.451,363.674 145.451,363.508 146.5,364C 141.251,366.586 139.584,365.086 141.5,359.5 Z"/></g>
<g><path style="opacity:1" fill="#262626" d="M 153.5,359.5 C 157.908,359.062 159.575,361.062 158.5,365.5C 156.5,365.5 154.5,365.5 152.5,365.5C 152.633,362.104 153.633,361.771 155.5,364.5C 156.833,363.167 156.833,361.833 155.5,360.5C 153.114,361.988 152.448,361.655 153.5,359.5 Z"/></g>
<g><path style="opacity:1" fill="#1d1d1d" d="M 122.5,359.5 C 126.908,359.062 128.575,361.062 127.5,365.5C 125.833,365.5 124.167,365.5 122.5,365.5C 122.329,362.203 122.995,361.869 124.5,364.5C 125.833,363.167 125.833,361.833 124.5,360.5C 123.056,361.981 122.389,361.648 122.5,359.5 Z"/></g>
<g><path style="opacity:1" fill="#313030" d="M 147.5,359.5 C 148.978,359.238 150.311,359.571 151.5,360.5C 150.248,362.001 149.248,363.668 148.5,365.5C 147.534,363.604 147.201,361.604 147.5,359.5 Z"/></g>
<g><path style="opacity:1" fill="#262626" d="M 129.5,359.5 C 132.5,359.5 135.5,359.5 138.5,359.5C 138.637,366.626 137.97,366.959 136.5,360.5C 135.167,367.167 133.833,367.167 132.5,360.5C 130.931,361.714 130.098,363.381 130,365.5C 129.505,363.527 129.338,361.527 129.5,359.5 Z"/></g>
<g><path style="opacity:1" fill="#212020" d="M 115.5,356.5 C 117.681,356.284 119.347,357.117 120.5,359C 118.874,358.805 117.207,358.805 115.5,359C 113.91,361.48 114.41,363.313 117,364.5C 117.95,363.978 118.784,363.311 119.5,362.5C 120.711,363.274 120.711,364.107 119.5,365C 113.92,366.261 112.087,364.094 114,358.5C 114.717,357.956 115.217,357.289 115.5,356.5 Z"/></g>
<g><path style="opacity:1" fill="#3b3b3b" d="M 7.5,223.5 C 8.16667,234.833 8.83333,246.167 9.5,257.5C 9.66666,333.501 9.5,409.501 9,485.5C 7.67716,398.172 7.17716,310.839 7.5,223.5 Z"/></g>
<g><path style="opacity:1" fill="#494949" d="M 9.5,257.5 C 8.83333,246.167 8.16667,234.833 7.5,223.5C 7.00842,168.083 7.50842,112.75 9,57.5C 9.5,124.166 9.66666,190.833 9.5,257.5 Z"/></g>
<g><path style="opacity:1" fill="#adadad" d="M 7.5,546.5 C 10.1667,556.5 16.5,562.833 26.5,565.5C 24.312,566.623 21.9787,566.623 19.5,565.5C 13.5,562.833 9.16667,558.5 6.5,552.5C 5.67131,549.531 5.50465,546.531 6,543.5C 6.23209,544.737 6.73209,545.737 7.5,546.5 Z"/></g>
<g><path style="opacity:1" fill="#4a4a4a" d="M 19.5,565.5 C 21.9787,566.623 24.312,566.623 26.5,565.5C 96.5,565.5 166.5,565.5 236.5,565.5C 167.001,566.333 97.3345,566.833 27.5,567C 28.056,567.383 28.3893,567.883 28.5,568.5C 25.0076,568.554 22.0076,567.554 19.5,565.5 Z"/></g>
<g><path style="opacity:1" fill="#9f9f9f" d="M 266.5,536.5 C 266.949,554.905 257.949,565.738 239.5,569C 169.145,569.82 98.8117,569.654 28.5,568.5C 28.3893,567.883 28.056,567.383 27.5,567C 97.3345,566.833 167.001,566.333 236.5,565.5C 253.766,564.901 262.766,555.901 263.5,538.5C 263.833,538.5 264.167,538.5 264.5,538.5C 264.34,540.199 264.506,541.866 265,543.5C 265.186,540.964 265.686,538.631 266.5,536.5 Z"/></g>
</svg>
