<?xml version="1.0" encoding="UTF-8"?>
<!DOCTYPE svg PUBLIC "-//W3C//DTD SVG 1.1//EN" "http://www.w3.org/Graphics/SVG/1.1/DTD/svg11.dtd">
<svg xmlns="http://www.w3.org/2000/svg" version="1.1" width="273px" height="576px" style="shape-rendering:geometricPrecision; text-rendering:geometricPrecision; image-rendering:optimizeQuality; fill-rule:evenodd; clip-rule:evenodd" xmlns:xlink="http://www.w3.org/1999/xlink">
<g><path style="opacity:1" fill="#4d4d4d" d="M 30.5,10.5 C 30.5,10.1667 30.5,9.83333 30.5,9.5C 100.669,9.16747 170.669,9.5008 240.5,10.5C 237.194,11.8233 233.861,12.8233 230.5,13.5C 167.166,13.6667 103.832,13.5 40.5,13C 37.0248,12.5532 33.6915,11.7199 30.5,10.5 Z"/></g>
<g><path style="opacity:1" fill="#737373" d="M 72.5,11.5 C 124.665,10.3349 176.998,10.1683 229.5,11C 204.894,12.1528 180.227,12.6528 155.5,12.5C 127.825,12.4436 100.158,12.1103 72.5,11.5 Z"/></g>
<g><path style="opacity:1" fill="#232323" d="M 30.5,10.5 C 33.6915,11.7199 37.0248,12.5532 40.5,13C 103.832,13.5 167.166,13.6667 230.5,13.5C 233.713,13.19 236.713,13.5233 239.5,14.5C 168.166,14.3333 96.8326,14.5 25.5,15C 18.2684,17.899 13.4351,23.0657 11,30.5C 10.5003,38.1594 10.3336,45.8261 10.5,53.5C 9.86032,43.2418 8.86032,34.9084 7.5,28.5C 11.2244,17.4703 18.891,11.4703 30.5,10.5 Z"/></g>
<g><path style="opacity:1" fill="#080808" d="M 239.5,14.5 C 250.183,16.0106 257.016,22.0106 260,32.5C 260.499,36.8206 260.666,41.1539 260.5,45.5C 260.5,108.5 260.5,171.5 260.5,234.5C 260.5,336.167 260.5,437.833 260.5,539.5C 258.497,551.003 251.831,558.169 240.5,561C 170.167,561.667 99.8333,561.667 29.5,561C 19.7779,558.945 13.6113,553.112 11,543.5C 10.5,380.167 10.3333,216.834 10.5,53.5C 10.3336,45.8261 10.5003,38.1594 11,30.5C 13.4351,23.0657 18.2684,17.899 25.5,15C 96.8326,14.5 168.166,14.3333 239.5,14.5 Z"/></g>
<g><path style="opacity:1" fill="#fefdfd" d="M 26.5,17.5 C 98.8341,17.3333 171.167,17.5 243.5,18C 248.541,20.2554 252.375,23.7554 255,28.5C 256.663,200.111 256.996,371.778 256,543.5C 254.14,550.693 249.64,555.193 242.5,557C 170.833,557.667 99.1667,557.667 27.5,557C 20.5993,554.432 16.0993,549.598 14,542.5C 13.3333,371.833 13.3333,201.167 14,30.5C 17.0248,24.9769 21.1915,20.6436 26.5,17.5 Z"/></g>
<g><path style="opacity:1" fill="#bdbdbd" d="M 38.5,7.5 C 108.545,7.01308 178.545,7.51308 248.5,9C 261.687,15.1867 267.854,25.6867 267,40.5C 267.178,62.2394 267.678,83.9061 268.5,105.5C 268.652,133.685 267.986,161.851 266.5,190C 266.5,198.007 266.834,205.841 267.5,213.5C 268.167,213.5 268.5,213.833 268.5,214.5C 266.669,321.486 266.002,428.486 266.5,535.5C 265.686,537.631 265.186,539.964 265,542.5C 264.506,540.866 264.34,539.199 264.5,537.5C 264.667,368.833 264.5,200.166 264,31.5C 260.716,19.3816 252.883,12.3816 240.5,10.5C 170.669,9.5008 100.669,9.16747 30.5,9.5C 33.1667,8.83333 35.8333,8.16667 38.5,7.5 Z"/></g>
<g><path style="opacity:0.998" fill="#bbbbbb" d="M 38.5,7.5 C 35.8333,8.16667 33.1667,8.83333 30.5,9.5C 30.5,9.83333 30.5,10.1667 30.5,10.5C 18.891,11.4703 11.2244,17.4703 7.5,28.5C 6.54885,29.9187 6.21552,31.5853 6.5,33.5C 6.16633,202.669 5.16633,371.669 3.5,540.5C 3.5,538.167 3.5,535.833 3.5,533.5C 3.5,370.833 3.5,208.167 3.5,45.5C 0.663886,28.7819 6.66389,16.6153 21.5,9C 27.0716,7.64931 32.7383,7.14931 38.5,7.5 Z"/></g>
<g><path style="opacity:0.71" fill="#000000" d="M 3.5,45.5 C 3.5,208.167 3.5,370.833 3.5,533.5C 2.43702,509.817 1.10369,486.151 -0.5,462.5C -0.5,343.5 -0.5,224.5 -0.5,105.5C 0.833333,85.5 2.16667,65.5 3.5,45.5 Z"/></g>
<g><path style="opacity:1" fill="#717171" d="M 6.5,33.5 C 6.17593,204.179 6.50927,374.846 7.5,545.5C 6.73209,544.737 6.23209,543.737 6,542.5C 5.50465,545.531 5.67131,548.531 6.5,551.5C 4.12571,548.314 3.12571,544.647 3.5,540.5C 5.16633,371.669 6.16633,202.669 6.5,33.5 Z"/></g>
<g><path style="opacity:1" fill="#4f4f4f" d="M 260.5,45.5 C 261.314,47.631 261.814,49.9644 262,52.5C 262.665,113.339 262.165,174.006 260.5,234.5C 260.5,171.5 260.5,108.5 260.5,45.5 Z"/></g>
<g><path style="opacity:0.552" fill="#717171" d="M 268.5,105.5 C 269.167,116.328 269.5,127.328 269.5,138.5C 268.056,163.352 267.39,188.352 267.5,213.5C 266.834,205.841 266.5,198.007 266.5,190C 267.986,161.851 268.652,133.685 268.5,105.5 Z"/></g>
<g><path style="opacity:1" fill="#444444" d="M 240.5,10.5 C 252.883,12.3816 260.716,19.3816 264,31.5C 264.5,200.166 264.667,368.833 264.5,537.5C 264.167,537.5 263.833,537.5 263.5,537.5C 263.667,476.166 263.5,414.832 263,353.5C 262.293,415.666 261.46,477.666 260.5,539.5C 260.5,437.833 260.5,336.167 260.5,234.5C 262.165,174.006 262.665,113.339 262,52.5C 261.814,49.9644 261.314,47.631 260.5,45.5C 260.666,41.1539 260.499,36.8206 260,32.5C 257.016,22.0106 250.183,16.0106 239.5,14.5C 236.713,13.5233 233.713,13.19 230.5,13.5C 233.861,12.8233 237.194,11.8233 240.5,10.5 Z"/></g>
<g><path style="opacity:1" fill="#42634b" d="M 155.5,144.5 C 156.653,150.932 154.986,156.432 150.5,161C 148.913,161.862 147.246,162.529 145.5,163C 137.167,163.667 128.833,163.667 120.5,163C 119.514,153.25 119.181,143.416 119.5,133.5C 123.167,132.833 126.833,132.167 130.5,131.5C 134.418,137.243 139.251,137.909 145,133.5C 149.818,122.655 146.318,117.489 134.5,118C 130.345,119.811 128.345,122.977 128.5,127.5C 125.762,127.851 123.096,128.518 120.5,129.5C 119.506,124.544 119.173,119.544 119.5,114.5C 127.421,113.367 135.421,113.2 143.5,114C 153.034,116.543 155.867,122.376 152,131.5C 151.028,133.305 149.861,134.972 148.5,136.5C 151.566,138.563 153.899,141.23 155.5,144.5 Z"/></g>
<g><path style="opacity:1" fill="#829286" d="M 130.5,131.5 C 130.011,130.005 129.345,128.671 128.5,127.5C 128.345,122.977 130.345,119.811 134.5,118C 146.318,117.489 149.818,122.655 145,133.5C 139.251,137.909 134.418,137.243 130.5,131.5 Z"/></g>
<g><path style="opacity:1" fill="#cecfce" d="M 143.5,131.5 C 143.5,129.167 143.5,126.833 143.5,124.5C 140.662,123.054 137.662,122.554 134.5,123C 132.549,124.734 131.549,126.901 131.5,129.5C 129.69,125.623 130.69,122.457 134.5,120C 142.17,118.673 145.67,121.839 145,129.5C 144.722,130.416 144.222,131.082 143.5,131.5 Z"/></g>
<g><path style="opacity:1" fill="#f6f6f6" d="M 143.5,131.5 C 140.68,134.761 137.346,135.261 133.5,133C 132.177,132.184 131.511,131.017 131.5,129.5C 131.549,126.901 132.549,124.734 134.5,123C 137.662,122.554 140.662,123.054 143.5,124.5C 143.5,126.833 143.5,129.167 143.5,131.5 Z"/></g>
<g><path style="opacity:1" fill="#afb7b1" d="M 134.5,138.5 C 136.848,140.074 139.182,140.741 141.5,140.5C 140.307,142.384 138.641,142.884 136.5,142C 135.027,141.29 134.36,140.124 134.5,138.5 Z"/></g>
<g><path style="opacity:1" fill="#ebeceb" d="M 131.5,143.5 C 136.099,143.2 140.599,143.533 145,144.5C 146.766,153.566 143.266,157.399 134.5,156C 130.769,152.425 129.769,148.258 131.5,143.5 Z"/></g>
<g><path style="opacity:1" fill="#c4c6c4" d="M 119.5,114.5 C 119.173,119.544 119.506,124.544 120.5,129.5C 123.096,128.518 125.762,127.851 128.5,127.5C 129.345,128.671 130.011,130.005 130.5,131.5C 126.833,132.167 123.167,132.833 119.5,133.5C 119.181,143.416 119.514,153.25 120.5,163C 128.833,163.667 137.167,163.667 145.5,163C 147.246,162.529 148.913,161.862 150.5,161C 154.986,156.432 156.653,150.932 155.5,144.5C 156.645,148.311 156.812,152.311 156,156.5C 154.482,162.357 150.648,165.524 144.5,166C 136.147,166.832 127.813,166.665 119.5,165.5C 118.324,149.209 117.824,132.876 118,116.5C 118.278,115.584 118.778,114.918 119.5,114.5 Z"/></g>
<g><path style="opacity:1" fill="#171717" d="M 116.5,181.5 C 116.5,184.833 116.5,188.167 116.5,191.5C 118.415,191.216 120.081,191.549 121.5,192.5C 119.167,192.5 116.833,192.5 114.5,192.5C 113.92,188.351 114.586,184.684 116.5,181.5 Z"/></g>
<g><path style="opacity:1" fill="#b1b1b1" d="M 116.5,181.5 C 117.477,184.287 117.81,187.287 117.5,190.5C 119.167,190.5 120.833,190.5 122.5,190.5C 122.263,189.209 122.596,188.209 123.5,187.5C 123.5,188.833 123.5,190.167 123.5,191.5C 122.833,191.833 122.167,192.167 121.5,192.5C 120.081,191.549 118.415,191.216 116.5,191.5C 116.5,188.167 116.5,184.833 116.5,181.5 Z"/></g>
<g><path style="opacity:1" fill="#2a2a2a" d="M 141.5,181.5 C 144.797,181.329 145.131,181.995 142.5,183.5C 141.702,183.043 141.369,182.376 141.5,181.5 Z"/></g>
<g><path style="opacity:1" fill="#212121" d="M 134.5,184.5 C 141.03,183.785 142.03,185.619 137.5,190C 136.5,190.333 135.5,190.667 134.5,191C 138.638,190.782 139.972,192.448 138.5,196C 136.559,196.743 134.726,196.576 133,195.5C 133.004,192.58 132.837,189.747 132.5,187C 133.056,185.989 133.722,185.156 134.5,184.5 Z"/></g>
<g><path style="opacity:1" fill="#434343" d="M 141.5,184.5 C 142.5,184.5 143.5,184.5 144.5,184.5C 144.5,187.167 144.5,189.833 144.5,192.5C 143.5,192.5 142.5,192.5 141.5,192.5C 141.5,189.833 141.5,187.167 141.5,184.5 Z"/></g>
<g><path style="opacity:1" fill="#171717" d="M 146.5,184.5 C 148.398,185.089 150.398,185.256 152.5,185C 153.602,187.401 153.769,189.901 153,192.5C 152.667,190.833 152.333,189.167 152,187.5C 150.989,186.663 149.822,186.33 148.5,186.5C 148.799,188.604 148.466,190.604 147.5,192.5C 146.52,189.914 146.187,187.247 146.5,184.5 Z"/></g>
<g><path style="opacity:1" fill="#252525" d="M 123.5,191.5 C 123.5,190.167 123.5,188.833 123.5,187.5C 124.625,184.872 126.625,184.039 129.5,185C 132.167,187.333 132.167,189.667 129.5,192C 127.402,192.678 125.402,192.511 123.5,191.5 Z"/></g>
<g><path style="opacity:1" fill="#fafafa" d="M 125.5,186.5 C 126.5,186.5 127.5,186.5 128.5,186.5C 128.5,187.833 128.5,189.167 128.5,190.5C 127.5,190.5 126.5,190.5 125.5,190.5C 125.5,189.167 125.5,187.833 125.5,186.5 Z"/></g>
<g><path style="opacity:1" fill="#e7e7e7" d="M 134.5,186.5 C 135.675,186.281 136.675,186.614 137.5,187.5C 135.948,188.798 134.948,188.465 134.5,186.5 Z"/></g>
<g><path style="opacity:1" fill="#ececec" d="M 134.5,192.5 C 135.675,192.281 136.675,192.614 137.5,193.5C 135.948,194.798 134.948,194.465 134.5,192.5 Z"/></g>
<g><path style="opacity:1" fill="#aaaaaa" d="M 101.5,197.5 C 123.843,197.167 146.177,197.5 168.5,198.5C 157.333,198.833 146.167,199.167 135,199.5C 123.479,199.499 112.313,198.832 101.5,197.5 Z"/></g>
<g><path style="opacity:0.578" fill="#696969" d="M 268.5,214.5 C 269.166,220.658 269.5,226.991 269.5,233.5C 269.65,240.33 269.15,246.996 268,253.5C 267.833,347.668 267.333,441.668 266.5,535.5C 266.002,428.486 266.669,321.486 268.5,214.5 Z"/></g>
<g><path style="opacity:1" fill="#131313" d="M 37.5,234.5 C 36.8333,235.5 36.1667,236.5 35.5,237.5C 35.5,235.167 35.5,232.833 35.5,230.5C 41.3239,230.347 41.6572,231.013 36.5,232.5C 37.7287,233.281 39.062,233.781 40.5,234C 39.552,234.483 38.552,234.649 37.5,234.5 Z"/></g>
<g><path style="opacity:1" fill="#3c3c3c" d="M 41.5,232.5 C 44.1873,232.336 46.854,232.503 49.5,233C 50.5536,234.388 50.7203,235.888 50,237.5C 48.6667,232.167 47.3333,232.167 46,237.5C 45.0514,233.622 43.8847,233.622 42.5,237.5C 41.5481,235.955 41.2148,234.288 41.5,232.5 Z"/></g>
<g><path style="opacity:1" fill="#181818" d="M 56.5,233.5 C 56.762,234.978 56.4287,236.311 55.5,237.5C 54.7087,236.934 54.7087,236.101 55.5,235C 54.9689,233.282 54.3023,233.115 53.5,234.5C 52.2486,233.528 52.582,232.861 54.5,232.5C 55.4164,232.543 56.0831,232.876 56.5,233.5 Z"/></g>
<g><path style="opacity:1" fill="#7a7a7a" d="M 53.5,234.5 C 54.3023,233.115 54.9689,233.282 55.5,235C 54.7087,236.101 54.7087,236.934 55.5,237.5C 56.4287,236.311 56.762,234.978 56.5,233.5C 57.404,232.791 57.7373,231.791 57.5,230.5C 59.1667,230.5 60.8333,230.5 62.5,230.5C 62.2276,238.886 61.3942,239.22 60,231.5C 59.5034,233.81 59.3367,236.143 59.5,238.5C 57.1432,238.663 54.8098,238.497 52.5,238C 52.0426,237.586 51.7093,237.086 51.5,236.5C 52.2427,235.818 52.9094,235.151 53.5,234.5 Z"/></g>
<g><path style="opacity:1" fill="#7a7a7a" d="M 37.5,234.5 C 38.0065,235.859 39.0065,236.859 40.5,237.5C 38.7015,238.788 37.0348,238.788 35.5,237.5C 36.1667,236.5 36.8333,235.5 37.5,234.5 Z"/></g>
<g><path style="opacity:1" fill="#9b9b9b" d="M 231.5,245.5 C 168.528,244.344 105.528,244.178 42.5,245C 41.255,245.791 39.9217,246.291 38.5,246.5C 39.0577,245.21 40.0577,244.377 41.5,244C 104.167,243.333 166.833,243.333 229.5,244C 230.416,244.278 231.082,244.778 231.5,245.5 Z"/></g>
<g><path style="opacity:1" fill="#e9e9e9" d="M 231.5,245.5 C 236.636,251.216 238.97,257.882 238.5,265.5C 237.32,268.54 235.653,271.206 233.5,273.5C 232.279,272.535 230.946,272.702 229.5,274C 166.834,274.5 104.168,274.667 41.5,274.5C 40.5084,274.672 39.8417,274.338 39.5,273.5C 33.6609,267.227 31.9942,259.894 34.5,251.5C 35.1355,249.205 36.4689,247.539 38.5,246.5C 39.9217,246.291 41.255,245.791 42.5,245C 105.528,244.178 168.528,244.344 231.5,245.5 Z"/></g>
<g><path style="opacity:1" fill="#909090" d="M 34.5,251.5 C 31.9942,259.894 33.6609,267.227 39.5,273.5C 35.7427,272.233 33.5761,269.566 33,265.5C 32.3333,261.5 32.3333,257.5 33,253.5C 33.2784,252.584 33.7784,251.918 34.5,251.5 Z"/></g>
<g><path style="opacity:1" fill="#8b8b8b" d="M 231.5,245.5 C 234.822,246.658 236.988,248.992 238,252.5C 238.499,256.821 238.666,261.154 238.5,265.5C 238.97,257.882 236.636,251.216 231.5,245.5 Z"/></g>
<g><path style="opacity:1" fill="#b8b8b8" d="M 233.5,273.5 C 231.641,274.594 229.641,275.427 227.5,276C 166.167,276.667 104.833,276.667 43.5,276C 42.5842,275.722 41.9175,275.222 41.5,274.5C 104.168,274.667 166.834,274.5 229.5,274C 230.946,272.702 232.279,272.535 233.5,273.5 Z"/></g>
<g><path style="opacity:1" fill="#212121" d="M 42.5,285.5 C 42.5,286.167 42.5,286.833 42.5,287.5C 41.4324,288.434 40.099,288.768 38.5,288.5C 38.6495,289.552 38.4828,290.552 38,291.5C 37.5026,288.854 37.3359,286.187 37.5,283.5C 39.698,283.12 41.3646,283.787 42.5,285.5 Z"/></g>
<g><path style="opacity:1" fill="#3b3b3b" d="M 81.5,287.5 C 82.4663,285.943 83.7996,284.61 85.5,283.5C 86.48,286.086 86.8134,288.753 86.5,291.5C 84.8008,291.66 83.1341,291.494 81.5,291C 80.2089,289.708 80.2089,288.542 81.5,287.5 Z"/></g>
<g><path style="opacity:1" fill="#eeeeee" d="M 39.5,285.5 C 41.337,285.639 41.6704,286.306 40.5,287.5C 39.7025,287.043 39.3691,286.376 39.5,285.5 Z"/></g>
<g><path style="opacity:1" fill="#5d5d5d" d="M 50.5,285.5 C 52.1033,285.312 53.4366,285.812 54.5,287C 52.0087,287.626 52.0087,288.459 54.5,289.5C 53.0813,291.915 51.4146,292.081 49.5,290C 51.9913,289.374 51.9913,288.541 49.5,287.5C 49.8627,286.817 50.1961,286.15 50.5,285.5 Z"/></g>
<g><path style="opacity:1" fill="#050505" d="M 76.5,286.5 C 77.552,286.351 78.552,286.517 79.5,287C 78.0325,288.098 77.1992,289.598 77,291.5C 76.5065,289.866 76.3398,288.199 76.5,286.5 Z"/></g>
<g><path style="opacity:1" fill="#8c8c8c" d="M 42.5,285.5 C 44.2739,286.017 45.9405,286.35 47.5,286.5C 46.7886,288.201 45.4553,289.201 43.5,289.5C 43.6716,288.508 43.3382,287.842 42.5,287.5C 42.5,286.833 42.5,286.167 42.5,285.5 Z"/></g>
<g><path style="opacity:1" fill="#dddddd" d="M 81.5,287.5 C 82.5,287.5 83.5,287.5 84.5,287.5C 83.7542,291.31 82.7542,291.31 81.5,287.5 Z"/></g>
<g><path style="opacity:1" fill="#6a6a6a" d="M 62.5,289.5 C 62.5,290.167 62.5,290.833 62.5,291.5C 61.5655,290.432 61.2322,289.099 61.5,287.5C 58.001,287.259 57.6677,288.092 60.5,290C 58.9732,291.632 57.3066,291.799 55.5,290.5C 56.8333,289.5 56.8333,288.5 55.5,287.5C 55.8869,286.28 56.7202,285.613 58,285.5C 59.2349,286.615 60.4016,286.615 61.5,285.5C 62.4287,286.689 62.762,288.022 62.5,289.5 Z"/></g>
<g><path style="opacity:1" fill="#323232" d="M 47.5,286.5 C 48.4511,287.919 48.7845,289.585 48.5,291.5C 46.302,291.88 44.6354,291.213 43.5,289.5C 45.4553,289.201 46.7886,288.201 47.5,286.5 Z"/></g>
<g><path style="opacity:1" fill="#2f2f2f" d="M 62.5,291.5 C 62.5,290.833 62.5,290.167 62.5,289.5C 63.4066,286.196 64.9066,285.862 67,288.5C 67.763,285.937 68.263,285.937 68.5,288.5C 67.3043,292.35 66.1376,292.35 65,288.5C 64.6232,289.942 63.7899,290.942 62.5,291.5 Z"/></g>
<g><path style="opacity:1" fill="#2c2c2c" d="M 73.5,290.5 C 71.6227,291.928 70.2894,291.428 69.5,289C 71.1726,284.785 72.8392,284.618 74.5,288.5C 74.4573,289.416 74.1239,290.083 73.5,290.5 Z"/></g>
<g><path style="opacity:1" fill="#e3e3e3" d="M 73.5,290.5 C 71.5354,290.052 71.2021,289.052 72.5,287.5C 73.3857,288.325 73.719,289.325 73.5,290.5 Z"/></g>
<g><path style="opacity:1" fill="#787878" d="M 231.5,299.5 C 168.528,298.344 105.528,298.178 42.5,299C 40.9221,300.094 39.2554,300.928 37.5,301.5C 38.343,299.827 39.6763,298.66 41.5,298C 104.167,297.333 166.833,297.333 229.5,298C 230.416,298.278 231.082,298.778 231.5,299.5 Z"/></g>
<g><path style="opacity:1" fill="#e9e9e9" d="M 231.5,299.5 C 233.833,299.833 235.167,301.167 235.5,303.5C 237.765,309.692 238.098,316.025 236.5,322.5C 236.727,324.933 235.727,326.599 233.5,327.5C 232.279,326.535 230.946,326.702 229.5,328C 166.833,328.667 104.167,328.667 41.5,328C 39.0043,326.334 36.671,324.5 34.5,322.5C 33.1667,316.833 33.1667,311.167 34.5,305.5C 34.7376,303.596 35.7376,302.262 37.5,301.5C 39.2554,300.928 40.9221,300.094 42.5,299C 105.528,298.178 168.528,298.344 231.5,299.5 Z"/></g>
<g><path style="opacity:1" fill="#909090" d="M 34.5,305.5 C 33.1667,311.167 33.1667,316.833 34.5,322.5C 33.0092,319.814 32.3425,316.814 32.5,313.5C 32.2865,310.473 32.9532,307.807 34.5,305.5 Z"/></g>
<g><path style="opacity:1" fill="#888888" d="M 235.5,303.5 C 236.79,304.058 237.623,305.058 238,306.5C 238.667,311.167 238.667,315.833 238,320.5C 237.722,321.416 237.222,322.082 236.5,322.5C 238.098,316.025 237.765,309.692 235.5,303.5 Z"/></g>
<g><path style="opacity:1" fill="#b7b7b7" d="M 34.5,322.5 C 36.671,324.5 39.0043,326.334 41.5,328C 104.167,328.667 166.833,328.667 229.5,328C 230.946,326.702 232.279,326.535 233.5,327.5C 231.641,328.594 229.641,329.427 227.5,330C 166.167,330.667 104.833,330.667 43.5,330C 39.0916,329.084 36.0916,326.584 34.5,322.5 Z"/></g>
<g><path style="opacity:1" fill="#2a2a2a" d="M 7.5,28.5 C 8.86032,34.9084 9.86032,43.2418 10.5,53.5C 10.3333,216.834 10.5,380.167 11,543.5C 13.6113,553.112 19.7779,558.945 29.5,561C 99.8333,561.667 170.167,561.667 240.5,561C 251.831,558.169 258.497,551.003 260.5,539.5C 261.46,477.666 262.293,415.666 263,353.5C 263.5,414.832 263.667,476.166 263.5,537.5C 263.373,552.458 256.04,561.624 241.5,565C 170.167,565.667 98.8333,565.667 27.5,565C 17.0179,562.351 10.3513,555.851 7.5,545.5C 6.50927,374.846 6.17593,204.179 6.5,33.5C 6.21552,31.5853 6.54885,29.9187 7.5,28.5 Z"/></g>
<g><path style="opacity:1" fill="#b0beb4" d="M 189.5,409.5 C 191.527,409.338 193.527,409.505 195.5,410C 194.663,411.011 194.33,412.178 194.5,413.5C 189.707,415.625 188.041,414.292 189.5,409.5 Z"/></g>
<g><path style="opacity:1" fill="#abbbaf" d="M 182.5,409.5 C 183.931,409.881 184.764,410.881 185,412.5C 186.494,408.696 187.328,409.029 187.5,413.5C 182.284,415.267 180.617,413.934 182.5,409.5 Z"/></g>
<g><path style="opacity:1" fill="#797979" d="M 142.5,410.5 C 143.741,412.931 144.908,412.931 146,410.5C 146.925,413.134 146.091,414.301 143.5,414C 142.663,412.989 142.33,411.822 142.5,410.5 Z"/></g>
<g><path style="opacity:1" fill="#8a8a8a" d="M 133.5,409.5 C 136.797,409.329 137.131,409.995 134.5,411.5C 136.007,412.739 137.174,412.405 138,410.5C 138.772,411.849 139.939,412.682 141.5,413C 139.644,413.93 137.644,414.43 135.5,414.5C 133.783,413.332 133.116,411.665 133.5,409.5 Z"/></g>
<g><path style="opacity:1" fill="#757575" d="M 131.5,410.5 C 132.71,412.176 132.21,413.51 130,414.5C 129.5,414 129,413.5 128.5,413C 129.571,412.148 130.571,411.315 131.5,410.5 Z"/></g>
<g><path style="opacity:1" fill="#999999" d="M 76.5,407.5 C 79.0486,408.509 81.7152,409.342 84.5,410C 85.781,414.389 84.6144,415.222 81,412.5C 80.2825,413.451 79.4491,413.617 78.5,413C 79.731,411.817 79.731,410.651 78.5,409.5C 77.8333,410.833 77.1667,412.167 76.5,413.5C 75.3058,411.484 75.3058,409.484 76.5,407.5 Z"/></g>
<g><path style="opacity:1" fill="#a8b8ad" d="M 179.5,407.5 C 180.622,409.288 180.789,411.288 180,413.5C 179.667,412.5 179.333,411.5 179,410.5C 176.997,418.378 175.831,418.044 175.5,409.5C 177.483,409.843 178.817,409.176 179.5,407.5 Z"/></g>
<g><path style="opacity:1" fill="#888888" d="M 97.5,408.5 C 99.258,408.877 100.925,409.544 102.5,410.5C 104.101,409.835 105.601,409.501 107,409.5C 108.309,411.891 109.309,411.891 110,409.5C 111.299,409.966 112.799,409.966 114.5,409.5C 114.962,414.244 113.462,415.244 110,412.5C 108.605,413.815 107.605,413.481 107,411.5C 105.483,414.551 103.316,415.217 100.5,413.5C 100.404,409.689 99.7376,409.689 98.5,413.5C 97.5481,411.955 97.2148,410.288 97.5,408.5 Z"/></g>
<g><path style="opacity:1" fill="#474747" d="M 86.5,409.5 C 87.552,409.351 88.552,409.517 89.5,410C 88.1509,410.772 87.3176,411.939 87,413.5C 86.51,412.207 86.3433,410.873 86.5,409.5 Z"/></g>
<g><path style="opacity:1" fill="#9f9f9f" d="M 117.5,409.5 C 120.187,409.336 122.854,409.503 125.5,410C 126.731,411.183 126.731,412.349 125.5,413.5C 124.262,409.689 123.596,409.689 123.5,413.5C 121.459,413.146 119.626,413.146 118,413.5C 117.51,412.207 117.343,410.873 117.5,409.5 Z"/></g>
<g><path style="opacity:1" fill="#616161" d="M 92.5,410.5 C 93.2506,409.427 94.2506,409.26 95.5,410C 94.8095,411.067 94.3095,412.234 94,413.5C 93.7679,412.263 93.2679,411.263 92.5,410.5 Z"/></g>
<g><path style="opacity:1" fill="#91a596" d="M 166.5,408.5 C 168.447,409.661 169.28,411.328 169,413.5C 168.333,410.833 167.667,410.833 167,413.5C 166.506,411.866 166.34,410.199 166.5,408.5 Z"/></g>
<g><path style="opacity:1" fill="#8c8c8c" d="M 160.5,407.5 C 161.995,407.415 162.995,408.081 163.5,409.5C 162.194,410.912 161.36,412.579 161,414.5C 160,409.167 159,409.167 158,414.5C 156.989,413.663 155.822,413.33 154.5,413.5C 154.649,412.448 154.483,411.448 154,410.5C 150.602,414.649 149.435,414.316 150.5,409.5C 152.467,409.261 154.301,409.594 156,410.5C 157.878,409.947 159.378,408.947 160.5,407.5 Z"/></g>
<g><path style="opacity:1" fill="#e7e6e6" d="M 238.5,375.5 C 241.597,385.78 238.597,393.614 229.5,399C 167.5,399.667 105.5,399.667 43.5,399C 42.944,398.617 42.6107,398.117 42.5,397.5C 105.168,397.667 167.834,397.5 230.5,397C 232.043,395.122 233.876,393.622 236,392.5C 236.483,391.552 236.649,390.552 236.5,389.5C 238.113,384.993 238.779,380.327 238.5,375.5 Z"/></g>
<g><path style="opacity:1" fill="#c8c5c3" d="M 32.5,384.5 C 32.8333,384.5 33.1667,384.5 33.5,384.5C 34.4734,389.647 37.4734,393.147 42.5,395C 104.167,395.667 165.833,395.667 227.5,395C 231.129,394.206 234.129,392.372 236.5,389.5C 236.649,390.552 236.483,391.552 236,392.5C 233.876,393.622 232.043,395.122 230.5,397C 167.834,397.5 105.168,397.667 42.5,397.5C 35.7365,395.743 32.4032,391.41 32.5,384.5 Z"/></g>
<g><path style="opacity:1" fill="#e56832" d="M 237.5,372.5 C 238.404,373.209 238.737,374.209 238.5,375.5C 238.779,380.327 238.113,384.993 236.5,389.5C 234.129,392.372 231.129,394.206 227.5,395C 165.833,395.667 104.167,395.667 42.5,395C 37.4734,393.147 34.4734,389.647 33.5,384.5C 33.2633,380.727 33.7633,377.06 35,373.5C 37.3504,371.317 39.517,368.984 41.5,366.5C 103.497,365.333 165.497,365.167 227.5,366C 231.377,367.432 234.711,369.598 237.5,372.5 Z"/></g>
<g><path style="opacity:1" fill="#221208" d="M 137.5,377.5 C 140.833,377.5 144.167,377.5 147.5,377.5C 147.662,379.527 147.495,381.527 147,383.5C 145.73,376.915 144.23,376.915 142.5,383.5C 141.167,376.833 139.833,376.833 138.5,383.5C 137.534,381.604 137.201,379.604 137.5,377.5 Z"/></g>
<g><path style="opacity:1" fill="#2d150a" d="M 122.5,377.5 C 124.029,384.013 125.696,384.013 127.5,377.5C 128.466,379.396 128.799,381.396 128.5,383.5C 123.5,384.5 121.5,382.5 122.5,377.5 Z"/></g>
<g><path style="opacity:1" fill="#29150b" d="M 153.5,375.5 C 154.309,376.469 155.309,377.302 156.5,378C 153.833,379.667 153.833,381.333 156.5,383C 153.77,383.942 152.437,382.942 152.5,380C 152.773,378.467 153.106,376.967 153.5,375.5 Z"/></g>
<g><path style="opacity:1" fill="#201007" d="M 116.5,374.5 C 118.346,374.222 119.68,374.889 120.5,376.5C 115.72,376.084 115.554,377.084 120,379.5C 120.49,380.793 120.657,382.127 120.5,383.5C 118.335,383.884 116.668,383.217 115.5,381.5C 116.664,381.835 117.997,381.835 119.5,381.5C 118.653,380.155 117.487,379.155 116,378.5C 115.421,377.072 115.588,375.738 116.5,374.5 Z"/></g>
<g><path style="opacity:1" fill="#31190e" d="M 129.5,374.5 C 131.048,374.821 131.715,375.821 131.5,377.5C 135.677,376.842 137.177,378.508 136,382.5C 133.959,383.423 131.792,383.756 129.5,383.5C 129.5,380.5 129.5,377.5 129.5,374.5 Z"/></g>
<g><path style="opacity:1" fill="#cc5d2d" d="M 132.5,378.5 C 133.586,378.62 134.253,379.287 134.5,380.5C 133.696,382.957 132.696,382.957 131.5,380.5C 131.863,379.817 132.196,379.15 132.5,378.5 Z"/></g>
<g><path style="opacity:1" fill="#ba572b" d="M 237.5,372.5 C 234.711,369.598 231.377,367.432 227.5,366C 165.497,365.167 103.497,365.333 41.5,366.5C 39.517,368.984 37.3504,371.317 35,373.5C 33.7633,377.06 33.2633,380.727 33.5,384.5C 33.1667,384.5 32.8333,384.5 32.5,384.5C 30.6058,375.302 33.6058,368.469 41.5,364C 104.167,363.333 166.833,363.333 229.5,364C 233.748,365.413 236.415,368.246 237.5,372.5 Z"/></g>
<g><path style="opacity:1" fill="#3b3b3b" d="M 7.5,222.5 C 8.16667,233.833 8.83333,245.167 9.5,256.5C 9.66666,332.501 9.5,408.501 9,484.5C 7.67716,397.172 7.17716,309.839 7.5,222.5 Z"/></g>
<g><path style="opacity:1" fill="#4b4b4b" d="M 9.5,256.5 C 8.83333,245.167 8.16667,233.833 7.5,222.5C 7.00842,167.083 7.50842,111.75 9,56.5C 9.5,123.166 9.66666,189.833 9.5,256.5 Z"/></g>
<g><path style="opacity:1" fill="#a0a0a0" d="M 266.5,535.5 C 266.526,554.974 256.859,565.808 237.5,568C 169.167,568.667 100.833,568.667 32.5,568C 20.3428,567.767 11.6761,562.267 6.5,551.5C 5.67131,548.531 5.50465,545.531 6,542.5C 6.23209,543.737 6.73209,544.737 7.5,545.5C 10.3513,555.851 17.0179,562.351 27.5,565C 98.8333,565.667 170.167,565.667 241.5,565C 256.04,561.624 263.373,552.458 263.5,537.5C 263.833,537.5 264.167,537.5 264.5,537.5C 264.34,539.199 264.506,540.866 265,542.5C 265.186,539.964 265.686,537.631 266.5,535.5 Z"/></g>
</svg>
