<svg xmlns="http://www.w3.org/2000/svg" viewBox="0 0 62.06 84.5"><defs><style>.cls-1{fill:#345e41;fill-rule:evenodd;}</style></defs><g id="Layer_2" data-name="Layer 2"><g id="Layer_1-2" data-name="Layer 1"><path class="cls-1" d="M31.78,7.68A14.37,14.37,0,1,0,46.14,22.05,14.37,14.37,0,0,0,31.78,7.68Zm0,1.25A13.07,13.07,0,1,1,18.68,22,13.07,13.07,0,0,1,31.75,8.93Z"/><path class="cls-1" d="M0,4.41V27.46l16.39-4.81c0-.18,0-.37,0-.55a15.37,15.37,0,1,1,2,7.61L0,35.12V79.58c.26,3.7,2.46,5.1,6,4.89H31.39c13.4.4,21.78-3.31,26.48-10,6.79-10.76,6.42-28.21-9.32-35.27C64,27.71,61.35,0,33.59.07L5,0C1.69.42.45,1.86,0,4.41ZM38.26,45.75c-1.48,3-3.44,4.32-5.9,4-1-1.65,2.58-5.08,5.9-4Zm-8.56-.67a5.61,5.61,0,0,1,.69.93c.2.32.35.73.52,1l.48,1.6c-.16,1.1-.16,1.36-1.87.92a2.17,2.17,0,0,1-.95-.53c-2.69-1.19-3.45-3.46-3.9-5.44a6.56,6.56,0,0,1,5,1.54ZM28,51.8c1.57.45,2.8,1,4.6.63.88-.19,1.72-.46,2.57-.69a9.79,9.79,0,0,1,2.07-.44,6.48,6.48,0,0,1,2.82.19h0a4.9,4.9,0,0,1,2.34,1.32c5,5.32.28,20.15-6.84,22.15a12,12,0,0,1-3-.25,6.34,6.34,0,0,0-3.24.47C25,76.51,16.55,63.66,18.62,55.79a6.51,6.51,0,0,1,1.84-3C22.12,51,25.3,50.86,28,51.8Z"/></g></g></svg>