<?xml version="1.0" encoding="UTF-8"?>
<!DOCTYPE svg PUBLIC "-//W3C//DTD SVG 1.1//EN" "http://www.w3.org/Graphics/SVG/1.1/DTD/svg11.dtd">
<!-- Creator: CorelDRAW X7 -->
<svg xmlns="http://www.w3.org/2000/svg" xml:space="preserve" width="169.333mm" height="169.333mm" version="1.1" style="shape-rendering:geometricPrecision; text-rendering:geometricPrecision; image-rendering:optimizeQuality; fill-rule:evenodd; clip-rule:evenodd"
viewBox="0 0 169333 169333"
 xmlns:xlink="http://www.w3.org/1999/xlink">
 <defs>
  <style type="text/css">
   <![CDATA[
    .fil0 {fill:#41644A}
   ]]>
  </style>
 </defs>
 <g id="Layer_x0020_1">
  <metadata id="CorelCorpID_0Corel-Layer"/>
  <path class="fil0" d="M67382 49950c263,-1484 986,-2327 2906,-2570l16654 40c16166,-38 17731,16098 8711,22774 9166,4111 9382,14276 5432,20542 -2742,3908 -7622,6066 -15425,5836l-14768 0c-2078,123 -3361,-695 -3510,-2851l0 -25890 10713 -3148c1540,2693 4441,4509 7766,4509 4938,0 8941,-4003 8941,-8941 0,-4938 -4003,-8941 -8941,-8941 -4938,0 -8941,4003 -8941,8941 0,107 3,213 7,318l-9545 2805 0 -13424zm22524 23168c-863,1723 -2004,2515 -3437,2326 -579,-958 1504,-2958 3437,-2326zm-4985 -389c142,147 283,339 403,538 114,188 204,428 303,572l279 931c-97,641 -92,794 -1088,538 -289,-74 -375,-176 -557,-312 -1567,-691 -2009,-2013 -2269,-3166 1014,-49 2189,134 2929,899zm-1019 3913c913,261 1631,583 2680,363 512,-108 999,-265 1497,-402 390,-126 796,-212 1200,-252 618,-76 1162,-49 1643,110 0,0 1,0 2,1 535,140 1009,391 1363,767 2922,3097 162,11736 -3984,12895 -380,107 -1537,-111 -1750,-143 -729,-107 -1153,43 -1886,274 -2458,772 -7406,-6711 -6198,-11291 282,-866 526,-1170 1071,-1748 964,-1023 2817,-1124 4362,-574zm1971 -24769c4620,0 8366,3746 8366,8367 0,4620 -3746,8366 -8366,8366 -4621,0 -8367,-3746 -8367,-8366 0,-4621 3746,-8367 8367,-8367zm-12 768c4203,0 7610,3407 7610,7610 0,4203 -3407,7610 -7610,7610 -4202,0 -7609,-3407 -7609,-7610 0,-4203 3407,-7610 7609,-7610z"/>
 </g>
</svg>
