<?xml version="1.0" encoding="UTF-8"?>
<!DOCTYPE svg PUBLIC "-//W3C//DTD SVG 1.1//EN" "http://www.w3.org/Graphics/SVG/1.1/DTD/svg11.dtd">
<!-- Creator: CorelDRAW X7 -->
<svg xmlns="http://www.w3.org/2000/svg" xml:space="preserve" width="169.333mm" height="169.333mm" version="1.1" style="shape-rendering:geometricPrecision; text-rendering:geometricPrecision; image-rendering:optimizeQuality; fill-rule:evenodd; clip-rule:evenodd"
viewBox="0 0 169333 169333"
 xmlns:xlink="http://www.w3.org/1999/xlink">
 <defs>
  <style type="text/css">
   <![CDATA[
    .fil1 {fill:#FEFEFE}
    .fil0 {fill:#41644A}
   ]]>
  </style>
 </defs>
 <g id="Layer_x0020_1">
  <metadata id="CorelCorpID_0Corel-Layer"/>
  <g id="_1955159270160">
   <path class="fil0" d="M89806 48482c4620,0 8366,3745 8366,8366 0,4621 -3746,8367 -8366,8367 -4621,0 -8367,-3746 -8367,-8367 0,-4621 3746,-8366 8367,-8366z"/>
   <path class="fil1" d="M89806 49238c4202,0 7609,3407 7609,7610 0,4203 -3407,7610 -7609,7610 -4203,0 -7610,-3407 -7610,-7610 0,-4203 3407,-7610 7610,-7610z"/>
   <path class="fil0" d="M71240 46440c263,-1485 986,-2328 2906,-2570l16654 39c16166,-37 17731,16098 8711,22774 9166,4112 9382,14277 5432,20543 -2742,3907 -7622,6066 -15425,5836l-14768 0c-2078,122 -3361,-695 -3510,-2851l0 -25891 10713 -3148c1540,2694 4441,4510 7766,4510 4938,0 8941,-4003 8941,-8941 0,-4938 -4003,-8941 -8941,-8941 -4938,0 -8941,4003 -8941,8941 0,106 3,212 7,318l-9545 2805 0 -13424z"/>
   <path class="fil1" d="M93034 69845c-862,1723 -2003,2515 -3437,2327 -579,-959 1505,-2959 3437,-2327z"/>
   <path class="fil1" d="M88049 69456c142,147 283,340 403,539 114,187 204,427 303,571l279 931c-97,641 -92,794 -1088,538 -288,-73 -375,-176 -557,-312 -1567,-691 -2008,-2013 -2269,-3166 1015,-49 2189,134 2929,899z"/>
   <path class="fil1" d="M87030 73369c913,261 1631,583 2680,363 512,-108 999,-265 1497,-402 390,-126 796,-211 1201,-252 617,-76 1161,-49 1642,110 1,0 1,1 2,1 535,140 1009,392 1363,767 2922,3098 162,11736 -3983,12896 -380,106 -1538,-112 -1751,-143 -729,-108 -1153,43 -1886,273 -2458,772 -7406,-6711 -6198,-11291 282,-866 526,-1170 1071,-1748 964,-1022 2817,-1124 4362,-574z"/>
  </g>
 </g>
</svg>
