<?xml version="1.0" encoding="UTF-8"?>
<!DOCTYPE svg PUBLIC "-//W3C//DTD SVG 1.1//EN" "http://www.w3.org/Graphics/SVG/1.1/DTD/svg11.dtd">
<svg xmlns="http://www.w3.org/2000/svg" version="1.1" width="275px" height="577px" style="shape-rendering:geometricPrecision; text-rendering:geometricPrecision; image-rendering:optimizeQuality; fill-rule:evenodd; clip-rule:evenodd" xmlns:xlink="http://www.w3.org/1999/xlink">
<g><path style="opacity:1" fill="#cfcfcf" d="M 40.5,9.5 C 107.5,9.5 174.5,9.5 241.5,9.5C 244.725,10.6497 248.058,11.8164 251.5,13C 250.906,13.4643 250.239,13.631 249.5,13.5C 247.194,13.0074 244.861,12.6741 242.5,12.5C 172.669,11.5008 102.669,11.1675 32.5,11.5C 35.1667,10.8333 37.8333,10.1667 40.5,9.5 Z"/></g>
<g><path style="opacity:1" fill="#4d4d4d" d="M 32.5,12.5 C 32.5,12.1667 32.5,11.8333 32.5,11.5C 102.669,11.1675 172.669,11.5008 242.5,12.5C 239.194,13.8233 235.861,14.8233 232.5,15.5C 169.166,15.6667 105.832,15.5 42.5,15C 39.0248,14.5532 35.6915,13.7199 32.5,12.5 Z"/></g>
<g><path style="opacity:1" fill="#737373" d="M 74.5,13.5 C 126.665,12.3349 178.998,12.1683 231.5,13C 206.894,14.1528 182.227,14.6528 157.5,14.5C 129.825,14.4436 102.158,14.1103 74.5,13.5 Z"/></g>
<g><path style="opacity:1" fill="#232323" d="M 32.5,12.5 C 35.6915,13.7199 39.0248,14.5532 42.5,15C 105.832,15.5 169.166,15.6667 232.5,15.5C 235.713,15.19 238.713,15.5233 241.5,16.5C 170.166,16.3333 98.8326,16.5 27.5,17C 20.2684,19.899 15.4351,25.0657 13,32.5C 12.5003,40.1594 12.3336,47.8261 12.5,55.5C 11.8603,45.2418 10.8603,36.9084 9.5,30.5C 12.2548,21.9109 17.9214,16.0776 26.5,13C 28.4727,12.5045 30.4727,12.3379 32.5,12.5 Z"/></g>
<g><path style="opacity:1" fill="#040404" d="M 241.5,16.5 C 252.183,18.0106 259.016,24.0106 262,34.5C 262.499,38.8206 262.666,43.1539 262.5,47.5C 262.5,110.5 262.5,173.5 262.5,236.5C 262.5,338.167 262.5,439.833 262.5,541.5C 260.497,553.003 253.831,560.169 242.5,563C 172.167,563.667 101.833,563.667 31.5,563C 21.7779,560.945 15.6113,555.112 13,545.5C 12.5,382.167 12.3333,218.834 12.5,55.5C 12.3336,47.8261 12.5003,40.1594 13,32.5C 15.4351,25.0657 20.2684,19.899 27.5,17C 98.8326,16.5 170.166,16.3333 241.5,16.5 Z"/></g>
<g><path style="opacity:1" fill="#9d9d9d" d="M 241.5,9.5 C 255.818,10.3055 264.484,17.6388 267.5,31.5C 266.778,31.0825 266.278,30.4158 266,29.5C 265.536,30.0944 265.369,30.7611 265.5,31.5C 262.684,23.3462 257.351,17.3462 249.5,13.5C 250.239,13.631 250.906,13.4643 251.5,13C 248.058,11.8164 244.725,10.6497 241.5,9.5 Z"/></g>
<g><path style="opacity:1" fill="#686868" d="M 17.5,14.5 C 15.5281,18.1051 12.8615,21.1051 9.5,23.5C 10.7502,21.0676 12.2502,18.7343 14,16.5C 14.8159,15.1772 15.9826,14.5106 17.5,14.5 Z"/></g>
<g><path style="opacity:1" fill="#fdfdfd" d="M 258.5,50.5 C 177.833,50.5 97.1667,50.5 16.5,50.5C 16.5,44.5 16.5,38.5 16.5,32.5C 18.927,26.9047 22.927,22.738 28.5,20C 100.833,19.3333 173.167,19.3333 245.5,20C 250.541,22.2554 254.375,25.7554 257,30.5C 258.377,37.0764 258.877,43.7431 258.5,50.5 Z"/></g>
<g><path style="opacity:1" fill="#f49d4a" d="M 234.5,25.5 C 237.91,25.7819 241.243,26.4486 244.5,27.5C 245.614,28.723 245.781,30.0563 245,31.5C 244.517,30.552 244.351,29.552 244.5,28.5C 241.167,28.1667 237.833,27.8333 234.5,27.5C 234.5,32.5 234.5,37.5 234.5,42.5C 237.518,42.6646 240.518,42.498 243.5,42C 244.191,40.9326 244.691,39.7659 245,38.5C 245.72,40.1124 245.554,41.6124 244.5,43C 240.985,44.4557 237.485,44.6223 234,43.5C 233.212,37.418 233.379,31.418 234.5,25.5 Z"/></g>
<g><path style="opacity:1" fill="#252525" d="M 164.5,34.5 C 165.643,34.9081 166.643,35.5748 167.5,36.5C 166.253,38.0421 166.253,39.5421 167.5,41C 166.552,41.4828 165.552,41.6495 164.5,41.5C 163.933,39.0314 163.933,36.698 164.5,34.5 Z"/></g>
<g><path style="opacity:1" fill="#f18f2f" d="M 248.5,30.5 C 253.562,33.197 253.729,36.197 249,39.5C 248.493,38.0039 248.993,36.8373 250.5,36C 241.167,35.3333 241.167,34.6667 250.5,34C 249.177,33.1841 248.511,32.0174 248.5,30.5 Z"/></g>
<g><path style="opacity:1" fill="#292929" d="M 128.5,35.5 C 133.629,36.6144 133.629,37.281 128.5,37.5C 128.5,38.5 128.5,39.5 128.5,40.5C 130.109,40.0941 131.443,40.0941 132.5,40.5C 126.6,42.2733 125.267,40.6066 128.5,35.5 Z"/></g>
<g><path style="opacity:1" fill="#191919" d="M 148.5,35.5 C 149.999,36.6782 150.999,38.3449 151.5,40.5C 153.069,39.286 153.902,37.6193 154,35.5C 154.495,37.4727 154.662,39.4727 154.5,41.5C 149.5,42.5 147.5,40.5 148.5,35.5 Z"/></g>
<g><path style="opacity:1" fill="#454545" d="M 156.5,35.5 C 158.247,35.5926 160.081,35.926 162,36.5C 162.398,42.3438 161.565,42.6772 159.5,37.5C 157.325,42.3633 156.325,41.6966 156.5,35.5 Z"/></g>
<g><path style="opacity:1" fill="#282828" d="M 121.5,33.5 C 122.75,33.5774 123.583,34.244 124,35.5C 124.991,37.4473 125.325,39.4473 125,41.5C 122.768,40.8126 120.602,40.4793 118.5,40.5C 119.312,38.0554 120.312,35.7221 121.5,33.5 Z"/></g>
<g><path style="opacity:1" fill="#d1d1d1" d="M 121.5,35.5 C 122.267,36.172 122.934,37.0053 123.5,38C 121.939,38.1881 121.272,37.3547 121.5,35.5 Z"/></g>
<g><path style="opacity:1" fill="#222222" d="M 135.5,35.5 C 140.629,36.6144 140.629,37.281 135.5,37.5C 135.5,38.5 135.5,39.5 135.5,40.5C 137.109,40.0941 138.443,40.0941 139.5,40.5C 137.955,41.4519 136.288,41.7852 134.5,41.5C 134.325,39.3792 134.659,37.3792 135.5,35.5 Z"/></g>
<g><path style="opacity:1" fill="#363636" d="M 142.5,35.5 C 146.677,34.8416 148.177,36.5082 147,40.5C 145.333,43.1667 143.667,43.1667 142,40.5C 141.36,38.735 141.527,37.0683 142.5,35.5 Z"/></g>
<g><path style="opacity:1" fill="#fcfcfc" d="M 143.5,37.5 C 145.465,37.9483 145.798,38.9483 144.5,40.5C 143.614,39.675 143.281,38.675 143.5,37.5 Z"/></g>
<g><path style="opacity:0.981" fill="#bababa" d="M 267.5,31.5 C 268.26,35.0814 268.76,38.7481 269,42.5C 269.178,64.2394 269.678,85.9061 270.5,107.5C 270.652,135.685 269.986,163.851 268.5,192C 268.5,200.007 268.834,207.841 269.5,215.5C 270.167,215.5 270.5,215.833 270.5,216.5C 268.669,323.486 268.002,430.486 268.5,537.5C 267.686,539.631 267.186,541.964 267,544.5C 266.506,542.866 266.34,541.199 266.5,539.5C 266.831,370.127 266.497,200.793 265.5,31.5C 265.369,30.7611 265.536,30.0944 266,29.5C 266.278,30.4158 266.778,31.0825 267.5,31.5 Z"/></g>
<g><path style="opacity:0.783" fill="#bcbcbc" d="M 40.5,9.5 C 37.8333,10.1667 35.1667,10.8333 32.5,11.5C 32.5,11.8333 32.5,12.1667 32.5,12.5C 30.4727,12.3379 28.4727,12.5045 26.5,13C 17.9214,16.0776 12.2548,21.9109 9.5,30.5C 8.53178,32.6074 8.19845,34.9407 8.5,37.5C 8.16632,206.002 7.16632,374.336 5.5,542.5C 5.33333,373.166 5.5,203.833 6,34.5C 5.93575,30.3215 7.10242,26.6548 9.5,23.5C 12.8615,21.1051 15.5281,18.1051 17.5,14.5C 24.3926,9.96409 32.0593,8.29742 40.5,9.5 Z"/></g>
<g><path style="opacity:1" fill="#fefefe" d="M 258.5,52.5 C 258.5,100.5 258.5,148.5 258.5,196.5C 242.167,196.5 225.833,196.5 209.5,196.5C 149.331,196.168 89.331,196.501 29.5,197.5C 25.1667,197.5 20.8333,197.5 16.5,197.5C 16.5,149.167 16.5,100.833 16.5,52.5C 97.1667,52.5 177.833,52.5 258.5,52.5 Z"/></g>
<g><path style="opacity:1" fill="#717171" d="M 8.5,37.5 C 8.17597,207.513 8.5093,377.513 9.5,547.5C 8.73209,546.737 8.23209,545.737 8,544.5C 7.50465,547.531 7.67131,550.531 8.5,553.5C 6.63011,550.191 5.63011,546.525 5.5,542.5C 7.16632,374.336 8.16632,206.002 8.5,37.5 Z"/></g>
<g><path style="opacity:1" fill="#4f4f4f" d="M 262.5,47.5 C 263.314,49.631 263.814,51.9644 264,54.5C 264.665,115.339 264.165,176.006 262.5,236.5C 262.5,173.5 262.5,110.5 262.5,47.5 Z"/></g>
<g><path style="opacity:0.531" fill="#717171" d="M 270.5,107.5 C 271.167,118.328 271.5,129.328 271.5,140.5C 270.056,165.352 269.39,190.352 269.5,215.5C 268.834,207.841 268.5,200.007 268.5,192C 269.986,163.851 270.652,135.685 270.5,107.5 Z"/></g>
<g><path style="opacity:1" fill="#444444" d="M 242.5,12.5 C 244.861,12.6741 247.194,13.0074 249.5,13.5C 257.351,17.3462 262.684,23.3462 265.5,31.5C 266.497,200.793 266.831,370.127 266.5,539.5C 266.167,539.5 265.833,539.5 265.5,539.5C 265.667,478.166 265.5,416.832 265,355.5C 264.293,417.666 263.46,479.666 262.5,541.5C 262.5,439.833 262.5,338.167 262.5,236.5C 264.165,176.006 264.665,115.339 264,54.5C 263.814,51.9644 263.314,49.631 262.5,47.5C 262.666,43.1539 262.499,38.8206 262,34.5C 259.016,24.0106 252.183,18.0106 241.5,16.5C 238.713,15.5233 235.713,15.19 232.5,15.5C 235.861,14.8233 239.194,13.8233 242.5,12.5 Z"/></g>
<g><path style="opacity:1" fill="#5c765d" d="M 130.5,82.5 C 151.021,80.0009 164.854,88.3342 172,107.5C 175.161,132.886 164.161,147.219 139,150.5C 123.553,149.447 112.887,141.78 107,127.5C 102.19,105.784 110.023,90.784 130.5,82.5 Z"/></g>
<g><path style="opacity:1" fill="#e56933" d="M 133.5,130.5 C 141.371,129.182 148.205,131.182 154,136.5C 155.874,138.569 156.874,140.902 157,143.5C 145.296,149.99 133.463,150.157 121.5,144C 121.167,143.667 120.833,143.333 120.5,143C 123.41,137.255 127.743,133.088 133.5,130.5 Z"/></g>
<g><path style="opacity:1" fill="#fcfcfc" d="M 132.5,84.5 C 152.907,82.781 165.74,91.781 171,111.5C 172.005,123.491 168.005,133.491 159,141.5C 150.732,128.63 139.899,125.797 126.5,133C 123.808,135.557 121.475,138.391 119.5,141.5C 108.188,131.396 104.688,119.063 109,104.5C 114.016,94.302 121.85,87.6353 132.5,84.5 Z"/></g>
<g><path style="opacity:1" fill="#607056" d="M 126.5,116.5 C 123.682,103.477 129.015,97.3101 142.5,98C 151.96,101.454 155.127,107.954 152,117.5C 147.968,125.037 141.802,127.537 133.5,125C 129.819,123.163 127.485,120.33 126.5,116.5 Z"/></g>
<g><path style="opacity:1" fill="#e56a33" d="M 126.5,116.5 C 126.27,101.278 133.27,96.4449 147.5,102C 153.86,110.781 152.527,118.114 143.5,124C 135.851,125.84 130.184,123.34 126.5,116.5 Z"/></g>
<g><path style="opacity:1" fill="#434343" d="M 112.5,167.5 C 112.369,166.624 112.702,165.957 113.5,165.5C 114.641,167.421 114.808,169.421 114,171.5C 113.79,169.942 113.29,168.609 112.5,167.5 Z"/></g>
<g><path style="opacity:1" fill="#3f403f" d="M 117.5,165.5 C 119.326,167.437 119.493,169.437 118,171.5C 117.505,169.527 117.338,167.527 117.5,165.5 Z"/></g>
<g><path style="opacity:1" fill="#757575" d="M 131.5,164.5 C 135.326,165.48 135.326,166.313 131.5,167C 133.863,167.589 134.863,169.089 134.5,171.5C 130.107,171.543 129.774,171.043 133.5,170C 132.167,169 130.833,168 129.5,167C 130.381,166.292 131.047,165.458 131.5,164.5 Z"/></g>
<g><path style="opacity:1" fill="#818181" d="M 160.5,167.5 C 159.691,169.292 159.191,171.292 159,173.5C 158.282,174.451 157.449,174.617 156.5,174C 155.409,171.936 155.242,169.769 156,167.5C 157.616,166.199 159.116,166.199 160.5,167.5 Z"/></g>
<g><path style="opacity:1" fill="#5b5b5b" d="M 112.5,167.5 C 111.902,170.731 110.736,171.064 109,168.5C 108.667,169.5 108.333,170.5 108,171.5C 106.637,165.833 107.637,164.833 111,168.5C 111.383,167.944 111.883,167.611 112.5,167.5 Z"/></g>
<g><path style="opacity:1" fill="#929292" d="M 147.5,164.5 C 148.725,165.152 149.392,166.319 149.5,168C 149.167,169.167 148.833,170.333 148.5,171.5C 147.808,170.975 147.308,170.308 147,169.5C 146,172.167 145,172.167 144,169.5C 143.692,170.308 143.192,170.975 142.5,171.5C 140.876,170.131 140.376,168.464 141,166.5C 141.691,168.891 142.691,168.891 144,166.5C 144.333,167.167 144.667,167.833 145,168.5C 146.481,167.529 147.315,166.196 147.5,164.5 Z"/></g>
<g><path style="opacity:1" fill="#797979" d="M 122.5,167.5 C 123.688,168.684 124.855,168.684 126,167.5C 126.167,167.833 126.333,168.167 126.5,168.5C 122.639,169.598 122.639,170.431 126.5,171C 124.863,172.951 123.363,172.784 122,170.5C 121.53,169.423 121.697,168.423 122.5,167.5 Z"/></g>
<g><path style="opacity:1" fill="#747474" d="M 136.5,166.5 C 137.675,166.281 138.675,166.614 139.5,167.5C 138.242,166.984 137.242,167.65 136.5,169.5C 137.376,170.251 138.376,170.751 139.5,171C 137.712,172.63 136.379,172.13 135.5,169.5C 135.685,168.416 136.018,167.416 136.5,166.5 Z"/></g>
<g><path style="opacity:1" fill="#a6a6a6" d="M 160.5,167.5 C 162.756,166.562 165.09,166.562 167.5,167.5C 167.5,168.833 167.5,170.167 167.5,171.5C 163.237,173.535 160.904,172.202 160.5,167.5 Z"/></g>
<g><path style="opacity:1" fill="#c8c7c7" d="M 133.5,179.5 C 137.664,179.874 141.664,179.874 145.5,179.5C 145.5,180.833 145.5,182.167 145.5,183.5C 143.833,183.5 142.167,183.5 140.5,183.5C 140.307,179.551 139.807,179.551 139,183.5C 138.333,179.5 137.667,179.5 137,183.5C 136.086,179.815 135.419,180.148 135,184.5C 134.333,183.167 133.667,183.167 133,184.5C 130.919,182.443 131.086,180.777 133.5,179.5 Z"/></g>
<g><path style="opacity:1" fill="#aeaeae" d="M 29.5,197.5 C 89.331,196.501 149.331,196.168 209.5,196.5C 209.5,196.833 209.5,197.167 209.5,197.5C 170.505,198.3 131.505,198.633 92.5,198.5C 71.6733,197.503 50.6733,197.169 29.5,197.5 Z"/></g>
<g><path style="opacity:1" fill="#fdfdfd" d="M 209.5,197.5 C 225.833,197.5 242.167,197.5 258.5,197.5C 258.5,294.833 258.5,392.167 258.5,489.5C 257.732,490.263 257.232,491.263 257,492.5C 255.887,491.289 254.72,491.289 253.5,492.5C 251.184,489.573 249.684,489.907 249,493.5C 247.513,492.747 247.346,491.914 248.5,491C 247.529,489.519 246.196,488.685 244.5,488.5C 245.643,468.21 245.81,447.877 245,427.5C 243.167,424.333 240.667,421.833 237.5,420C 170.167,419.5 102.834,419.333 35.5,419.5C 30.5049,420.749 27.0049,423.749 25,428.5C 24.3333,447.5 24.3333,466.5 25,485.5C 25.7914,486.745 26.2914,488.078 26.5,489.5C 25.9373,491.654 24.4373,493.654 22,495.5C 21,493.833 20,492.167 19,490.5C 17.3831,491.536 17.2164,492.703 18.5,494C 17.9558,494.717 17.2891,495.217 16.5,495.5C 16.5,396.5 16.5,297.5 16.5,198.5C 41.8333,198.5 67.1667,198.5 92.5,198.5C 131.505,198.633 170.505,198.3 209.5,197.5 Z"/></g>
<g><path style="opacity:1" fill="#939393" d="M 16.5,32.5 C 16.5,38.5 16.5,44.5 16.5,50.5C 97.1667,50.5 177.833,50.5 258.5,50.5C 258.5,51.1667 258.5,51.8333 258.5,52.5C 177.833,52.5 97.1667,52.5 16.5,52.5C 16.5,100.833 16.5,149.167 16.5,197.5C 20.8333,197.5 25.1667,197.5 29.5,197.5C 50.6733,197.169 71.6733,197.503 92.5,198.5C 67.1667,198.5 41.8333,198.5 16.5,198.5C 16.5,297.5 16.5,396.5 16.5,495.5C 16.5,507.167 16.5,518.833 16.5,530.5C 16.5,531.167 16.1667,531.5 15.5,531.5C 15.167,364.999 15.5003,198.666 16.5,32.5 Z"/></g>
<g><path style="opacity:1" fill="#2d2d2d" d="M 47.5,214.5 C 48.4734,214.987 49.4734,215.487 50.5,216C 49.1667,217.667 49.1667,219.333 50.5,221C 49.552,221.483 48.552,221.649 47.5,221.5C 46.9329,219.031 46.9329,216.698 47.5,214.5 Z"/></g>
<g><path style="opacity:1" fill="#262626" d="M 42.5,218.5 C 40.4508,218.294 40.1175,217.461 41.5,216C 43.0738,215.301 44.4071,215.635 45.5,217C 44.5509,217.617 43.7175,217.451 43,216.5C 42.5357,217.094 42.369,217.761 42.5,218.5 Z"/></g>
<g><path style="opacity:1" fill="#333333" d="M 29.5,213.5 C 30.404,214.209 30.7373,215.209 30.5,216.5C 31.8333,216.5 33.1667,216.5 34.5,216.5C 35.8333,217.167 35.8333,217.833 34.5,218.5C 33.1667,218.5 31.8333,218.5 30.5,218.5C 30.6495,219.552 30.4828,220.552 30,221.5C 29.5026,218.854 29.3359,216.187 29.5,213.5 Z"/></g>
<g><path style="opacity:1" fill="#212121" d="M 53.5,215.5 C 57.35,215.701 58.35,217.534 56.5,221C 51.2894,221.546 50.2894,219.713 53.5,215.5 Z"/></g>
<g><path style="opacity:1" fill="#ebebeb" d="M 53.5,217.5 C 56.9571,217.667 57.2904,218.667 54.5,220.5C 53.6143,219.675 53.281,218.675 53.5,217.5 Z"/></g>
<g><path style="opacity:0.507" fill="#686868" d="M 270.5,216.5 C 271.166,222.658 271.5,228.991 271.5,235.5C 271.65,242.33 271.15,248.996 270,255.5C 269.833,350.334 269.333,445.001 268.5,539.5C 268.5,538.833 268.5,538.167 268.5,537.5C 268.002,430.486 268.669,323.486 270.5,216.5 Z"/></g>
<g><path style="opacity:1" fill="#2a2a2a" d="M 59.5,215.5 C 61.3936,215.586 63.3936,215.919 65.5,216.5C 66.5,220.5 67.5,220.5 68.5,216.5C 69.0016,215.479 69.6683,215.312 70.5,216C 68.931,218.984 67.2643,221.817 65.5,224.5C 65.6771,222.693 65.3438,220.693 64.5,218.5C 63.3112,217.571 61.9778,217.238 60.5,217.5C 60.6567,218.873 60.49,220.207 60,221.5C 59.5045,219.527 59.3379,217.527 59.5,215.5 Z"/></g>
<g><path style="opacity:1" fill="#272727" d="M 42.5,218.5 C 43.5,218.5 44.5,218.5 45.5,218.5C 45.5,219.5 45.5,220.5 45.5,221.5C 43.712,221.785 42.0453,221.452 40.5,220.5C 41.5821,220.251 42.9154,220.085 44.5,220C 43.5842,219.722 42.9175,219.222 42.5,218.5 Z"/></g>
<g><path style="opacity:1" fill="#cdd6d0" d="M 235.5,235.5 C 236.492,235.328 237.158,235.662 237.5,236.5C 236.833,236.5 236.5,236.833 236.5,237.5C 169.5,237.5 102.5,237.5 35.5,237.5C 102.167,236.833 168.833,236.167 235.5,235.5 Z"/></g>
<g><path style="opacity:1" fill="#fefefe" d="M 35.5,237.5 C 102.5,237.5 169.5,237.5 236.5,237.5C 240.176,239.011 242.676,241.677 244,245.5C 244.5,263.497 244.667,281.497 244.5,299.5C 243.209,303.641 240.542,306.808 236.5,309C 168.833,309.667 101.167,309.667 33.5,309C 30.6667,307.5 28.5,305.333 27,302.5C 26.3333,283.167 26.3333,263.833 27,244.5C 28.4061,240.387 31.2395,238.053 35.5,237.5 Z"/></g>
<g><path style="opacity:1" fill="#496a51" d="M 236.5,237.5 C 236.5,236.833 236.833,236.5 237.5,236.5C 240.785,237.95 243.285,240.283 245,243.5C 245.5,262.83 245.667,282.164 245.5,301.5C 244.662,301.158 244.328,300.492 244.5,299.5C 244.667,281.497 244.5,263.497 244,245.5C 242.676,241.677 240.176,239.011 236.5,237.5 Z"/></g>
<g><path style="opacity:1" fill="#e17068" d="M 203.5,252.5 C 208.649,252.993 213.316,254.659 217.5,257.5C 212.677,258.643 208.01,259.309 203.5,259.5C 203.862,257.013 203.862,254.68 203.5,252.5 Z"/></g>
<g><path style="opacity:1" fill="#b5874f" d="M 203.5,252.5 C 203.862,254.68 203.862,257.013 203.5,259.5C 200.002,260.045 197.002,259.212 194.5,257C 196.167,256.667 197.833,256.333 199.5,256C 200.337,254.989 200.67,253.822 200.5,252.5C 201.479,251.235 202.479,249.901 203.5,248.5C 205.794,249.625 205.794,250.959 203.5,252.5 Z"/></g>
<g><path style="opacity:1" fill="#d26265" d="M 200.5,252.5 C 200.67,253.822 200.337,254.989 199.5,256C 197.833,256.333 196.167,256.667 194.5,257C 197.002,259.212 200.002,260.045 203.5,259.5C 203.389,260.117 203.056,260.617 202.5,261C 199.183,261.498 195.85,261.665 192.5,261.5C 189.903,261.279 189.903,260.779 192.5,260C 190.482,259.495 188.482,258.995 186.5,258.5C 190.415,254.879 195.082,252.879 200.5,252.5 Z"/></g>
<g><path style="opacity:1" fill="#121212" d="M 35.5,264.5 C 41.3239,264.347 41.6572,265.013 36.5,266.5C 40.3107,267.738 40.3107,268.404 36.5,268.5C 36.6495,269.552 36.4828,270.552 36,271.5C 35.5034,269.19 35.3367,266.857 35.5,264.5 Z"/></g>
<g><path style="opacity:1" fill="#131313" d="M 41.5,266.5 C 42.552,266.351 43.552,266.517 44.5,267C 43.1068,268.171 42.2735,269.671 42,271.5C 41.5065,269.866 41.3398,268.199 41.5,266.5 Z"/></g>
<g><path style="opacity:1" fill="#181818" d="M 55.5,269.5 C 54.5,269.5 53.5,269.5 52.5,269.5C 52.5,268.5 52.5,267.5 52.5,266.5C 55.5983,266.413 55.9316,266.913 53.5,268C 54.4158,268.278 55.0825,268.778 55.5,269.5 Z"/></g>
<g><path style="opacity:1" fill="#353535" d="M 57.5,264.5 C 59.3002,265.473 61.1335,266.473 63,267.5C 63.0726,272.733 62.2393,272.733 60.5,267.5C 59.8333,268.833 59.1667,270.167 58.5,271.5C 57.5258,269.257 57.1924,266.924 57.5,264.5 Z"/></g>
<g><path style="opacity:1" fill="#353535" d="M 46.5,266.5 C 47.8333,266.5 49.1667,266.5 50.5,266.5C 50.5,268.167 50.5,269.833 50.5,271.5C 46.065,272.078 44.7317,270.411 46.5,266.5 Z"/></g>
<g><path style="opacity:1" fill="#cd1c23" d="M 217.5,257.5 C 219.822,258.802 221.155,260.802 221.5,263.5C 221.013,264.473 220.513,265.473 220,266.5C 217.993,265.331 215.827,264.665 213.5,264.5C 209.237,261.233 206.57,262.233 205.5,267.5C 201.079,268.751 199.412,271.751 200.5,276.5C 198.533,276.739 196.699,276.406 195,275.5C 194.092,277.439 192.592,278.439 190.5,278.5C 190.167,278.5 189.833,278.5 189.5,278.5C 189.322,277.305 188.989,276.138 188.5,275C 189.651,273.177 190.818,271.344 192,269.5C 195.347,268.491 198.181,266.657 200.5,264C 198.866,263.506 197.199,263.34 195.5,263.5C 194.5,262.833 193.5,262.167 192.5,261.5C 195.85,261.665 199.183,261.498 202.5,261C 203.056,260.617 203.389,260.117 203.5,259.5C 208.01,259.309 212.677,258.643 217.5,257.5 Z"/></g>
<g><path style="opacity:1" fill="#242424" d="M 55.5,269.5 C 56.0431,269.56 56.3764,269.893 56.5,270.5C 55.277,271.614 53.9437,271.781 52.5,271C 53.7375,270.768 54.7375,270.268 55.5,269.5 Z"/></g>
<g><path style="opacity:1" fill="#c66e74" d="M 222.5,265.5 C 223.162,267.304 223.495,269.304 223.5,271.5C 223.713,274.527 223.047,277.193 221.5,279.5C 222.229,274.87 222.563,270.203 222.5,265.5 Z"/></g>
<g><path style="opacity:1" fill="#e6525e" d="M 186.5,258.5 C 188.482,258.995 190.482,259.495 192.5,260C 189.903,260.779 189.903,261.279 192.5,261.5C 193.5,262.167 194.5,262.833 195.5,263.5C 197.199,263.34 198.866,263.506 200.5,264C 198.181,266.657 195.347,268.491 192,269.5C 190.818,271.344 189.651,273.177 188.5,275C 188.989,276.138 189.322,277.305 189.5,278.5C 189.5,279.5 189.5,280.5 189.5,281.5C 187.87,279.974 187.037,277.974 187,275.5C 185.701,275.966 184.201,275.966 182.5,275.5C 182.5,272.5 182.5,269.5 182.5,266.5C 182.53,263.148 183.863,260.482 186.5,258.5 Z"/></g>
<g><path style="opacity:1" fill="#ef9da2" d="M 195.5,263.5 C 195.611,264.117 195.944,264.617 196.5,265C 193.991,266.421 191.657,268.088 189.5,270C 185.075,269.911 184.408,268.078 187.5,264.5C 190.086,263.52 192.753,263.187 195.5,263.5 Z"/></g>
<g><path style="opacity:1" fill="#d65b5e" d="M 221.5,263.5 C 222.338,263.842 222.672,264.508 222.5,265.5C 222.563,270.203 222.229,274.87 221.5,279.5C 220.5,279.5 219.5,279.5 218.5,279.5C 218.167,279.5 217.833,279.5 217.5,279.5C 214.895,275.221 212.562,270.721 210.5,266C 211.244,264.961 212.244,264.461 213.5,264.5C 215.827,264.665 217.993,265.331 220,266.5C 220.513,265.473 221.013,264.473 221.5,263.5 Z"/></g>
<g><path style="opacity:1" fill="#878787" d="M 89.5,276.5 C 92.0193,276.848 93.8526,278.181 95,280.5C 95.044,283.783 94.044,284.116 92,281.5C 90.3335,282.34 90.1669,281.84 91.5,280C 90.0267,279.29 89.3601,278.124 89.5,276.5 Z"/></g>
<g><path style="opacity:1" fill="#9d9d9d" d="M 82.5,281.5 C 80.5648,282.15 78.5648,282.483 76.5,282.5C 77.221,274.855 79.221,274.522 82.5,281.5 Z"/></g>
<g><path style="opacity:1" fill="#7f7f7f" d="M 36.5,277.5 C 40.4984,279.516 40.3317,281.183 36,282.5C 35.6155,280.803 35.7822,279.137 36.5,277.5 Z"/></g>
<g><path style="opacity:1" fill="#6f6f6f" d="M 44.5,281.5 C 43.4324,282.434 42.099,282.768 40.5,282.5C 40.5,281.167 40.5,279.833 40.5,278.5C 43.7973,278.329 44.1306,278.995 41.5,280.5C 42.325,281.386 43.325,281.719 44.5,281.5 Z"/></g>
<g><path style="opacity:1" fill="#dc626e" d="M 182.5,266.5 C 182.5,269.5 182.5,272.5 182.5,275.5C 184.201,275.966 185.701,275.966 187,275.5C 187.037,277.974 187.87,279.974 189.5,281.5C 190.085,283.922 191.585,285.589 194,286.5C 193.645,287.959 193.811,289.293 194.5,290.5C 193.5,290.5 192.5,290.5 191.5,290.5C 188.865,289.527 186.865,287.86 185.5,285.5C 181.592,279.52 180.592,273.187 182.5,266.5 Z"/></g>
<g><path style="opacity:1" fill="#c6343f" d="M 213.5,264.5 C 212.244,264.461 211.244,264.961 210.5,266C 212.562,270.721 214.895,275.221 217.5,279.5C 216.07,280.537 214.403,281.204 212.5,281.5C 213.537,279.262 213.703,276.929 213,274.5C 210.327,272.422 207.827,270.088 205.5,267.5C 206.57,262.233 209.237,261.233 213.5,264.5 Z"/></g>
<g><path style="opacity:1" fill="#8a8a8a" d="M 44.5,281.5 C 44.7218,278.924 46.0551,278.09 48.5,279C 45.8333,280 45.8333,281 48.5,282C 47.0715,282.579 45.7382,282.412 44.5,281.5 Z"/></g>
<g><path style="opacity:1" fill="#9f9f9f" d="M 62.5,279.5 C 62.8807,280.931 63.8807,281.764 65.5,282C 62.5184,282.498 59.5184,282.665 56.5,282.5C 56.3068,278.551 55.8068,278.551 55,282.5C 54.51,281.207 54.3433,279.873 54.5,278.5C 57.2372,278.401 59.9039,278.735 62.5,279.5 Z"/></g>
<g><path style="opacity:1" fill="#7d7d7d" d="M 62.5,279.5 C 63.0968,278.861 63.9302,278.528 65,278.5C 66.7555,279.581 68.2555,280.247 69.5,280.5C 69.0234,281.931 68.3567,283.264 67.5,284.5C 67.5634,283.34 67.2301,282.006 66.5,280.5C 65.3112,279.571 63.9778,279.238 62.5,279.5 Z"/></g>
<g><path style="opacity:1" fill="#b00609" d="M 205.5,267.5 C 207.827,270.088 210.327,272.422 213,274.5C 213.703,276.929 213.537,279.262 212.5,281.5C 204.257,286.387 196.924,285.387 190.5,278.5C 192.592,278.439 194.092,277.439 195,275.5C 196.699,276.406 198.533,276.739 200.5,276.5C 199.412,271.751 201.079,268.751 205.5,267.5 Z"/></g>
<g><path style="opacity:1" fill="#686868" d="M 49.5,278.5 C 50.7942,282.223 51.9609,282.223 53,278.5C 53.49,279.793 53.6567,281.127 53.5,282.5C 52.1667,282.5 50.8333,282.5 49.5,282.5C 49.5,281.167 49.5,279.833 49.5,278.5 Z"/></g>
<g><path style="opacity:1" fill="#686868" d="M 82.5,281.5 C 83.5,281.5 84.5,281.5 85.5,281.5C 86.0031,276.5 86.3364,276.833 86.5,282.5C 84.901,282.768 83.5676,282.434 82.5,281.5 Z"/></g>
<g><path style="opacity:1" fill="#ad2e3f" d="M 189.5,278.5 C 189.833,278.5 190.167,278.5 190.5,278.5C 196.924,285.387 204.257,286.387 212.5,281.5C 214.403,281.204 216.07,280.537 217.5,279.5C 217.833,279.5 218.167,279.5 218.5,279.5C 218.923,280.265 219.257,281.098 219.5,282C 218.293,283.3 217.626,284.8 217.5,286.5C 216.167,286.5 214.833,286.5 213.5,286.5C 213.097,289.406 211.431,291.239 208.5,292C 203.508,292.243 198.841,291.743 194.5,290.5C 193.811,289.293 193.645,287.959 194,286.5C 191.585,285.589 190.085,283.922 189.5,281.5C 189.5,280.5 189.5,279.5 189.5,278.5 Z"/></g>
<g><path style="opacity:1" fill="#a04751" d="M 218.5,279.5 C 219.5,279.5 220.5,279.5 221.5,279.5C 221.06,282.38 220.06,285.046 218.5,287.5C 217.167,288.5 215.833,289.5 214.5,290.5C 207.295,295.224 199.962,295.557 192.5,291.5C 191.833,291.5 191.5,291.167 191.5,290.5C 192.5,290.5 193.5,290.5 194.5,290.5C 198.841,291.743 203.508,292.243 208.5,292C 211.431,291.239 213.097,289.406 213.5,286.5C 214.833,286.5 216.167,286.5 217.5,286.5C 217.626,284.8 218.293,283.3 219.5,282C 219.257,281.098 218.923,280.265 218.5,279.5 Z"/></g>
<g><path style="opacity:1" fill="#eeebec" d="M 185.5,285.5 C 186.865,287.86 188.865,289.527 191.5,290.5C 191.5,291.167 191.833,291.5 192.5,291.5C 192.36,293.124 193.027,294.29 194.5,295C 200.5,297 206.5,297 212.5,295C 214.037,293.89 214.703,292.39 214.5,290.5C 215.833,289.5 217.167,288.5 218.5,287.5C 219.496,287.586 220.329,287.252 221,286.5C 223.705,287.755 225.538,289.755 226.5,292.5C 226.471,294.029 225.804,295.196 224.5,296C 222.413,296.792 220.579,297.959 219,299.5C 206.878,298.821 194.711,297.988 182.5,297C 182.962,295.278 183.128,293.445 183,291.5C 185.396,289.765 186.229,287.765 185.5,285.5 Z"/></g>
<g><path style="opacity:1" fill="#b3a6a6" d="M 214.5,290.5 C 214.703,292.39 214.037,293.89 212.5,295C 206.5,297 200.5,297 194.5,295C 193.027,294.29 192.36,293.124 192.5,291.5C 199.962,295.557 207.295,295.224 214.5,290.5 Z"/></g>
<g><path style="opacity:1" fill="#708a76" d="M 235.5,235.5 C 168.833,236.167 102.167,236.833 35.5,237.5C 31.2395,238.053 28.4061,240.387 27,244.5C 26.3333,263.833 26.3333,283.167 27,302.5C 28.5,305.333 30.6667,307.5 33.5,309C 101.167,309.667 168.833,309.667 236.5,309C 240.542,306.808 243.209,303.641 244.5,299.5C 244.328,300.492 244.662,301.158 245.5,301.5C 243.234,306.264 239.567,309.431 234.5,311C 168.167,311.667 101.833,311.667 35.5,311C 30.4268,309.594 26.9268,306.428 25,301.5C 24.3333,282.5 24.3333,263.5 25,244.5C 26.5,240.333 29.3333,237.5 33.5,236C 100.833,235.5 168.166,235.333 235.5,235.5 Z"/></g>
<g><path style="opacity:1" fill="#738d7a" d="M 245.5,334.5 C 245.167,334.5 244.833,334.5 244.5,334.5C 243.107,330.606 240.44,327.773 236.5,326C 168.833,325.333 101.167,325.333 33.5,326C 30.6667,327.5 28.5,329.667 27,332.5C 26.3333,351.833 26.3333,371.167 27,390.5C 27.7914,391.745 28.2914,393.078 28.5,394.5C 26.1725,393.264 25.0058,391.264 25,388.5C 24.3333,370.167 24.3333,351.833 25,333.5C 26.9268,328.572 30.4268,325.406 35.5,324C 102.167,323.333 168.833,323.333 235.5,324C 240.721,325.72 244.054,329.22 245.5,334.5 Z"/></g>
<g><path style="opacity:1" fill="#fdfdfd" d="M 244.5,334.5 C 244.667,352.17 244.5,369.836 244,387.5C 243.285,393.215 240.118,396.715 234.5,398C 168.5,398.667 102.5,398.667 36.5,398C 33.495,397.467 30.8283,396.3 28.5,394.5C 28.2914,393.078 27.7914,391.745 27,390.5C 26.3333,371.167 26.3333,351.833 27,332.5C 28.5,329.667 30.6667,327.5 33.5,326C 101.167,325.333 168.833,325.333 236.5,326C 240.44,327.773 243.107,330.606 244.5,334.5 Z"/></g>
<g><path style="opacity:1" fill="#d96e68" d="M 217.5,346.5 C 216.279,347.028 215.113,347.695 214,348.5C 212.04,345.854 210.04,345.854 208,348.5C 207.127,348.265 206.293,347.931 205.5,347.5C 203.149,349.229 200.482,349.896 197.5,349.5C 196.833,349.5 196.5,349.167 196.5,348.5C 203.647,349.513 205.147,347.179 201,341.5C 198.774,343.885 195.941,345.051 192.5,345C 194.056,345.72 195.056,346.887 195.5,348.5C 195.265,349.097 194.765,349.43 194,349.5C 192.125,347.822 189.958,346.822 187.5,346.5C 192.303,342.891 197.636,340.225 203.5,338.5C 208.229,341.194 212.896,343.86 217.5,346.5 Z"/></g>
<g><path style="opacity:1" fill="#c08f4f" d="M 196.5,348.5 C 196.167,348.5 195.833,348.5 195.5,348.5C 195.056,346.887 194.056,345.72 192.5,345C 195.941,345.051 198.774,343.885 201,341.5C 205.147,347.179 203.647,349.513 196.5,348.5 Z"/></g>
<g><path style="opacity:1" fill="#555555" d="M 35.5,353.5 C 37.0348,352.212 38.7015,352.212 40.5,353.5C 39.624,354.251 38.624,354.751 37.5,355C 40.1125,356.071 40.1125,356.905 37.5,357.5C 37.0113,356.005 36.3446,354.671 35.5,353.5 Z"/></g>
<g><path style="opacity:1" fill="#474747" d="M 57.5,352.5 C 59.3002,353.473 61.1335,354.473 63,355.5C 63.3984,361.344 62.5651,361.677 60.5,356.5C 59.8333,357.833 59.1667,359.167 58.5,360.5C 57.52,357.914 57.1866,355.247 57.5,352.5 Z"/></g>
<g><path style="opacity:1" fill="#040404" d="M 35.5,353.5 C 36.3446,354.671 37.0113,356.005 37.5,357.5C 36.7321,358.263 36.2321,359.263 36,360.5C 35.5034,358.19 35.3367,355.857 35.5,353.5 Z"/></g>
<g><path style="opacity:1" fill="#d01f2a" d="M 217.5,346.5 C 219.587,347.585 220.92,349.251 221.5,351.5C 221.144,352.87 220.31,353.87 219,354.5C 215.466,352.325 211.633,351.492 207.5,352C 206.027,352.71 205.36,353.876 205.5,355.5C 204.527,356.791 203.527,356.791 202.5,355.5C 201.961,358.166 200.628,360.333 198.5,362C 197.551,362.617 196.718,362.451 196,361.5C 194.921,363.394 193.587,363.727 192,362.5C 190.959,363.471 190.126,364.471 189.5,365.5C 188.427,364.749 188.26,363.749 189,362.5C 190.852,361.305 192.019,359.638 192.5,357.5C 196.184,356.628 197.184,354.461 195.5,351C 196.416,350.722 197.082,350.222 197.5,349.5C 200.482,349.896 203.149,349.229 205.5,347.5C 206.293,347.931 207.127,348.265 208,348.5C 210.04,345.854 212.04,345.854 214,348.5C 215.113,347.695 216.279,347.028 217.5,346.5 Z"/></g>
<g><path style="opacity:1" fill="#5e5e5e" d="M 46.5,354.5 C 50.0681,354.759 51.4015,356.759 50.5,360.5C 45.719,360.833 44.3857,358.833 46.5,354.5 Z"/></g>
<g><path style="opacity:1" fill="#4b4b4b" d="M 52.5,354.5 C 54.1033,354.312 55.4366,354.812 56.5,356C 54.0087,356.626 54.0087,357.459 56.5,358.5C 55.5373,360.49 54.204,360.823 52.5,359.5C 53.0522,357.997 53.0522,356.331 52.5,354.5 Z"/></g>
<g><path style="opacity:1" fill="#e04a58" d="M 187.5,346.5 C 189.958,346.822 192.125,347.822 194,349.5C 194.765,349.43 195.265,349.097 195.5,348.5C 195.833,348.5 196.167,348.5 196.5,348.5C 196.5,349.167 196.833,349.5 197.5,349.5C 197.082,350.222 196.416,350.722 195.5,351C 197.184,354.461 196.184,356.628 192.5,357.5C 192.019,359.638 190.852,361.305 189,362.5C 188.26,363.749 188.427,364.749 189.5,365.5C 190.63,367.315 191.296,369.315 191.5,371.5C 193.292,371.366 194.958,371.699 196.5,372.5C 196.5,373.833 195.833,374.5 194.5,374.5C 193.292,373.766 191.959,373.433 190.5,373.5C 189.371,370.931 187.704,368.765 185.5,367C 186.956,366.577 187.456,365.744 187,364.5C 185.434,365.061 184.101,364.394 183,362.5C 182.502,359.518 182.335,356.518 182.5,353.5C 183.433,350.63 185.1,348.296 187.5,346.5 Z"/></g>
<g><path style="opacity:1" fill="#ef9a9f" d="M 192.5,357.5 C 190.906,357.92 189.406,358.586 188,359.5C 184.242,355.045 185.408,352.712 191.5,352.5C 192.833,352.833 194.167,353.167 195.5,353.5C 194.476,354.852 193.476,356.185 192.5,357.5 Z"/></g>
<g><path style="opacity:1" fill="#c77177" d="M 222.5,353.5 C 223.647,357.646 223.814,361.98 223,366.5C 222.722,367.416 222.222,368.082 221.5,368.5C 222.254,363.537 222.587,358.537 222.5,353.5 Z"/></g>
<g><path style="opacity:1" fill="#dd6671" d="M 182.5,353.5 C 182.335,356.518 182.502,359.518 183,362.5C 184.101,364.394 185.434,365.061 187,364.5C 187.456,365.744 186.956,366.577 185.5,367C 187.704,368.765 189.371,370.931 190.5,373.5C 190.062,373.435 189.728,373.601 189.5,374C 191.192,375.401 191.859,377.234 191.5,379.5C 191.167,379.5 190.833,379.5 190.5,379.5C 182.75,372.26 180.084,363.593 182.5,353.5 Z"/></g>
<g><path style="opacity:1" fill="#b93542" d="M 221.5,351.5 C 222.338,351.842 222.672,352.508 222.5,353.5C 222.587,358.537 222.254,363.537 221.5,368.5C 221.672,369.492 221.338,370.158 220.5,370.5C 217.547,374.934 213.38,377.601 208,378.5C 206.739,378.241 205.739,377.574 205,376.5C 203.209,378.513 201.875,378.513 201,376.5C 198.204,377.734 196.037,377.067 194.5,374.5C 195.833,374.5 196.5,373.833 196.5,372.5C 200.707,372.663 204.874,372.329 209,371.5C 213.22,369.503 214.553,366.169 213,361.5C 209.719,360.301 207.219,358.301 205.5,355.5C 205.36,353.876 206.027,352.71 207.5,352C 211.633,351.492 215.466,352.325 219,354.5C 220.31,353.87 221.144,352.87 221.5,351.5 Z"/></g>
<g><path style="opacity:1" fill="#e38281" d="M 212.5,353.5 C 214.5,354.167 216.5,354.833 218.5,355.5C 218.639,360.574 216.806,361.574 213,358.5C 212.506,356.866 212.34,355.199 212.5,353.5 Z"/></g>
<g><path style="opacity:1" fill="#46684e" d="M 244.5,334.5 C 244.833,334.5 245.167,334.5 245.5,334.5C 245.667,353.503 245.5,372.503 245,391.5C 243.108,395.058 240.275,397.558 236.5,399C 168.833,399.667 101.167,399.667 33.5,399C 31.2925,397.953 29.6258,396.453 28.5,394.5C 30.8283,396.3 33.495,397.467 36.5,398C 102.5,398.667 168.5,398.667 234.5,398C 240.118,396.715 243.285,393.215 244,387.5C 244.5,369.836 244.667,352.17 244.5,334.5 Z"/></g>
<g><path style="opacity:1" fill="#2a2a2a" d="M 9.5,30.5 C 10.8603,36.9084 11.8603,45.2418 12.5,55.5C 12.3333,218.834 12.5,382.167 13,545.5C 15.6113,555.112 21.7779,560.945 31.5,563C 101.833,563.667 172.167,563.667 242.5,563C 253.831,560.169 260.497,553.003 262.5,541.5C 263.46,479.666 264.293,417.666 265,355.5C 265.5,416.832 265.667,478.166 265.5,539.5C 264.72,556.78 255.72,565.946 238.5,567C 168.833,567.667 99.1667,567.667 29.5,567C 19.0179,564.351 12.3513,557.851 9.5,547.5C 8.5093,377.513 8.17597,207.513 8.5,37.5C 8.19845,34.9407 8.53178,32.6074 9.5,30.5 Z"/></g>
<g><path style="opacity:1" fill="#fdfdfc" d="M 112.5,526.5 C 113.833,526.5 115.167,526.5 116.5,526.5C 117.708,538.034 124.375,544.367 136.5,545.5C 148.212,544.455 154.545,538.121 155.5,526.5C 187.168,526.333 218.835,526.5 250.5,527C 253.961,528.305 256.628,530.471 258.5,533.5C 259.51,540.762 258.01,547.429 254,553.5C 251.331,556.164 248.164,557.998 244.5,559C 172.833,559.667 101.167,559.667 29.5,559C 22.5993,556.432 18.0993,551.598 16,544.5C 15.501,540.179 15.3343,535.846 15.5,531.5C 16.1667,531.5 16.5,531.167 16.5,530.5C 18.0103,529.164 19.6769,527.997 21.5,527C 51.8315,526.5 82.1648,526.333 112.5,526.5 Z"/></g>
<g><path style="opacity:1" fill="#282828" d="M 57.5,535.5 C 59.8273,535.247 61.8273,535.914 63.5,537.5C 65.7886,535.408 68.2886,535.074 71,536.5C 70.5612,541.408 70.3945,546.241 70.5,551C 64.5946,551.793 62.9279,549.293 65.5,543.5C 64.1667,540.833 62.8333,540.833 61.5,543.5C 64.9492,549.612 63.2825,551.946 56.5,550.5C 55.0623,547.917 55.3956,545.583 57.5,543.5C 54.8477,540.799 54.8477,538.132 57.5,535.5 Z"/></g>
<g><path style="opacity:1" fill="#f18b28" d="M 214.5,534.5 C 216.411,534.574 217.578,535.574 218,537.5C 219.622,546.79 215.789,550.29 206.5,548C 204.671,546.887 203.837,545.387 204,543.5C 205.402,545.973 206.902,545.973 208.5,543.5C 206.401,538.977 207.734,537.143 212.5,538C 213.767,539.796 213.767,541.629 212.5,543.5C 215.603,546.281 217.27,545.448 217.5,541C 217.16,538.489 216.16,536.322 214.5,534.5 Z"/></g>
<g><path style="opacity:1" fill="#f5a75c" d="M 214.5,534.5 C 210.091,533.618 206.591,534.952 204,538.5C 204.26,535.883 205.76,534.05 208.5,533C 210.881,532.262 212.881,532.762 214.5,534.5 Z"/></g>
<g><path style="opacity:1" fill="#e56a34" d="M 153.5,525.5 C 150.528,541.275 141.528,546.108 126.5,540C 121.913,536.66 119.58,532.16 119.5,526.5C 120.91,513.269 128.243,507.769 141.5,510C 148.974,512.438 152.974,517.605 153.5,525.5 Z"/></g>
<g><path style="opacity:1" fill="#496449" d="M 133.5,517.5 C 137.384,517.424 141.05,518.09 144.5,519.5C 144.5,523.833 144.5,528.167 144.5,532.5C 138.833,532.5 133.167,532.5 127.5,532.5C 127.5,528.167 127.5,523.833 127.5,519.5C 130.01,519.946 132.01,519.28 133.5,517.5 Z"/></g>
<g><path style="opacity:1" fill="#cc6936" d="M 134.5,521.5 C 139.547,521.376 141.38,523.709 140,528.5C 136.102,531.645 133.602,530.812 132.5,526C 132.519,524.167 133.185,522.667 134.5,521.5 Z"/></g>
<g><path style="opacity:1" fill="#496448" d="M 134.5,523.5 C 137.91,523.384 139.244,525.05 138.5,528.5C 134.065,529.078 132.732,527.411 134.5,523.5 Z"/></g>
<g><path style="opacity:1" fill="#cccbca" d="M 153.5,525.5 C 152.974,517.605 148.974,512.438 141.5,510C 128.243,507.769 120.91,513.269 119.5,526.5C 118.5,526.5 117.5,526.5 116.5,526.5C 115.167,526.5 113.833,526.5 112.5,526.5C 112.158,525.662 111.492,525.328 110.5,525.5C 110.137,523.089 111.137,521.589 113.5,521C 113.167,520.667 112.833,520.333 112.5,520C 113.863,518.055 114.697,515.888 115,513.5C 115.667,512.833 116.333,512.167 117,511.5C 117.741,512.641 118.575,512.641 119.5,511.5C 120.491,509.677 121.824,508.177 123.5,507C 123.167,506.667 122.833,506.333 122.5,506C 125.81,504.641 128.81,503.474 131.5,502.5C 134.27,503.097 137.27,503.097 140.5,502.5C 142.952,505.059 145.952,506.559 149.5,507C 152.58,510.761 155.747,514.595 159,518.5C 159.497,520.81 159.663,523.143 159.5,525.5C 157.5,525.5 155.5,525.5 153.5,525.5 Z"/></g>
<g><path style="opacity:1" fill="#e5e4e4" d="M 258.5,511.5 C 258.5,518.833 258.5,526.167 258.5,533.5C 256.628,530.471 253.961,528.305 250.5,527C 218.835,526.5 187.168,526.333 155.5,526.5C 154.545,538.121 148.212,544.455 136.5,545.5C 124.375,544.367 117.708,538.034 116.5,526.5C 117.5,526.5 118.5,526.5 119.5,526.5C 119.58,532.16 121.913,536.66 126.5,540C 141.528,546.108 150.528,541.275 153.5,525.5C 155.5,525.5 157.5,525.5 159.5,525.5C 159.663,523.143 159.497,520.81 159,518.5C 155.747,514.595 152.58,510.761 149.5,507C 145.952,506.559 142.952,505.059 140.5,502.5C 137.27,503.097 134.27,503.097 131.5,502.5C 128.81,503.474 125.81,504.641 122.5,506C 122.833,506.333 123.167,506.667 123.5,507C 121.824,508.177 120.491,509.677 119.5,511.5C 118.575,512.641 117.741,512.641 117,511.5C 116.333,512.167 115.667,512.833 115,513.5C 114.697,515.888 113.863,518.055 112.5,520C 112.833,520.333 113.167,520.667 113.5,521C 111.137,521.589 110.137,523.089 110.5,525.5C 81.4923,525.833 52.4923,525.5 23.5,524.5C 25.0851,522.913 26.7518,522.08 28.5,522C 27.8333,521.667 27.1667,521.333 26.5,521C 28.1341,520.506 29.8008,520.34 31.5,520.5C 31.281,519.325 31.6143,518.325 32.5,517.5C 34.1349,516.67 35.8016,516.503 37.5,517C 36.3463,516.086 36.513,515.253 38,514.5C 38.9147,515.328 39.5814,516.328 40,517.5C 40.2189,516.062 40.7189,514.729 41.5,513.5C 42.086,513.709 42.586,514.043 43,514.5C 45.0064,512.251 47.3397,511.584 50,512.5C 51.2853,512.05 52.452,511.383 53.5,510.5C 54.7481,511.04 55.9148,511.707 57,512.5C 58.2504,511.427 59.5838,511.427 61,512.5C 63.9427,511.76 64.1093,510.76 61.5,509.5C 62,509.167 62.5,508.833 63,508.5C 64.6667,509.833 66.3333,509.833 68,508.5C 69.4728,508.903 70.8061,509.57 72,510.5C 73.5683,507.429 75.4016,507.096 77.5,509.5C 78.8511,506.857 81.0178,506.857 84,509.5C 84.5,509 85,508.5 85.5,508C 88.4369,508.011 91.2702,507.845 94,507.5C 94.5691,511.361 95.4024,511.361 96.5,507.5C 98.0981,509.973 99.5981,509.973 101,507.5C 102.333,510.167 103.667,510.167 105,507.5C 106.518,507.057 107.685,507.724 108.5,509.5C 110.371,508.233 112.204,508.233 114,509.5C 114.065,507.117 114.898,506.45 116.5,507.5C 117.5,505.833 118.833,504.5 120.5,503.5C 121.086,503.709 121.586,504.043 122,504.5C 125.458,501.908 129.124,500.575 133,500.5C 134.245,500.461 135.578,500.795 137,501.5C 138.497,500.523 139.997,499.523 141.5,498.5C 143.187,498.76 144.687,499.427 146,500.5C 147.049,499.483 148.216,499.316 149.5,500C 148.66,501.666 149.16,501.833 151,500.5C 152,501.5 153,502.5 154,503.5C 155.019,502.313 156.186,501.313 157.5,500.5C 157.833,501.167 158.167,501.833 158.5,502.5C 159.883,499.924 160.717,500.258 161,503.5C 163.548,499.535 166.215,499.535 169,503.5C 170.019,502.313 171.186,501.313 172.5,500.5C 177.841,501.161 183.341,501.161 189,500.5C 189.915,501.328 190.581,502.328 191,503.5C 191.221,500.057 192.221,499.724 194,502.5C 194.667,501.167 195.333,501.167 196,502.5C 196.333,501.833 196.667,501.167 197,500.5C 197.667,501.833 198.333,501.833 199,500.5C 199.333,501.167 199.667,501.833 200,502.5C 204.293,502.785 208.293,502.452 212,501.5C 213.694,504.405 216.194,504.738 219.5,502.5C 221.059,503.074 222.559,503.74 224,504.5C 225.016,503.366 225.683,503.699 226,505.5C 230.278,504.034 233.944,505.034 237,508.5C 238.049,507.483 239.216,507.316 240.5,508C 243.131,509.327 245.798,510.66 248.5,512C 248.167,512.333 247.833,512.667 247.5,513C 250.377,514.339 252.044,516.173 252.5,518.5C 253.937,515.956 255.437,515.956 257,518.5C 257.186,515.964 257.686,513.631 258.5,511.5 Z"/></g>
<g><path style="opacity:1" fill="#ebeceb" d="M 244.5,488.5 C 246.196,488.685 247.529,489.519 248.5,491C 247.346,491.914 247.513,492.747 249,493.5C 249.684,489.907 251.184,489.573 253.5,492.5C 254.72,491.289 255.887,491.289 257,492.5C 257.232,491.263 257.732,490.263 258.5,489.5C 258.5,496.833 258.5,504.167 258.5,511.5C 257.686,513.631 257.186,515.964 257,518.5C 255.437,515.956 253.937,515.956 252.5,518.5C 252.044,516.173 250.377,514.339 247.5,513C 247.833,512.667 248.167,512.333 248.5,512C 245.798,510.66 243.131,509.327 240.5,508C 239.216,507.316 238.049,507.483 237,508.5C 233.944,505.034 230.278,504.034 226,505.5C 225.683,503.699 225.016,503.366 224,504.5C 222.559,503.74 221.059,503.074 219.5,502.5C 216.194,504.738 213.694,504.405 212,501.5C 208.293,502.452 204.293,502.785 200,502.5C 199.667,501.833 199.333,501.167 199,500.5C 198.333,501.833 197.667,501.833 197,500.5C 196.667,501.167 196.333,501.833 196,502.5C 195.333,501.167 194.667,501.167 194,502.5C 192.221,499.724 191.221,500.057 191,503.5C 190.581,502.328 189.915,501.328 189,500.5C 183.341,501.161 177.841,501.161 172.5,500.5C 171.186,501.313 170.019,502.313 169,503.5C 166.215,499.535 163.548,499.535 161,503.5C 160.717,500.258 159.883,499.924 158.5,502.5C 158.167,501.833 157.833,501.167 157.5,500.5C 156.186,501.313 155.019,502.313 154,503.5C 153,502.5 152,501.5 151,500.5C 149.16,501.833 148.66,501.666 149.5,500C 148.216,499.316 147.049,499.483 146,500.5C 144.687,499.427 143.187,498.76 141.5,498.5C 139.997,499.523 138.497,500.523 137,501.5C 135.578,500.795 134.245,500.461 133,500.5C 129.124,500.575 125.458,501.908 122,504.5C 121.586,504.043 121.086,503.709 120.5,503.5C 118.833,504.5 117.5,505.833 116.5,507.5C 114.898,506.45 114.065,507.117 114,509.5C 112.204,508.233 110.371,508.233 108.5,509.5C 107.685,507.724 106.518,507.057 105,507.5C 103.667,510.167 102.333,510.167 101,507.5C 99.5981,509.973 98.0981,509.973 96.5,507.5C 95.4024,511.361 94.5691,511.361 94,507.5C 91.2702,507.845 88.4369,508.011 85.5,508C 85,508.5 84.5,509 84,509.5C 81.0178,506.857 78.8511,506.857 77.5,509.5C 75.4016,507.096 73.5683,507.429 72,510.5C 70.8061,509.57 69.4728,508.903 68,508.5C 66.3333,509.833 64.6667,509.833 63,508.5C 62.5,508.833 62,509.167 61.5,509.5C 64.1093,510.76 63.9427,511.76 61,512.5C 59.5838,511.427 58.2504,511.427 57,512.5C 55.9148,511.707 54.7481,511.04 53.5,510.5C 52.452,511.383 51.2853,512.05 50,512.5C 47.3397,511.584 45.0064,512.251 43,514.5C 42.586,514.043 42.086,513.709 41.5,513.5C 40.7189,514.729 40.2189,516.062 40,517.5C 39.5814,516.328 38.9147,515.328 38,514.5C 36.513,515.253 36.3463,516.086 37.5,517C 35.8016,516.503 34.1349,516.67 32.5,517.5C 31.6143,518.325 31.281,519.325 31.5,520.5C 29.8008,520.34 28.1341,520.506 26.5,521C 27.1667,521.333 27.8333,521.667 28.5,522C 26.7518,522.08 25.0851,522.913 23.5,524.5C 52.4923,525.5 81.4923,525.833 110.5,525.5C 111.492,525.328 112.158,525.662 112.5,526.5C 82.1648,526.333 51.8315,526.5 21.5,527C 19.6769,527.997 18.0103,529.164 16.5,530.5C 16.5,518.833 16.5,507.167 16.5,495.5C 17.2891,495.217 17.9558,494.717 18.5,494C 17.2164,492.703 17.3831,491.536 19,490.5C 20,492.167 21,493.833 22,495.5C 24.4373,493.654 25.9373,491.654 26.5,489.5C 28.8302,491.667 31.4968,493.334 34.5,494.5C 102.167,494.667 169.834,494.5 237.5,494C 239.996,492.334 242.329,490.5 244.5,488.5 Z"/></g>
<g><path style="opacity:1" fill="#7a9280" d="M 35.5,419.5 C 35.5,419.833 35.5,420.167 35.5,420.5C 31.4817,421.923 28.6483,424.589 27,428.5C 26.3333,447.833 26.3333,467.167 27,486.5C 28.7424,489.746 31.2424,492.079 34.5,493.5C 34.5,493.833 34.5,494.167 34.5,494.5C 31.4968,493.334 28.8302,491.667 26.5,489.5C 26.2914,488.078 25.7914,486.745 25,485.5C 24.3333,466.5 24.3333,447.5 25,428.5C 27.0049,423.749 30.5049,420.749 35.5,419.5 Z"/></g>
<g><path style="opacity:1" fill="#fdfcfc" d="M 35.5,420.5 C 101.501,420.333 167.501,420.5 233.5,421C 238.783,421.615 242.283,424.449 244,429.5C 244.667,447.833 244.667,466.167 244,484.5C 242.585,488.251 240.085,491.084 236.5,493C 169.167,493.5 101.834,493.667 34.5,493.5C 31.2424,492.079 28.7424,489.746 27,486.5C 26.3333,467.167 26.3333,447.833 27,428.5C 28.6483,424.589 31.4817,421.923 35.5,420.5 Z"/></g>
<g><path style="opacity:1" fill="#d3cccc" d="M 188.5,472.5 C 189.5,473.167 190.5,473.833 191.5,474.5C 199.124,479.827 206.791,479.827 214.5,474.5C 215.968,476.611 215.635,478.444 213.5,480C 205.548,481.442 197.548,481.775 189.5,481C 185.5,479 185.5,477 189.5,475C 188.748,474.329 188.414,473.496 188.5,472.5 Z"/></g>
<g><path style="opacity:1" fill="#9d434e" d="M 218.5,470.5 C 217.5,472.167 216.167,473.5 214.5,474.5C 206.791,479.827 199.124,479.827 191.5,474.5C 194.443,474.647 197.276,475.313 200,476.5C 206.445,474.759 212.612,472.759 218.5,470.5 Z"/></g>
<g><path style="opacity:1" fill="#b53846" d="M 221.5,447.5 C 224.641,455.564 223.641,463.23 218.5,470.5C 212.612,472.759 206.445,474.759 200,476.5C 197.276,475.313 194.443,474.647 191.5,474.5C 190.514,470.557 189.848,466.557 189.5,462.5C 189.833,462.5 190.167,462.5 190.5,462.5C 191.028,463.721 191.695,464.887 192.5,466C 198.262,468.966 204.262,469.3 210.5,467C 211.381,466.292 212.047,465.458 212.5,464.5C 213.629,463.53 214.629,462.364 215.5,461C 214.68,459.2 214.014,457.366 213.5,455.5C 215.124,455.36 216.29,456.027 217,457.5C 218.128,455.655 218.628,453.655 218.5,451.5C 219.15,451.804 219.817,452.137 220.5,452.5C 221.452,450.955 221.785,449.288 221.5,447.5 Z"/></g>
<g><path style="opacity:1" fill="#6c6c6c" d="M 85.5,461.5 C 86.4511,462.919 86.7845,464.585 86.5,466.5C 84.901,466.768 83.5676,466.434 82.5,465.5C 83.5,465.5 84.5,465.5 85.5,465.5C 85.5,464.167 85.5,462.833 85.5,461.5 Z"/></g>
<g><path style="opacity:1" fill="#636363" d="M 49.5,462.5 C 50.7942,466.223 51.9609,466.223 53,462.5C 53.49,463.793 53.6567,465.127 53.5,466.5C 52.1667,466.5 50.8333,466.5 49.5,466.5C 49.5,465.167 49.5,463.833 49.5,462.5 Z"/></g>
<g><path style="opacity:1" fill="#787878" d="M 36.5,461.5 C 38.335,462.122 39.5017,463.456 40,465.5C 40.4828,464.552 40.6495,463.552 40.5,462.5C 43.7973,462.329 44.1306,462.995 41.5,464.5C 42.0253,465.192 42.6919,465.692 43.5,466C 40.869,466.107 38.369,466.273 36,466.5C 35.6155,464.803 35.7822,463.137 36.5,461.5 Z"/></g>
<g><path style="opacity:1" fill="#8d8d8d" d="M 62.5,463.5 C 62.8807,464.931 63.8807,465.764 65.5,466C 62.5184,466.498 59.5184,466.665 56.5,466.5C 56.3068,462.551 55.8068,462.551 55,466.5C 54.51,465.207 54.3433,463.873 54.5,462.5C 57.2372,462.401 59.9039,462.735 62.5,463.5 Z"/></g>
<g><path style="opacity:1" fill="#888888" d="M 45.5,462.5 C 48.7973,462.329 49.1306,462.995 46.5,464.5C 48.7617,466.508 48.2617,466.841 45,465.5C 44.5304,464.423 44.6971,463.423 45.5,462.5 Z"/></g>
<g><path style="opacity:1" fill="#757575" d="M 85.5,461.5 C 83.0882,461.694 82.0882,463.027 82.5,465.5C 81.2126,464.472 80.0459,464.805 79,466.5C 77.2382,466.056 77.4049,465.556 79.5,465C 78.8333,464.667 78.1667,464.333 77.5,464C 78.6667,463.5 79.5,462.667 80,461.5C 81.7023,460.806 83.5357,460.806 85.5,461.5 Z"/></g>
<g><path style="opacity:1" fill="#767676" d="M 62.5,463.5 C 63.0968,462.861 63.9302,462.528 65,462.5C 66.7555,463.581 68.2555,464.247 69.5,464.5C 68.5,468.5 67.5,468.5 66.5,464.5C 65.3112,463.571 63.9778,463.238 62.5,463.5 Z"/></g>
<g><path style="opacity:1" fill="#888888" d="M 89.5,460.5 C 92.3857,461.048 94.3857,462.715 95.5,465.5C 93.9222,466.072 92.4222,466.406 91,466.5C 90.3828,465.551 90.5494,464.718 91.5,464C 90.0267,463.29 89.3601,462.124 89.5,460.5 Z"/></g>
<g><path style="opacity:1" fill="#f4f4f4" d="M 85.5,461.5 C 85.5,462.833 85.5,464.167 85.5,465.5C 84.5,465.5 83.5,465.5 82.5,465.5C 82.0882,463.027 83.0882,461.694 85.5,461.5 Z"/></g>
<g><path style="opacity:1" fill="#b40508" d="M 212.5,464.5 C 212.047,465.458 211.381,466.292 210.5,467C 204.262,469.3 198.262,468.966 192.5,466C 191.695,464.887 191.028,463.721 190.5,462.5C 192.155,460.344 193.989,458.344 196,456.5C 196.317,458.301 196.984,458.634 198,457.5C 198.49,456.207 198.657,454.873 198.5,453.5C 201.085,453.432 203.418,452.932 205.5,452C 207.333,453.833 209.167,455.667 211,457.5C 211.29,459.92 211.79,462.254 212.5,464.5 Z"/></g>
<g><path style="opacity:1" fill="#e55a65" d="M 186.5,442.5 C 188.391,443.536 190.224,443.536 192,442.5C 192.456,443.744 191.956,444.577 190.5,445C 192.134,445.494 193.801,445.66 195.5,445.5C 196.574,446.885 197.907,448.051 199.5,449C 197.892,451.609 195.559,452.942 192.5,453C 191.696,454.771 190.529,456.271 189,457.5C 188.616,459.197 188.782,460.863 189.5,462.5C 189.848,466.557 190.514,470.557 191.5,474.5C 190.5,473.833 189.5,473.167 188.5,472.5C 181.522,465.071 179.689,456.404 183,446.5C 183.949,444.907 185.115,443.574 186.5,442.5 Z"/></g>
<g><path style="opacity:1" fill="#cd1c27" d="M 217.5,441.5 C 219.822,442.802 221.155,444.802 221.5,447.5C 221.785,449.288 221.452,450.955 220.5,452.5C 219.817,452.137 219.15,451.804 218.5,451.5C 218.167,450.833 217.833,450.167 217.5,449.5C 217.389,448.883 217.056,448.383 216.5,448C 213.854,447.503 211.187,447.336 208.5,447.5C 208.176,451.537 209.842,454.203 213.5,455.5C 214.014,457.366 214.68,459.2 215.5,461C 214.629,462.364 213.629,463.53 212.5,464.5C 211.79,462.254 211.29,459.92 211,457.5C 209.167,455.667 207.333,453.833 205.5,452C 203.418,452.932 201.085,453.432 198.5,453.5C 198.657,454.873 198.49,456.207 198,457.5C 196.984,458.634 196.317,458.301 196,456.5C 193.989,458.344 192.155,460.344 190.5,462.5C 190.167,462.5 189.833,462.5 189.5,462.5C 188.782,460.863 188.616,459.197 189,457.5C 190.529,456.271 191.696,454.771 192.5,453C 195.559,452.942 197.892,451.609 199.5,449C 197.907,448.051 196.574,446.885 195.5,445.5C 198.553,445.889 201.22,445.223 203.5,443.5C 204.687,442.568 206.02,442.568 207.5,443.5C 209.863,440.849 212.196,440.849 214.5,443.5C 215.265,442.388 216.265,441.721 217.5,441.5 Z"/></g>
<g><path style="opacity:1" fill="#e27c7c" d="M 217.5,449.5 C 217.833,450.167 218.167,450.833 218.5,451.5C 218.628,453.655 218.128,455.655 217,457.5C 216.29,456.027 215.124,455.36 213.5,455.5C 211.354,450.383 212.687,448.383 217.5,449.5 Z"/></g>
<g><path style="opacity:1" fill="#646464" d="M 49.5,455.5 C 49.0825,454.778 48.4158,454.278 47.5,454C 49.1193,453.764 50.1193,452.931 50.5,451.5C 52.4352,450.85 54.4352,450.517 56.5,450.5C 56.5,452.167 56.5,453.833 56.5,455.5C 53.9592,455.15 51.6258,455.15 49.5,455.5 Z"/></g>
<g><path style="opacity:1" fill="#d05156" d="M 217.5,449.5 C 212.687,448.383 211.354,450.383 213.5,455.5C 209.842,454.203 208.176,451.537 208.5,447.5C 211.187,447.336 213.854,447.503 216.5,448C 217.056,448.383 217.389,448.883 217.5,449.5 Z"/></g>
<g><path style="opacity:1" fill="#f2a8ac" d="M 187.5,448.5 C 192,448.219 192.833,449.886 190,453.5C 187.785,454.82 186.285,454.153 185.5,451.5C 186.193,450.482 186.859,449.482 187.5,448.5 Z"/></g>
<g><path style="opacity:1" fill="#292929" d="M 50.5,451.5 C 50.1193,452.931 49.1193,453.764 47.5,454C 48.4158,454.278 49.0825,454.778 49.5,455.5C 45.8388,455.65 44.8388,454.15 46.5,451C 48.0657,450.235 49.3991,450.402 50.5,451.5 Z"/></g>
<g><path style="opacity:1" fill="#353535" d="M 57.5,448.5 C 59.3002,449.473 61.1335,450.473 63,451.5C 63.0726,456.733 62.2393,456.733 60.5,451.5C 59.8333,452.833 59.1667,454.167 58.5,455.5C 57.5258,453.257 57.1924,450.924 57.5,448.5 Z"/></g>
<g><path style="opacity:1" fill="#121212" d="M 41.5,450.5 C 42.552,450.351 43.552,450.517 44.5,451C 43.1068,452.171 42.2735,453.671 42,455.5C 41.5065,453.866 41.3398,452.199 41.5,450.5 Z"/></g>
<g><path style="opacity:1" fill="#121212" d="M 35.5,448.5 C 41.3239,448.347 41.6572,449.013 36.5,450.5C 40.3107,451.738 40.3107,452.404 36.5,452.5C 36.6495,453.552 36.4828,454.552 36,455.5C 35.5034,453.19 35.3367,450.857 35.5,448.5 Z"/></g>
<g><path style="opacity:1" fill="#b1874c" d="M 203.5,436.5 C 202.733,437.172 202.066,438.005 201.5,439C 202.624,439.249 203.624,439.749 204.5,440.5C 203.873,441.417 203.539,442.417 203.5,443.5C 200.833,443.5 198.167,443.5 195.5,443.5C 195.5,442.5 195.5,441.5 195.5,440.5C 198.856,441.138 200.856,439.804 201.5,436.5C 201.698,433.076 203.032,432.242 205.5,434C 204.619,434.708 203.953,435.542 203.5,436.5 Z"/></g>
<g><path style="opacity:1" fill="#d46865" d="M 201.5,436.5 C 200.856,439.804 198.856,441.138 195.5,440.5C 195.5,441.5 195.5,442.5 195.5,443.5C 198.167,443.5 200.833,443.5 203.5,443.5C 201.22,445.223 198.553,445.889 195.5,445.5C 193.801,445.66 192.134,445.494 190.5,445C 191.956,444.577 192.456,443.744 192,442.5C 190.224,443.536 188.391,443.536 186.5,442.5C 190.467,438.172 195.467,436.172 201.5,436.5 Z"/></g>
<g><path style="opacity:1" fill="#e2736a" d="M 203.5,436.5 C 208.789,436.598 213.456,438.264 217.5,441.5C 216.265,441.721 215.265,442.388 214.5,443.5C 212.196,440.849 209.863,440.849 207.5,443.5C 206.02,442.568 204.687,442.568 203.5,443.5C 203.539,442.417 203.873,441.417 204.5,440.5C 203.624,439.749 202.624,439.249 201.5,439C 202.066,438.005 202.733,437.172 203.5,436.5 Z"/></g>
<g><path style="opacity:1" fill="#43654c" d="M 35.5,420.5 C 35.5,420.167 35.5,419.833 35.5,419.5C 102.834,419.333 170.167,419.5 237.5,420C 240.667,421.833 243.167,424.333 245,427.5C 245.81,447.877 245.643,468.21 244.5,488.5C 242.329,490.5 239.996,492.334 237.5,494C 169.834,494.5 102.167,494.667 34.5,494.5C 34.5,494.167 34.5,493.833 34.5,493.5C 101.834,493.667 169.167,493.5 236.5,493C 240.085,491.084 242.585,488.251 244,484.5C 244.667,466.167 244.667,447.833 244,429.5C 242.283,424.449 238.783,421.615 233.5,421C 167.501,420.5 101.501,420.333 35.5,420.5 Z"/></g>
<g><path style="opacity:1" fill="#cac0c1" d="M 190.5,379.5 C 190.833,379.5 191.167,379.5 191.5,379.5C 193.5,380.5 195.5,381.5 197.5,382.5C 201.646,383.647 205.98,383.814 210.5,383C 211.756,382.583 212.423,381.75 212.5,380.5C 213.167,380.167 213.833,379.833 214.5,379.5C 214.773,381.451 214.107,382.951 212.5,384C 205.542,385.674 198.542,385.84 191.5,384.5C 190.691,382.929 190.357,381.262 190.5,379.5 Z"/></g>
<g><path style="opacity:1" fill="#896669" d="M 212.5,380.5 C 212.423,381.75 211.756,382.583 210.5,383C 205.98,383.814 201.646,383.647 197.5,382.5C 202.697,382.909 207.697,382.242 212.5,380.5 Z"/></g>
<g><path style="opacity:1" fill="#aa3f4d" d="M 220.5,370.5 C 220.649,371.552 220.483,372.552 220,373.5C 218.301,375.696 216.467,377.696 214.5,379.5C 213.833,379.833 213.167,380.167 212.5,380.5C 207.697,382.242 202.697,382.909 197.5,382.5C 195.5,381.5 193.5,380.5 191.5,379.5C 191.859,377.234 191.192,375.401 189.5,374C 189.728,373.601 190.062,373.435 190.5,373.5C 191.959,373.433 193.292,373.766 194.5,374.5C 196.037,377.067 198.204,377.734 201,376.5C 201.875,378.513 203.209,378.513 205,376.5C 205.739,377.574 206.739,378.241 208,378.5C 213.38,377.601 217.547,374.934 220.5,370.5 Z"/></g>
<g><path style="opacity:1" fill="#888888" d="M 58.5,366.5 C 60.256,367.552 60.9227,369.219 60.5,371.5C 59.5,371.5 58.5,371.5 57.5,371.5C 57.366,369.708 57.6993,368.042 58.5,366.5 Z"/></g>
<g><path style="opacity:1" fill="#b4060b" d="M 205.5,355.5 C 207.219,358.301 209.719,360.301 213,361.5C 214.553,366.169 213.22,369.503 209,371.5C 204.874,372.329 200.707,372.663 196.5,372.5C 194.958,371.699 193.292,371.366 191.5,371.5C 191.296,369.315 190.63,367.315 189.5,365.5C 190.126,364.471 190.959,363.471 192,362.5C 193.587,363.727 194.921,363.394 196,361.5C 196.718,362.451 197.551,362.617 198.5,362C 200.628,360.333 201.961,358.166 202.5,355.5C 203.527,356.791 204.527,356.791 205.5,355.5 Z"/></g>
<g><path style="opacity:1" fill="#848484" d="M 68.5,367.5 C 69.2389,367.369 69.9056,367.536 70.5,368C 66.5185,375.504 65.8519,375.338 68.5,367.5 Z"/></g>
<g><path style="opacity:1" fill="#949494" d="M 36.5,365.5 C 38.6138,366.36 39.7805,368.027 40,370.5C 40.5492,366.383 42.2159,365.716 45,368.5C 46.0847,366.343 47.2513,366.176 48.5,368C 47.0439,368.423 46.5439,369.256 47,370.5C 48.3333,369.833 49.3333,368.833 50,367.5C 50.5438,369.845 49.5438,371.179 47,371.5C 43.2154,371.461 39.382,371.461 35.5,371.5C 35.1667,371.333 34.8333,371.167 34.5,371C 35.464,369.275 36.1307,367.441 36.5,365.5 Z"/></g>
<g><path style="opacity:1" fill="#909090" d="M 89.5,365.5 C 91.1992,365.34 92.8659,365.506 94.5,366C 94.0426,366.414 93.7093,366.914 93.5,367.5C 94.8532,368.524 95.5198,369.857 95.5,371.5C 94.325,371.719 93.325,371.386 92.5,370.5C 90.703,369.305 89.703,367.638 89.5,365.5 Z"/></g>
<g><path style="opacity:1" fill="#d7d7d7" d="M 85.5,366.5 C 86.8333,367.833 86.8333,369.167 85.5,370.5C 81.5,369.167 81.5,367.833 85.5,366.5 Z"/></g>
<g><path style="opacity:1" fill="#848484" d="M 62.5,366.5 C 63.7562,366.461 64.7562,366.961 65.5,368C 63.9391,368.318 62.7724,369.151 62,370.5C 61.4209,369.072 61.5876,367.738 62.5,366.5 Z"/></g>
<g><path style="opacity:1" fill="#757575" d="M 85.5,366.5 C 81.5,367.833 81.5,369.167 85.5,370.5C 83.8466,371.799 82.3466,371.466 81,369.5C 80.2747,371.158 79.108,371.658 77.5,371C 80.1667,370.333 80.1667,369.667 77.5,369C 80.1667,368 80.1667,367 77.5,366C 79.108,365.342 80.2747,365.842 81,367.5C 82.3466,365.534 83.8466,365.201 85.5,366.5 Z"/></g>
<g><path style="opacity:1" fill="#111111" d="M 41.5,355.5 C 42.552,355.351 43.552,355.517 44.5,356C 43.1068,357.171 42.2735,358.671 42,360.5C 41.5065,358.866 41.3398,357.199 41.5,355.5 Z"/></g>
<g><path style="opacity:1" fill="#3b3b3b" d="M 9.5,224.5 C 10.1667,235.833 10.8333,247.167 11.5,258.5C 11.6667,334.501 11.5,410.501 11,486.5C 9.67716,399.172 9.17716,311.839 9.5,224.5 Z"/></g>
<g><path style="opacity:1" fill="#494949" d="M 11.5,258.5 C 10.8333,247.167 10.1667,235.833 9.5,224.5C 9.00842,169.083 9.50842,113.75 11,58.5C 11.5,125.166 11.6667,191.833 11.5,258.5 Z"/></g>
<g><path style="opacity:1" fill="#999999" d="M 268.5,537.5 C 268.5,538.167 268.5,538.833 268.5,539.5C 268.582,557.189 259.915,567.356 242.5,570C 227.499,570.468 212.499,570.968 197.5,571.5C 143.504,570.73 89.5041,570.23 35.5,570C 23.0055,569.969 14.0055,564.469 8.5,553.5C 7.67131,550.531 7.50465,547.531 8,544.5C 8.23209,545.737 8.73209,546.737 9.5,547.5C 12.3513,557.851 19.0179,564.351 29.5,567C 99.1667,567.667 168.833,567.667 238.5,567C 255.72,565.946 264.72,556.78 265.5,539.5C 265.833,539.5 266.167,539.5 266.5,539.5C 266.34,541.199 266.506,542.866 267,544.5C 267.186,541.964 267.686,539.631 268.5,537.5 Z"/></g>
</svg>
