<?xml version="1.0" encoding="UTF-8"?>
<!DOCTYPE svg PUBLIC "-//W3C//DTD SVG 1.1//EN" "http://www.w3.org/Graphics/SVG/1.1/DTD/svg11.dtd">
<svg xmlns="http://www.w3.org/2000/svg" version="1.1" width="272px" height="583px" style="shape-rendering:geometricPrecision; text-rendering:geometricPrecision; image-rendering:optimizeQuality; fill-rule:evenodd; clip-rule:evenodd" xmlns:xlink="http://www.w3.org/1999/xlink">
<g><path style="opacity:1" fill="#d4d4d4" d="M 30.5,14.5 C 32.9479,13.5269 35.6146,13.1936 38.5,13.5C 106.834,13.3333 175.167,13.5 243.5,14C 245.608,14.3599 247.608,15.0266 249.5,16C 248.906,16.4643 248.239,16.631 247.5,16.5C 245.194,16.0074 242.861,15.6741 240.5,15.5C 239.432,14.5655 238.099,14.2322 236.5,14.5C 167.833,14.5 99.1667,14.5 30.5,14.5 Z"/></g>
<g><path style="opacity:1" fill="#5d5d5d" d="M 236.5,14.5 C 238.099,14.2322 239.432,14.5655 240.5,15.5C 237.389,16.9444 234.056,17.7777 230.5,18C 170.833,18.6667 111.167,18.6667 51.5,18C 47.4159,17.769 43.4159,17.1024 39.5,16C 45.8246,15.5005 52.1579,15.3338 58.5,15.5C 59.6085,16.29 60.9419,16.79 62.5,17C 117.167,17.6667 171.833,17.6667 226.5,17C 227.737,16.7679 228.737,16.2679 229.5,15.5C 232.059,15.8016 234.393,15.4682 236.5,14.5 Z"/></g>
<g><path style="opacity:1" fill="#080808" d="M 260.5,41.5 C 260.5,107.5 260.5,173.5 260.5,239.5C 260.5,341.167 260.5,442.833 260.5,544.5C 258.497,556.003 251.831,563.169 240.5,566C 170.167,566.667 99.8333,566.667 29.5,566C 19.7779,563.945 13.6113,558.112 11,548.5C 10.3333,377.5 10.3333,206.5 11,35.5C 13.4351,28.0657 18.2684,22.899 25.5,20C 98.1667,19.3333 170.833,19.3333 243.5,20C 253.809,23.4778 259.476,30.6445 260.5,41.5 Z"/></g>
<g><path style="opacity:0.761" fill="#4d4d4d" d="M 257.5,19.5 C 259.587,20.5846 260.92,22.2512 261.5,24.5C 259.413,23.4154 258.08,21.7488 257.5,19.5 Z"/></g>
<g><path style="opacity:1" fill="#fdfdfd" d="M 26.5,22.5 C 98.8341,22.3333 171.167,22.5 243.5,23C 248.541,25.2554 252.375,28.7554 255,33.5C 256.663,205.111 256.996,376.778 256,548.5C 254.14,555.693 249.64,560.193 242.5,562C 170.833,562.667 99.1667,562.667 27.5,562C 20.5993,559.432 16.0993,554.598 14,547.5C 13.3333,376.833 13.3333,206.167 14,35.5C 17.0248,29.9769 21.1915,25.6436 26.5,22.5 Z"/></g>
<g><path style="opacity:0.949" fill="#b9b9b9" d="M 38.5,13.5 C 38.5,13.1667 38.5,12.8333 38.5,12.5C 107.501,12.3333 176.501,12.5 245.5,13C 250.299,13.8959 254.299,16.0626 257.5,19.5C 258.08,21.7488 259.413,23.4154 261.5,24.5C 265.017,29.8568 266.85,35.8568 267,42.5C 267.177,65.2392 267.677,87.9059 268.5,110.5C 269.033,132.91 268.366,155.243 266.5,177.5C 265.851,191.541 266.518,205.208 268.5,218.5C 268.5,218.833 268.5,219.167 268.5,219.5C 266.669,326.486 266.002,433.486 266.5,540.5C 265.686,542.631 265.186,544.964 265,547.5C 264.506,545.866 264.34,544.199 264.5,542.5C 264.833,373.666 264.5,204.999 263.5,36.5C 261.492,27.1597 256.158,20.4931 247.5,16.5C 248.239,16.631 248.906,16.4643 249.5,16C 247.608,15.0266 245.608,14.3599 243.5,14C 175.167,13.5 106.834,13.3333 38.5,13.5 Z"/></g>
<g><path style="opacity:0.794" fill="#bbbbbb" d="M 38.5,12.5 C 38.5,12.8333 38.5,13.1667 38.5,13.5C 35.6146,13.1936 32.9479,13.5269 30.5,14.5C 16.8645,16.8021 8.8645,24.8021 6.5,38.5C 6.16633,207.669 5.16633,376.669 3.5,545.5C 3.33333,376.166 3.5,206.833 4,37.5C 7.733,18.6156 19.233,10.2823 38.5,12.5 Z"/></g>
<g><path style="opacity:1" fill="#717171" d="M 6.5,38.5 C 6.5,47.5 6.5,56.5 6.5,65.5C 6.5,130.5 6.5,195.5 6.5,260.5C 6.1832,357.18 6.51654,453.847 7.5,550.5C 6.73209,549.737 6.23209,548.737 6,547.5C 5.39845,550.221 5.56512,552.887 6.5,555.5C 4.28781,552.679 3.28781,549.345 3.5,545.5C 5.16633,376.669 6.16633,207.669 6.5,38.5 Z"/></g>
<g><path style="opacity:1" fill="#4b4b4b" d="M 9.5,261.5 C 8.66943,250.341 8.16943,239.007 8,227.5C 7.50001,173.501 7.33334,119.501 7.5,65.5C 7.70858,64.0783 8.20858,62.745 9,61.5C 9.5,128.166 9.66666,194.833 9.5,261.5 Z"/></g>
<g><path style="opacity:1" fill="#839388" d="M 126.5,95.5 C 127.609,94.71 128.942,94.21 130.5,94C 129.915,92.6976 129.249,91.531 128.5,90.5C 129.279,82.5615 133.612,79.3948 141.5,81C 148.199,85.1875 149.199,90.5208 144.5,97C 142.487,98.2572 140.321,99.0905 138,99.5C 134.155,97.9841 130.322,96.6508 126.5,95.5 Z"/></g>
<g><path style="opacity:1" fill="#43644b" d="M 155.5,107.5 C 156.653,113.932 154.986,119.432 150.5,124C 148.913,124.862 147.246,125.529 145.5,126C 137.167,126.667 128.833,126.667 120.5,126C 119.183,116.56 119.183,107.06 120.5,97.5C 122.323,96.2528 124.323,95.5861 126.5,95.5C 130.322,96.6508 134.155,97.9841 138,99.5C 140.321,99.0905 142.487,98.2572 144.5,97C 149.199,90.5208 148.199,85.1875 141.5,81C 133.612,79.3948 129.279,82.5615 128.5,90.5C 125.5,91.1667 122.5,91.8333 119.5,92.5C 119.5,87.8333 119.5,83.1667 119.5,78.5C 119.611,77.8826 119.944,77.3826 120.5,77C 128.5,76.3333 136.5,76.3333 144.5,77C 155.105,82.7745 156.439,90.4412 148.5,100C 151.739,101.736 154.073,104.236 155.5,107.5 Z"/></g>
<g><path style="opacity:1" fill="#ecedec" d="M 134.5,82.5 C 142.161,81.663 145.661,84.9964 145,92.5C 141.455,98.2087 137.121,98.8754 132,94.5C 129.511,89.7565 130.345,85.7565 134.5,82.5 Z"/></g>
<g><path style="opacity:1" fill="#bcc2be" d="M 134.5,101.5 C 136.606,102.783 138.94,103.616 141.5,104C 137.931,106.363 135.598,105.529 134.5,101.5 Z"/></g>
<g><path style="opacity:1" fill="#f1f1f1" d="M 131.5,106.5 C 136.099,106.2 140.599,106.533 145,107.5C 146.766,116.566 143.266,120.399 134.5,119C 130.769,115.425 129.769,111.258 131.5,106.5 Z"/></g>
<g><path style="opacity:0.285" fill="#7c7c7c" d="M 268.5,110.5 C 269.826,132.736 269.826,155.069 268.5,177.5C 267.833,177.5 267.167,177.5 266.5,177.5C 268.366,155.243 269.033,132.91 268.5,110.5 Z"/></g>
<g><path style="opacity:1" fill="#4d4d4d" d="M 263.5,36.5 C 264.5,204.999 264.833,373.666 264.5,542.5C 264.167,542.5 263.833,542.5 263.5,542.5C 263.5,481.167 263.5,419.833 263.5,358.5C 263.667,304.166 263.5,249.832 263,195.5C 262.914,210.367 262.081,225.033 260.5,239.5C 260.5,173.5 260.5,107.5 260.5,41.5C 261.384,44.0232 262.218,46.6898 263,49.5C 263.499,45.1794 263.666,40.8461 263.5,36.5 Z"/></g>
<g><path style="opacity:1" fill="#c7c9c8" d="M 119.5,78.5 C 119.5,83.1667 119.5,87.8333 119.5,92.5C 122.5,91.8333 125.5,91.1667 128.5,90.5C 129.249,91.531 129.915,92.6976 130.5,94C 128.942,94.21 127.609,94.71 126.5,95.5C 124.323,95.5861 122.323,96.2528 120.5,97.5C 119.183,107.06 119.183,116.56 120.5,126C 128.833,126.667 137.167,126.667 145.5,126C 147.246,125.529 148.913,124.862 150.5,124C 154.986,119.432 156.653,113.932 155.5,107.5C 156.648,111.981 156.815,116.648 156,121.5C 155.208,123.587 154.041,125.421 152.5,127C 142.107,130.354 131.44,131.354 120.5,130C 119.874,129.25 119.374,128.416 119,127.5C 118.172,110.995 118.338,94.6615 119.5,78.5 Z"/></g>
<g><path style="opacity:1" fill="#131313" d="M 105.5,143.5 C 108.365,143.055 110.865,143.722 113,145.5C 113.684,147.479 113.184,149.146 111.5,150.5C 112.04,151.748 112.707,152.915 113.5,154C 112.552,154.483 111.552,154.649 110.5,154.5C 109.399,149.296 108.065,149.296 106.5,154.5C 105.511,150.893 105.177,147.226 105.5,143.5 Z"/></g>
<g><path style="opacity:1" fill="#434343" d="M 133.5,143.5 C 134.675,143.281 135.675,143.614 136.5,144.5C 134.948,145.798 133.948,145.465 133.5,143.5 Z"/></g>
<g><path style="opacity:1" fill="#e0e0e0" d="M 107.5,145.5 C 108.833,145.5 110.167,145.5 111.5,145.5C 111.833,148.5 110.5,149.833 107.5,149.5C 107.5,148.167 107.5,146.833 107.5,145.5 Z"/></g>
<g><path style="opacity:1" fill="#292929" d="M 147.5,145.5 C 151.902,146.054 152.569,147.887 149.5,151C 149.844,152.365 150.511,153.532 151.5,154.5C 150.349,155.731 149.183,155.731 148,154.5C 147.853,151.89 147.019,149.556 145.5,147.5C 146.243,146.818 146.909,146.151 147.5,145.5 Z"/></g>
<g><path style="opacity:1" fill="#636363" d="M 134.5,146.5 C 135.765,147.514 136.431,149.014 136.5,151C 136.167,152.5 135.833,154 135.5,155.5C 134.516,152.572 134.183,149.572 134.5,146.5 Z"/></g>
<g><path style="opacity:1" fill="#1e1e1e" d="M 162.5,147.5 C 164.153,148.605 165.82,148.771 167.5,148C 165.332,149.965 163.998,152.465 163.5,155.5C 162.52,152.914 162.187,150.247 162.5,147.5 Z"/></g>
<g><path style="opacity:1" fill="#1e1e1e" d="M 117.5,146.5 C 120.833,146.5 122.5,148.167 122.5,151.5C 120.712,151.215 119.045,151.548 117.5,152.5C 119.108,153.242 120.775,153.409 122.5,153C 118.736,156.726 116.069,156.059 114.5,151C 115.315,149.357 116.315,147.857 117.5,146.5 Z"/></g>
<g><path style="opacity:1" fill="#1d1d1d" d="M 155.5,146.5 C 158.833,146.5 160.5,148.167 160.5,151.5C 158.712,151.215 157.045,151.548 155.5,152.5C 157.108,153.242 158.775,153.409 160.5,153C 156.736,156.726 154.069,156.059 152.5,151C 153.315,149.357 154.315,147.857 155.5,146.5 Z"/></g>
<g><path style="opacity:1" fill="#c3c3c3" d="M 117.5,148.5 C 118.675,148.281 119.675,148.614 120.5,149.5C 118.948,150.798 117.948,150.465 117.5,148.5 Z"/></g>
<g><path style="opacity:1" fill="#b6b6b6" d="M 155.5,148.5 C 156.675,148.281 157.675,148.614 158.5,149.5C 157.277,150.614 155.944,150.781 154.5,150C 155.056,149.617 155.389,149.117 155.5,148.5 Z"/></g>
<g><path style="opacity:1" fill="#1f1f1f" d="M 139.5,146.5 C 141.484,146.383 143.15,147.05 144.5,148.5C 143.167,148.833 141.833,149.167 140.5,149.5C 142.435,150.068 143.768,151.235 144.5,153C 142.377,156.248 140.044,156.248 137.5,153C 139.313,153.046 140.979,152.88 142.5,152.5C 141.311,151.571 139.978,151.238 138.5,151.5C 138.366,149.708 138.699,148.042 139.5,146.5 Z"/></g>
<g><path style="opacity:1" fill="#252525" d="M 126.5,146.5 C 132.35,145.644 133.684,147.478 130.5,152C 125.167,152.667 125.167,153.333 130.5,154C 131.833,155.333 131.833,156.667 130.5,158C 128.527,158.495 126.527,158.662 124.5,158.5C 124.833,155.501 124.833,152.668 124.5,150C 124.978,148.697 125.645,147.531 126.5,146.5 Z"/></g>
<g><path style="opacity:1" fill="#dedede" d="M 126.5,148.5 C 127.675,148.281 128.675,148.614 129.5,149.5C 127.948,150.798 126.948,150.465 126.5,148.5 Z"/></g>
<g><path style="opacity:1" fill="#c8c8c8" d="M 126.5,155.5 C 127.675,155.281 128.675,155.614 129.5,156.5C 127.948,157.798 126.948,157.465 126.5,155.5 Z"/></g>
<g><path style="opacity:0.304" fill="#4f4f4f" d="M 266.5,177.5 C 267.167,177.5 267.833,177.5 268.5,177.5C 267.167,191.167 267.167,204.833 268.5,218.5C 266.518,205.208 265.851,191.541 266.5,177.5 Z"/></g>
<g><path style="opacity:1" fill="#323232" d="M 36.5,179.5 C 37.4614,181.265 37.7947,183.265 37.5,185.5C 38.5,185.5 39.5,185.5 40.5,185.5C 40.2011,183.396 40.5344,181.396 41.5,179.5C 43.902,184.845 42.2354,187.179 36.5,186.5C 36.5,184.167 36.5,181.833 36.5,179.5 Z"/></g>
<g><path style="opacity:1" fill="#404040" d="M 55.5,181.5 C 58.5184,181.335 61.5184,181.502 64.5,182C 65.5536,183.388 65.7203,184.888 65,186.5C 63.4772,181.32 61.9772,181.32 60.5,186.5C 59.7189,185.271 59.2189,183.938 59,182.5C 56.6983,187.913 55.5317,187.58 55.5,181.5 Z"/></g>
<g><path style="opacity:1" fill="#4e4e4e" d="M 67.5,181.5 C 69.9477,181.085 71.2811,182.085 71.5,184.5C 69.5841,188.327 67.9174,188.327 66.5,184.5C 66.685,183.416 67.0183,182.416 67.5,181.5 Z"/></g>
<g><path style="opacity:1" fill="#282828" d="M 72.5,181.5 C 75.1873,181.336 77.854,181.503 80.5,182C 78.2769,182.652 77.1102,184.152 77,186.5C 76.0914,181.27 74.9247,181.27 73.5,186.5C 72.5481,184.955 72.2148,183.288 72.5,181.5 Z"/></g>
<g><path style="opacity:1" fill="#3d3d3d" d="M 83.5,181.5 C 89.3443,181.98 89.6776,183.147 84.5,185C 87.7423,185.283 88.0756,186.117 85.5,187.5C 82.6095,186.163 81.9428,184.163 83.5,181.5 Z"/></g>
<g><path style="opacity:1" fill="#4f4f4f" d="M 44.5,181.5 C 45.5,181.5 46.5,181.5 47.5,181.5C 47.3505,182.552 47.5172,183.552 48,184.5C 49.9586,181.211 52.1252,180.877 54.5,183.5C 53.2713,184.281 51.938,184.781 50.5,185C 51.5,185.333 52.5,185.667 53.5,186C 50.5563,185.191 47.8897,185.691 45.5,187.5C 42.9244,186.117 43.2577,185.283 46.5,185C 43.8101,184.665 43.1435,183.499 44.5,181.5 Z"/></g>
<g><path style="opacity:1" fill="#9b9b9b" d="M 42.5,193.5 C 104.999,192.335 167.665,192.168 230.5,193C 231.416,193.278 232.082,193.778 232.5,194.5C 169.196,193.511 105.863,193.178 42.5,193.5 Z"/></g>
<g><path style="opacity:1" fill="#e9e9e9" d="M 42.5,193.5 C 105.863,193.178 169.196,193.511 232.5,194.5C 234.017,194.511 235.184,195.177 236,196.5C 240.667,204.5 240.667,212.5 236,220.5C 234.512,222.16 232.679,223.16 230.5,223.5C 167.125,223.826 103.792,223.493 40.5,222.5C 36.7921,221.113 34.4588,218.446 33.5,214.5C 34.327,209.654 34.9937,204.654 35.5,199.5C 36.5778,196.092 38.9111,194.092 42.5,193.5 Z"/></g>
<g><path style="opacity:1" fill="#828282" d="M 35.5,199.5 C 34.9937,204.654 34.327,209.654 33.5,214.5C 33.3343,210.154 33.501,205.821 34,201.5C 34.2784,200.584 34.7784,199.918 35.5,199.5 Z"/></g>
<g><path style="opacity:0.344" fill="#696969" d="M 268.5,219.5 C 269.166,225.491 269.5,231.657 269.5,238C 269.63,244.935 269.13,251.768 268,258.5C 267.833,353.668 267.333,448.668 266.5,543.5C 266.5,542.5 266.5,541.5 266.5,540.5C 266.002,433.486 266.669,326.486 268.5,219.5 Z"/></g>
<g><path style="opacity:1" fill="#9b9b9b" d="M 40.5,222.5 C 103.792,223.493 167.125,223.826 230.5,223.5C 167.668,224.665 104.668,224.832 41.5,224C 40.944,223.617 40.6107,223.117 40.5,222.5 Z"/></g>
<g><path style="opacity:1" fill="#3b3b3b" d="M 6.5,65.5 C 6.83333,65.5 7.16667,65.5 7.5,65.5C 7.33334,119.501 7.50001,173.501 8,227.5C 8.16943,239.007 8.66943,250.341 9.5,261.5C 9.66666,337.501 9.5,413.501 9,489.5C 8.04397,413.003 7.21064,336.67 6.5,260.5C 6.5,195.5 6.5,130.5 6.5,65.5 Z"/></g>
<g><path style="opacity:1" fill="#111111" d="M 36.5,231.5 C 42.3239,231.347 42.6572,232.013 37.5,233.5C 38.376,234.251 39.376,234.751 40.5,235C 36.5,236 36.5,237 40.5,238C 39.2068,238.49 37.8734,238.657 36.5,238.5C 36.5,236.167 36.5,233.833 36.5,231.5 Z"/></g>
<g><path style="opacity:1" fill="#3f403f" d="M 61.5,231.5 C 62.7251,232.152 63.3917,233.319 63.5,235C 63.1667,236.167 62.8333,237.333 62.5,238.5C 61.5258,236.257 61.1924,233.924 61.5,231.5 Z"/></g>
<g><path style="opacity:1" fill="#595959" d="M 58.5,233.5 C 59.6935,233.97 60.3601,234.97 60.5,236.5C 60.1667,237.5 59.8333,238.5 59.5,239.5C 58.5344,237.604 58.2011,235.604 58.5,233.5 Z"/></g>
<g><path style="opacity:1" fill="#2c2c2c" d="M 42.5,233.5 C 45.1873,233.336 47.854,233.503 50.5,234C 51.5536,235.388 51.7203,236.888 51,238.5C 49.6667,233.167 48.3333,233.167 47,238.5C 45.6667,233.167 44.3333,233.167 43,238.5C 42.5065,236.866 42.3398,235.199 42.5,233.5 Z"/></g>
<g><path style="opacity:1" fill="#3e3e3e" d="M 53.5,233.5 C 55.9477,233.085 57.2811,234.085 57.5,236.5C 56.1713,239.695 54.5046,240.028 52.5,237.5C 52.7876,236.139 53.121,234.806 53.5,233.5 Z"/></g>
<g><path style="opacity:1" fill="#9b9b9b" d="M 42.5,245.5 C 104.999,244.335 167.665,244.168 230.5,245C 231.416,245.278 232.082,245.778 232.5,246.5C 169.196,245.511 105.863,245.178 42.5,245.5 Z"/></g>
<g><path style="opacity:1" fill="#e9e9e9" d="M 42.5,245.5 C 105.863,245.178 169.196,245.511 232.5,246.5C 234.017,246.511 235.184,247.177 236,248.5C 241.048,257.41 240.548,265.91 234.5,274C 233.255,274.791 231.922,275.291 230.5,275.5C 167.832,275.667 105.166,275.5 42.5,275C 41.255,274.209 39.9217,273.709 38.5,273.5C 36.1099,271.733 34.4432,269.4 33.5,266.5C 34.327,261.654 34.9937,256.654 35.5,251.5C 36.5778,248.092 38.9111,246.092 42.5,245.5 Z"/></g>
<g><path style="opacity:1" fill="#818181" d="M 35.5,251.5 C 34.9937,256.654 34.327,261.654 33.5,266.5C 33.3343,262.154 33.501,257.821 34,253.5C 34.2784,252.584 34.7784,251.918 35.5,251.5 Z"/></g>
<g><path style="opacity:1" fill="#cccccc" d="M 38.5,273.5 C 39.9217,273.709 41.255,274.209 42.5,275C 105.166,275.5 167.832,275.667 230.5,275.5C 229.737,276.268 228.737,276.768 227.5,277C 166.5,277.667 105.5,277.667 44.5,277C 41.9746,276.576 39.9746,275.41 38.5,273.5 Z"/></g>
<g><path style="opacity:1" fill="#040404" d="M 40.5,288.5 C 39.5,288.5 38.5,288.5 37.5,288.5C 37.5,289.833 37.5,291.167 37.5,292.5C 36.3391,292.589 36.0058,290.922 36.5,287.5C 38.099,287.232 39.4324,287.566 40.5,288.5 Z"/></g>
<g><path style="opacity:1" fill="#434343" d="M 43.5,289.5 C 45.9477,289.085 47.2811,290.085 47.5,292.5C 46.1713,295.695 44.5046,296.028 42.5,293.5C 42.7876,292.139 43.121,290.806 43.5,289.5 Z"/></g>
<g><path style="opacity:1" fill="#282828" d="M 72.5,294.5 C 72.7615,293.208 72.2615,291.875 71,290.5C 69.7385,291.875 69.2385,293.208 69.5,294.5C 67.6586,290.531 68.8253,289.197 73,290.5C 73.765,292.066 73.5983,293.399 72.5,294.5 Z"/></g>
<g><path style="opacity:1" fill="#777777" d="M 79.5,290.5 C 79.5,291.5 79.5,292.5 79.5,293.5C 78.8485,292.909 78.1818,292.243 77.5,291.5C 75.3251,296.363 74.3251,295.697 74.5,289.5C 76.2915,289.366 77.9582,289.699 79.5,290.5 Z"/></g>
<g><path style="opacity:1" fill="#222222" d="M 79.5,293.5 C 79.5,292.5 79.5,291.5 79.5,290.5C 81.4085,290.117 82.9085,289.117 84,287.5C 85.1018,290.905 84.2685,293.572 81.5,295.5C 80.4777,295.145 79.811,294.478 79.5,293.5 Z"/></g>
<g><path style="opacity:1" fill="#5f5f5f" d="M 40.5,288.5 C 42.0348,291.33 41.0348,292.663 37.5,292.5C 37.5,291.167 37.5,289.833 37.5,288.5C 38.5,288.5 39.5,288.5 40.5,288.5 Z"/></g>
<g><path style="opacity:1" fill="#464646" d="M 59.5,289.5 C 60.4584,289.953 61.2917,290.619 62,291.5C 63,288.833 64,288.833 65,291.5C 65.6667,290.833 66.3333,290.167 67,289.5C 67.4424,291.684 66.9424,293.684 65.5,295.5C 64.4968,293.458 63.1634,293.125 61.5,294.5C 60.0499,293.15 59.3832,291.484 59.5,289.5 Z"/></g>
<g><path style="opacity:1" fill="#ededed" d="M 81.5,290.5 C 83.6246,291.368 83.7913,292.368 82,293.5C 80.3167,292.824 80.1501,291.824 81.5,290.5 Z"/></g>
<g><path style="opacity:1" fill="#515151" d="M 54.5,289.5 C 56.1033,289.312 57.4366,289.812 58.5,291C 57.3595,291.741 57.3595,292.575 58.5,293.5C 57.4209,295.876 56.0875,296.043 54.5,294C 55.1667,293.667 55.8333,293.333 56.5,293C 55.0267,292.29 54.3601,291.124 54.5,289.5 Z"/></g>
<g><path style="opacity:1" fill="#515151" d="M 49.5,289.5 C 50.5,289.5 51.5,289.5 52.5,289.5C 52.4208,290.93 52.7542,292.264 53.5,293.5C 52.0813,295.915 50.4146,296.081 48.5,294C 50.9913,293.374 50.9913,292.541 48.5,291.5C 48.8627,290.817 49.1961,290.15 49.5,289.5 Z"/></g>
<g><path style="opacity:1" fill="#8d8d8d" d="M 72.5,294.5 C 71.5,295.833 70.5,295.833 69.5,294.5C 69.2385,293.208 69.7385,291.875 71,290.5C 72.2615,291.875 72.7615,293.208 72.5,294.5 Z"/></g>
<g><path style="opacity:1" fill="#767676" d="M 229.5,301.5 C 166.471,301.178 103.471,301.511 40.5,302.5C 40.9175,301.778 41.5842,301.278 42.5,301C 105.001,300.168 167.335,300.335 229.5,301.5 Z"/></g>
<g><path style="opacity:1" fill="#e9e9e9" d="M 229.5,301.5 C 234.383,302.546 237.55,305.546 239,310.5C 239.667,314.5 239.667,318.5 239,322.5C 238.8,324.32 237.966,325.653 236.5,326.5C 234.66,328.168 232.66,329.668 230.5,331C 167.833,331.667 105.167,331.667 42.5,331C 41.255,330.209 39.9217,329.709 38.5,329.5C 36.0178,328.337 34.6845,326.337 34.5,323.5C 34.3243,318.12 34.6576,312.787 35.5,307.5C 36.1667,304.833 37.8333,303.167 40.5,302.5C 103.471,301.511 166.471,301.178 229.5,301.5 Z"/></g>
<g><path style="opacity:1" fill="#828282" d="M 35.5,307.5 C 34.6576,312.787 34.3243,318.12 34.5,323.5C 33.3516,319.019 33.1849,314.352 34,309.5C 34.2784,308.584 34.7784,307.918 35.5,307.5 Z"/></g>
<g><path style="opacity:1" fill="#3e3e3e" d="M 263.5,358.5 C 262.294,420.497 261.294,482.497 260.5,544.5C 260.5,442.833 260.5,341.167 260.5,239.5C 262.081,225.033 262.914,210.367 263,195.5C 263.5,249.832 263.667,304.166 263.5,358.5 Z"/></g>
<g><path style="opacity:1" fill="#b7b7b7" d="M 236.5,326.5 C 235.233,330.257 232.566,332.424 228.5,333C 167.167,333.667 105.833,333.667 44.5,333C 41.9746,332.576 39.9746,331.41 38.5,329.5C 39.9217,329.709 41.255,330.209 42.5,331C 105.167,331.667 167.833,331.667 230.5,331C 232.66,329.668 234.66,328.168 236.5,326.5 Z"/></g>
<g><path style="opacity:1" fill="#272727" d="M 128.5,340.5 C 129.473,342.948 129.806,345.615 129.5,348.5C 127.801,348.66 126.134,348.494 124.5,348C 122.991,344.331 124.324,342.831 128.5,343.5C 128.5,342.5 128.5,341.5 128.5,340.5 Z"/></g>
<g><path style="opacity:1" fill="#272727" d="M 37.5,340.5 C 39.6648,340.116 41.3315,340.783 42.5,342.5C 41.1125,342.807 39.4458,342.807 37.5,342.5C 36.9522,346.795 38.6189,348.295 42.5,347C 40.7979,348.718 38.9645,348.885 37,347.5C 36.2967,345.071 36.4634,342.738 37.5,340.5 Z"/></g>
<g><path style="opacity:1" fill="#323232" d="M 56.5,344.5 C 57.8073,340.366 58.8073,340.033 59.5,343.5C 60.5,343.5 61.5,343.5 62.5,343.5C 62.2912,349.261 61.4578,349.594 60,344.5C 59.0013,349.535 57.8347,349.535 56.5,344.5 Z"/></g>
<g><path style="opacity:1" fill="#3f3f3f" d="M 56.5,344.5 C 56.0583,349.694 55.0583,349.694 53.5,344.5C 51.5981,349.706 50.5981,349.373 50.5,343.5C 52.6208,343.325 54.6208,343.659 56.5,344.5 Z"/></g>
<g><path style="opacity:1" fill="#3e3e3e" d="M 63.5,343.5 C 64.8734,343.343 66.2068,343.51 67.5,344C 66.1414,345.204 65.1414,346.704 64.5,348.5C 63.5481,346.955 63.2148,345.288 63.5,343.5 Z"/></g>
<g><path style="opacity:1" fill="#363636" d="M 68.5,343.5 C 71.1873,343.336 73.854,343.503 76.5,344C 77.7472,345.494 77.7472,346.994 76.5,348.5C 75.1667,343.167 73.8333,343.167 72.5,348.5C 71.0753,343.27 69.9086,343.27 69,348.5C 68.5065,346.866 68.3398,345.199 68.5,343.5 Z"/></g>
<g><path style="opacity:1" fill="#464646" d="M 119.5,343.5 C 120.552,343.351 121.552,343.517 122.5,344C 120.772,350.048 119.772,349.882 119.5,343.5 Z"/></g>
<g><path style="opacity:1" fill="#444444" d="M 81.5,340.5 C 85.6759,339.831 87.0093,341.331 85.5,345C 84.552,345.483 83.552,345.649 82.5,345.5C 81.7255,349.444 81.0589,349.277 80.5,345C 80.6052,343.408 80.9386,341.908 81.5,340.5 Z"/></g>
<g><path style="opacity:1" fill="#fbfbfb" d="M 82.5,342.5 C 84.337,342.639 84.6704,343.306 83.5,344.5C 82.7025,344.043 82.3691,343.376 82.5,342.5 Z"/></g>
<g><path style="opacity:1" fill="#f4f4f4" d="M 125.5,344.5 C 127.465,344.948 127.798,345.948 126.5,347.5C 125.614,346.675 125.281,345.675 125.5,344.5 Z"/></g>
<g><path style="opacity:1" fill="#303030" d="M 88.5,342.5 C 91.7756,343.122 93.1089,345.122 92.5,348.5C 90.8333,348.5 89.1667,348.5 87.5,348.5C 87.5,347.5 87.5,346.5 87.5,345.5C 91.449,345.307 91.449,344.807 87.5,344C 88.056,343.617 88.3893,343.117 88.5,342.5 Z"/></g>
<g><path style="opacity:1" fill="#373737" d="M 114.5,342.5 C 117.966,343.109 118.966,344.942 117.5,348C 114.783,349.033 112.949,348.2 112,345.5C 110.667,349.5 109.333,349.5 108,345.5C 107.418,348.668 106.418,349.001 105,346.5C 104.42,343.453 104.753,343.119 106,345.5C 107.512,343.043 108.846,343.043 110,345.5C 111.57,344.451 113.07,343.451 114.5,342.5 Z"/></g>
<g><path style="opacity:1" fill="#f1f1f1" d="M 114.5,344.5 C 116.465,344.948 116.798,345.948 115.5,347.5C 114.614,346.675 114.281,345.675 114.5,344.5 Z"/></g>
<g><path style="opacity:1" fill="#282828" d="M 45.5,347.5 C 44.5655,346.432 44.2322,345.099 44.5,343.5C 48.6759,342.831 50.0093,344.331 48.5,348C 47.2506,348.74 46.2506,348.573 45.5,347.5 Z"/></g>
<g><path style="opacity:1" fill="#efefef" d="M 45.5,347.5 C 45.281,346.325 45.6143,345.325 46.5,344.5C 47.7979,346.052 47.4646,347.052 45.5,347.5 Z"/></g>
<g><path style="opacity:1" fill="#5a5a5a" d="M 100.5,342.5 C 104.326,343.48 104.326,344.313 100.5,345C 101.448,345.483 102.448,345.649 103.5,345.5C 103.5,346.5 103.5,347.5 103.5,348.5C 98.0261,348.697 97.0261,346.697 100.5,342.5 Z"/></g>
<g><path style="opacity:1" fill="#303030" d="M 94.5,342.5 C 97.5239,342.947 97.8572,343.78 95.5,345C 96.9733,345.71 97.6399,346.876 97.5,348.5C 96.0222,348.762 94.6888,348.429 93.5,347.5C 93.5786,345.872 93.9119,344.205 94.5,342.5 Z"/></g>
<g><path style="opacity:1" fill="#a6a6a6" d="M 237.5,378.5 C 238.913,373.114 238.746,367.781 237,362.5C 234.889,358.056 231.389,355.556 226.5,355C 164.805,354.178 103.138,354.345 41.5,355.5C 41.9175,354.778 42.5842,354.278 43.5,354C 105.167,353.333 166.833,353.333 228.5,354C 236.363,356.378 240.029,361.711 239.5,370C 239.64,373.15 238.973,375.983 237.5,378.5 Z"/></g>
<g><path style="opacity:1" fill="#e9e9e9" d="M 237.5,378.5 C 237.167,382.167 235.167,384.167 231.5,384.5C 168.862,385.656 106.195,385.822 43.5,385C 42.255,384.209 40.9217,383.709 39.5,383.5C 37.1667,383.167 35.8333,381.833 35.5,379.5C 34.6576,374.213 34.3243,368.88 34.5,363.5C 35.3931,359.605 37.7264,356.938 41.5,355.5C 103.138,354.345 164.805,354.178 226.5,355C 231.389,355.556 234.889,358.056 237,362.5C 238.746,367.781 238.913,373.114 237.5,378.5 Z"/></g>
<g><path style="opacity:1" fill="#2a2a2a" d="M 30.5,14.5 C 99.1667,14.5 167.833,14.5 236.5,14.5C 234.393,15.4682 232.059,15.8016 229.5,15.5C 172.5,15.5 115.5,15.5 58.5,15.5C 52.1579,15.3338 45.8246,15.5005 39.5,16C 43.4159,17.1024 47.4159,17.769 51.5,18C 111.167,18.6667 170.833,18.6667 230.5,18C 234.056,17.7777 237.389,16.9444 240.5,15.5C 242.861,15.6741 245.194,16.0074 247.5,16.5C 256.158,20.4931 261.492,27.1597 263.5,36.5C 263.666,40.8461 263.499,45.1794 263,49.5C 262.218,46.6898 261.384,44.0232 260.5,41.5C 259.476,30.6445 253.809,23.4778 243.5,20C 170.833,19.3333 98.1667,19.3333 25.5,20C 18.2684,22.899 13.4351,28.0657 11,35.5C 10.3333,206.5 10.3333,377.5 11,548.5C 13.6113,558.112 19.7779,563.945 29.5,566C 99.8333,566.667 170.167,566.667 240.5,566C 251.831,563.169 258.497,556.003 260.5,544.5C 261.294,482.497 262.294,420.497 263.5,358.5C 263.5,419.833 263.5,481.167 263.5,542.5C 262.72,559.78 253.72,568.946 236.5,570C 166.833,570.667 97.1667,570.667 27.5,570C 17.0179,567.351 10.3513,560.851 7.5,550.5C 6.51654,453.847 6.1832,357.18 6.5,260.5C 7.21064,336.67 8.04397,413.003 9,489.5C 9.5,413.501 9.66666,337.501 9.5,261.5C 9.66666,194.833 9.5,128.166 9,61.5C 8.20858,62.745 7.70858,64.0783 7.5,65.5C 7.16667,65.5 6.83333,65.5 6.5,65.5C 6.5,56.5 6.5,47.5 6.5,38.5C 8.8645,24.8021 16.8645,16.8021 30.5,14.5 Z"/></g>
<g><path style="opacity:1" fill="#646464" d="M 138.5,461.5 C 139.625,460.986 140.791,460.653 142,460.5C 142.49,461.793 142.657,463.127 142.5,464.5C 139.402,464.587 139.068,464.087 141.5,463C 140.473,462.487 139.473,461.987 138.5,461.5 Z"/></g>
<g><path style="opacity:1" fill="#a3a3a3" d="M 169.5,458.5 C 170.833,458.5 172.167,458.5 173.5,458.5C 173.934,461.166 172.934,462.333 170.5,462C 173.182,459.67 172.849,459.17 169.5,460.5C 168.269,461.651 168.269,462.817 169.5,464C 168.065,463.689 166.732,463.855 165.5,464.5C 164.262,460.689 163.596,460.689 163.5,464.5C 161.801,464.66 160.134,464.494 158.5,464C 160.037,462.89 160.703,461.39 160.5,459.5C 162.467,459.261 164.301,459.594 166,460.5C 167.302,459.915 168.469,459.249 169.5,458.5 Z"/></g>
<g><path style="opacity:1" fill="#aeaeae" d="M 144.5,459.5 C 147.926,460.074 151.26,460.074 154.5,459.5C 156.283,460.348 156.783,461.681 156,463.5C 155.692,462.692 155.192,462.025 154.5,461.5C 150.915,465.248 148.082,465.248 146,461.5C 143.451,463.841 142.951,463.174 144.5,459.5 Z"/></g>
<g><path style="opacity:1" fill="#8d8d8d" d="M 128.5,459.5 C 130.787,460.355 133.12,460.522 135.5,460C 136.747,461.494 136.747,462.994 135.5,464.5C 134.224,459.318 133.557,459.318 133.5,464.5C 128.58,465.585 126.913,463.918 128.5,459.5 Z"/></g>
<g><path style="opacity:1" fill="#787878" d="M 119.5,462.5 C 119.369,461.761 119.536,461.094 120,460.5C 121.333,460.5 122.667,460.5 124,460.5C 125.779,462.017 125.279,462.851 122.5,463C 124.595,463.556 124.762,464.056 123,464.5C 121.697,464.022 120.531,463.355 119.5,462.5 Z"/></g>
<g><path style="opacity:1" fill="#575757" d="M 103.5,461.5 C 104.465,462.721 104.298,464.054 103,465.5C 102.421,464.072 102.588,462.738 103.5,461.5 Z"/></g>
<g><path style="opacity:1" fill="#828282" d="M 78.5,458.5 C 80.7409,459.3 81.7409,460.966 81.5,463.5C 80.1779,463.33 79.0113,463.663 78,464.5C 77.8195,462.512 77.9862,460.512 78.5,458.5 Z"/></g>
<g><path style="opacity:1" fill="#acbbb0" d="M 176.5,458.5 C 177.163,460.042 177.83,461.709 178.5,463.5C 179.5,461.833 180.833,460.5 182.5,459.5C 184.416,460.248 186.416,460.248 188.5,459.5C 187.948,461.331 187.948,462.997 188.5,464.5C 186.585,467.151 185.085,466.817 184,463.5C 181.619,464.435 179.119,464.768 176.5,464.5C 176.5,462.5 176.5,460.5 176.5,458.5 Z"/></g>
<g><path style="opacity:1" fill="#8f8f8f" d="M 88.5,459.5 C 90.5184,460.623 92.5184,460.623 94.5,459.5C 95.4519,461.045 95.7852,462.712 95.5,464.5C 93.4004,464.523 91.5671,463.856 90,462.5C 87.3095,463.381 86.8095,462.381 88.5,459.5 Z"/></g>
<g><path style="opacity:1" fill="#909090" d="M 119.5,462.5 C 118.752,464.735 117.919,464.402 117,461.5C 116.517,462.448 116.351,463.448 116.5,464.5C 114.5,464.5 112.5,464.5 110.5,464.5C 110.318,459.206 109.818,459.206 109,464.5C 107.439,459.328 108.605,457.995 112.5,460.5C 114.101,459.835 115.601,459.501 117,459.5C 117.852,460.571 118.685,461.571 119.5,462.5 Z"/></g>
<g><path style="opacity:1" fill="#5a5a5a" d="M 97.5,463.5 C 96.0654,461.028 96.8987,459.362 100,458.5C 100.495,460.473 100.662,462.473 100.5,464.5C 99.209,464.737 98.209,464.404 97.5,463.5 Z"/></g>
<g><path style="opacity:1" fill="#fbfbfb" d="M 97.5,463.5 C 97.6395,461.663 98.3061,461.33 99.5,462.5C 99.0431,463.298 98.3764,463.631 97.5,463.5 Z"/></g>
<g><path style="opacity:1" fill="#dbdada" d="M 32.5,425.5 C 32.0692,431.023 32.7359,436.356 34.5,441.5C 35.6836,444.849 38.017,447.015 41.5,448C 103.5,448.667 165.5,448.667 227.5,448C 230.648,447.262 233.315,445.762 235.5,443.5C 234.641,446.452 232.641,448.285 229.5,449C 166.5,449.667 103.5,449.667 40.5,449C 35.707,447.509 32.5404,444.343 31,439.5C 30.3333,435.167 30.3333,430.833 31,426.5C 31.3826,425.944 31.8826,425.611 32.5,425.5 Z"/></g>
<g><path style="opacity:1" fill="#c4c0bf" d="M 34.5,441.5 C 36.4649,443.488 38.7982,444.988 41.5,446C 103.5,446.667 165.5,446.667 227.5,446C 230.648,445.262 233.315,443.762 235.5,441.5C 235.5,442.167 235.5,442.833 235.5,443.5C 233.315,445.762 230.648,447.262 227.5,448C 165.5,448.667 103.5,448.667 41.5,448C 38.017,447.015 35.6836,444.849 34.5,441.5 Z"/></g>
<g><path style="opacity:1" fill="#e56932" d="M 235.5,420.5 C 238.041,427.38 238.041,434.38 235.5,441.5C 233.315,443.762 230.648,445.262 227.5,446C 165.5,446.667 103.5,446.667 41.5,446C 38.7982,444.988 36.4649,443.488 34.5,441.5C 32.7359,436.356 32.0692,431.023 32.5,425.5C 32.5,425.167 32.5,424.833 32.5,424.5C 34.5998,422.502 36.5998,420.335 38.5,418C 39.5,417.667 40.5,417.333 41.5,417C 104.167,416.333 166.833,416.333 229.5,417C 230.892,419.228 232.892,420.394 235.5,420.5 Z"/></g>
<g><path style="opacity:1" fill="#2e160b" d="M 151.5,426.5 C 152.922,426.75 153.922,427.583 154.5,429C 153.903,430.889 153.569,432.722 153.5,434.5C 151.242,432.138 150.576,429.471 151.5,426.5 Z"/></g>
<g><path style="opacity:1" fill="#211108" d="M 128.5,425.5 C 130.048,425.821 130.715,426.821 130.5,428.5C 131.833,428.5 133.167,428.5 134.5,428.5C 135.5,433.5 133.5,435.5 128.5,434.5C 128.5,431.5 128.5,428.5 128.5,425.5 Z"/></g>
<g><path style="opacity:1" fill="#29150a" d="M 115.5,425.5 C 117.346,425.222 118.68,425.889 119.5,427.5C 118.167,427.833 116.833,428.167 115.5,428.5C 117.435,429.068 118.768,430.235 119.5,432C 119.266,433.732 118.266,434.566 116.5,434.5C 114.006,434.378 113.339,433.378 114.5,431.5C 115.654,433.856 116.987,434.023 118.5,432C 116.602,431.1 114.936,429.934 113.5,428.5C 114.193,427.482 114.859,426.482 115.5,425.5 Z"/></g>
<g><path style="opacity:1" fill="#281308" d="M 142.5,429.5 C 142.093,436.049 141.093,436.049 139.5,429.5C 137.931,430.714 137.098,432.381 137,434.5C 136.505,432.527 136.338,430.527 136.5,428.5C 138.621,428.325 140.621,428.659 142.5,429.5 Z"/></g>
<g><path style="opacity:1" fill="#d05e2d" d="M 130.5,429.5 C 133.861,430.203 134.194,431.537 131.5,433.5C 130.571,432.311 130.238,430.978 130.5,429.5 Z"/></g>
<g><path style="opacity:1" fill="#1a0c04" d="M 142.5,429.5 C 143.542,428.209 144.708,428.209 146,429.5C 146.798,431.259 146.631,432.926 145.5,434.5C 144.999,432.345 143.999,430.678 142.5,429.5 Z"/></g>
<g><path style="opacity:1" fill="#4d2514" d="M 124.5,433.5 C 126.707,427.031 127.374,427.364 126.5,434.5C 125.817,434.137 125.15,433.804 124.5,433.5 Z"/></g>
<g><path style="opacity:1" fill="#140904" d="M 124.5,433.5 C 123.791,434.404 122.791,434.737 121.5,434.5C 121.338,432.473 121.505,430.473 122,428.5C 122.05,430.744 122.883,432.411 124.5,433.5 Z"/></g>
<g><path style="opacity:1" fill="#3e1d10" d="M 147.5,425.5 C 149.337,425.639 149.67,426.306 148.5,427.5C 147.702,427.043 147.369,426.376 147.5,425.5 Z"/></g>
<g><path style="opacity:1" fill="#b55329" d="M 235.5,420.5 C 232.892,420.394 230.892,419.228 229.5,417C 166.833,416.333 104.167,416.333 41.5,417C 40.5,417.333 39.5,417.667 38.5,418C 36.5998,420.335 34.5998,422.502 32.5,424.5C 33.8633,420.298 36.5299,417.131 40.5,415C 103.167,414.333 165.833,414.333 228.5,415C 231.572,415.907 233.905,417.74 235.5,420.5 Z"/></g>
<g><path style="opacity:1" fill="#787878" d="M 39.5,383.5 C 40.9217,383.709 42.255,384.209 43.5,385C 106.195,385.822 168.862,385.656 231.5,384.5C 231.082,385.222 230.416,385.722 229.5,386C 167.167,386.667 104.833,386.667 42.5,386C 41.0577,385.623 40.0577,384.79 39.5,383.5 Z"/></g>
<g><path style="opacity:1" fill="#828282" d="M 34.5,363.5 C 34.3243,368.88 34.6576,374.213 35.5,379.5C 34.7784,379.082 34.2784,378.416 34,377.5C 33.1849,372.648 33.3516,367.981 34.5,363.5 Z"/></g>
<g><path style="opacity:1" fill="#727272" d="M 58.5,15.5 C 115.5,15.5 172.5,15.5 229.5,15.5C 228.737,16.2679 227.737,16.7679 226.5,17C 171.833,17.6667 117.167,17.6667 62.5,17C 60.9419,16.79 59.6085,16.29 58.5,15.5 Z"/></g>
<g><path style="opacity:1" fill="#a1a1a1" d="M 266.5,540.5 C 266.5,541.5 266.5,542.5 266.5,543.5C 266.642,556.723 260.642,565.89 248.5,571C 243.896,572.061 239.229,572.727 234.5,573C 168.5,573.667 102.5,573.667 36.5,573C 25.2887,573.755 16.122,569.922 9,561.5C 7.44124,559.783 6.60791,557.783 6.5,555.5C 5.56512,552.887 5.39845,550.221 6,547.5C 6.23209,548.737 6.73209,549.737 7.5,550.5C 10.3513,560.851 17.0179,567.351 27.5,570C 97.1667,570.667 166.833,570.667 236.5,570C 253.72,568.946 262.72,559.78 263.5,542.5C 263.833,542.5 264.167,542.5 264.5,542.5C 264.34,544.199 264.506,545.866 265,547.5C 265.186,544.964 265.686,542.631 266.5,540.5 Z"/></g>
</svg>
