<?xml version="1.0" encoding="UTF-8"?>
<!DOCTYPE svg PUBLIC "-//W3C//DTD SVG 1.1//EN" "http://www.w3.org/Graphics/SVG/1.1/DTD/svg11.dtd">
<svg xmlns="http://www.w3.org/2000/svg" version="1.1" width="273px" height="576px" style="shape-rendering:geometricPrecision; text-rendering:geometricPrecision; image-rendering:optimizeQuality; fill-rule:evenodd; clip-rule:evenodd" xmlns:xlink="http://www.w3.org/1999/xlink">
<g><path style="opacity:0.958" fill="#cdcdcd" d="M 239.5,7.5 C 242.725,8.64973 246.058,9.8164 249.5,11C 248.906,11.4643 248.239,11.631 247.5,11.5C 245.194,11.0074 242.861,10.6741 240.5,10.5C 169.833,9.16667 99.1667,9.16667 28.5,10.5C 27.5,10.5 26.5,10.5 25.5,10.5C 24.9907,9.6587 25.6573,9.1587 27.5,9C 30.5,8.66667 33.5,8.33333 36.5,8C 64.1647,7.50002 91.8313,7.33336 119.5,7.5C 159.44,7.3734 199.44,7.3734 239.5,7.5 Z"/></g>
<g><path style="opacity:0.016" fill="#242424" d="M 26.5,7.5 C 23.5721,8.81667 20.5721,10.15 17.5,11.5C 19.6402,8.65905 22.6402,7.32572 26.5,7.5 Z"/></g>
<g><path style="opacity:0.941" fill="#7b7b7b" d="M 239.5,7.5 C 246.521,7.50167 252.521,9.835 257.5,14.5C 255.906,14.0805 254.406,13.4138 253,12.5C 252.235,12.5699 251.735,12.9033 251.5,13.5C 249.847,13.3404 248.514,12.6737 247.5,11.5C 248.239,11.631 248.906,11.4643 249.5,11C 246.058,9.8164 242.725,8.64973 239.5,7.5 Z"/></g>
<g><path style="opacity:1" fill="#4c4c4c" d="M 28.5,10.5 C 99.1667,9.16667 169.833,9.16667 240.5,10.5C 237.194,11.8233 233.861,12.8233 230.5,13.5C 167.166,13.6667 103.832,13.5 40.5,13C 36.4646,12.2021 32.4646,11.3688 28.5,10.5 Z"/></g>
<g><path style="opacity:1" fill="#737373" d="M 72.5,11.5 C 124.665,10.3349 176.998,10.1683 229.5,11C 204.894,12.1528 180.227,12.6528 155.5,12.5C 127.825,12.4436 100.158,12.1103 72.5,11.5 Z"/></g>
<g><path style="opacity:1" fill="#232323" d="M 25.5,10.5 C 26.5,10.5 27.5,10.5 28.5,10.5C 32.4646,11.3688 36.4646,12.2021 40.5,13C 103.832,13.5 167.166,13.6667 230.5,13.5C 233.713,13.19 236.713,13.5233 239.5,14.5C 167.833,14.3333 96.1659,14.5 24.5,15C 17.8786,18.29 13.3786,23.4567 11,30.5C 10.5003,38.1594 10.3336,45.8261 10.5,53.5C 9.86032,43.2418 8.86032,34.9084 7.5,28.5C 10.5324,19.4675 16.5324,13.4675 25.5,10.5 Z"/></g>
<g><path style="opacity:1" fill="#080808" d="M 239.5,14.5 C 250.183,16.0106 257.016,22.0106 260,32.5C 260.499,36.8206 260.666,41.1539 260.5,45.5C 260.5,108.5 260.5,171.5 260.5,234.5C 260.5,313.833 260.5,393.167 260.5,472.5C 260.667,495.502 260.5,518.502 260,541.5C 257.793,551.206 251.959,557.539 242.5,560.5C 171.541,561.66 100.541,561.827 29.5,561C 21.0222,559.346 15.1889,554.513 12,546.5C 10.5556,533.24 10.0556,519.907 10.5,506.5C 10.5,355.5 10.5,204.5 10.5,53.5C 10.3336,45.8261 10.5003,38.1594 11,30.5C 13.3786,23.4567 17.8786,18.29 24.5,15C 96.1659,14.5 167.833,14.3333 239.5,14.5 Z"/></g>
<g><path style="opacity:0.557" fill="#474747" d="M 257.5,14.5 C 259.914,15.9108 261.581,17.9108 262.5,20.5C 260.086,19.0892 258.419,17.0892 257.5,14.5 Z"/></g>
<g><path style="opacity:1" fill="#fdfdfd" d="M 256.5,54.5 C 175.833,54.5 95.1667,54.5 14.5,54.5C 14.5,46.5 14.5,38.5 14.5,30.5C 16.927,24.9047 20.927,20.738 26.5,18C 98.8333,17.3333 171.167,17.3333 243.5,18C 248.541,20.2554 252.375,23.7554 255,28.5C 256.41,37.0836 256.91,45.7502 256.5,54.5 Z"/></g>
<g><path style="opacity:0.31" fill="#313131" d="M 8.5,19.5 C 7.15678,22.5428 5.82344,25.5428 4.5,28.5C 4.30895,24.7117 5.64229,21.7117 8.5,19.5 Z"/></g>
<g><path style="opacity:0.475" fill="#484848" d="M 264.5,24.5 C 266.04,26.8383 266.706,29.5049 266.5,32.5C 265.232,30.0948 264.565,27.4282 264.5,24.5 Z"/></g>
<g><path style="opacity:1" fill="#ea7745" d="M 29.5,30.5 C 39.8487,30.8059 43.6821,36.1392 41,46.5C 38.6471,51.4264 34.8138,53.2598 29.5,52C 21.5293,44.7544 21.5293,37.5877 29.5,30.5 Z"/></g>
<g><path style="opacity:1" fill="#191919" d="M 118.5,31.5 C 124.705,31.2191 126.205,33.8858 123,39.5C 121.332,35.7628 119.999,35.7628 119,39.5C 118.503,36.854 118.336,34.1873 118.5,31.5 Z"/></g>
<g><path style="opacity:1" fill="#606060" d="M 149.5,33.5 C 149.5,34.1667 149.5,34.8333 149.5,35.5C 147.871,40.8855 146.871,40.7188 146.5,35C 146.833,33.5 147.167,32 147.5,30.5C 148.176,31.6016 148.842,32.6016 149.5,33.5 Z"/></g>
<g><path style="opacity:1" fill="#fef5f1" d="M 30.5,32.5 C 38.6158,33.1466 41.4491,37.4799 39,45.5C 36.8041,50.5402 33.3041,51.7068 28.5,49C 24.1236,42.7777 24.7903,37.2777 30.5,32.5 Z"/></g>
<g><path style="opacity:1" fill="#202020" d="M 149.5,35.5 C 149.5,34.8333 149.5,34.1667 149.5,33.5C 150.939,32.4908 152.272,32.8241 153.5,34.5C 150.942,36.1201 150.942,37.6201 153.5,39C 152.552,39.4828 151.552,39.6495 150.5,39.5C 150.768,37.901 150.434,36.5676 149.5,35.5 Z"/></g>
<g><path style="opacity:0.426" fill="#000000" d="M 3.5,34.5 C 3.167,203.334 3.50033,372.001 4.5,540.5C 4.61587,543.86 4.9492,547.193 5.5,550.5C 3.28199,546.578 2.11533,542.244 2,537.5C 1.36733,512.665 0.533998,487.998 -0.5,463.5C -0.5,333.167 -0.5,202.833 -0.5,72.5C 0.17239,59.7716 1.50572,47.1049 3.5,34.5 Z"/></g>
<g><path style="opacity:1" fill="#c0c0c0" d="M 119.5,32.5 C 120.5,32.5 121.5,32.5 122.5,32.5C 122.5,33.5 122.5,34.5 122.5,35.5C 121.5,35.5 120.5,35.5 119.5,35.5C 119.5,34.5 119.5,33.5 119.5,32.5 Z"/></g>
<g><path style="opacity:1" fill="#101010" d="M 139.5,33.5 C 140.451,34.9187 140.784,36.5853 140.5,38.5C 141.5,38.5 142.5,38.5 143.5,38.5C 143.34,36.8008 143.506,35.1341 144,33.5C 144.495,35.4727 144.662,37.4727 144.5,39.5C 142.833,39.5 141.167,39.5 139.5,39.5C 139.5,37.5 139.5,35.5 139.5,33.5 Z"/></g>
<g><path style="opacity:1" fill="#4f4f4f" d="M 126.5,33.5 C 130.225,33.5372 131.558,35.2038 130.5,38.5C 128.955,39.4519 127.288,39.7852 125.5,39.5C 125.325,37.3792 125.659,35.3792 126.5,33.5 Z"/></g>
<g><path style="opacity:1" fill="#ea7441" d="M 31.5,36.5 C 33.7583,36.7751 34.0916,37.7751 32.5,39.5C 37.7298,40.9247 37.7298,42.0914 32.5,43C 33.7112,43.8928 33.7112,44.7261 32.5,45.5C 30.8333,44.5 29.5,43.1667 28.5,41.5C 29.7629,39.9713 30.7629,38.3046 31.5,36.5 Z"/></g>
<g><path style="opacity:1" fill="#2d2d2d" d="M 133.5,33.5 C 135.103,33.3118 136.437,33.8118 137.5,35C 136.833,35.3333 136.167,35.6667 135.5,36C 136.973,36.7096 137.64,37.8762 137.5,39.5C 131.792,39.5076 131.459,39.0076 136.5,38C 133.097,37.7999 132.097,36.2999 133.5,33.5 Z"/></g>
<g><path style="opacity:0.948" fill="#bfbfbf" d="M 257.5,14.5 C 258.419,17.0892 260.086,19.0892 262.5,20.5C 263.674,21.5137 264.34,22.847 264.5,24.5C 264.565,27.4282 265.232,30.0948 266.5,32.5C 266.5,33.8333 266.5,35.1667 266.5,36.5C 266.333,59.1691 266.5,81.8358 267,104.5C 267.383,105.056 267.883,105.389 268.5,105.5C 269.033,127.91 268.366,150.243 266.5,172.5C 265.851,186.541 266.518,200.208 268.5,213.5C 269.051,226.972 268.384,240.306 266.5,253.5C 266.5,349.833 266.5,446.167 266.5,542.5C 265.819,544.158 264.985,545.825 264,547.5C 263.502,544.183 263.335,540.85 263.5,537.5C 264.666,369 264.833,200.334 264,31.5C 262.043,23.9043 257.876,17.9043 251.5,13.5C 251.735,12.9033 252.235,12.5699 253,12.5C 254.406,13.4138 255.906,14.0805 257.5,14.5 Z"/></g>
<g><path style="opacity:0.993" fill="#9c9c9c" d="M 119.5,7.5 C 91.8313,7.33336 64.1647,7.50002 36.5,8C 33.5,8.33333 30.5,8.66667 27.5,9C 25.6573,9.1587 24.9907,9.6587 25.5,10.5C 16.5324,13.4675 10.5324,19.4675 7.5,28.5C 6.54885,29.9187 6.21552,31.5853 6.5,33.5C 5.56552,34.5676 5.23219,35.901 5.5,37.5C 4.50033,204.999 4.167,372.666 4.5,540.5C 3.50033,372.001 3.167,203.334 3.5,34.5C 3.20528,32.2646 3.53862,30.2646 4.5,28.5C 5.82344,25.5428 7.15678,22.5428 8.5,19.5C 10.6034,15.7246 13.6034,13.058 17.5,11.5C 20.5721,10.15 23.5721,8.81667 26.5,7.5C 57.6565,6.22572 88.6565,6.22572 119.5,7.5 Z"/></g>
<g><path style="opacity:0.266" fill="#4d4d4d" d="M 266.5,36.5 C 267.186,59.3723 267.853,82.3723 268.5,105.5C 267.883,105.389 267.383,105.056 267,104.5C 266.5,81.8358 266.333,59.1691 266.5,36.5 Z"/></g>
<g><path style="opacity:1" fill="#717171" d="M 6.5,33.5 C 6.5,169.167 6.5,304.833 6.5,440.5C 6.21445,475.516 6.54778,510.516 7.5,545.5C 6.69088,543.708 6.19088,541.708 6,539.5C 5.5,372.167 5.33333,204.834 5.5,37.5C 5.23219,35.901 5.56552,34.5676 6.5,33.5 Z"/></g>
<g><path style="opacity:1" fill="#8a8a8a" d="M 14.5,30.5 C 14.5,38.5 14.5,46.5 14.5,54.5C 95.1667,54.5 175.833,54.5 256.5,54.5C 256.5,54.8333 256.5,55.1667 256.5,55.5C 175.833,55.5 95.1667,55.5 14.5,55.5C 14.5,217.833 14.5,380.167 14.5,542.5C 13.1667,371.833 13.1667,201.167 14.5,30.5 Z"/></g>
<g><path style="opacity:1" fill="#fdfdfd" d="M 256.5,55.5 C 256.667,218.167 256.5,380.834 256,543.5C 254.14,550.693 249.64,555.193 242.5,557C 170.833,557.667 99.1667,557.667 27.5,557C 20.5142,554.516 16.1808,549.682 14.5,542.5C 14.5,380.167 14.5,217.833 14.5,55.5C 95.1667,55.5 175.833,55.5 256.5,55.5 Z"/></g>
<g><path style="opacity:1" fill="#4f4f4f" d="M 260.5,45.5 C 261.314,47.631 261.814,49.9644 262,52.5C 262.665,113.339 262.165,174.006 260.5,234.5C 260.5,171.5 260.5,108.5 260.5,45.5 Z"/></g>
<g><path style="opacity:0.329" fill="#727272" d="M 268.5,105.5 C 269.2,126.013 269.867,146.68 270.5,167.5C 270.564,169.557 269.898,171.223 268.5,172.5C 267.833,172.5 267.167,172.5 266.5,172.5C 268.366,150.243 269.033,127.91 268.5,105.5 Z"/></g>
<g><path style="opacity:1" fill="#454545" d="M 240.5,10.5 C 242.861,10.6741 245.194,11.0074 247.5,11.5C 248.514,12.6737 249.847,13.3404 251.5,13.5C 257.876,17.9043 262.043,23.9043 264,31.5C 264.833,200.334 264.666,369 263.5,537.5C 263.667,476.166 263.5,414.832 263,353.5C 262.788,393.343 261.955,433.009 260.5,472.5C 260.5,393.167 260.5,313.833 260.5,234.5C 262.165,174.006 262.665,113.339 262,52.5C 261.814,49.9644 261.314,47.631 260.5,45.5C 260.666,41.1539 260.499,36.8206 260,32.5C 257.016,22.0106 250.183,16.0106 239.5,14.5C 236.713,13.5233 233.713,13.19 230.5,13.5C 233.861,12.8233 237.194,11.8233 240.5,10.5 Z"/></g>
<g><path style="opacity:1" fill="#cda264" d="M 114.5,137.5 C 112.883,138.038 111.216,138.371 109.5,138.5C 109.674,140.861 110.007,143.194 110.5,145.5C 107.02,143.526 106.52,140.859 109,137.5C 110.943,136.193 112.777,136.193 114.5,137.5 Z"/></g>
<g><path style="opacity:1" fill="#9e5327" d="M 114.5,137.5 C 118.439,145.377 122.439,153.377 126.5,161.5C 132.798,162.496 139.132,162.83 145.5,162.5C 140.025,163.489 134.358,163.822 128.5,163.5C 126.876,163.36 125.71,164.027 125,165.5C 125.122,162.034 123.789,159.368 121,157.5C 121.207,159.751 121.373,162.085 121.5,164.5C 119.958,165.301 118.292,165.634 116.5,165.5C 117.981,164.579 119.314,163.412 120.5,162C 118.292,155.739 114.959,150.239 110.5,145.5C 110.007,143.194 109.674,140.861 109.5,138.5C 111.216,138.371 112.883,138.038 114.5,137.5 Z"/></g>
<g><path style="opacity:1" fill="#a64b38" d="M 181.5,162.5 C 178.833,162.5 176.167,162.5 173.5,162.5C 172.833,162.5 172.167,162.5 171.5,162.5C 169.097,162.552 166.764,162.219 164.5,161.5C 158.162,161.767 151.829,162.1 145.5,162.5C 151.251,160.96 157.251,160.294 163.5,160.5C 169.749,160.294 175.749,160.96 181.5,162.5 Z"/></g>
<g><path style="opacity:1" fill="#c54124" d="M 164.5,161.5 C 163.942,162.79 162.942,163.623 161.5,164C 158.137,164.626 154.804,164.959 151.5,165C 151.833,164.667 152.167,164.333 152.5,164C 149.632,163.36 147.965,164.527 147.5,167.5C 145.952,167.179 145.285,166.179 145.5,164.5C 140.597,163.237 137.597,164.903 136.5,169.5C 134.784,169.629 133.117,169.962 131.5,170.5C 128.908,168.964 127.908,166.631 128.5,163.5C 134.358,163.822 140.025,163.489 145.5,162.5C 151.829,162.1 158.162,161.767 164.5,161.5 Z"/></g>
<g><path style="opacity:1" fill="#e16b3a" d="M 164.5,161.5 C 166.764,162.219 169.097,162.552 171.5,162.5C 169.015,164.008 166.348,165.341 163.5,166.5C 161.626,170.076 158.959,172.743 155.5,174.5C 155.096,169.77 152.429,167.436 147.5,167.5C 147.965,164.527 149.632,163.36 152.5,164C 152.167,164.333 151.833,164.667 151.5,165C 154.804,164.959 158.137,164.626 161.5,164C 162.942,163.623 163.942,162.79 164.5,161.5 Z"/></g>
<g><path style="opacity:1" fill="#9f440a" d="M 128.5,163.5 C 127.908,166.631 128.908,168.964 131.5,170.5C 132.578,173.402 133.244,176.402 133.5,179.5C 132.167,179.5 130.833,179.5 129.5,179.5C 128.028,177.866 126.362,176.366 124.5,175C 125.423,172.959 125.756,170.792 125.5,168.5C 124.5,168.5 123.5,168.5 122.5,168.5C 122.768,166.901 122.434,165.568 121.5,164.5C 121.373,162.085 121.207,159.751 121,157.5C 123.789,159.368 125.122,162.034 125,165.5C 125.71,164.027 126.876,163.36 128.5,163.5 Z"/></g>
<g><path style="opacity:1" fill="#d95b38" d="M 122.5,168.5 C 123.5,168.5 124.5,168.5 125.5,168.5C 125.756,170.792 125.423,172.959 124.5,175C 126.362,176.366 128.028,177.866 129.5,179.5C 123.252,180.973 118.585,178.973 115.5,173.5C 119.364,172.05 119.364,170.55 115.5,169C 117.81,168.503 120.143,168.337 122.5,168.5 Z"/></g>
<g><path style="opacity:1" fill="#f2955f" d="M 147.5,167.5 C 147.843,169.483 147.176,170.817 145.5,171.5C 144.844,170.722 144.011,170.056 143,169.5C 140.888,170.386 138.722,170.386 136.5,169.5C 137.597,164.903 140.597,163.237 145.5,164.5C 145.285,166.179 145.952,167.179 147.5,167.5 Z"/></g>
<g><path style="opacity:0.307" fill="#4f4f4f" d="M 266.5,172.5 C 267.167,172.5 267.833,172.5 268.5,172.5C 267.167,186.167 267.167,199.833 268.5,213.5C 266.518,200.208 265.851,186.541 266.5,172.5 Z"/></g>
<g><path style="opacity:1" fill="#f7af51" d="M 147.5,167.5 C 152.429,167.436 155.096,169.77 155.5,174.5C 153.81,174.856 152.81,175.856 152.5,177.5C 150.435,177.517 148.435,177.85 146.5,178.5C 145.5,178.5 144.5,178.5 143.5,178.5C 143.767,176.035 144.434,173.701 145.5,171.5C 147.176,170.817 147.843,169.483 147.5,167.5 Z"/></g>
<g><path style="opacity:1" fill="#ad3b2e" d="M 113.5,165.5 C 112.378,166.947 110.878,167.947 109,168.5C 108.654,170.218 108.154,171.885 107.5,173.5C 108.729,174.281 110.062,174.781 111.5,175C 105.365,176.282 99.3653,177.115 93.5,177.5C 91.0083,175.908 89.0083,176.408 87.5,179C 83.3709,179.327 79.3709,180.16 75.5,181.5C 77.2528,179.777 79.2528,178.277 81.5,177C 92.4028,173.645 103.069,169.812 113.5,165.5 Z"/></g>
<g><path style="opacity:1" fill="#ad2312" d="M 121.5,164.5 C 122.434,165.568 122.768,166.901 122.5,168.5C 120.143,168.337 117.81,168.503 115.5,169C 119.364,170.55 119.364,172.05 115.5,173.5C 118.585,178.973 123.252,180.973 129.5,179.5C 130.833,179.5 132.167,179.5 133.5,179.5C 138.032,179.818 142.366,179.485 146.5,178.5C 148.435,177.85 150.435,177.517 152.5,177.5C 151.013,178.804 149.346,179.97 147.5,181C 143.848,181.499 140.182,181.665 136.5,181.5C 135.141,182.007 134.141,183.007 133.5,184.5C 126.744,182.978 120.078,181.145 113.5,179C 107.037,178.671 100.704,178.837 94.5,179.5C 93.7025,179.043 93.3691,178.376 93.5,177.5C 99.3653,177.115 105.365,176.282 111.5,175C 110.062,174.781 108.729,174.281 107.5,173.5C 108.154,171.885 108.654,170.218 109,168.5C 110.878,167.947 112.378,166.947 113.5,165.5C 114.5,165.5 115.5,165.5 116.5,165.5C 118.292,165.634 119.958,165.301 121.5,164.5 Z"/></g>
<g><path style="opacity:1" fill="#fab882" d="M 136.5,169.5 C 138.722,170.386 140.888,170.386 143,169.5C 144.011,170.056 144.844,170.722 145.5,171.5C 144.434,173.701 143.767,176.035 143.5,178.5C 144.5,178.5 145.5,178.5 146.5,178.5C 142.366,179.485 138.032,179.818 133.5,179.5C 133.244,176.402 132.578,173.402 131.5,170.5C 133.117,169.962 134.784,169.629 136.5,169.5 Z"/></g>
<g><path style="opacity:1" fill="#900603" d="M 173.5,162.5 C 176.167,162.5 178.833,162.5 181.5,162.5C 183.388,164.041 185.221,165.707 187,167.5C 188.713,166.047 190.213,166.214 191.5,168C 190.552,168.483 189.552,168.649 188.5,168.5C 188.5,169.5 188.5,170.5 188.5,171.5C 190.947,171.615 192.947,172.615 194.5,174.5C 192.437,175.372 190.437,176.538 188.5,178C 191.039,179.805 192.039,182.305 191.5,185.5C 188.941,185.198 186.607,185.532 184.5,186.5C 183.25,186.423 182.417,185.756 182,184.5C 181.242,182.231 181.409,180.064 182.5,178C 181.663,175.411 179.997,173.578 177.5,172.5C 179.991,171.459 179.991,170.626 177.5,170C 179.256,169.798 180.922,169.298 182.5,168.5C 179.25,166.972 175.917,165.639 172.5,164.5C 172.863,163.817 173.196,163.15 173.5,162.5 Z"/></g>
<g><path style="opacity:1" fill="#e82f17" d="M 92.5,185.5 C 86.8479,185.502 83.1812,188.169 81.5,193.5C 81.5,193.833 81.5,194.167 81.5,194.5C 80.0937,194.973 79.427,195.973 79.5,197.5C 77.8655,194.653 75.5321,192.32 72.5,190.5C 71.7025,190.957 71.3691,191.624 71.5,192.5C 69.5839,195.598 67.4172,198.598 65,201.5C 63.9311,209.131 63.4311,216.798 63.5,224.5C 59.5541,224.512 57.8874,222.512 58.5,218.5C 58.3347,214.818 58.5014,211.152 59,207.5C 60.8765,202.433 62.7099,197.433 64.5,192.5C 67.5576,189.949 70.5576,187.115 73.5,184C 80.834,182.766 88.1674,181.599 95.5,180.5C 95.3601,182.124 96.0267,183.29 97.5,184C 95.6183,184.198 93.9516,184.698 92.5,185.5 Z"/></g>
<g><path style="opacity:1" fill="#cb251b" d="M 93.5,177.5 C 93.3691,178.376 93.7025,179.043 94.5,179.5C 100.704,178.837 107.037,178.671 113.5,179C 120.078,181.145 126.744,182.978 133.5,184.5C 134.141,183.007 135.141,182.007 136.5,181.5C 138.631,182.314 140.964,182.814 143.5,183C 145.544,183.498 146.878,184.665 147.5,186.5C 147.5,186.833 147.5,187.167 147.5,187.5C 143.5,187.5 139.5,187.5 135.5,187.5C 121.369,185.827 107.036,185.16 92.5,185.5C 93.9516,184.698 95.6183,184.198 97.5,184C 96.0267,183.29 95.3601,182.124 95.5,180.5C 88.1674,181.599 80.834,182.766 73.5,184C 70.5576,187.115 67.5576,189.949 64.5,192.5C 67.1667,187.833 70.8333,184.167 75.5,181.5C 79.3709,180.16 83.3709,179.327 87.5,179C 89.0083,176.408 91.0083,175.908 93.5,177.5 Z"/></g>
<g><path style="opacity:1" fill="#d45757" d="M 154.5,199.5 C 151.833,200.167 149.167,200.833 146.5,201.5C 146.737,202.791 146.404,203.791 145.5,204.5C 145.337,202.143 145.503,199.81 146,197.5C 146.383,196.944 146.883,196.611 147.5,196.5C 148.209,197.404 149.209,197.737 150.5,197.5C 150.928,194.436 151.594,191.436 152.5,188.5C 147.187,189.362 141.854,189.529 136.5,189C 135.944,188.617 135.611,188.117 135.5,187.5C 139.5,187.5 143.5,187.5 147.5,187.5C 152.172,186.997 156.839,186.831 161.5,187C 161.957,187.414 162.291,187.914 162.5,188.5C 161.846,190.115 161.346,191.782 161,193.5C 159.301,192.594 157.467,192.261 155.5,192.5C 155.702,194.95 155.369,197.283 154.5,199.5 Z"/></g>
<g><path style="opacity:1" fill="#e6726f" d="M 92.5,185.5 C 107.036,185.16 121.369,185.827 135.5,187.5C 135.611,188.117 135.944,188.617 136.5,189C 141.854,189.529 147.187,189.362 152.5,188.5C 151.594,191.436 150.928,194.436 150.5,197.5C 149.209,197.737 148.209,197.404 147.5,196.5C 148.497,196.53 149.164,196.03 149.5,195C 148.852,193.56 148.519,192.06 148.5,190.5C 136.571,188.916 124.571,187.75 112.5,187C 105.986,186.18 99.6529,186.347 93.5,187.5C 89.3322,188.961 85.3322,190.961 81.5,193.5C 83.1812,188.169 86.8479,185.502 92.5,185.5 Z"/></g>
<g><path style="opacity:1" fill="#b00e0b" d="M 171.5,162.5 C 172.167,162.5 172.833,162.5 173.5,162.5C 173.196,163.15 172.863,163.817 172.5,164.5C 175.917,165.639 179.25,166.972 182.5,168.5C 180.922,169.298 179.256,169.798 177.5,170C 179.991,170.626 179.991,171.459 177.5,172.5C 179.997,173.578 181.663,175.411 182.5,178C 181.409,180.064 181.242,182.231 182,184.5C 182.417,185.756 183.25,186.423 184.5,186.5C 184.5,186.833 184.5,187.167 184.5,187.5C 184.762,188.978 184.429,190.311 183.5,191.5C 181.283,192.217 179.949,193.717 179.5,196C 180.233,197.766 180.567,199.599 180.5,201.5C 179.5,201.5 178.5,201.5 177.5,201.5C 177.55,199.41 176.55,198.077 174.5,197.5C 172.49,199.171 170.157,199.838 167.5,199.5C 168.047,204.411 166.047,207.744 161.5,209.5C 160.188,214.421 157.854,215.254 154.5,212C 153.207,211.51 151.873,211.343 150.5,211.5C 150.67,212.822 150.337,213.989 149.5,215C 147.82,214.229 146.153,214.395 144.5,215.5C 144.654,211.547 145.654,207.881 147.5,204.5C 149.167,204.5 150.833,204.5 152.5,204.5C 152.365,202.446 153.032,200.779 154.5,199.5C 155.832,201.132 157.165,202.799 158.5,204.5C 161.273,199.856 163.273,194.856 164.5,189.5C 166.591,189.318 168.591,189.652 170.5,190.5C 170.92,188.674 170.92,186.674 170.5,184.5C 171.552,184.649 172.552,184.483 173.5,184C 172.161,181.984 170.328,180.817 168,180.5C 161.284,182.73 154.451,184.73 147.5,186.5C 146.878,184.665 145.544,183.498 143.5,183C 140.964,182.814 138.631,182.314 136.5,181.5C 140.182,181.665 143.848,181.499 147.5,181C 149.346,179.97 151.013,178.804 152.5,177.5C 152.81,175.856 153.81,174.856 155.5,174.5C 158.959,172.743 161.626,170.076 163.5,166.5C 166.348,165.341 169.015,164.008 171.5,162.5 Z"/></g>
<g><path style="opacity:1" fill="#c63434" d="M 154.5,199.5 C 155.369,197.283 155.702,194.95 155.5,192.5C 157.467,192.261 159.301,192.594 161,193.5C 161.346,191.782 161.846,190.115 162.5,188.5C 162.291,187.914 161.957,187.414 161.5,187C 156.839,186.831 152.172,186.997 147.5,187.5C 147.5,187.167 147.5,186.833 147.5,186.5C 154.451,184.73 161.284,182.73 168,180.5C 170.328,180.817 172.161,181.984 173.5,184C 172.552,184.483 171.552,184.649 170.5,184.5C 170.92,186.674 170.92,188.674 170.5,190.5C 168.591,189.652 166.591,189.318 164.5,189.5C 163.273,194.856 161.273,199.856 158.5,204.5C 157.165,202.799 155.832,201.132 154.5,199.5 Z"/></g>
<g><path style="opacity:1" fill="#fbb8ae" d="M 93.5,187.5 C 94.8333,187.5 96.1667,187.5 97.5,187.5C 97.628,189.655 97.128,191.655 96,193.5C 93.2223,196.138 90.0556,198.138 86.5,199.5C 84.7698,202.37 83.4365,205.37 82.5,208.5C 80.9827,206.538 80.3161,204.205 80.5,201.5C 80.6374,199.117 80.9707,196.783 81.5,194.5C 81.5,194.167 81.5,193.833 81.5,193.5C 85.3322,190.961 89.3322,188.961 93.5,187.5 Z"/></g>
<g><path style="opacity:1" fill="#e68f8c" d="M 93.5,187.5 C 99.6529,186.347 105.986,186.18 112.5,187C 124.571,187.75 136.571,188.916 148.5,190.5C 148.519,192.06 148.852,193.56 149.5,195C 149.164,196.03 148.497,196.53 147.5,196.5C 146.883,196.611 146.383,196.944 146,197.5C 145.503,199.81 145.337,202.143 145.5,204.5C 143.473,204.338 141.473,204.505 139.5,205C 138.154,206.669 136.487,207.836 134.5,208.5C 124.878,209.225 115.545,209.225 106.5,208.5C 107.37,206.401 108.703,206.068 110.5,207.5C 113.04,206.598 115.54,205.598 118,204.5C 120.451,206.595 123.285,207.595 126.5,207.5C 126.5,206.5 126.5,205.5 126.5,204.5C 129.373,206.073 132.039,205.74 134.5,203.5C 135.426,199.906 135.759,196.24 135.5,192.5C 131.989,191.942 128.489,191.276 125,190.5C 118.423,191.988 112.09,191.322 106,188.5C 104.416,188.988 103.249,189.988 102.5,191.5C 101.893,191.376 101.56,191.043 101.5,190.5C 101.5,189.5 101.5,188.5 101.5,187.5C 100.167,187.5 98.8333,187.5 97.5,187.5C 96.1667,187.5 94.8333,187.5 93.5,187.5 Z"/></g>
<g><path style="opacity:1" fill="#fcd7c7" d="M 97.5,187.5 C 98.8333,187.5 100.167,187.5 101.5,187.5C 101.5,188.5 101.5,189.5 101.5,190.5C 98.9152,191.465 98.4152,192.799 100,194.5C 103.943,191.554 106.11,192.554 106.5,197.5C 108.167,197.5 109.833,197.5 111.5,197.5C 111.548,200.292 110.215,202.125 107.5,203C 105.865,203.54 104.532,203.04 103.5,201.5C 100.359,203.484 97.5252,205.817 95,208.5C 91.4369,207.708 87.9369,208.042 84.5,209.5C 83.8333,209.167 83.1667,208.833 82.5,208.5C 83.4365,205.37 84.7698,202.37 86.5,199.5C 90.0556,198.138 93.2223,196.138 96,193.5C 97.128,191.655 97.628,189.655 97.5,187.5 Z"/></g>
<g><path style="opacity:1" fill="#f2b3ad" d="M 106.5,208.5 C 103.456,210.011 100.122,210.678 96.5,210.5C 92.5544,211.419 88.7211,211.752 85,211.5C 84.5357,210.906 84.369,210.239 84.5,209.5C 87.9369,208.042 91.4369,207.708 95,208.5C 97.5252,205.817 100.359,203.484 103.5,201.5C 104.532,203.04 105.865,203.54 107.5,203C 110.215,202.125 111.548,200.292 111.5,197.5C 109.833,197.5 108.167,197.5 106.5,197.5C 106.11,192.554 103.943,191.554 100,194.5C 98.4152,192.799 98.9152,191.465 101.5,190.5C 101.56,191.043 101.893,191.376 102.5,191.5C 103.249,189.988 104.416,188.988 106,188.5C 112.09,191.322 118.423,191.988 125,190.5C 128.489,191.276 131.989,191.942 135.5,192.5C 135.759,196.24 135.426,199.906 134.5,203.5C 132.039,205.74 129.373,206.073 126.5,204.5C 126.5,205.5 126.5,206.5 126.5,207.5C 123.285,207.595 120.451,206.595 118,204.5C 115.54,205.598 113.04,206.598 110.5,207.5C 108.703,206.068 107.37,206.401 106.5,208.5 Z"/></g>
<g><path style="opacity:1" fill="#a8493f" d="M 187.5,210.5 C 186.791,209.596 185.791,209.263 184.5,209.5C 184.771,207.62 184.104,206.287 182.5,205.5C 182.5,203.833 182.5,202.167 182.5,200.5C 189.418,199.764 192.418,203.097 191.5,210.5C 190.167,210.5 188.833,210.5 187.5,210.5 Z"/></g>
<g><path style="opacity:1" fill="#671a12" d="M 194.5,167.5 C 207.06,174.389 216.06,184.389 221.5,197.5C 222.267,201.305 222.933,205.139 223.5,209C 223.167,210.5 222.833,212 222.5,213.5C 221.818,212.757 221.151,212.091 220.5,211.5C 220.808,209.076 220.474,206.743 219.5,204.5C 217.44,206.892 215.273,206.892 213,204.5C 212.788,201.242 212.288,198.076 211.5,195C 212.448,194.517 213.448,194.351 214.5,194.5C 216.173,187.893 213.84,183.893 207.5,182.5C 207.719,181.325 207.386,180.325 206.5,179.5C 204.289,178.877 202.289,177.877 200.5,176.5C 198.807,173.169 196.807,170.169 194.5,167.5 Z"/></g>
<g><path style="opacity:1" fill="#f6623d" d="M 79.5,197.5 C 77.2626,200.944 76.9293,204.61 78.5,208.5C 77.1779,208.33 76.0113,208.663 75,209.5C 74.5034,207.19 74.3367,204.857 74.5,202.5C 67.7967,202.766 66.9633,200.766 72,196.5C 72.5791,195.072 72.4124,193.738 71.5,192.5C 71.3691,191.624 71.7025,190.957 72.5,190.5C 75.5321,192.32 77.8655,194.653 79.5,197.5 Z"/></g>
<g><path style="opacity:1" fill="#711009" d="M 181.5,162.5 C 186.223,163.37 190.556,165.036 194.5,167.5C 196.807,170.169 198.807,173.169 200.5,176.5C 202.289,177.877 204.289,178.877 206.5,179.5C 207.386,180.325 207.719,181.325 207.5,182.5C 213.84,183.893 216.173,187.893 214.5,194.5C 213.448,194.351 212.448,194.517 211.5,195C 212.288,198.076 212.788,201.242 213,204.5C 215.273,206.892 217.44,206.892 219.5,204.5C 220.474,206.743 220.808,209.076 220.5,211.5C 220.5,212.5 220.5,213.5 220.5,214.5C 219.167,217.833 219.167,221.167 220.5,224.5C 219.5,224.5 218.5,224.5 217.5,224.5C 217.077,220.449 217.744,216.616 219.5,213C 219.167,212.5 218.833,212 218.5,211.5C 216.407,211.831 214.74,213.331 213.5,216C 215.395,220.031 215.395,224.197 213.5,228.5C 212.416,227.335 211.583,226.002 211,224.5C 210.556,217.505 208.889,210.839 206,204.5C 205.333,203.833 204.667,203.167 204,202.5C 200.806,205.64 199.972,209.307 201.5,213.5C 202.325,214.386 203.325,214.719 204.5,214.5C 204.5,215.833 204.5,217.167 204.5,218.5C 205.833,218.5 207.167,218.5 208.5,218.5C 208.5,219.5 208.5,220.5 208.5,221.5C 204.303,222.25 200.97,220.917 198.5,217.5C 197.876,213.21 197.71,208.876 198,204.5C 195.259,202.933 194.092,200.599 194.5,197.5C 195.833,197.5 197.167,197.5 198.5,197.5C 197.833,193.833 197.167,190.167 196.5,186.5C 198.924,186.808 201.257,186.474 203.5,185.5C 200.86,182.233 199.193,178.567 198.5,174.5C 197.167,174.5 195.833,174.5 194.5,174.5C 192.947,172.615 190.947,171.615 188.5,171.5C 188.5,170.5 188.5,169.5 188.5,168.5C 189.552,168.649 190.552,168.483 191.5,168C 190.213,166.214 188.713,166.047 187,167.5C 185.221,165.707 183.388,164.041 181.5,162.5 Z"/></g>
<g><path style="opacity:1" fill="#e8847b" d="M 134.5,208.5 C 133.942,209.79 132.942,210.623 131.5,211C 128.22,211.056 125.22,211.889 122.5,213.5C 121.051,212.383 119.384,211.716 117.5,211.5C 114.401,212.217 111.401,213.217 108.5,214.5C 107.614,213.675 107.281,212.675 107.5,211.5C 103.864,212.326 100.197,212.992 96.5,213.5C 96.5,212.5 96.5,211.5 96.5,210.5C 100.122,210.678 103.456,210.011 106.5,208.5C 115.545,209.225 124.878,209.225 134.5,208.5 Z"/></g>
<g><path style="opacity:1" fill="#faa58a" d="M 81.5,194.5 C 80.9707,196.783 80.6374,199.117 80.5,201.5C 80.3161,204.205 80.9827,206.538 82.5,208.5C 83.1667,208.833 83.8333,209.167 84.5,209.5C 84.369,210.239 84.5357,210.906 85,211.5C 88.7211,211.752 92.5544,211.419 96.5,210.5C 96.5,211.5 96.5,212.5 96.5,213.5C 96.4431,214.609 96.1098,215.609 95.5,216.5C 94.8333,216.5 94.5,216.833 94.5,217.5C 88.8649,216.508 83.8649,214.175 79.5,210.5C 79.6716,209.508 79.3382,208.842 78.5,208.5C 76.9293,204.61 77.2626,200.944 79.5,197.5C 79.427,195.973 80.0937,194.973 81.5,194.5 Z"/></g>
<g><path style="opacity:1" fill="#d95f57" d="M 145.5,204.5 C 141.063,207.759 136.73,211.259 132.5,215C 126.785,217.382 121.452,216.882 116.5,213.5C 114.5,214 112.5,214.5 110.5,215C 109.748,215.671 109.414,216.504 109.5,217.5C 109.167,217.5 108.833,217.5 108.5,217.5C 104.19,216.92 99.8566,216.586 95.5,216.5C 96.1098,215.609 96.4431,214.609 96.5,213.5C 100.197,212.992 103.864,212.326 107.5,211.5C 107.281,212.675 107.614,213.675 108.5,214.5C 111.401,213.217 114.401,212.217 117.5,211.5C 119.384,211.716 121.051,212.383 122.5,213.5C 125.22,211.889 128.22,211.056 131.5,211C 132.942,210.623 133.942,209.79 134.5,208.5C 136.487,207.836 138.154,206.669 139.5,205C 141.473,204.505 143.473,204.338 145.5,204.5 Z"/></g>
<g><path style="opacity:1" fill="#9d0b05" d="M 184.5,187.5 C 185.533,190.048 187.2,192.215 189.5,194C 189.22,195.395 188.553,196.562 187.5,197.5C 183.489,193.255 181.822,194.255 182.5,200.5C 182.5,202.167 182.5,203.833 182.5,205.5C 182.5,207.5 182.5,209.5 182.5,211.5C 179.612,210.99 177.279,211.656 175.5,213.5C 175.535,219.566 172.702,221.566 167,219.5C 167.498,221.527 167.331,223.527 166.5,225.5C 164.809,223.744 162.809,223.244 160.5,224C 163.028,226.075 162.861,226.908 160,226.5C 158.326,227.676 156.826,229.01 155.5,230.5C 154.914,230.291 154.414,229.957 154,229.5C 153.506,231.134 153.34,232.801 153.5,234.5C 152.678,232.611 151.845,230.611 151,228.5C 149.989,227.663 148.822,227.33 147.5,227.5C 146.578,232.472 146.412,237.472 147,242.5C 147.75,243.126 148.584,243.626 149.5,244C 140.69,244.692 137.69,240.858 140.5,232.5C 139.5,232.5 138.5,232.5 137.5,232.5C 137.02,236.244 136.354,236.077 135.5,232C 135.669,229.833 136.836,228.666 139,228.5C 140.368,229.703 141.868,230.703 143.5,231.5C 143.833,231 144.167,230.5 144.5,230C 142.987,228.121 142.321,225.954 142.5,223.5C 145.944,222.955 147.111,220.955 146,217.5C 145.617,216.944 145.117,216.611 144.5,216.5C 144.5,216.167 144.5,215.833 144.5,215.5C 146.153,214.395 147.82,214.229 149.5,215C 150.337,213.989 150.67,212.822 150.5,211.5C 151.873,211.343 153.207,211.51 154.5,212C 157.854,215.254 160.188,214.421 161.5,209.5C 166.047,207.744 168.047,204.411 167.5,199.5C 170.157,199.838 172.49,199.171 174.5,197.5C 176.55,198.077 177.55,199.41 177.5,201.5C 178.5,201.5 179.5,201.5 180.5,201.5C 180.567,199.599 180.233,197.766 179.5,196C 179.949,193.717 181.283,192.217 183.5,191.5C 184.429,190.311 184.762,188.978 184.5,187.5 Z"/></g>
<g><path style="opacity:1" fill="#f88762" d="M 79.5,210.5 C 83.8649,214.175 88.8649,216.508 94.5,217.5C 94.5,218.167 94.1667,218.5 93.5,218.5C 91.8333,218.5 90.1667,218.5 88.5,218.5C 87.2921,217.766 85.9587,217.433 84.5,217.5C 81.7102,216.033 80.0435,213.7 79.5,210.5 Z"/></g>
<g><path style="opacity:0.409" fill="#616161" d="M 268.5,213.5 C 269.94,214.946 270.607,216.779 270.5,219C 269.181,228.835 269.181,238.669 270.5,248.5C 270.564,250.557 269.898,252.223 268.5,253.5C 267.833,253.5 267.167,253.5 266.5,253.5C 268.384,240.306 269.051,226.972 268.5,213.5 Z"/></g>
<g><path style="opacity:1" fill="#f24113" d="M 71.5,192.5 C 72.4124,193.738 72.5791,195.072 72,196.5C 66.9633,200.766 67.7967,202.766 74.5,202.5C 74.3367,204.857 74.5034,207.19 75,209.5C 76.0113,208.663 77.1779,208.33 78.5,208.5C 78.7079,212.879 78.3745,217.213 77.5,221.5C 77.8333,223.833 78.8333,224.167 80.5,222.5C 81.4519,224.045 81.7852,225.712 81.5,227.5C 77.1829,226.492 74.8495,228.159 74.5,232.5C 72.6137,233.361 70.7804,234.361 69,235.5C 68.8078,233.423 68.3078,231.423 67.5,229.5C 66.7189,230.729 66.2189,232.062 66,233.5C 64.8695,230.555 64.0362,227.555 63.5,224.5C 63.4311,216.798 63.9311,209.131 65,201.5C 67.4172,198.598 69.5839,195.598 71.5,192.5 Z"/></g>
<g><path style="opacity:1" fill="#c52a25" d="M 154.5,199.5 C 153.032,200.779 152.365,202.446 152.5,204.5C 150.833,204.5 149.167,204.5 147.5,204.5C 145.654,207.881 144.654,211.547 144.5,215.5C 144.5,215.833 144.5,216.167 144.5,216.5C 143.721,218.927 142.554,218.927 141,216.5C 138.823,218.965 136.323,219.965 133.5,219.5C 135.479,221.264 135.812,223.264 134.5,225.5C 133.028,223.242 131.528,220.908 130,218.5C 126.615,220.816 122.782,221.816 118.5,221.5C 118.5,220.167 118.5,218.833 118.5,217.5C 115.5,217.5 112.5,217.5 109.5,217.5C 109.414,216.504 109.748,215.671 110.5,215C 112.5,214.5 114.5,214 116.5,213.5C 121.452,216.882 126.785,217.382 132.5,215C 136.73,211.259 141.063,207.759 145.5,204.5C 146.404,203.791 146.737,202.791 146.5,201.5C 149.167,200.833 151.833,200.167 154.5,199.5 Z"/></g>
<g><path style="opacity:1" fill="#d34e43" d="M 64.5,192.5 C 62.7099,197.433 60.8765,202.433 59,207.5C 58.5014,211.152 58.3347,214.818 58.5,218.5C 57.5269,220.948 57.1936,223.615 57.5,226.5C 56.5128,221.695 56.1795,216.695 56.5,211.5C 56.9926,209.194 57.3259,206.861 57.5,204.5C 59.3437,200.136 61.677,196.136 64.5,192.5 Z"/></g>
<g><path style="opacity:1" fill="#af1507" d="M 144.5,216.5 C 145.117,216.611 145.617,216.944 146,217.5C 147.111,220.955 145.944,222.955 142.5,223.5C 142.321,225.954 142.987,228.121 144.5,230C 144.167,230.5 143.833,231 143.5,231.5C 141.868,230.703 140.368,229.703 139,228.5C 136.836,228.666 135.669,229.833 135.5,232C 136.354,236.077 137.02,236.244 137.5,232.5C 138.5,232.5 139.5,232.5 140.5,232.5C 137.69,240.858 140.69,244.692 149.5,244C 148.584,243.626 147.75,243.126 147,242.5C 146.412,237.472 146.578,232.472 147.5,227.5C 148.822,227.33 149.989,227.663 151,228.5C 151.845,230.611 152.678,232.611 153.5,234.5C 154.37,238.182 155.37,241.848 156.5,245.5C 156.328,247.548 155.995,249.548 155.5,251.5C 155.5,251.833 155.5,252.167 155.5,252.5C 152.592,252.738 150.258,251.738 148.5,249.5C 146.162,251.011 145.496,250.677 146.5,248.5C 144.922,247.702 143.256,247.202 141.5,247C 141.833,246.667 142.167,246.333 142.5,246C 141.584,245.626 140.75,245.126 140,244.5C 139.692,245.308 139.192,245.975 138.5,246.5C 137.571,245.311 137.238,243.978 137.5,242.5C 136.5,242.5 135.5,242.5 134.5,242.5C 134.719,243.675 134.386,244.675 133.5,245.5C 131.931,244.286 131.098,242.619 131,240.5C 130,241.833 129,241.833 128,240.5C 127.59,243.714 126.09,244.38 123.5,242.5C 121.962,242.453 120.962,243.12 120.5,244.5C 119.596,243.791 119.263,242.791 119.5,241.5C 119.9,239.623 120.9,238.123 122.5,237C 121.591,235.211 121.424,233.377 122,231.5C 125.303,232.695 126.803,231.362 126.5,227.5C 126.43,226.228 126.097,225.062 125.5,224C 122.809,223.844 120.476,223.011 118.5,221.5C 122.782,221.816 126.615,220.816 130,218.5C 131.528,220.908 133.028,223.242 134.5,225.5C 135.812,223.264 135.479,221.264 133.5,219.5C 136.323,219.965 138.823,218.965 141,216.5C 142.554,218.927 143.721,218.927 144.5,216.5 Z"/></g>
<g><path style="opacity:1" fill="#8f0a04" d="M 175.5,213.5 C 175.318,215.591 175.652,217.591 176.5,219.5C 174.807,220.228 173.307,221.228 172,222.5C 169.809,225.545 168.309,228.545 167.5,231.5C 169.042,234.367 171.209,236.701 174,238.5C 174.847,240.854 175.68,243.188 176.5,245.5C 174.058,245.354 173.391,246.187 174.5,248C 169.558,248.637 164.891,250.137 160.5,252.5C 158.793,252.272 157.126,251.938 155.5,251.5C 155.995,249.548 156.328,247.548 156.5,245.5C 155.37,241.848 154.37,238.182 153.5,234.5C 153.34,232.801 153.506,231.134 154,229.5C 154.414,229.957 154.914,230.291 155.5,230.5C 156.826,229.01 158.326,227.676 160,226.5C 162.861,226.908 163.028,226.075 160.5,224C 162.809,223.244 164.809,223.744 166.5,225.5C 167.331,223.527 167.498,221.527 167,219.5C 172.702,221.566 175.535,219.566 175.5,213.5 Z"/></g>
<g><path style="opacity:1" fill="#82150c" d="M 194.5,174.5 C 195.833,174.5 197.167,174.5 198.5,174.5C 199.193,178.567 200.86,182.233 203.5,185.5C 201.257,186.474 198.924,186.808 196.5,186.5C 197.167,190.167 197.833,193.833 198.5,197.5C 197.167,197.5 195.833,197.5 194.5,197.5C 194.092,200.599 195.259,202.933 198,204.5C 197.71,208.876 197.876,213.21 198.5,217.5C 200.97,220.917 204.303,222.25 208.5,221.5C 208.5,220.5 208.5,219.5 208.5,218.5C 207.167,218.5 205.833,218.5 204.5,218.5C 204.5,217.167 204.5,215.833 204.5,214.5C 203.325,214.719 202.325,214.386 201.5,213.5C 199.972,209.307 200.806,205.64 204,202.5C 204.667,203.167 205.333,203.833 206,204.5C 208.889,210.839 210.556,217.505 211,224.5C 211.583,226.002 212.416,227.335 213.5,228.5C 215.395,224.197 215.395,220.031 213.5,216C 214.74,213.331 216.407,211.831 218.5,211.5C 218.833,212 219.167,212.5 219.5,213C 217.744,216.616 217.077,220.449 217.5,224.5C 218.5,224.5 219.5,224.5 220.5,224.5C 219.167,221.167 219.167,217.833 220.5,214.5C 221.117,214.611 221.617,214.944 222,215.5C 222.499,220.155 222.666,224.821 222.5,229.5C 220.283,230.369 217.95,230.702 215.5,230.5C 216.113,233.969 214.779,235.969 211.5,236.5C 211.286,238.144 211.62,239.644 212.5,241C 210.532,242.544 208.365,243.711 206,244.5C 204.599,242.808 202.766,242.141 200.5,242.5C 200.702,244.989 200.202,247.323 199,249.5C 198,249.167 197,248.833 196,248.5C 195.51,247.207 195.343,245.873 195.5,244.5C 195.728,240.061 195.728,235.728 195.5,231.5C 197.942,231.354 198.609,232.187 197.5,234C 199.5,237.333 201.5,237.333 203.5,234C 202.747,232.513 201.914,232.346 201,233.5C 201.379,231.925 201.212,230.425 200.5,229C 195.474,229.966 192.807,227.8 192.5,222.5C 190.876,222.36 189.71,223.027 189,224.5C 187.077,221.816 187.244,219.149 189.5,216.5C 188.246,214.666 187.579,212.666 187.5,210.5C 188.833,210.5 190.167,210.5 191.5,210.5C 192.418,203.097 189.418,199.764 182.5,200.5C 181.822,194.255 183.489,193.255 187.5,197.5C 188.553,196.562 189.22,195.395 189.5,194C 187.2,192.215 185.533,190.048 184.5,187.5C 184.5,187.167 184.5,186.833 184.5,186.5C 186.607,185.532 188.941,185.198 191.5,185.5C 192.039,182.305 191.039,179.805 188.5,178C 190.437,176.538 192.437,175.372 194.5,174.5 Z"/></g>
<g><path style="opacity:1" fill="#871007" d="M 182.5,205.5 C 184.104,206.287 184.771,207.62 184.5,209.5C 185.791,209.263 186.791,209.596 187.5,210.5C 187.579,212.666 188.246,214.666 189.5,216.5C 187.244,219.149 187.077,221.816 189,224.5C 189.71,223.027 190.876,222.36 192.5,222.5C 192.807,227.8 195.474,229.966 200.5,229C 201.212,230.425 201.379,231.925 201,233.5C 201.914,232.346 202.747,232.513 203.5,234C 201.5,237.333 199.5,237.333 197.5,234C 198.609,232.187 197.942,231.354 195.5,231.5C 195.728,235.728 195.728,240.061 195.5,244.5C 193.851,245.473 192.184,246.473 190.5,247.5C 188.789,246.419 187.289,245.085 186,243.5C 182.892,243.648 179.726,244.315 176.5,245.5C 175.68,243.188 174.847,240.854 174,238.5C 171.209,236.701 169.042,234.367 167.5,231.5C 168.309,228.545 169.809,225.545 172,222.5C 173.307,221.228 174.807,220.228 176.5,219.5C 175.652,217.591 175.318,215.591 175.5,213.5C 177.279,211.656 179.612,210.99 182.5,211.5C 182.5,209.5 182.5,207.5 182.5,205.5 Z"/></g>
<g><path style="opacity:1" fill="#944439" d="M 221.5,197.5 C 223.065,199.509 224.065,201.843 224.5,204.5C 224.942,208.154 225.276,211.821 225.5,215.5C 224.759,222.163 223.926,228.829 223,235.5C 222.617,236.056 222.117,236.389 221.5,236.5C 221.674,234.139 222.007,231.806 222.5,229.5C 222.666,224.821 222.499,220.155 222,215.5C 221.617,214.944 221.117,214.611 220.5,214.5C 220.5,213.5 220.5,212.5 220.5,211.5C 221.151,212.091 221.818,212.757 222.5,213.5C 222.833,212 223.167,210.5 223.5,209C 222.933,205.139 222.267,201.305 221.5,197.5 Z"/></g>
<g><path style="opacity:1" fill="#c51c08" d="M 108.5,217.5 C 108.833,217.5 109.167,217.5 109.5,217.5C 112.5,217.5 115.5,217.5 118.5,217.5C 118.5,218.833 118.5,220.167 118.5,221.5C 120.476,223.011 122.809,223.844 125.5,224C 126.097,225.062 126.43,226.228 126.5,227.5C 126.803,231.362 125.303,232.695 122,231.5C 121.424,233.377 121.591,235.211 122.5,237C 120.9,238.123 119.9,239.623 119.5,241.5C 115.236,245.111 110.236,246.445 104.5,245.5C 104.737,246.791 104.404,247.791 103.5,248.5C 103.204,246.597 102.537,244.93 101.5,243.5C 99.8333,242.833 98.1667,242.167 96.5,241.5C 100.037,241.058 103.37,240.058 106.5,238.5C 109.106,232.863 109.106,227.196 106.5,221.5C 106.752,219.927 107.418,218.594 108.5,217.5 Z"/></g>
<g><path style="opacity:1" fill="#f5782f" d="M 78.5,208.5 C 79.3382,208.842 79.6716,209.508 79.5,210.5C 80.0435,213.7 81.7102,216.033 84.5,217.5C 85.2653,220.096 85.5987,222.763 85.5,225.5C 86.5,225.5 87.5,225.5 88.5,225.5C 89.0577,229.011 89.7243,232.511 90.5,236C 90.3038,237.878 89.9705,239.712 89.5,241.5C 87.9065,244.061 86.9065,247.061 86.5,250.5C 84.9352,247.047 83.9352,243.381 83.5,239.5C 82.635,238.417 81.635,238.251 80.5,239C 79.9011,240.622 79.2344,242.122 78.5,243.5C 76.64,242.929 74.9733,242.929 73.5,243.5C 73.5524,239.802 73.8857,236.135 74.5,232.5C 74.8495,228.159 77.1829,226.492 81.5,227.5C 81.7852,225.712 81.4519,224.045 80.5,222.5C 78.8333,224.167 77.8333,223.833 77.5,221.5C 78.3745,217.213 78.7079,212.879 78.5,208.5 Z"/></g>
<g><path style="opacity:1" fill="#f2b9b0" d="M 57.5,204.5 C 57.3259,206.861 56.9926,209.194 56.5,211.5C 55.6607,220.786 55.6607,230.119 56.5,239.5C 57.8268,246.781 58.8268,254.114 59.5,261.5C 57.8056,258.597 56.4722,255.43 55.5,252C 53.7104,239.55 53.2104,227.05 54,214.5C 54.7013,210.891 55.8679,207.558 57.5,204.5 Z"/></g>
<g><path style="opacity:1" fill="#f24f2f" d="M 58.5,218.5 C 57.8874,222.512 59.5541,224.512 63.5,224.5C 64.0362,227.555 64.8695,230.555 66,233.5C 66.2189,232.062 66.7189,230.729 67.5,229.5C 68.3078,231.423 68.8078,233.423 69,235.5C 70.7804,234.361 72.6137,233.361 74.5,232.5C 73.8857,236.135 73.5524,239.802 73.5,243.5C 68.8823,244.691 66.3823,243.025 66,238.5C 64.1881,236.7 62.3548,235.033 60.5,233.5C 58.9255,231.453 57.9255,229.119 57.5,226.5C 57.1936,223.615 57.5269,220.948 58.5,218.5 Z"/></g>
<g><path style="opacity:1" fill="#e4480f" d="M 84.5,217.5 C 85.9587,217.433 87.2921,217.766 88.5,218.5C 88.8118,221.273 89.9784,223.607 92,225.5C 92.6667,230.833 92.6667,236.167 92,241.5C 91.2303,242.598 90.397,242.598 89.5,241.5C 89.9705,239.712 90.3038,237.878 90.5,236C 89.7243,232.511 89.0577,229.011 88.5,225.5C 87.5,225.5 86.5,225.5 85.5,225.5C 85.5987,222.763 85.2653,220.096 84.5,217.5 Z"/></g>
<g><path style="opacity:1" fill="#caa297" d="M 224.5,204.5 C 230.112,215.761 231.945,227.761 230,240.5C 228.419,253.909 225.253,266.909 220.5,279.5C 220.167,279.5 219.833,279.5 219.5,279.5C 220.275,275.186 220.941,270.853 221.5,266.5C 224.891,257.643 226.391,248.309 226,238.5C 228.459,232.79 229.126,226.79 228,220.5C 227.722,219.584 227.222,218.918 226.5,218.5C 226.737,217.209 226.404,216.209 225.5,215.5C 225.276,211.821 224.942,208.154 224.5,204.5 Z"/></g>
<g><path style="opacity:1" fill="#dd3811" d="M 95.5,216.5 C 99.8566,216.586 104.19,216.92 108.5,217.5C 107.418,218.594 106.752,219.927 106.5,221.5C 109.106,227.196 109.106,232.863 106.5,238.5C 103.37,240.058 100.037,241.058 96.5,241.5C 94.2636,236.085 93.9303,230.418 95.5,224.5C 94.7957,222.465 94.129,220.465 93.5,218.5C 94.1667,218.5 94.5,218.167 94.5,217.5C 94.5,216.833 94.8333,216.5 95.5,216.5 Z"/></g>
<g><path style="opacity:1" fill="#ec6a2c" d="M 88.5,218.5 C 90.1667,218.5 91.8333,218.5 93.5,218.5C 94.129,220.465 94.7957,222.465 95.5,224.5C 93.9303,230.418 94.2636,236.085 96.5,241.5C 98.1667,242.167 99.8333,242.833 101.5,243.5C 99.8333,243.5 98.1667,243.5 96.5,243.5C 95.1667,243.5 93.8333,243.5 92.5,243.5C 92.8076,245.924 92.4742,248.257 91.5,250.5C 91.1667,250.333 90.8333,250.167 90.5,250C 89.5562,247.281 89.2229,244.448 89.5,241.5C 90.397,242.598 91.2303,242.598 92,241.5C 92.6667,236.167 92.6667,230.833 92,225.5C 89.9784,223.607 88.8118,221.273 88.5,218.5 Z"/></g>
<g><path style="opacity:1" fill="#be8273" d="M 226.5,218.5 C 227.222,218.918 227.722,219.584 228,220.5C 229.126,226.79 228.459,232.79 226,238.5C 226.391,248.309 224.891,257.643 221.5,266.5C 220.661,255.887 221.827,245.553 225,235.5C 225.904,229.865 226.404,224.198 226.5,218.5 Z"/></g>
<g><path style="opacity:0.293" fill="#4e4e4e" d="M 266.5,253.5 C 267.167,253.5 267.833,253.5 268.5,253.5C 267.838,349.961 267.171,446.294 266.5,542.5C 266.5,446.167 266.5,349.833 266.5,253.5 Z"/></g>
<g><path style="opacity:1" fill="#a12e21" d="M 222.5,229.5 C 222.007,231.806 221.674,234.139 221.5,236.5C 221.5,236.833 221.5,237.167 221.5,237.5C 218.459,238.375 216.625,240.375 216,243.5C 212.992,241.968 211.158,242.968 210.5,246.5C 207.609,247.678 204.609,248.345 201.5,248.5C 201.5,249.5 201.5,250.5 201.5,251.5C 199.708,251.366 198.042,251.699 196.5,252.5C 194.533,252.739 192.699,252.406 191,251.5C 188.184,254.377 184.684,255.71 180.5,255.5C 180.277,259.625 178.777,260.291 176,257.5C 175.915,259.085 175.749,260.418 175.5,261.5C 172.651,260.825 170.651,259.158 169.5,256.5C 167.402,257.484 165.402,257.151 163.5,255.5C 162.479,256.901 161.479,258.235 160.5,259.5C 160.421,258.07 160.754,256.736 161.5,255.5C 159.979,255.12 158.313,254.954 156.5,255C 155.748,254.329 155.414,253.496 155.5,252.5C 155.5,252.167 155.5,251.833 155.5,251.5C 157.126,251.938 158.793,252.272 160.5,252.5C 164.891,250.137 169.558,248.637 174.5,248C 173.391,246.187 174.058,245.354 176.5,245.5C 179.726,244.315 182.892,243.648 186,243.5C 187.289,245.085 188.789,246.419 190.5,247.5C 192.184,246.473 193.851,245.473 195.5,244.5C 195.343,245.873 195.51,247.207 196,248.5C 197,248.833 198,249.167 199,249.5C 200.202,247.323 200.702,244.989 200.5,242.5C 202.766,242.141 204.599,242.808 206,244.5C 208.365,243.711 210.532,242.544 212.5,241C 211.62,239.644 211.286,238.144 211.5,236.5C 214.779,235.969 216.113,233.969 215.5,230.5C 217.95,230.702 220.283,230.369 222.5,229.5 Z"/></g>
<g><path style="opacity:1" fill="#b86959" d="M 225.5,215.5 C 226.404,216.209 226.737,217.209 226.5,218.5C 226.404,224.198 225.904,229.865 225,235.5C 221.827,245.553 220.661,255.887 221.5,266.5C 220.941,270.853 220.275,275.186 219.5,279.5C 218.098,281.875 216.765,284.209 215.5,286.5C 215.869,283.681 216.202,280.848 216.5,278C 216.309,275.95 215.642,274.117 214.5,272.5C 215.311,271.784 215.978,270.95 216.5,270C 215.726,266.692 215.06,263.359 214.5,260C 216.696,254.043 218.029,247.877 218.5,241.5C 220.55,240.923 221.55,239.59 221.5,237.5C 221.5,237.167 221.5,236.833 221.5,236.5C 222.117,236.389 222.617,236.056 223,235.5C 223.926,228.829 224.759,222.163 225.5,215.5 Z"/></g>
<g><path style="opacity:1" fill="#bd3b2a" d="M 155.5,252.5 C 155.414,253.496 155.748,254.329 156.5,255C 158.313,254.954 159.979,255.12 161.5,255.5C 160.754,256.736 160.421,258.07 160.5,259.5C 159.778,259.918 159.278,260.584 159,261.5C 157.604,259.473 155.938,259.14 154,260.5C 153.517,259.552 153.351,258.552 153.5,257.5C 152.167,257.5 150.833,257.5 149.5,257.5C 149.731,261.055 148.398,262.555 145.5,262C 144.809,263.067 144.309,264.234 144,265.5C 140.949,264.907 138.283,263.573 136,261.5C 135.95,263.518 135.117,265.518 133.5,267.5C 131.591,268.348 129.591,268.682 127.5,268.5C 126.596,267.791 126.263,266.791 126.5,265.5C 128.167,265.5 129.833,265.5 131.5,265.5C 131.269,262.1 129.436,260.1 126,259.5C 124.477,257.17 123.977,254.836 124.5,252.5C 121.278,250.86 119.944,248.193 120.5,244.5C 120.962,243.12 121.962,242.453 123.5,242.5C 126.09,244.38 127.59,243.714 128,240.5C 129,241.833 130,241.833 131,240.5C 131.098,242.619 131.931,244.286 133.5,245.5C 134.386,244.675 134.719,243.675 134.5,242.5C 135.5,242.5 136.5,242.5 137.5,242.5C 137.238,243.978 137.571,245.311 138.5,246.5C 139.192,245.975 139.692,245.308 140,244.5C 140.75,245.126 141.584,245.626 142.5,246C 142.167,246.333 141.833,246.667 141.5,247C 143.256,247.202 144.922,247.702 146.5,248.5C 145.496,250.677 146.162,251.011 148.5,249.5C 150.258,251.738 152.592,252.738 155.5,252.5 Z"/></g>
<g><path style="opacity:1" fill="#af483a" d="M 221.5,237.5 C 221.55,239.59 220.55,240.923 218.5,241.5C 218.029,247.877 216.696,254.043 214.5,260C 215.06,263.359 215.726,266.692 216.5,270C 215.978,270.95 215.311,271.784 214.5,272.5C 215.642,274.117 216.309,275.95 216.5,278C 216.202,280.848 215.869,283.681 215.5,286.5C 214.596,287.209 214.263,288.209 214.5,289.5C 214.167,289.5 213.833,289.5 213.5,289.5C 213.167,289.5 212.833,289.5 212.5,289.5C 212.571,286.689 213.238,284.022 214.5,281.5C 214.333,280.833 214.167,280.167 214,279.5C 211.382,283.108 210.549,283.108 211.5,279.5C 209.666,277.502 208.666,275.168 208.5,272.5C 204.97,273.011 201.804,272.344 199,270.5C 197.509,272.004 195.676,272.837 193.5,273C 194.458,274.147 194.125,275.147 192.5,276C 187.09,275.866 185.423,273.199 187.5,268C 186.094,265.555 184.76,263.055 183.5,260.5C 183.833,260.167 184.167,259.833 184.5,259.5C 185.167,260.167 185.833,260.833 186.5,261.5C 188.16,257.921 190.327,257.588 193,260.5C 194.648,259.283 196.481,258.45 198.5,258C 196.738,256.238 196.072,254.405 196.5,252.5C 198.042,251.699 199.708,251.366 201.5,251.5C 201.5,250.5 201.5,249.5 201.5,248.5C 204.609,248.345 207.609,247.678 210.5,246.5C 211.158,242.968 212.992,241.968 216,243.5C 216.625,240.375 218.459,238.375 221.5,237.5 Z"/></g>
<g><path style="opacity:1" fill="#f28161" d="M 60.5,233.5 C 62.3548,235.033 64.1881,236.7 66,238.5C 66.3823,243.025 68.8823,244.691 73.5,243.5C 74.9733,242.929 76.64,242.929 78.5,243.5C 75.4008,244.686 74.0675,247.019 74.5,250.5C 77.1667,250.5 79.8333,250.5 82.5,250.5C 83.3585,256.697 83.3585,262.863 82.5,269C 84.1109,271.21 84.7776,273.71 84.5,276.5C 84.8938,277.967 85.2272,279.467 85.5,281C 85.3158,282.376 84.6491,283.209 83.5,283.5C 81.703,281.566 80.703,279.233 80.5,276.5C 76.951,270.029 74.451,263.029 73,255.5C 71.49,260.438 69.1566,260.771 66,256.5C 65.1144,251.53 64.4477,246.53 64,241.5C 63.2904,240.027 62.1238,239.36 60.5,239.5C 60.5,237.5 60.5,235.5 60.5,233.5 Z"/></g>
<g><path style="opacity:1" fill="#d85a39" d="M 96.5,243.5 C 98.1667,243.5 99.8333,243.5 101.5,243.5C 102.537,244.93 103.204,246.597 103.5,248.5C 104.301,250.042 104.634,251.708 104.5,253.5C 105.833,253.5 107.167,253.5 108.5,253.5C 108.793,257.437 108.46,261.27 107.5,265C 108.793,265.49 110.127,265.657 111.5,265.5C 110.886,260.865 112.052,256.865 115,253.5C 115.333,256.833 115.667,260.167 116,263.5C 116.333,261.5 116.667,259.5 117,257.5C 117.414,257.043 117.914,256.709 118.5,256.5C 117.943,259.449 118.609,262.283 120.5,265C 120.125,267.92 119.792,270.753 119.5,273.5C 117.058,273.119 116.391,273.786 117.5,275.5C 117.043,276.298 116.376,276.631 115.5,276.5C 114.549,275.081 114.216,273.415 114.5,271.5C 113.5,271.5 112.5,271.5 111.5,271.5C 111.5,272.833 111.5,274.167 111.5,275.5C 110.041,275.567 108.708,275.234 107.5,274.5C 105.384,268.709 104.05,262.709 103.5,256.5C 101.929,259.093 99.5959,260.093 96.5,259.5C 96.665,262.85 96.4983,266.183 96,269.5C 95.3333,268.833 94.6667,268.167 94,267.5C 93.4992,262.492 92.9992,257.492 92.5,252.5C 93.8333,252.5 95.1667,252.5 96.5,252.5C 96.5,249.5 96.5,246.5 96.5,243.5 Z"/></g>
<g><path style="opacity:1" fill="#f59178" d="M 56.5,211.5 C 56.1795,216.695 56.5128,221.695 57.5,226.5C 57.9255,229.119 58.9255,231.453 60.5,233.5C 60.5,235.5 60.5,237.5 60.5,239.5C 62.1238,239.36 63.2904,240.027 64,241.5C 64.4477,246.53 65.1144,251.53 66,256.5C 69.1566,260.771 71.49,260.438 73,255.5C 74.451,263.029 76.951,270.029 80.5,276.5C 78.8007,276.527 77.4674,277.194 76.5,278.5C 75.7784,278.082 75.2784,277.416 75,276.5C 74.586,276.957 74.086,277.291 73.5,277.5C 72.7189,276.271 72.2189,274.938 72,273.5C 70.4878,272.743 69.1545,271.743 68,270.5C 67.6667,266.833 67.3333,263.167 67,259.5C 65.9887,258.663 64.8221,258.33 63.5,258.5C 62.016,253.274 60.8493,247.941 60,242.5C 59.2411,240.937 58.0744,239.937 56.5,239.5C 55.6607,230.119 55.6607,220.786 56.5,211.5 Z"/></g>
<g><path style="opacity:1" fill="#ce4d38" d="M 119.5,241.5 C 119.263,242.791 119.596,243.791 120.5,244.5C 119.944,248.193 121.278,250.86 124.5,252.5C 123.977,254.836 124.477,257.17 126,259.5C 129.436,260.1 131.269,262.1 131.5,265.5C 129.833,265.5 128.167,265.5 126.5,265.5C 126.263,266.791 126.596,267.791 127.5,268.5C 129.248,269.789 129.581,271.289 128.5,273C 129.167,273.167 129.833,273.333 130.5,273.5C 134.463,270.787 138.797,269.621 143.5,270C 144.406,271.699 144.739,273.533 144.5,275.5C 142.158,269.875 140.492,270.208 139.5,276.5C 138.614,275.675 138.281,274.675 138.5,273.5C 131.001,273.312 128.001,276.645 129.5,283.5C 128.952,286.084 127.285,287.084 124.5,286.5C 125.038,281.358 123.372,280.025 119.5,282.5C 118.115,280.464 116.782,278.464 115.5,276.5C 116.376,276.631 117.043,276.298 117.5,275.5C 116.391,273.786 117.058,273.119 119.5,273.5C 119.792,270.753 120.125,267.92 120.5,265C 118.609,262.283 117.943,259.449 118.5,256.5C 117.914,256.709 117.414,257.043 117,257.5C 116.667,259.5 116.333,261.5 116,263.5C 115.667,260.167 115.333,256.833 115,253.5C 112.052,256.865 110.886,260.865 111.5,265.5C 110.127,265.657 108.793,265.49 107.5,265C 108.46,261.27 108.793,257.437 108.5,253.5C 107.167,253.5 105.833,253.5 104.5,253.5C 104.634,251.708 104.301,250.042 103.5,248.5C 104.404,247.791 104.737,246.791 104.5,245.5C 110.236,246.445 115.236,245.111 119.5,241.5 Z"/></g>
<g><path style="opacity:1" fill="#ef9157" d="M 89.5,241.5 C 89.2229,244.448 89.5562,247.281 90.5,250C 90.8333,250.167 91.1667,250.333 91.5,250.5C 92.4742,248.257 92.8076,245.924 92.5,243.5C 93.8333,243.5 95.1667,243.5 96.5,243.5C 96.5,246.5 96.5,249.5 96.5,252.5C 95.1667,252.5 93.8333,252.5 92.5,252.5C 92.9992,257.492 93.4992,262.492 94,267.5C 94.6667,268.167 95.3333,268.833 96,269.5C 96.4983,266.183 96.665,262.85 96.5,259.5C 99.5959,260.093 101.929,259.093 103.5,256.5C 104.05,262.709 105.384,268.709 107.5,274.5C 107.665,278.182 107.499,281.848 107,285.5C 104.803,283.051 103.303,283.217 102.5,286C 102.943,287.825 103.277,289.658 103.5,291.5C 104.93,291.579 106.264,291.246 107.5,290.5C 108.386,291.325 108.719,292.325 108.5,293.5C 106.142,292.822 103.975,292.488 102,292.5C 101.502,289.183 101.335,285.85 101.5,282.5C 100.167,282.5 98.8333,282.5 97.5,282.5C 97.4734,279.77 98.1401,277.27 99.5,275C 99.1667,274.167 98.8333,273.333 98.5,272.5C 96.9291,273.309 95.2624,273.643 93.5,273.5C 93.5,271.833 93.5,270.167 93.5,268.5C 91.0799,268.708 88.7466,268.374 86.5,267.5C 85.5713,268.689 85.238,270.022 85.5,271.5C 88.9496,270.756 90.6162,272.09 90.5,275.5C 88.4352,275.517 86.4352,275.85 84.5,276.5C 84.7776,273.71 84.1109,271.21 82.5,269C 83.3585,262.863 83.3585,256.697 82.5,250.5C 79.8333,250.5 77.1667,250.5 74.5,250.5C 74.0675,247.019 75.4008,244.686 78.5,243.5C 79.2344,242.122 79.9011,240.622 80.5,239C 81.635,238.251 82.635,238.417 83.5,239.5C 83.9352,243.381 84.9352,247.047 86.5,250.5C 86.9065,247.061 87.9065,244.061 89.5,241.5 Z"/></g>
<g><path style="opacity:1" fill="#bb4634" d="M 196.5,252.5 C 196.072,254.405 196.738,256.238 198.5,258C 196.481,258.45 194.648,259.283 193,260.5C 190.327,257.588 188.16,257.921 186.5,261.5C 185.833,260.833 185.167,260.167 184.5,259.5C 184.167,259.833 183.833,260.167 183.5,260.5C 184.76,263.055 186.094,265.555 187.5,268C 185.423,273.199 187.09,275.866 192.5,276C 194.125,275.147 194.458,274.147 193.5,273C 195.676,272.837 197.509,272.004 199,270.5C 201.804,272.344 204.97,273.011 208.5,272.5C 208.666,275.168 209.666,277.502 211.5,279.5C 210.549,283.108 211.382,283.108 214,279.5C 214.167,280.167 214.333,280.833 214.5,281.5C 213.238,284.022 212.571,286.689 212.5,289.5C 212.068,290.71 211.401,291.71 210.5,292.5C 210.551,290.43 209.885,288.597 208.5,287C 209.187,285.838 209.353,284.672 209,283.5C 207.307,284.184 205.807,285.184 204.5,286.5C 202.929,285.691 201.262,285.357 199.5,285.5C 198.012,284.169 197.345,282.836 197.5,281.5C 195.45,285.908 192.784,289.908 189.5,293.5C 188.526,291.257 188.192,288.924 188.5,286.5C 187.178,286.67 186.011,286.337 185,285.5C 184.667,287.833 184.333,290.167 184,292.5C 182.989,293.337 181.822,293.67 180.5,293.5C 180.5,295.167 180.5,296.833 180.5,298.5C 177.436,298.144 174.769,298.977 172.5,301C 175.063,301.763 175.063,302.263 172.5,302.5C 168.594,301.25 164.927,300.583 161.5,300.5C 162.687,297.054 163.354,293.387 163.5,289.5C 158.28,290.085 155.28,287.752 154.5,282.5C 153.476,281.147 152.143,280.48 150.5,280.5C 150.5,284.167 150.5,287.833 150.5,291.5C 149.167,291.5 147.833,291.5 146.5,291.5C 146.33,290.178 146.663,289.011 147.5,288C 143.736,285.108 143.07,281.608 145.5,277.5C 145.137,276.817 144.804,276.15 144.5,275.5C 144.739,273.533 144.406,271.699 143.5,270C 138.797,269.621 134.463,270.787 130.5,273.5C 129.833,273.333 129.167,273.167 128.5,273C 129.581,271.289 129.248,269.789 127.5,268.5C 129.591,268.682 131.591,268.348 133.5,267.5C 135.117,265.518 135.95,263.518 136,261.5C 138.283,263.573 140.949,264.907 144,265.5C 144.309,264.234 144.809,263.067 145.5,262C 148.398,262.555 149.731,261.055 149.5,257.5C 150.833,257.5 152.167,257.5 153.5,257.5C 153.351,258.552 153.517,259.552 154,260.5C 155.938,259.14 157.604,259.473 159,261.5C 159.278,260.584 159.778,259.918 160.5,259.5C 161.479,258.235 162.479,256.901 163.5,255.5C 165.402,257.151 167.402,257.484 169.5,256.5C 170.651,259.158 172.651,260.825 175.5,261.5C 175.749,260.418 175.915,259.085 176,257.5C 178.777,260.291 180.277,259.625 180.5,255.5C 184.684,255.71 188.184,254.377 191,251.5C 192.699,252.406 194.533,252.739 196.5,252.5 Z"/></g>
<g><path style="opacity:1" fill="#f8bfaf" d="M 59.5,261.5 C 62.5618,263.623 64.0618,266.623 64,270.5C 70.9627,278.479 76.296,287.479 80,297.5C 83.6041,299.383 87.1041,301.383 90.5,303.5C 91.5152,304.46 91.5152,305.627 90.5,307C 92.7058,308.25 94.0391,310.084 94.5,312.5C 93.5,311.833 92.5,311.167 91.5,310.5C 87.933,308.443 84.7663,305.777 82,302.5C 75.2519,294.656 69.2519,286.323 64,277.5C 62.6699,272.049 61.1699,266.716 59.5,261.5 Z"/></g>
<g><path style="opacity:1" fill="#f3a591" d="M 56.5,239.5 C 58.0744,239.937 59.2411,240.937 60,242.5C 60.8493,247.941 62.016,253.274 63.5,258.5C 64.8221,258.33 65.9887,258.663 67,259.5C 67.3333,263.167 67.6667,266.833 68,270.5C 69.1545,271.743 70.4878,272.743 72,273.5C 72.2189,274.938 72.7189,276.271 73.5,277.5C 74.086,277.291 74.586,276.957 75,276.5C 75.2784,277.416 75.7784,278.082 76.5,278.5C 76.3433,279.873 76.51,281.207 77,282.5C 79.0803,284.993 80.9136,287.659 82.5,290.5C 84.4086,289.652 86.4086,289.318 88.5,289.5C 88.5,291.167 88.5,292.833 88.5,294.5C 87.325,294.281 86.325,294.614 85.5,295.5C 87.7619,296.345 88.4286,297.678 87.5,299.5C 88.9095,300.569 89.9095,301.903 90.5,303.5C 87.1041,301.383 83.6041,299.383 80,297.5C 76.296,287.479 70.9627,278.479 64,270.5C 64.0618,266.623 62.5618,263.623 59.5,261.5C 58.8268,254.114 57.8268,246.781 56.5,239.5 Z"/></g>
<g><path style="opacity:1" fill="#eeab83" d="M 80.5,276.5 C 80.703,279.233 81.703,281.566 83.5,283.5C 85.1946,287.603 86.3613,287.27 87,282.5C 88.6811,284.548 90.1811,286.715 91.5,289C 90.9843,292.516 90.9843,296.016 91.5,299.5C 93.8098,304.164 96.4764,308.497 99.5,312.5C 100.965,313.737 102.632,314.737 104.5,315.5C 104.5,315.833 104.5,316.167 104.5,316.5C 103.209,316.263 102.209,316.596 101.5,317.5C 100.167,317.5 98.8333,317.5 97.5,317.5C 97.2785,315.336 96.2785,313.67 94.5,312.5C 94.0391,310.084 92.7058,308.25 90.5,307C 91.5152,305.627 91.5152,304.46 90.5,303.5C 89.9095,301.903 88.9095,300.569 87.5,299.5C 88.4286,297.678 87.7619,296.345 85.5,295.5C 86.325,294.614 87.325,294.281 88.5,294.5C 88.5,292.833 88.5,291.167 88.5,289.5C 86.4086,289.318 84.4086,289.652 82.5,290.5C 80.9136,287.659 79.0803,284.993 77,282.5C 76.51,281.207 76.3433,279.873 76.5,278.5C 77.4674,277.194 78.8007,276.527 80.5,276.5 Z"/></g>
<g><path style="opacity:1" fill="#f1a669" d="M 108.5,293.5 C 108.5,294.5 108.5,295.5 108.5,296.5C 109.5,296.5 110.5,296.5 111.5,296.5C 111.808,298.924 111.474,301.257 110.5,303.5C 109.369,302.249 108.036,301.249 106.5,300.5C 105.287,300.747 104.62,301.414 104.5,302.5C 102.134,299.751 99.6337,297.084 97,294.5C 96.8446,296.856 96.8446,299.189 97,301.5C 95.3333,300.5 93.6667,299.5 92,298.5C 91.6012,298.728 91.4346,299.062 91.5,299.5C 90.9843,296.016 90.9843,292.516 91.5,289C 90.1811,286.715 88.6811,284.548 87,282.5C 86.3613,287.27 85.1946,287.603 83.5,283.5C 84.6491,283.209 85.3158,282.376 85.5,281C 85.2272,279.467 84.8938,277.967 84.5,276.5C 86.4352,275.85 88.4352,275.517 90.5,275.5C 90.6162,272.09 88.9496,270.756 85.5,271.5C 85.238,270.022 85.5713,268.689 86.5,267.5C 88.7466,268.374 91.0799,268.708 93.5,268.5C 93.5,270.167 93.5,271.833 93.5,273.5C 95.2624,273.643 96.9291,273.309 98.5,272.5C 98.8333,273.333 99.1667,274.167 99.5,275C 98.1401,277.27 97.4734,279.77 97.5,282.5C 98.8333,282.5 100.167,282.5 101.5,282.5C 101.335,285.85 101.502,289.183 102,292.5C 103.975,292.488 106.142,292.822 108.5,293.5 Z"/></g>
<g><path style="opacity:1" fill="#ce5741" d="M 144.5,275.5 C 144.804,276.15 145.137,276.817 145.5,277.5C 143.07,281.608 143.736,285.108 147.5,288C 146.663,289.011 146.33,290.178 146.5,291.5C 147.833,291.5 149.167,291.5 150.5,291.5C 150.5,287.833 150.5,284.167 150.5,280.5C 152.143,280.48 153.476,281.147 154.5,282.5C 155.28,287.752 158.28,290.085 163.5,289.5C 163.354,293.387 162.687,297.054 161.5,300.5C 160.833,299.833 160.167,299.167 159.5,298.5C 159.918,297.778 160.584,297.278 161.5,297C 159.963,295.89 159.297,294.39 159.5,292.5C 157.876,292.64 156.71,291.973 156,290.5C 155.075,291.047 154.242,291.713 153.5,292.5C 154.706,294.516 154.706,296.516 153.5,298.5C 151.66,300.438 149.994,302.438 148.5,304.5C 145.701,302.786 142.701,301.453 139.5,300.5C 138.571,299.311 138.238,297.978 138.5,296.5C 137.167,296.5 135.833,296.5 134.5,296.5C 132.766,294.317 131.766,291.65 131.5,288.5C 132.779,286.059 132.113,284.392 129.5,283.5C 128.001,276.645 131.001,273.312 138.5,273.5C 138.281,274.675 138.614,275.675 139.5,276.5C 140.492,270.208 142.158,269.875 144.5,275.5 Z"/></g>
<g><path style="opacity:1" fill="#dd674b" d="M 115.5,276.5 C 116.782,278.464 118.115,280.464 119.5,282.5C 123.372,280.025 125.038,281.358 124.5,286.5C 127.285,287.084 128.952,286.084 129.5,283.5C 132.113,284.392 132.779,286.059 131.5,288.5C 131.766,291.65 132.766,294.317 134.5,296.5C 134.672,298.492 134.005,300.158 132.5,301.5C 133.167,302.5 133.833,303.5 134.5,304.5C 134.167,304.833 133.833,305.167 133.5,305.5C 129.675,299.934 126.675,300.267 124.5,306.5C 123.5,306.5 122.5,306.5 121.5,306.5C 119.604,304.163 118.27,301.496 117.5,298.5C 115.114,298.741 113.114,298.075 111.5,296.5C 110.5,296.5 109.5,296.5 108.5,296.5C 108.5,295.5 108.5,294.5 108.5,293.5C 108.719,292.325 108.386,291.325 107.5,290.5C 106.264,291.246 104.93,291.579 103.5,291.5C 103.277,289.658 102.943,287.825 102.5,286C 103.303,283.217 104.803,283.051 107,285.5C 107.499,281.848 107.665,278.182 107.5,274.5C 108.708,275.234 110.041,275.567 111.5,275.5C 111.5,274.167 111.5,272.833 111.5,271.5C 112.5,271.5 113.5,271.5 114.5,271.5C 114.216,273.415 114.549,275.081 115.5,276.5 Z"/></g>
<g><path style="opacity:1" fill="#e47b51" d="M 111.5,296.5 C 113.114,298.075 115.114,298.741 117.5,298.5C 118.27,301.496 119.604,304.163 121.5,306.5C 121.5,306.833 121.5,307.167 121.5,307.5C 121.167,307.5 120.833,307.5 120.5,307.5C 117.211,308.374 113.877,309.041 110.5,309.5C 109.292,308.766 107.959,308.433 106.5,308.5C 106.386,306.282 105.72,304.282 104.5,302.5C 104.62,301.414 105.287,300.747 106.5,300.5C 108.036,301.249 109.369,302.249 110.5,303.5C 111.474,301.257 111.808,298.924 111.5,296.5 Z"/></g>
<g><path style="opacity:1" fill="#b53b1c" d="M 199.5,285.5 C 198.201,290.096 195.868,294.096 192.5,297.5C 189.194,298.995 186.361,300.995 184,303.5C 182.893,303.585 181.893,303.919 181,304.5C 177.957,302.071 176.457,303.071 176.5,307.5C 175.209,307.263 174.209,307.596 173.5,308.5C 171.849,309.547 170.183,310.714 168.5,312C 164.608,312.419 160.942,313.252 157.5,314.5C 147.487,315.14 137.487,315.807 127.5,316.5C 126.508,316.672 125.842,316.338 125.5,315.5C 126.766,314.91 128.099,314.41 129.5,314C 129.167,313.667 128.833,313.333 128.5,313C 132.377,312.271 136.211,312.438 140,313.5C 140.5,313.167 141,312.833 141.5,312.5C 140.204,309.669 140.537,307.002 142.5,304.5C 143.833,305.5 145.167,306.5 146.5,307.5C 147.167,306.833 147.833,306.167 148.5,305.5C 151.276,309.4 153.943,309.4 156.5,305.5C 157.167,304.5 157.833,303.5 158.5,302.5C 159.434,301.432 159.768,300.099 159.5,298.5C 160.167,299.167 160.833,299.833 161.5,300.5C 164.927,300.583 168.594,301.25 172.5,302.5C 175.063,302.263 175.063,301.763 172.5,301C 174.769,298.977 177.436,298.144 180.5,298.5C 180.5,296.833 180.5,295.167 180.5,293.5C 181.822,293.67 182.989,293.337 184,292.5C 184.333,290.167 184.667,287.833 185,285.5C 186.011,286.337 187.178,286.67 188.5,286.5C 188.192,288.924 188.526,291.257 189.5,293.5C 192.784,289.908 195.45,285.908 197.5,281.5C 197.345,282.836 198.012,284.169 199.5,285.5 Z"/></g>
<g><path style="opacity:1" fill="#df8446" d="M 158.5,302.5 C 157.833,303.5 157.167,304.5 156.5,305.5C 155.244,305.904 154.077,306.571 153,307.5C 152.5,307.167 152,306.833 151.5,306.5C 152.955,304.78 153.788,302.78 154,300.5C 155.356,299.62 156.856,299.286 158.5,299.5C 158.5,300.5 158.5,301.5 158.5,302.5 Z"/></g>
<g><path style="opacity:1" fill="#9d2c12" d="M 210.5,292.5 C 209.07,292.421 207.736,292.754 206.5,293.5C 205.755,295.747 204.422,297.58 202.5,299C 196.118,302.798 189.451,305.798 182.5,308C 179.518,308.498 176.518,308.665 173.5,308.5C 174.209,307.596 175.209,307.263 176.5,307.5C 176.457,303.071 177.957,302.071 181,304.5C 181.893,303.919 182.893,303.585 184,303.5C 186.361,300.995 189.194,298.995 192.5,297.5C 195.868,294.096 198.201,290.096 199.5,285.5C 201.262,285.357 202.929,285.691 204.5,286.5C 205.807,285.184 207.307,284.184 209,283.5C 209.353,284.672 209.187,285.838 208.5,287C 209.885,288.597 210.551,290.43 210.5,292.5 Z"/></g>
<g><path style="opacity:1" fill="#b6a6a2" d="M 213.5,289.5 C 213.833,289.5 214.167,289.5 214.5,289.5C 214.369,290.376 214.702,291.043 215.5,291.5C 227.878,294.491 231.045,301.491 225,312.5C 223.075,313.88 221.241,315.38 219.5,317C 214.095,318.469 208.761,320.135 203.5,322C 179.401,324.629 155.401,325.129 131.5,323.5C 158.587,325.196 185.254,323.029 211.5,317C 214.286,311.343 217.453,305.843 221,300.5C 222.122,297.128 220.955,295.128 217.5,294.5C 215.981,293.59 214.315,292.757 212.5,292C 213.252,291.329 213.586,290.496 213.5,289.5 Z"/></g>
<g><path style="opacity:1" fill="#8d7871" d="M 212.5,289.5 C 212.833,289.5 213.167,289.5 213.5,289.5C 213.586,290.496 213.252,291.329 212.5,292C 214.315,292.757 215.981,293.59 217.5,294.5C 216.498,302.502 213.332,309.502 208,315.5C 196.861,319.138 185.361,321.138 173.5,321.5C 176.258,320.239 179.258,319.406 182.5,319C 185.106,318.208 187.106,316.708 188.5,314.5C 188.539,313.417 188.873,312.417 189.5,311.5C 193.756,309.549 197.423,306.882 200.5,303.5C 204.067,300.023 207.4,296.356 210.5,292.5C 211.401,291.71 212.068,290.71 212.5,289.5 Z"/></g>
<g><path style="opacity:1" fill="#822810" d="M 210.5,292.5 C 207.4,296.356 204.067,300.023 200.5,303.5C 197.484,304.343 194.817,305.843 192.5,308C 191.207,308.49 189.873,308.657 188.5,308.5C 178.34,311.329 168.007,313.329 157.5,314.5C 160.942,313.252 164.608,312.419 168.5,312C 170.183,310.714 171.849,309.547 173.5,308.5C 176.518,308.665 179.518,308.498 182.5,308C 189.451,305.798 196.118,302.798 202.5,299C 204.422,297.58 205.755,295.747 206.5,293.5C 207.736,292.754 209.07,292.421 210.5,292.5 Z"/></g>
<g><path style="opacity:1" fill="#f2ba76" d="M 104.5,302.5 C 105.72,304.282 106.386,306.282 106.5,308.5C 107.959,308.433 109.292,308.766 110.5,309.5C 110.539,310.583 110.873,311.583 111.5,312.5C 111,312.833 110.5,313.167 110,313.5C 106.559,312.618 103.059,312.284 99.5,312.5C 96.4764,308.497 93.8098,304.164 91.5,299.5C 91.4346,299.062 91.6012,298.728 92,298.5C 93.6667,299.5 95.3333,300.5 97,301.5C 96.8446,299.189 96.8446,296.856 97,294.5C 99.6337,297.084 102.134,299.751 104.5,302.5 Z"/></g>
<g><path style="opacity:1" fill="#d35e36" d="M 159.5,298.5 C 159.768,300.099 159.434,301.432 158.5,302.5C 158.5,301.5 158.5,300.5 158.5,299.5C 156.856,299.286 155.356,299.62 154,300.5C 153.788,302.78 152.955,304.78 151.5,306.5C 152,306.833 152.5,307.167 153,307.5C 154.077,306.571 155.244,305.904 156.5,305.5C 153.943,309.4 151.276,309.4 148.5,305.5C 147.833,306.167 147.167,306.833 146.5,307.5C 145.167,306.5 143.833,305.5 142.5,304.5C 140.537,307.002 140.204,309.669 141.5,312.5C 141,312.833 140.5,313.167 140,313.5C 136.211,312.438 132.377,312.271 128.5,313C 128.833,313.333 129.167,313.667 129.5,314C 128.099,314.41 126.766,314.91 125.5,315.5C 123.282,313.28 121.948,310.613 121.5,307.5C 121.5,307.167 121.5,306.833 121.5,306.5C 122.5,306.5 123.5,306.5 124.5,306.5C 126.675,300.267 129.675,299.934 133.5,305.5C 133.833,305.167 134.167,304.833 134.5,304.5C 133.833,303.5 133.167,302.5 132.5,301.5C 134.005,300.158 134.672,298.492 134.5,296.5C 135.833,296.5 137.167,296.5 138.5,296.5C 138.238,297.978 138.571,299.311 139.5,300.5C 142.701,301.453 145.701,302.786 148.5,304.5C 149.994,302.438 151.66,300.438 153.5,298.5C 154.706,296.516 154.706,294.516 153.5,292.5C 154.242,291.713 155.075,291.047 156,290.5C 156.71,291.973 157.876,292.64 159.5,292.5C 159.297,294.39 159.963,295.89 161.5,297C 160.584,297.278 159.918,297.778 159.5,298.5 Z"/></g>
<g><path style="opacity:1" fill="#d1c5c0" d="M 215.5,286.5 C 215.5,287.833 215.5,289.167 215.5,290.5C 236.086,293.132 239.086,301.965 224.5,317C 218.095,318.802 211.761,320.802 205.5,323C 179.561,325.299 153.561,326.133 127.5,325.5C 125.694,324.976 124.028,324.309 122.5,323.5C 125.5,323.5 128.5,323.5 131.5,323.5C 155.401,325.129 179.401,324.629 203.5,322C 208.761,320.135 214.095,318.469 219.5,317C 221.241,315.38 223.075,313.88 225,312.5C 231.045,301.491 227.878,294.491 215.5,291.5C 214.702,291.043 214.369,290.376 214.5,289.5C 214.263,288.209 214.596,287.209 215.5,286.5 Z"/></g>
<g><path style="opacity:1" fill="#ece6e3" d="M 219.5,279.5 C 219.833,279.5 220.167,279.5 220.5,279.5C 220.5,281.167 220.5,282.833 220.5,284.5C 226.884,285.629 233.217,286.962 239.5,288.5C 239.736,290.973 241.069,292.64 243.5,293.5C 245.989,304.38 242.322,312.38 232.5,317.5C 222.664,320.959 212.664,323.792 202.5,326C 177.33,326.83 152.33,326.663 127.5,325.5C 153.561,326.133 179.561,325.299 205.5,323C 211.761,320.802 218.095,318.802 224.5,317C 239.086,301.965 236.086,293.132 215.5,290.5C 215.5,289.167 215.5,287.833 215.5,286.5C 216.765,284.209 218.098,281.875 219.5,279.5 Z"/></g>
<g><path style="opacity:1" fill="#e59b4e" d="M 120.5,307.5 C 120.535,311.031 119.035,313.698 116,315.5C 112.244,315.049 108.411,315.049 104.5,315.5C 102.632,314.737 100.965,313.737 99.5,312.5C 103.059,312.284 106.559,312.618 110,313.5C 110.5,313.167 111,312.833 111.5,312.5C 110.873,311.583 110.539,310.583 110.5,309.5C 113.877,309.041 117.211,308.374 120.5,307.5 Z"/></g>
<g><path style="opacity:1" fill="#c97733" d="M 120.5,307.5 C 120.833,307.5 121.167,307.5 121.5,307.5C 121.948,310.613 123.282,313.28 125.5,315.5C 125.842,316.338 126.508,316.672 127.5,316.5C 127.5,316.833 127.5,317.167 127.5,317.5C 126.5,317.5 125.5,317.5 124.5,317.5C 118.185,316.89 111.851,316.557 105.5,316.5C 105.167,316.5 104.833,316.5 104.5,316.5C 104.5,316.167 104.5,315.833 104.5,315.5C 108.411,315.049 112.244,315.049 116,315.5C 119.035,313.698 120.535,311.031 120.5,307.5 Z"/></g>
<g><path style="opacity:1" fill="#5e1e11" d="M 188.5,308.5 C 188.175,310.132 187.175,311.132 185.5,311.5C 180.823,312.091 176.49,313.424 172.5,315.5C 157.799,316.026 143.132,316.693 128.5,317.5C 128.167,317.5 127.833,317.5 127.5,317.5C 127.5,317.167 127.5,316.833 127.5,316.5C 137.487,315.807 147.487,315.14 157.5,314.5C 168.007,313.329 178.34,311.329 188.5,308.5 Z"/></g>
<g><path style="opacity:1" fill="#e1ccc1" d="M 91.5,310.5 C 92.5,311.167 93.5,311.833 94.5,312.5C 96.2785,313.67 97.2785,315.336 97.5,317.5C 98.8333,317.5 100.167,317.5 101.5,317.5C 103.579,317.971 105.579,318.637 107.5,319.5C 111.8,320.939 116.133,322.272 120.5,323.5C 114.466,322.993 108.466,322.159 102.5,321C 99.2419,319.202 95.9086,317.702 92.5,316.5C 92.4828,314.435 92.1495,312.435 91.5,310.5 Z"/></g>
<g><path style="opacity:1" fill="#2b1814" d="M 172.5,315.5 C 175.187,315.336 177.854,315.503 180.5,316C 173.56,317.533 166.56,318.866 159.5,320C 147.5,320.667 135.5,320.667 123.5,320C 125.833,319.667 128.167,319.333 130.5,319C 129.584,318.722 128.918,318.222 128.5,317.5C 143.132,316.693 157.799,316.026 172.5,315.5 Z"/></g>
<g><path style="opacity:1" fill="#9c867e" d="M 217.5,294.5 C 220.955,295.128 222.122,297.128 221,300.5C 217.453,305.843 214.286,311.343 211.5,317C 185.254,323.029 158.587,325.196 131.5,323.5C 128.5,323.5 125.5,323.5 122.5,323.5C 121.833,323.5 121.167,323.5 120.5,323.5C 116.133,322.272 111.8,320.939 107.5,319.5C 113.583,319.522 119.583,320.189 125.5,321.5C 141.353,322.779 157.353,322.779 173.5,321.5C 185.361,321.138 196.861,319.138 208,315.5C 213.332,309.502 216.498,302.502 217.5,294.5 Z"/></g>
<g><path style="opacity:1" fill="#472b20" d="M 200.5,303.5 C 197.423,306.882 193.756,309.549 189.5,311.5C 188.873,312.417 188.539,313.417 188.5,314.5C 180.8,317.634 172.8,319.801 164.5,321C 151.504,321.5 138.504,321.667 125.5,321.5C 119.583,320.189 113.583,319.522 107.5,319.5C 105.579,318.637 103.579,317.971 101.5,317.5C 102.209,316.596 103.209,316.263 104.5,316.5C 104.833,316.5 105.167,316.5 105.5,316.5C 110.322,317.399 115.322,318.066 120.5,318.5C 122.045,318.489 123.378,318.156 124.5,317.5C 125.5,317.5 126.5,317.5 127.5,317.5C 127.833,317.5 128.167,317.5 128.5,317.5C 128.918,318.222 129.584,318.722 130.5,319C 128.167,319.333 125.833,319.667 123.5,320C 135.5,320.667 147.5,320.667 159.5,320C 166.56,318.866 173.56,317.533 180.5,316C 177.854,315.503 175.187,315.336 172.5,315.5C 176.49,313.424 180.823,312.091 185.5,311.5C 187.175,311.132 188.175,310.132 188.5,308.5C 189.873,308.657 191.207,308.49 192.5,308C 194.817,305.843 197.484,304.343 200.5,303.5 Z"/></g>
<g><path style="opacity:1" fill="#85481a" d="M 105.5,316.5 C 111.851,316.557 118.185,316.89 124.5,317.5C 123.378,318.156 122.045,318.489 120.5,318.5C 115.322,318.066 110.322,317.399 105.5,316.5 Z"/></g>
<g><path style="opacity:1" fill="#624b42" d="M 188.5,314.5 C 187.106,316.708 185.106,318.208 182.5,319C 179.258,319.406 176.258,320.239 173.5,321.5C 157.353,322.779 141.353,322.779 125.5,321.5C 138.504,321.667 151.504,321.5 164.5,321C 172.8,319.801 180.8,317.634 188.5,314.5 Z"/></g>
<g><path style="opacity:1" fill="#2c2c2c" d="M 7.5,28.5 C 8.86032,34.9084 9.86032,43.2418 10.5,53.5C 10.5,204.5 10.5,355.5 10.5,506.5C 8.73158,502.956 7.89825,498.956 8,494.5C 7.83167,476.329 7.33167,458.329 6.5,440.5C 6.5,304.833 6.5,169.167 6.5,33.5C 6.21552,31.5853 6.54885,29.9187 7.5,28.5 Z"/></g>
<g><path style="opacity:1" fill="#3b3b3b" d="M 7.5,222.5 C 8.16667,233.833 8.83333,245.167 9.5,256.5C 9.66666,332.501 9.5,408.501 9,484.5C 7.67716,397.172 7.17716,309.839 7.5,222.5 Z"/></g>
<g><path style="opacity:1" fill="#4b4b4b" d="M 9.5,256.5 C 8.83333,245.167 8.16667,233.833 7.5,222.5C 7.00842,167.083 7.50842,111.75 9,56.5C 9.5,123.166 9.66666,189.833 9.5,256.5 Z"/></g>
<g><path style="opacity:1" fill="#292929" d="M 73.5,370.5 C 75.045,371.23 75.8784,372.563 76,374.5C 76.956,373.421 77.7894,372.255 78.5,371C 79.5,370.333 80.5,370.333 81.5,371C 78.0501,373.158 77.7167,375.658 80.5,378.5C 80.1667,378.833 79.8333,379.167 79.5,379.5C 77.6627,375.723 75.9961,375.723 74.5,379.5C 73.5159,376.572 73.1826,373.572 73.5,370.5 Z"/></g>
<g><path style="opacity:1" fill="#ea7744" d="M 148.5,370.5 C 150.527,370.338 152.527,370.505 154.5,371C 153.207,371.49 151.873,371.657 150.5,371.5C 150.5,372.5 150.5,373.5 150.5,374.5C 154.5,374.833 154.5,375.167 150.5,375.5C 150.785,377.288 150.452,378.955 149.5,380.5C 148.513,377.232 148.18,373.898 148.5,370.5 Z"/></g>
<g><path style="opacity:1" fill="#eb7846" d="M 176.5,370.5 C 178.048,370.821 178.715,371.821 178.5,373.5C 179.833,373.5 181.167,373.5 182.5,373.5C 182.662,375.527 182.495,377.527 182,379.5C 181.902,377.381 181.069,375.714 179.5,374.5C 178.833,376.5 178.167,378.5 177.5,380.5C 176.513,377.232 176.18,373.898 176.5,370.5 Z"/></g>
<g><path style="opacity:1" fill="#151515" d="M 109.5,377.5 C 108.624,377.369 107.957,377.702 107.5,378.5C 106.802,380.037 106.469,381.37 106.5,382.5C 105.523,379.713 105.19,376.713 105.5,373.5C 107.527,373.338 109.527,373.505 111.5,374C 110.915,375.302 110.249,376.469 109.5,377.5 Z"/></g>
<g><path style="opacity:1" fill="#1e1e1e" d="M 134.5,373.5 C 140.235,372.821 141.902,375.155 139.5,380.5C 138.833,378.5 138.167,376.5 137.5,374.5C 135.931,375.714 135.098,377.381 135,379.5C 134.505,377.527 134.338,375.527 134.5,373.5 Z"/></g>
<g><path style="opacity:1" fill="#ec8253" d="M 169.5,373.5 C 171.288,373.215 172.955,373.548 174.5,374.5C 173.738,374.911 172.738,375.077 171.5,375C 174.039,376.099 174.705,377.766 173.5,380C 168.38,379.54 168.38,378.874 173.5,378C 170.894,377.55 169.561,376.05 169.5,373.5 Z"/></g>
<g><path style="opacity:1" fill="#191919" d="M 83.5,374.5 C 84.6009,373.402 85.9343,373.235 87.5,374C 88.2524,374.671 88.5858,375.504 88.5,376.5C 86.9891,375.498 85.3224,374.831 83.5,374.5 Z"/></g>
<g><path style="opacity:1" fill="#242424" d="M 120.5,373.5 C 121.873,373.343 123.207,373.51 124.5,374C 123.072,375.916 122.072,378.083 121.5,380.5C 120.526,378.257 120.192,375.924 120.5,373.5 Z"/></g>
<g><path style="opacity:1" fill="#2c2c2c" d="M 126.5,373.5 C 131.5,372.5 133.5,374.5 132.5,379.5C 130.5,379.833 128.5,380.167 126.5,380.5C 126.5,379.167 126.5,377.833 126.5,376.5C 127.978,376.762 129.311,376.429 130.5,375.5C 129.349,374.269 128.183,374.269 127,375.5C 126.536,374.906 126.369,374.239 126.5,373.5 Z"/></g>
<g><path style="opacity:1" fill="#f19269" d="M 156.5,373.5 C 157.806,373.879 159.139,374.212 160.5,374.5C 159.675,375.386 158.675,375.719 157.5,375.5C 157.657,376.873 157.49,378.207 157,379.5C 156.505,377.527 156.338,375.527 156.5,373.5 Z"/></g>
<g><path style="opacity:1" fill="#919191" d="M 83.5,374.5 C 85.3224,374.831 86.9891,375.498 88.5,376.5C 88.7373,377.791 88.404,378.791 87.5,379.5C 86.4324,378.566 85.099,378.232 83.5,378.5C 83.5,377.167 83.5,375.833 83.5,374.5 Z"/></g>
<g><path style="opacity:1" fill="#9e9e9e" d="M 103.5,375.5 C 104.471,376.962 104.138,378.295 102.5,379.5C 101.791,378.596 100.791,378.263 99.5,378.5C 99.2864,374.743 100.286,374.076 102.5,376.5C 103.107,376.376 103.44,376.043 103.5,375.5 Z"/></g>
<g><path style="opacity:1" fill="#2c2c2c" d="M 103.5,375.5 C 103.44,376.043 103.107,376.376 102.5,376.5C 100.286,374.076 99.2864,374.743 99.5,378.5C 100.791,378.263 101.791,378.596 102.5,379.5C 98.0005,381.163 96.5005,379.497 98,374.5C 100.235,373.02 102.068,373.353 103.5,375.5 Z"/></g>
<g><path style="opacity:1" fill="#afafaf" d="M 106.5,374.5 C 107.675,374.281 108.675,374.614 109.5,375.5C 107.948,376.798 106.948,376.465 106.5,374.5 Z"/></g>
<g><path style="opacity:1" fill="#848484" d="M 114.5,376.5 C 114.5,376.167 114.5,375.833 114.5,375.5C 115.209,374.596 116.209,374.263 117.5,374.5C 117.5,375.833 117.5,377.167 117.5,378.5C 116.448,378.649 115.448,378.483 114.5,378C 115.738,377.31 115.738,376.81 114.5,376.5 Z"/></g>
<g><path style="opacity:1" fill="#f7c8b3" d="M 167.5,375.5 C 168.471,376.962 168.138,378.295 166.5,379.5C 165.791,378.596 164.791,378.263 163.5,378.5C 163.286,374.743 164.286,374.076 166.5,376.5C 167.107,376.376 167.44,376.043 167.5,375.5 Z"/></g>
<g><path style="opacity:1" fill="#ed8558" d="M 167.5,375.5 C 167.44,376.043 167.107,376.376 166.5,376.5C 164.286,374.076 163.286,374.743 163.5,378.5C 164.791,378.263 165.791,378.596 166.5,379.5C 162,381.163 160.5,379.497 162,374.5C 164.235,373.02 166.068,373.353 167.5,375.5 Z"/></g>
<g><path style="opacity:1" fill="#272727" d="M 90.5,373.5 C 94.8926,373.457 95.2259,373.957 91.5,375C 92.5634,376.188 93.8967,376.688 95.5,376.5C 95.3522,380.491 93.6855,381.324 90.5,379C 94.19,378.576 94.3567,377.742 91,376.5C 90.5172,375.552 90.3505,374.552 90.5,373.5 Z"/></g>
<g><path style="opacity:1" fill="#232323" d="M 114.5,376.5 C 115.738,376.81 115.738,377.31 114.5,378C 115.448,378.483 116.448,378.649 117.5,378.5C 117.5,377.167 117.5,375.833 117.5,374.5C 116.209,374.263 115.209,374.596 114.5,375.5C 113.957,375.44 113.624,375.107 113.5,374.5C 115.045,373.548 116.712,373.215 118.5,373.5C 118.799,375.604 118.466,377.604 117.5,379.5C 115.414,381.023 113.748,380.69 112.5,378.5C 112.855,377.478 113.522,376.811 114.5,376.5 Z"/></g>
<g><path style="opacity:1" fill="#2f2f2f" d="M 83.5,374.5 C 83.5,375.833 83.5,377.167 83.5,378.5C 85.099,378.232 86.4324,378.566 87.5,379.5C 82.7335,380.787 81.4002,379.12 83.5,374.5 Z"/></g>
<g><path style="opacity:1" fill="#555555" d="M 109.5,377.5 C 110.473,379.068 110.64,380.735 110,382.5C 108.708,383.791 107.542,383.791 106.5,382.5C 106.469,381.37 106.802,380.037 107.5,378.5C 107.957,377.702 108.624,377.369 109.5,377.5 Z"/></g>
<g><path style="opacity:1" fill="#1e1e1e" d="M 94.5,387.5 C 96.1171,388.589 96.9504,390.256 97,392.5C 99.4385,391.134 99.9385,391.634 98.5,394C 100.675,398.487 99.8414,398.654 96,394.5C 95.6667,395.5 95.3333,396.5 95,397.5C 94.5017,394.183 94.335,390.85 94.5,387.5 Z"/></g>
<g><path style="opacity:1" fill="#eb7c4c" d="M 141.5,388.5 C 147.387,388.213 149.054,390.879 146.5,396.5C 144.833,397.833 143.167,397.833 141.5,396.5C 142.687,396.446 144.02,396.113 145.5,395.5C 141.432,394.483 140.099,392.15 141.5,388.5 Z"/></g>
<g><path style="opacity:1" fill="#fdf5f2" d="M 142.5,389.5 C 143.5,389.5 144.5,389.5 145.5,389.5C 145.5,390.5 145.5,391.5 145.5,392.5C 144.5,392.5 143.5,392.5 142.5,392.5C 142.5,391.5 142.5,390.5 142.5,389.5 Z"/></g>
<g><path style="opacity:1" fill="#f0946c" d="M 166.5,391.5 C 164.449,393.038 162.782,392.704 161.5,390.5C 162.668,388.783 164.335,388.116 166.5,388.5C 166.5,389.5 166.5,390.5 166.5,391.5 Z"/></g>
<g><path style="opacity:1" fill="#171717" d="M 87.5,388.5 C 88.5,388.5 89.5,388.5 90.5,388.5C 91.3416,391.498 91.8416,394.498 92,397.5C 89.8404,394.919 87.6737,394.919 85.5,397.5C 85.1667,397.167 84.8333,396.833 84.5,396.5C 85.9,393.965 86.9,391.298 87.5,388.5 Z"/></g>
<g><path style="opacity:1" fill="#272727" d="M 113.5,390.5 C 114.043,390.56 114.376,390.893 114.5,391.5C 113.173,393.311 112.173,395.311 111.5,397.5C 110.534,395.604 110.201,393.604 110.5,391.5C 111.791,391.737 112.791,391.404 113.5,390.5 Z"/></g>
<g><path style="opacity:1" fill="#2d2d2d" d="M 124.5,390.5 C 128.847,390.942 129.18,391.775 125.5,393C 126.448,393.483 127.448,393.649 128.5,393.5C 128.5,394.833 128.5,396.167 128.5,397.5C 126.712,397.785 125.045,397.452 123.5,396.5C 124.603,396.002 125.603,395.669 126.5,395.5C 125.675,394.614 124.675,394.281 123.5,394.5C 123.433,393.041 123.766,391.708 124.5,390.5 Z"/></g>
<g><path style="opacity:1" fill="#3f403f" d="M 130.5,391.5 C 131.693,391.97 132.36,392.97 132.5,394.5C 132.167,395.5 131.833,396.5 131.5,397.5C 130.534,395.604 130.201,393.604 130.5,391.5 Z"/></g>
<g><path style="opacity:1" fill="#292929" d="M 134.5,390.5 C 135.773,391.077 135.773,391.743 134.5,392.5C 133.537,392.03 133.537,391.363 134.5,390.5 Z"/></g>
<g><path style="opacity:1" fill="#ec8052" d="M 167.5,394.5 C 166.733,395.172 166.066,396.005 165.5,397C 164.833,397.667 164.167,397.667 163.5,397C 165.16,395.512 166.16,393.679 166.5,391.5C 167.267,390.828 167.934,389.995 168.5,389C 169.167,388.333 169.833,388.333 170.5,389C 169.242,390.741 168.242,392.574 167.5,394.5 Z"/></g>
<g><path style="opacity:1" fill="#636363" d="M 120.5,391.5 C 120.526,392.816 120.193,394.316 119.5,396C 118.212,396.239 117.212,395.739 116.5,394.5C 115.316,393.312 115.316,392.145 116.5,391C 118.066,390.235 119.399,390.402 120.5,391.5 Z"/></g>
<g><path style="opacity:1" fill="#161616" d="M 120.5,391.5 C 121.461,393.265 121.795,395.265 121.5,397.5C 119.5,397.5 117.5,397.5 115.5,397.5C 115.263,396.209 115.596,395.209 116.5,394.5C 117.212,395.739 118.212,396.239 119.5,396C 120.193,394.316 120.526,392.816 120.5,391.5 Z"/></g>
<g><path style="opacity:1" fill="#a2a2a2" d="M 88.5,390.5 C 89.782,391.708 89.782,393.042 88.5,394.5C 87.7084,393.3 87.7084,391.967 88.5,390.5 Z"/></g>
<g><path style="opacity:1" fill="#f09168" d="M 167.5,394.5 C 169.042,393.699 170.708,393.366 172.5,393.5C 172.853,395.635 172.02,396.968 170,397.5C 168.251,397.252 167.418,396.252 167.5,394.5 Z"/></g>
<g><path style="opacity:1" fill="#1c1c1c" d="M 106.5,390.5 C 108.344,392.279 109.01,394.612 108.5,397.5C 106.5,397.5 104.5,397.5 102.5,397.5C 102.338,395.473 102.505,393.473 103,391.5C 105.259,398.354 106.426,398.021 106.5,390.5 Z"/></g>
<g><path style="opacity:1" fill="#292929" d="M 134.5,395.5 C 135.773,396.077 135.773,396.743 134.5,397.5C 133.537,397.03 133.537,396.363 134.5,395.5 Z"/></g>
<g><path style="opacity:1" fill="#ea7643" d="M 150.5,388.5 C 157.486,388.331 159.153,391.164 155.5,397C 153.559,397.743 151.726,397.576 150,396.5C 149.278,393.739 149.445,391.073 150.5,388.5 Z"/></g>
<g><path style="opacity:1" fill="#fdede7" d="M 151.5,389.5 C 155.225,389.78 156.392,391.78 155,395.5C 153.413,396.727 152.079,396.394 151,394.5C 150.36,392.735 150.527,391.068 151.5,389.5 Z"/></g>
<g><path style="opacity:1" fill="#2f2f2f" d="M 263.5,537.5 C 263.335,540.85 263.502,544.183 264,547.5C 264.985,545.825 265.819,544.158 266.5,542.5C 266.453,545.568 265.953,548.568 265,551.5C 264.623,552.942 263.79,553.942 262.5,554.5C 263.323,552.545 263.49,550.545 263,548.5C 259.286,555.048 254.12,560.048 247.5,563.5C 247.539,562.244 247.039,561.244 246,560.5C 244.708,561.791 243.542,561.791 242.5,560.5C 251.959,557.539 257.793,551.206 260,541.5C 260.5,518.502 260.667,495.502 260.5,472.5C 261.955,433.009 262.788,393.343 263,353.5C 263.5,414.832 263.667,476.166 263.5,537.5 Z"/></g>
<g><path style="opacity:1" fill="#2a2a2a" d="M 6.5,440.5 C 7.33167,458.329 7.83167,476.329 8,494.5C 7.89825,498.956 8.73158,502.956 10.5,506.5C 10.0556,519.907 10.5556,533.24 12,546.5C 15.1889,554.513 21.0222,559.346 29.5,561C 100.541,561.827 171.541,561.66 242.5,560.5C 243.542,561.791 244.708,561.791 246,560.5C 247.039,561.244 247.539,562.244 247.5,563.5C 243.881,564.18 240.214,564.68 236.5,565C 166.833,565.667 97.1667,565.667 27.5,565C 17.0179,562.351 10.3513,555.851 7.5,545.5C 6.54778,510.516 6.21445,475.516 6.5,440.5 Z"/></g>
<g><path style="opacity:0.004" fill="#2b2b2b" d="M 5.5,550.5 C 8.76167,555.102 12.4283,559.435 16.5,563.5C 11.0451,560.709 7.37841,556.376 5.5,550.5 Z"/></g>
<g><path style="opacity:0.039" fill="#242424" d="M 256.5,561.5 C 254.272,564.45 251.272,566.116 247.5,566.5C 250.331,564.583 253.331,562.917 256.5,561.5 Z"/></g>
<g><path style="opacity:0.09" fill="#232323" d="M 16.5,563.5 C 18.0269,563.427 19.0269,564.094 19.5,565.5C 17.9731,565.573 16.9731,564.906 16.5,563.5 Z"/></g>
<g><path style="opacity:1" fill="#bdbdbd" d="M 5.5,37.5 C 5.33333,204.834 5.5,372.167 6,539.5C 6.19088,541.708 6.69088,543.708 7.5,545.5C 10.3513,555.851 17.0179,562.351 27.5,565C 97.1667,565.667 166.833,565.667 236.5,565C 240.214,564.68 243.881,564.18 247.5,563.5C 254.12,560.048 259.286,555.048 263,548.5C 263.49,550.545 263.323,552.545 262.5,554.5C 261.243,557.427 259.243,559.761 256.5,561.5C 253.331,562.917 250.331,564.583 247.5,566.5C 242.848,566.998 238.181,567.331 233.5,567.5C 164.833,567.667 96.1659,567.5 27.5,567C 24.8832,566.178 22.2165,565.678 19.5,565.5C 19.0269,564.094 18.0269,563.427 16.5,563.5C 12.4283,559.435 8.76167,555.102 5.5,550.5C 4.9492,547.193 4.61587,543.86 4.5,540.5C 4.167,372.666 4.50033,204.999 5.5,37.5 Z"/></g>
<g><path style="opacity:0.768" fill="#3e3e3e" d="M 19.5,565.5 C 22.2165,565.678 24.8832,566.178 27.5,567C 96.1659,567.5 164.833,567.667 233.5,567.5C 233.5,567.833 233.5,568.167 233.5,568.5C 168.207,569.659 102.874,569.826 37.5,569C 33.8333,568.667 30.1667,568.333 26.5,568C 23.8958,567.61 21.5625,566.776 19.5,565.5 Z"/></g>
<g><path style="opacity:0.039" fill="#242424" d="M 247.5,566.5 C 243.119,568.211 238.453,568.877 233.5,568.5C 233.5,568.167 233.5,567.833 233.5,567.5C 238.181,567.331 242.848,566.998 247.5,566.5 Z"/></g>
</svg>
