<?xml version="1.0" encoding="UTF-8"?>
<!DOCTYPE svg PUBLIC "-//W3C//DTD SVG 1.1//EN" "http://www.w3.org/Graphics/SVG/1.1/DTD/svg11.dtd">
<svg xmlns="http://www.w3.org/2000/svg" version="1.1" width="276px" height="571px" style="shape-rendering:geometricPrecision; text-rendering:geometricPrecision; image-rendering:optimizeQuality; fill-rule:evenodd; clip-rule:evenodd" xmlns:xlink="http://www.w3.org/1999/xlink">
<g><path style="opacity:1" fill="#232323" d="M 32.5,12.5 C 35.6915,13.7199 39.0248,14.5532 42.5,15C 105.832,15.5 169.166,15.6667 232.5,15.5C 235.713,15.19 238.713,15.5233 241.5,16.5C 170.166,16.3333 98.8326,16.5 27.5,17C 20.2684,19.899 15.4351,25.0657 13,32.5C 12.5003,40.1594 12.3336,47.8261 12.5,55.5C 11.9095,45.5678 10.9095,37.5678 9.5,31.5C 12.661,19.7482 20.3277,13.4149 32.5,12.5 Z"/></g>
<g><path style="opacity:1" fill="#0a0a0a" d="M 241.5,16.5 C 252.183,18.0106 259.016,24.0106 262,34.5C 262.499,38.8206 262.666,43.1539 262.5,47.5C 262.5,110.5 262.5,173.5 262.5,236.5C 262.5,338.167 262.5,439.833 262.5,541.5C 260.497,553.003 253.831,560.169 242.5,563C 172.167,563.667 101.833,563.667 31.5,563C 21.7779,560.945 15.6113,555.112 13,545.5C 12.5,382.167 12.3333,218.834 12.5,55.5C 12.3336,47.8261 12.5003,40.1594 13,32.5C 15.4351,25.0657 20.2684,19.899 27.5,17C 98.8326,16.5 170.166,16.3333 241.5,16.5 Z"/></g>
<g><path style="opacity:1" fill="#fefefe" d="M 28.5,19.5 C 100.834,19.3333 173.167,19.5 245.5,20C 250.541,22.2554 254.375,25.7554 257,30.5C 258.663,202.111 258.996,373.778 258,545.5C 256.14,552.693 251.64,557.193 244.5,559C 172.833,559.667 101.167,559.667 29.5,559C 22.5993,556.432 18.0993,551.598 16,544.5C 15.3333,373.833 15.3333,203.167 16,32.5C 19.0248,26.9769 23.1915,22.6436 28.5,19.5 Z"/></g>
<g><path style="opacity:1" fill="#bcbcbc" d="M 270.5,107.5 C 270.652,135.685 269.986,163.851 268.5,192C 268.5,200.007 268.834,207.841 269.5,215.5C 270.167,215.5 270.5,215.833 270.5,216.5C 268.669,323.486 268.002,430.486 268.5,537.5C 267.686,539.631 267.186,541.964 267,544.5C 266.506,542.866 266.34,541.199 266.5,539.5C 266.667,370.833 266.5,202.166 266,33.5C 262.716,21.3816 254.883,14.3816 242.5,12.5C 172.5,11.1667 102.5,11.1667 32.5,12.5C 20.3277,13.4149 12.661,19.7482 9.5,31.5C 9.16667,31.5 8.83333,31.5 8.5,31.5C 8.56544,31.0618 8.39877,30.7284 8,30.5C 7.72158,31.4158 7.22158,32.0825 6.5,32.5C 8.91254,20.2535 16.2459,12.7535 28.5,10C 102.544,9.01244 176.544,9.34577 250.5,11C 260.031,15.1939 265.864,22.3606 268,32.5C 269.073,57.5488 269.906,82.5488 270.5,107.5 Z"/></g>
<g><path style="opacity:1" fill="#4d4d4d" d="M 32.5,12.5 C 102.5,11.1667 172.5,11.1667 242.5,12.5C 239.194,13.8233 235.861,14.8233 232.5,15.5C 169.166,15.6667 105.832,15.5 42.5,15C 39.0248,14.5532 35.6915,13.7199 32.5,12.5 Z"/></g>
<g><path style="opacity:1" fill="#737373" d="M 74.5,13.5 C 126.665,12.3349 178.998,12.1683 231.5,13C 206.894,14.1528 182.227,14.6528 157.5,14.5C 129.825,14.4436 102.158,14.1103 74.5,13.5 Z"/></g>
<g><path style="opacity:1" fill="#c6c6c6" d="M 8.5,31.5 C 8.5,32.8333 8.5,34.1667 8.5,35.5C 7.66683,204.333 7.16683,373.333 7,542.5C 6.80912,540.292 6.30912,538.292 5.5,536.5C 5.1694,368.46 5.50274,200.46 6.5,32.5C 7.22158,32.0825 7.72158,31.4158 8,30.5C 8.39877,30.7284 8.56544,31.0618 8.5,31.5 Z"/></g>
<g><path style="opacity:1" fill="#727272" d="M 8.5,35.5 C 8.17593,206.179 8.50927,376.846 9.5,547.5C 8.73209,546.737 8.23209,545.737 8,544.5C 7.50465,547.531 7.67131,550.531 8.5,553.5C 7.77842,553.082 7.27842,552.416 7,551.5C 5.95017,546.552 5.45017,541.552 5.5,536.5C 6.30912,538.292 6.80912,540.292 7,542.5C 7.16683,373.333 7.66683,204.333 8.5,35.5 Z"/></g>
<g><path style="opacity:1" fill="#4f4f4f" d="M 262.5,47.5 C 263.314,49.631 263.814,51.9644 264,54.5C 264.665,115.339 264.165,176.006 262.5,236.5C 262.5,173.5 262.5,110.5 262.5,47.5 Z"/></g>
<g><path style="opacity:0.514" fill="#717171" d="M 270.5,107.5 C 271.167,118.328 271.5,129.328 271.5,140.5C 270.056,165.352 269.39,190.352 269.5,215.5C 268.834,207.841 268.5,200.007 268.5,192C 269.986,163.851 270.652,135.685 270.5,107.5 Z"/></g>
<g><path style="opacity:1" fill="#444444" d="M 242.5,12.5 C 254.883,14.3816 262.716,21.3816 266,33.5C 266.5,202.166 266.667,370.833 266.5,539.5C 266.167,539.5 265.833,539.5 265.5,539.5C 265.667,478.166 265.5,416.832 265,355.5C 264.293,417.666 263.46,479.666 262.5,541.5C 262.5,439.833 262.5,338.167 262.5,236.5C 264.165,176.006 264.665,115.339 264,54.5C 263.814,51.9644 263.314,49.631 262.5,47.5C 262.666,43.1539 262.499,38.8206 262,34.5C 259.016,24.0106 252.183,18.0106 241.5,16.5C 238.713,15.5233 235.713,15.19 232.5,15.5C 235.861,14.8233 239.194,13.8233 242.5,12.5 Z"/></g>
<g><path style="opacity:1" fill="#486951" d="M 170.5,218.5 C 172.349,234.344 165.682,244.178 150.5,248C 137.5,248.667 124.5,248.667 111.5,248C 110.874,247.25 110.374,246.416 110,245.5C 109.5,229.503 109.333,213.503 109.5,197.5C 113.435,196.246 117.435,195.246 121.5,194.5C 123.401,194.567 125.234,194.233 127,193.5C 131.84,200.022 138.007,202.022 145.5,199.5C 151.937,198.221 155.437,194.221 156,187.5C 156.195,173.658 149.362,167.824 135.5,170C 134.058,170.377 133.058,171.21 132.5,172.5C 130.983,172.511 129.816,173.177 129,174.5C 126.783,178.094 125.283,181.927 124.5,186C 119.577,186.808 114.911,188.308 110.5,190.5C 109.182,181.628 109.182,172.628 110.5,163.5C 125.21,162.068 139.877,162.235 154.5,164C 165.227,169.293 169.06,177.793 166,189.5C 164.524,194.455 162.024,198.788 158.5,202.5C 165.232,205.885 169.232,211.218 170.5,218.5 Z"/></g>
<g><path style="opacity:1" fill="#fbfbfb" d="M 152.5,188.5 C 152.025,190.784 151.025,192.784 149.5,194.5C 143.666,198.467 137.832,198.467 132,194.5C 130.906,192.922 130.072,191.255 129.5,189.5C 128.745,181.087 132.578,176.42 141,175.5C 148.888,176.223 152.722,180.556 152.5,188.5 Z"/></g>
<g><path style="opacity:1" fill="#92a296" d="M 145.5,199.5 C 147.123,198.221 148.79,196.887 150.5,195.5C 150.376,194.893 150.043,194.56 149.5,194.5C 151.025,192.784 152.025,190.784 152.5,188.5C 154.478,176.968 149.478,171.468 137.5,172C 134.438,173.061 131.938,174.894 130,177.5C 130.058,175.565 130.891,173.898 132.5,172.5C 133.058,171.21 134.058,170.377 135.5,170C 149.362,167.824 156.195,173.658 156,187.5C 155.437,194.221 151.937,198.221 145.5,199.5 Z"/></g>
<g><path style="opacity:1" fill="#c3c7c4" d="M 152.5,188.5 C 152.722,180.556 148.888,176.223 141,175.5C 132.578,176.42 128.745,181.087 129.5,189.5C 128.679,186.359 128.179,183.025 128,179.5C 125.355,193.364 131.189,200.031 145.5,199.5C 138.007,202.022 131.84,200.022 127,193.5C 125.234,194.233 123.401,194.567 121.5,194.5C 123.189,193.696 124.855,192.696 126.5,191.5C 126.291,190.914 125.957,190.414 125.5,190C 121.074,190.118 116.741,190.951 112.5,192.5C 110.024,192.767 109.357,192.101 110.5,190.5C 114.911,188.308 119.577,186.808 124.5,186C 125.283,181.927 126.783,178.094 129,174.5C 129.816,173.177 130.983,172.511 132.5,172.5C 130.891,173.898 130.058,175.565 130,177.5C 131.938,174.894 134.438,173.061 137.5,172C 149.478,171.468 154.478,176.968 152.5,188.5 Z"/></g>
<g><path style="opacity:1" fill="#6c7e70" d="M 129.5,189.5 C 130.072,191.255 130.906,192.922 132,194.5C 137.832,198.467 143.666,198.467 149.5,194.5C 150.043,194.56 150.376,194.893 150.5,195.5C 148.79,196.887 147.123,198.221 145.5,199.5C 131.189,200.031 125.355,193.364 128,179.5C 128.179,183.025 128.679,186.359 129.5,189.5 Z"/></g>
<g><path style="opacity:1" fill="#c7cac7" d="M 134.5,205.5 C 139.22,205.206 140.886,207.206 139.5,211.5C 136.418,210.665 134.752,208.665 134.5,205.5 Z"/></g>
<g><path style="opacity:1" fill="#c2c8c4" d="M 143.5,207.5 C 148.52,208.211 148.52,209.544 143.5,211.5C 142.833,211.333 142.167,211.167 141.5,211C 142.305,209.887 142.972,208.721 143.5,207.5 Z"/></g>
<g><path style="opacity:1" fill="#cbcccb" d="M 152.5,226.5 C 152.893,223.07 152.227,219.904 150.5,217C 145.159,217.546 139.826,217.379 134.5,216.5C 132.626,216.39 131.126,217.056 130,218.5C 129.617,217.944 129.117,217.611 128.5,217.5C 128.511,215.983 129.177,214.816 130.5,214C 137.167,214.667 143.833,214.667 150.5,214C 151.667,214.5 152.5,215.333 153,216.5C 153.808,220.027 153.641,223.36 152.5,226.5 Z"/></g>
<g><path style="opacity:0.506" fill="#696969" d="M 270.5,216.5 C 271.166,222.658 271.5,228.991 271.5,235.5C 271.65,242.33 271.15,248.996 270,255.5C 269.833,349.668 269.333,443.668 268.5,537.5C 268.002,430.486 268.669,323.486 270.5,216.5 Z"/></g>
<g><path style="opacity:1" fill="#f9f9f9" d="M 152.5,226.5 C 150.537,235.823 144.87,238.99 135.5,236C 130.428,230.797 128.095,224.631 128.5,217.5C 129.117,217.611 129.617,217.944 130,218.5C 131.126,217.056 132.626,216.39 134.5,216.5C 139.826,217.379 145.159,217.546 150.5,217C 152.227,219.904 152.893,223.07 152.5,226.5 Z"/></g>
<g><path style="opacity:1" fill="#cfd0cf" d="M 109.5,197.5 C 109.333,213.503 109.5,229.503 110,245.5C 110.374,246.416 110.874,247.25 111.5,248C 124.5,248.667 137.5,248.667 150.5,248C 165.682,244.178 172.349,234.344 170.5,218.5C 173.755,230.238 170.421,240.071 160.5,248C 156.168,250.499 151.501,251.832 146.5,252C 134.833,252.667 123.167,252.667 111.5,252C 110.299,251.097 109.465,249.931 109,248.5C 108.172,231.328 108.338,214.328 109.5,197.5 Z"/></g>
<g><path style="opacity:1" fill="#f08a24" d="M 45.5,293.5 C 52.9472,293.071 60.2806,293.571 67.5,295C 71.6452,299.036 72.6452,303.869 70.5,309.5C 75.2536,316.989 74.2536,323.489 67.5,329C 60.3304,331.667 52.997,332.167 45.5,330.5C 45.5,318.167 45.5,305.833 45.5,293.5 Z"/></g>
<g><path style="opacity:1" fill="#fef2e7" d="M 54.5,301.5 C 56.8568,301.337 59.1902,301.503 61.5,302C 63.6015,303.733 63.9348,305.733 62.5,308C 59.854,308.497 57.1873,308.664 54.5,308.5C 54.5,306.167 54.5,303.833 54.5,301.5 Z"/></g>
<g><path style="opacity:1" fill="#f08a24" d="M 114.5,304.5 C 119.565,304.219 124.565,304.552 129.5,305.5C 130.665,314.816 130.832,324.149 130,333.5C 129.242,337.922 126.742,340.755 122.5,342C 117.913,342.799 113.413,342.632 109,341.5C 108.231,338.901 108.398,336.401 109.5,334C 113.092,334.502 116.759,334.502 120.5,334C 122.56,332.507 122.893,330.674 121.5,328.5C 114.748,333.059 109.914,331.392 107,323.5C 104.596,315.005 107.096,308.672 114.5,304.5 Z"/></g>
<g><path style="opacity:1" fill="#f08a25" d="M 158.5,303.5 C 169.677,303.011 174.677,308.345 173.5,319.5C 168.5,319.5 163.5,319.5 158.5,319.5C 158.33,320.822 158.663,321.989 159.5,323C 163.5,323.333 167.5,323.667 171.5,324C 172.423,326.041 172.756,328.208 172.5,330.5C 152.968,334.805 146.135,327.471 152,308.5C 153.965,306.45 156.132,304.783 158.5,303.5 Z"/></g>
<g><path style="opacity:1" fill="#f08c2a" d="M 179.5,304.5 C 181.833,304.5 184.167,304.5 186.5,304.5C 186.443,308.133 187.443,308.3 189.5,305C 196.413,302.912 200.58,305.412 202,312.5C 202.667,318.5 202.667,324.5 202,330.5C 199.281,331.444 196.448,331.777 193.5,331.5C 193.666,326.156 193.499,320.823 193,315.5C 191.556,313.845 189.722,313.178 187.5,313.5C 187.829,319.206 187.495,324.872 186.5,330.5C 183.966,331.788 181.466,331.788 179,330.5C 178.198,321.755 178.364,313.088 179.5,304.5 Z"/></g>
<g><path style="opacity:1" fill="#f08b27" d="M 215.5,303.5 C 226.374,303.218 231.374,308.551 230.5,319.5C 225.125,319.172 219.792,319.505 214.5,320.5C 214.977,321.478 215.643,322.311 216.5,323C 220.541,323.173 224.541,323.673 228.5,324.5C 230.139,327.04 229.806,329.207 227.5,331C 209.649,333.823 203.149,326.657 208,309.5C 210.114,306.879 212.614,304.879 215.5,303.5 Z"/></g>
<g><path style="opacity:1" fill="#f08922" d="M 78.5,305.5 C 81.1667,305.5 83.8333,305.5 86.5,305.5C 86.3342,310.179 86.5008,314.845 87,319.5C 88.2242,322.473 90.2242,323.14 93,321.5C 93.3284,316.475 93.3284,311.475 93,306.5C 95.7191,305.556 98.5525,305.223 101.5,305.5C 101.5,313.833 101.5,322.167 101.5,330.5C 98.3148,330.98 95.4815,330.314 93,328.5C 88.7394,332.423 84.406,332.423 80,328.5C 77.5051,320.909 77.0051,313.243 78.5,305.5 Z"/></g>
<g><path style="opacity:1" fill="#52725a" d="M 136.5,290.5 C 150.65,290.12 154.817,296.453 149,309.5C 148,310.167 147,310.833 146,311.5C 145.5,318.158 145.334,324.825 145.5,331.5C 142.833,331.5 140.167,331.5 137.5,331.5C 137.83,324.8 137.497,318.134 136.5,311.5C 132.712,309.258 131.046,305.925 131.5,301.5C 131.281,296.94 132.948,293.273 136.5,290.5 Z"/></g>
<g><path style="opacity:1" fill="#cbd5cd" d="M 137.5,293.5 C 139.857,293.337 142.19,293.503 144.5,294C 137.92,293.912 134.754,297.079 135,303.5C 138.181,309.252 142.181,309.919 147,305.5C 147.333,302.833 147.667,300.167 148,297.5C 148.333,298.5 148.667,299.5 149,300.5C 149.464,299.906 149.631,299.239 149.5,298.5C 151.267,303.182 149.934,307.016 145.5,310C 137.905,311.741 133.571,308.741 132.5,301C 132.384,298.456 133.217,296.289 135,294.5C 135.671,293.748 136.504,293.414 137.5,293.5 Z"/></g>
<g><path style="opacity:1" fill="#fbfbfb" d="M 137.5,293.5 C 143.192,291.049 147.192,292.715 149.5,298.5C 149.631,299.239 149.464,299.906 149,300.5C 148.667,299.5 148.333,298.5 148,297.5C 147.667,300.167 147.333,302.833 147,305.5C 142.181,309.919 138.181,309.252 135,303.5C 134.754,297.079 137.92,293.912 144.5,294C 142.19,293.503 139.857,293.337 137.5,293.5 Z"/></g>
<g><path style="opacity:1" fill="#feeddd" d="M 158.5,310.5 C 162.241,309.599 164.241,310.932 164.5,314.5C 162.167,314.5 159.833,314.5 157.5,314.5C 157.433,313.041 157.766,311.708 158.5,310.5 Z"/></g>
<g><path style="opacity:1" fill="#fef4eb" d="M 215.5,310.5 C 219.241,309.599 221.241,310.932 221.5,314.5C 219.167,314.5 216.833,314.5 214.5,314.5C 214.433,313.041 214.766,311.708 215.5,310.5 Z"/></g>
<g><path style="opacity:1" fill="#fefaf5" d="M 116.5,312.5 C 118.167,312.5 119.833,312.5 121.5,312.5C 121.5,315.833 121.5,319.167 121.5,322.5C 119.278,322.822 117.444,322.155 116,320.5C 115.278,317.739 115.445,315.073 116.5,312.5 Z"/></g>
<g><path style="opacity:1" fill="#fef3e9" d="M 54.5,315.5 C 56.8568,315.337 59.1902,315.503 61.5,316C 64.1667,318 64.1667,320 61.5,322C 59.1902,322.497 56.8568,322.663 54.5,322.5C 54.5,320.167 54.5,317.833 54.5,315.5 Z"/></g>
<g><path style="opacity:1" fill="#2a2a2a" d="M 8.5,31.5 C 8.83333,31.5 9.16667,31.5 9.5,31.5C 10.9095,37.5678 11.9095,45.5678 12.5,55.5C 12.3333,218.834 12.5,382.167 13,545.5C 15.6113,555.112 21.7779,560.945 31.5,563C 101.833,563.667 172.167,563.667 242.5,563C 253.831,560.169 260.497,553.003 262.5,541.5C 263.46,479.666 264.293,417.666 265,355.5C 265.5,416.832 265.667,478.166 265.5,539.5C 264.72,556.78 255.72,565.946 238.5,567C 168.833,567.667 99.1667,567.667 29.5,567C 19.0179,564.351 12.3513,557.851 9.5,547.5C 8.50927,376.846 8.17593,206.179 8.5,35.5C 8.5,34.1667 8.5,32.8333 8.5,31.5 Z"/></g>
<g><path style="opacity:1" fill="#3b3b3b" d="M 9.5,224.5 C 10.1667,235.833 10.8333,247.167 11.5,258.5C 11.6667,334.501 11.5,410.501 11,486.5C 9.67716,399.172 9.17716,311.839 9.5,224.5 Z"/></g>
<g><path style="opacity:1" fill="#494949" d="M 11.5,258.5 C 10.8333,247.167 10.1667,235.833 9.5,224.5C 9.00842,169.083 9.50842,113.75 11,58.5C 11.5,125.166 11.6667,191.833 11.5,258.5 Z"/></g>
<g><path style="opacity:1" fill="#b1b1b1" d="M 268.5,537.5 C 269.525,552.466 263.192,562.799 249.5,568.5C 244.848,568.998 240.181,569.331 235.5,569.5C 167.166,569.667 98.8325,569.5 30.5,569C 27.8832,568.178 25.2165,567.678 22.5,567.5C 16.1667,564.5 11.5,559.833 8.5,553.5C 7.67131,550.531 7.50465,547.531 8,544.5C 8.23209,545.737 8.73209,546.737 9.5,547.5C 12.3513,557.851 19.0179,564.351 29.5,567C 99.1667,567.667 168.833,567.667 238.5,567C 255.72,565.946 264.72,556.78 265.5,539.5C 265.833,539.5 266.167,539.5 266.5,539.5C 266.34,541.199 266.506,542.866 267,544.5C 267.186,541.964 267.686,539.631 268.5,537.5 Z"/></g>
<g><path style="opacity:1" fill="#5d5d5d" d="M 22.5,567.5 C 25.2165,567.678 27.8832,568.178 30.5,569C 98.8325,569.5 167.166,569.667 235.5,569.5C 235.5,569.833 235.5,570.167 235.5,570.5C 166.5,570.5 97.5,570.5 28.5,570.5C 26.5,569.5 24.5,568.5 22.5,567.5 Z"/></g>
<g><path style="opacity:0.775" fill="#232323" d="M 249.5,568.5 C 248.5,569.167 247.5,569.833 246.5,570.5C 242.833,570.5 239.167,570.5 235.5,570.5C 235.5,570.167 235.5,569.833 235.5,569.5C 240.181,569.331 244.848,568.998 249.5,568.5 Z"/></g>
</svg>
