<?xml version="1.0" encoding="UTF-8"?>
<!DOCTYPE svg PUBLIC "-//W3C//DTD SVG 1.1//EN" "http://www.w3.org/Graphics/SVG/1.1/DTD/svg11.dtd">
<!-- Creator: CorelDRAW X7 -->
<svg xmlns="http://www.w3.org/2000/svg" xml:space="preserve" width="169.333mm" height="169.333mm" version="1.1" style="shape-rendering:geometricPrecision; text-rendering:geometricPrecision; image-rendering:optimizeQuality; fill-rule:evenodd; clip-rule:evenodd"
viewBox="0 0 169333 169333"
 xmlns:xlink="http://www.w3.org/1999/xlink">
 <defs>
  <style type="text/css">
   <![CDATA[
    .str0 {stroke:#FEFEFE;stroke-width:169.3}
    .str1 {stroke:#F08519;stroke-width:200}
    .fil1 {fill:none}
    .fil0 {fill:#F08519}
   ]]>
  </style>
 </defs>
 <g id="Layer_x0020_1">
  <metadata id="CorelCorpID_0Corel-Layer"/>
  <g id="_2468001729232">
   <path class="fil0 str0" d="M25993 104406l489 20915c6152,509 16811,1196 17596,-6040 331,-3051 -604,-3965 -2151,-5642 4196,-11820 -7390,-10474 -15934,-9233zm6597 4246c-385,1070 -247,2152 -247,3519l4836 -6c796,-2686 -436,-3561 -2852,-3561l-316 0 -1421 48zm-247 11504l1351 33 950 -5c1175,0 2263,-10 3189,-528 654,-3620 -2610,-2889 -5490,-2834l0 3334z"/>
   <path class="fil0 str0" d="M74152 123922l-70 2818c-2607,1351 -5348,294 -7803,-177 -462,1580 -948,2963 -1011,4924 17594,3936 14496,-7076 14496,-20823 -6939,-1194 -13553,-1481 -15301,5211 -1701,6515 4187,12859 9689,8047zm-188 -3680l-46 -5212c-2572,-262 -3918,-379 -3811,2397 95,2485 1470,2912 3857,2815z"/>
   <path class="fil0 str0" d="M141401 125009c-109,-1627 -590,-3018 -1012,-4360 -2995,234 -7252,1811 -8309,-1592l9906 -13c0,-4570 -1149,-7860 -4997,-8930 -4446,-1237 -8466,1008 -9778,3908 -3106,6869 1236,14945 14190,10987zm-9602 -9170l4261 15c-240,-1394 -473,-1727 -1994,-1831 -1958,-134 -2039,200 -2267,1816z"/>
   <path class="fil0 str0" d="M106091 125098c-91,-1664 -359,-3126 -1131,-4421 -3118,111 -7165,1827 -8228,-1587l9955 -36c0,-4796 -1217,-7900 -5138,-8964 -4282,-1164 -8345,937 -9728,4044 -1805,4056 -401,8534 2238,10406 3496,2479 8114,1279 12032,558zm-9583 -9342l4235 82c-234,-1220 -776,-1764 -2135,-1822 -1723,-75 -1920,303 -2100,1740z"/>
   <path class="fil0 str0" d="M114862 111794c-321,-394 -444,48 -432,-1595 -1961,-133 -3676,165 -5472,793l307 14251c1799,652 3849,547 5671,-45l36 -9950c4183,-115 3423,1282 3423,9996 1854,651 3905,546 5727,-46 117,-3055 443,-9829 -710,-12278 -1510,-3207 -5936,-4384 -8550,-1126z"/>
   <path class="fil0 str0" d="M46279 111421c-111,3032 11,9632 1249,11820 738,1305 1960,2375 3997,2670 2091,304 3808,-519 4513,-1940 73,59 152,82 184,212 31,126 137,159 180,206 49,55 272,321 339,389 988,1018 1597,565 5119,375l-9 -14642c-2078,-179 -4515,31 -6077,910l266 6659c78,1939 -49,1848 -491,2427 -4224,494 -3200,-3451 -3200,-9996 -2075,-179 -4490,23 -6070,910z"/>
   <path class="fil0 str0" d="M83974 113664l-7 12194c1960,453 3059,353 5028,-11l-422 -12233c-1895,714 -2892,719 -4599,50z"/>
   <path class="fil0" d="M86229 102075c3588,0 6497,2908 6497,6496 0,3588 -2909,6497 -6497,6497 -3588,0 -6497,-2909 -6497,-6497 0,-3588 2909,-6496 6497,-6496zm0 1069c2998,0 5427,2430 5427,5427 0,2998 -2429,5428 -5427,5428 -2997,0 -5427,-2430 -5427,-5428 0,-2997 2430,-5427 5427,-5427z"/>
   <circle class="fil1 str1" cx="86229" cy="108571" r="4442"/>
  </g>
 </g>
</svg>
